<svg id="Grupo_146" data-name="Grupo 146" xmlns="http://www.w3.org/2000/svg" width="96.183" height="41.385" viewBox="0 0 96.183 41.385">
  <path id="Trazado_365" data-name="Trazado 365" d="M373.159,141.383a3.1,3.1,0,0,0,1.268-.317l.373-.205h-.988a1.473,1.473,0,0,0-1.212.5h.559" transform="translate(-354.705 -140.858)" fill="#adadb1"/>
  <path id="Trazado_366" data-name="Trazado 366" d="M368.543,148.289a6.379,6.379,0,0,0,.485.857,1.752,1.752,0,0,0,1.64.764c.354,0,.354-.149.354-.149a1.6,1.6,0,0,0,1.044.373,7.617,7.617,0,0,1-.391-1.044,1.864,1.864,0,0,1,0-.652,2.871,2.871,0,0,1,.578-1.081,1.044,1.044,0,0,1,1.212-.149,2.069,2.069,0,0,1,.429,2.237c0,.093-.41.913-.82,1.044h-.112a2.385,2.385,0,0,1-.8-.3,1.021,1.021,0,0,0,0,.373,3.992,3.992,0,0,0,.168.5l-.168.3c-.093.112-.205.5,0,.671a4.361,4.361,0,0,0,1.864.69.951.951,0,0,0,.857-.392,10.477,10.477,0,0,1,1.267-1.584,7.1,7.1,0,0,1,3.15-1.51c.13,0,2.144-.578,5.592,2.144a19.19,19.19,0,0,0-3.038.466,7.176,7.176,0,0,0-4.623,3.728,2.293,2.293,0,0,0,1.267,3.393,4.623,4.623,0,0,0,3.542-2.722,1.249,1.249,0,0,1,1.547-.764c.727.242,7.176,2.5,8.63,2.871,0,0,4.306,1.118,5.946-.857,2.591.857,5.014,1.268,11.408.447a12.493,12.493,0,0,1,1.976-.112,4.623,4.623,0,0,1,3.262,1.771c1.7,2.666,3.821,7.978,11.184,7.344l3.337-.3a9.674,9.674,0,0,1,5.406.671,7.715,7.715,0,0,1,2.367,1.715c1.715,1.622,3.281,3.355,5.368,2.423a5.593,5.593,0,0,0,1.566-1.659,2.33,2.33,0,0,0-1.007-1.678c1.864.447,6.151.727,7.81-2.144a1.864,1.864,0,0,0,.317-1.64c-.466-1.007-1.715-.671-1.715-.671-.6.131-1.267.8-2.255,1.1a6.226,6.226,0,0,1-3.9-.112c-3.318-1.435-14-7.456-19.423-10.178,0,0-6.3-2.927-15.471-6.524,0,0-17.988-7.642-29.992-7.027,0,0-6.394.168-8.407,2.982a.839.839,0,0,0-.149.82.186.186,0,0,1,0,.186,11.634,11.634,0,0,0-1.64,1.864.951.951,0,0,0,0,1.193l.261.261m.6-.969a2.759,2.759,0,0,1,2.013-1.678l.708-.093a3.43,3.43,0,0,0,2.274-1.864,10.851,10.851,0,0,0-1.547,0c-1.007.186-1.361,1.379-1.361,1.361-.857.224-.857-.541-.69-.764s.634-1.081,3.97-1.864a17.578,17.578,0,0,1,5.145-.336l-.149.261a3.206,3.206,0,0,1-3.579,1.361s0,.895,2.237,1.212a13.923,13.923,0,0,1,5.368,3.057,8.649,8.649,0,0,0-4.362-4.026s-.336,0-.168-.28a6.748,6.748,0,0,1,3.877-1.64s7.456-.708,11.482,4.921a22.156,22.156,0,0,0-2.162-3.43s4.287,1.212,10.886,3.5c0,0,4.511,1.584,7.456,2.721a197.765,197.765,0,0,1,19.833,8.668c1.1.6,12.321,6.431,12.321,6.431a7.269,7.269,0,0,0,5.275.559c.69-.28,1.957-1.249,2.516-.69a.969.969,0,0,1,.186,1.044,3.728,3.728,0,0,1-1.864,1.734,10.047,10.047,0,0,1-4.381.373,7.922,7.922,0,0,1-4.473-2.423c-.671-.69-1.473-1.454-2.218-2.237a4.268,4.268,0,0,0-2.5-1.324,49.113,49.113,0,0,1-6.1-.708,6.338,6.338,0,0,1-3.281-2.908,5.593,5.593,0,0,0-2.05-1.864,5.165,5.165,0,0,1,1.081,1.249c.559,1.007.876,1.752,1.174,2.274a4.605,4.605,0,0,0,1.174,1.454,3.113,3.113,0,0,0,1.771.727,38.252,38.252,0,0,0,4.94,0,4.6,4.6,0,0,1,3.448,1.118c.578.5,1.585,1.864,2.218,2.516a8.8,8.8,0,0,0,2.74,2.237c.5.242,1.323.876,1.286,1.473-.652.652-1.473.839-3.43.317a2.852,2.852,0,0,0,2.927.708,2.274,2.274,0,0,1-1.6.578c-1.864,0-3.635-2.349-4.623-3.169a24.048,24.048,0,0,0-2.162-1.7c-1.976-1.361-6.394-.969-6.394-.969l-3.262.168c-6.338.485-9-5.107-9.693-6.282a11.729,11.729,0,0,0-.671-1.007,12.081,12.081,0,0,0-3.821-3.392s1.733,1.473,1.64,2.442a5.592,5.592,0,0,0-2.665,0c-8.332,1.174-11.184-.895-11.184-.895a5.014,5.014,0,0,0-.783-3.393,18.064,18.064,0,0,0,8.63.8,19.33,19.33,0,0,1-10.774-3.486s2.759,3.448,2.106,5.7c0,0-.447,2.4-5.275,1.435-.522-.093-1.119-.261-8.332-2.274-1.7-.485-2.293.317-2.591.8a2.834,2.834,0,0,1-1.286,1.864,1.678,1.678,0,0,1-1.342-2.46c-1.4,1.994,0,2.889.522,2.945a4.044,4.044,0,0,1-.746.317,2.088,2.088,0,0,1-.82-2.852,6.077,6.077,0,0,1,5.592-3.5,12.823,12.823,0,0,1,2.852-.093c1.864.261,3.15,1.342,6.021,1.622-6.114-1.864-6.133-5.331-6.151-5.387h0a4.68,4.68,0,0,0,.149,2.982,20.4,20.4,0,0,1-1.864-1.23,11.576,11.576,0,0,0-3.933-1.566c-.727,0-1.081-.969-1.081-.969a.392.392,0,0,0,0-.13c-1.025-1.734-2.032-1.752-2.032-1.752a3.43,3.43,0,0,1,.578,1.864c.3,2.144-2.125,2.815-2.125,2.815-1.491,1.864-1.435,1.864-1.752,1.976a2.926,2.926,0,0,1-1.063-.336.353.353,0,0,1,0-.354l.5-.429c1.585-1.622,1.771-2.4,1.566-3.448-.391-2.088-1.864-1.864-1.864-1.864a1.286,1.286,0,0,0-1.025.671c-.242.391-.764,1.566-.764,1.566-.335.708-.671.857-.839.895h-.261a1.435,1.435,0,0,1-.895-.466h0a1.063,1.063,0,0,1-.13-1.156m2.423-2.237v-.242s.205-.541.671-.578a5.243,5.243,0,0,1,.671,0,1.249,1.249,0,0,1-.988.783,3.187,3.187,0,0,1-.429,0" transform="translate(-358.682 -140.83)" fill="#adadb1"/>
  <path id="Trazado_367" data-name="Trazado 367" d="M374.389,165.1a3.28,3.28,0,0,0,.839-2.5V158.87H372.32v3.486a2.908,2.908,0,0,1-.727,2.181,4.7,4.7,0,0,1-3.374.913H363v1.118h5.723c2.7,0,4.623-.373,5.592-1.4" transform="translate(-363 -125.296)" fill="#adadb1"/>
  <path id="Trazado_368" data-name="Trazado 368" d="M408.389,164.863l1.4,1.622h3.188l-6.655-7.605h-2.8L397,166.56h1.64l1.417-1.622Zm-4.231-4.884,3.374,3.9h-6.8Z" transform="translate(-333.624 -125.287)" fill="#adadb1"/>
  <path id="Trazado_369" data-name="Trazado 369" d="M383.14,166.525h3.187l-6.636-7.605h-2.815l-6.617,7.605h1.64l1.4-1.622h8.444Zm-8.985-2.61,3.355-3.9,3.374,3.9Z" transform="translate(-356.727 -125.252)" fill="#adadb1"/>
  <path id="Trazado_370" data-name="Trazado 370" d="M419.438,163.227a2.069,2.069,0,0,0,1.063-1.864,2.032,2.032,0,0,0-1.286-2.032,8.8,8.8,0,0,0-3.467-.429H406.93v7.661h2.833v-2.628h3.728l4.269,2.628h3.467l-4.474-2.7a6.02,6.02,0,0,0,2.684-.559m-9.674-.336v-3.057h5.592a3.113,3.113,0,0,1,1.864.335,1.3,1.3,0,0,1,.41,1.137v.149a1.249,1.249,0,0,1-.485,1.137,3.132,3.132,0,0,1-1.752.3Z" transform="translate(-325.044 -125.29)" fill="#adadb1"/>
  <path id="Trazado_371" data-name="Trazado 371" d="M388.727,158.88v3.728a3.728,3.728,0,0,0,.615,2.4c.8,1.063,2.293,1.659,6.393,1.659h0c4.138,0,5.592-.6,6.412-1.659a3.727,3.727,0,0,0,.615-2.4V158.88h-2.852v3.728a3.467,3.467,0,0,1-.485,2.088c-.615.857-1.584,1.174-3.6,1.174h-.242c-1.864,0-2.964-.317-3.579-1.174a3.3,3.3,0,0,1-.485-2.088V158.88Z" transform="translate(-340.784 -125.287)" fill="#adadb1"/>
  <path id="Trazado_372" data-name="Trazado 372" d="M386.193,159.9h7.1v-1.007h-7.978a8.052,8.052,0,0,0-4.138.783,3.5,3.5,0,0,0,.5,6.282,10.383,10.383,0,0,0,3.728.541h8.108v-3.5h-2.833v2.5h-4.53a4.641,4.641,0,0,1-2.964-.708,2.461,2.461,0,0,1-.913-2.088,2.517,2.517,0,0,1,.857-2.051,4.492,4.492,0,0,1,2.982-.746" transform="translate(-348.782 -125.298)" fill="#adadb1"/>
</svg>
