<svg id="Grupo_141" data-name="Grupo 141" xmlns="http://www.w3.org/2000/svg" width="85.979" height="38.603" viewBox="0 0 85.979 38.603">
  <path id="Trazado_464" data-name="Trazado 464" d="M662.042,155.7a5.989,5.989,0,0,0-1.211,3.113,2.759,2.759,0,0,0,.841,2.339c1.514,1.329,3.6,1.111,5.468,1.111h15.345a1.211,1.211,0,0,0,1.195-.656,10.483,10.483,0,0,0,1.783-5.7c0-3.887-2.541-8.766-8.934-10.97l-.724,1.026c5.048,2.389,7.185,5.536,7.185,9.927a6.427,6.427,0,0,1-1.06,3.634H667.006c-.892,0-1.01-1.01-.69-1.565a56.586,56.586,0,0,1,4.24-6.528c1.5-2.019,2.995-3.887,4.543-5.855.421-.538.151-1.06-.69-1.245a28.131,28.131,0,0,0-5.771-.606c-12.232,0-16.708,7-16.708,12.182,0,5.62,4.509,12.165,16.741,12.165,6.73,0,11.239-2.187,13.814-5.048h-2.608a16.522,16.522,0,0,1-11.206,3.533c-10.364,0-14.184-5.8-14.184-10.8,0-4.442,4.173-10.6,14.436-10.8.387,0,.69.337.421.673-1.682,2.154-6.73,9.1-7.336,10.1" transform="translate(-625.514 -143.72)" fill="#adadb1"/>
  <path id="Trazado_465" data-name="Trazado 465" d="M718.877,164.52h-9.826a2.439,2.439,0,0,1,2.2-2.187H721.2v-2.07H710.666a6.141,6.141,0,0,0-6.074,5.956.342.342,0,0,0,.387.37h11.946a1.211,1.211,0,0,1,1.094,1.144,1.245,1.245,0,0,1-1.3,1.161H703.566v-8.564H699.7v8.581h-7.151c-1.935,0-2.322-1.161-2.322-2.238v-6.41H683.8c-.639.437-1.245.909-1.9,1.312l-3.8,2.339-5.048-3.617H658.086a7.3,7.3,0,0,0-4.61,1.4,5.856,5.856,0,0,0-2.625,4.021h2.625a6.326,6.326,0,0,0-2.339,3.079h-8.564a2.372,2.372,0,0,1-2.541-2.171V160.23h-3.8v6.73c0,2.389,2.271,4.038,5.923,4.038h28.872c.606-.4,1.161-.824,1.8-1.211l3.92-2.356,4.964,3.533h5.653l-7.47-5.62,3.836-2.49c.824-.538,1.682-.993,2.524-1.481v5.637c0,2.389.606,4.038,5.418,4.038h27.173a3.18,3.18,0,0,0,3.365-3.163,3.365,3.365,0,0,0-3.365-3.163m-48.592,4.19H656.185a2.49,2.49,0,0,1,2.271-2.187h8.867v-2.2h-11.29c-.135-.639,1.077-1.9,2-1.9h10.1v-1.195l6.562,4.694Z" transform="translate(-636.23 -132.451)" fill="#adadb1"/>
</svg>
