<svg id="Grupo_131" data-name="Grupo 131" xmlns="http://www.w3.org/2000/svg" width="99.59" height="44.347" viewBox="0 0 99.59 44.347">
  <path id="Trazado_322" data-name="Trazado 322" d="M535.153,96.325h16.115c.5,0,.669.217.669.669v2.357a.936.936,0,0,0,1.036,1.036h18.171a.936.936,0,0,0,1.037-1.036V96.994c0-.468.2-.669.669-.669h10.03a1.538,1.538,0,0,0,1.538-.836l5.015-9.8a1.138,1.138,0,0,0,.184-.568.9.9,0,0,0-.97-.919H572.766c-.418,0-.669-.1-.669-.669V81.18a.936.936,0,0,0-1.036-1.036H552.973a.92.92,0,0,0-1.037,1.036v2.357c0,.5-.234.669-.669.669H540.853a1.521,1.521,0,0,0-1.488.886L534.35,95a.851.851,0,0,0-.1.418.886.886,0,0,0,.969.9m4-3.945,2.424-4.731c0-.184.251-.284.6-.284h12.22c.435,0,.685-.167.685-.685V83.972c0-.485.217-.685.685-.685h12.588c.451,0,.669.2.669.685V86.7c0,.451.217.669.7.669h14.46a.535.535,0,0,1,.6.535.4.4,0,0,1,0,.251L582.311,92.9a.6.6,0,0,1-.6.267H569.723c-.5,0-.7.217-.7.685v2.775c0,.435-.184.652-.669.652H555.765c-.418,0-.685-.134-.685-.669V93.851c0-.5-.217-.685-.685-.685H539.7a.535.535,0,0,1-.6-.535.551.551,0,0,1,0-.251" transform="translate(-512.812 -80.135)" fill="#adadb1"/>
  <path id="Trazado_323" data-name="Trazado 323" d="M558.06,81.8h.217l.318.485h.184l-.334-.5c.2,0,.351,0,.351-.318s-.2-.3-.4-.3h-.485v1.12h.15Zm0-.485h.3c.117,0,.267,0,.267.15s0,.2-.267.2h-.3Z" transform="translate(-496.919 -79.446)" fill="#adadb1"/>
  <path id="Trazado_324" data-name="Trazado 324" d="M558.493,82.883a.986.986,0,1,0-.708-.283.986.986,0,0,0,.708.283m0-1.822a.836.836,0,1,1-.836.836.836.836,0,0,1,.836-.836" transform="translate(-497.202 -79.614)" fill="#adadb1"/>
  <path id="Trazado_325" data-name="Trazado 325" d="M522.046,44.147h4.279v6.386h2.992V36.24h-2.992v5.734h-4.279V36.24H519.07V50.533h2.976Z" transform="translate(-508.966 -6.225)" fill="#adadb1"/>
  <path id="Trazado_326" data-name="Trazado 326" d="M570.016,50.533h2.992V38.43h4.045V36.24H565.97v2.19h4.046Z" transform="translate(-477.463 -6.225)" fill="#adadb1"/>
  <path id="Trazado_327" data-name="Trazado 327" d="M557.746,36.24H554.77V50.533H563.3V48.36h-5.55Z" transform="translate(-484.986 -6.225)" fill="#adadb1"/>
  <path id="Trazado_328" data-name="Trazado 328" d="M545.332,112.393h2.758a1.488,1.488,0,0,0,1.538-1.237L553.206,98.1h-2.625l-3.093,11.919c0,.134-.151.184-.318.184a.334.334,0,0,1-.318-.2l-3.143-11.9h-3.46l3.594,13.022a1.455,1.455,0,0,0,1.555,1.27" transform="translate(-508.781 -68.068)" fill="#adadb1"/>
  <path id="Trazado_329" data-name="Trazado 329" d="M523.707,112.4h6.687v-2.173h-4.831c-.836,0-1.1-.2-1.1-1.1v-7.74c0-.853.217-1.087,1.1-1.087h4.815v-2.19H523.69a1.972,1.972,0,0,0-2.24,2.223v9.83a1.956,1.956,0,0,0,2.223,2.24" transform="translate(-521.426 -68.076)" fill="#adadb1"/>
  <path id="Trazado_330" data-name="Trazado 330" d="M538.741,100.282h4.848V98.109H536.9a1.956,1.956,0,0,0-2.223,2.223v9.83a1.973,1.973,0,0,0,2.223,2.24h7.372v-2.19h-5.517c-.836,0-1.087-.184-1.087-1.087V106h5.918v-2.173h-5.918v-2.457c0-.819.167-1.087,1.087-1.087" transform="translate(-512.538 -68.076)" fill="#adadb1"/>
  <path id="Trazado_331" data-name="Trazado 331" d="M558.752,104.127v-3.795a1.956,1.956,0,0,0-2.224-2.223H548.17V112.4h3.059v-12.12h3.477c.919,0,1.087.267,1.087,1.087v1.672c0,.853-.234,1.1-1.1,1.1h-1.672a.9.9,0,0,0-.986,1,1.556,1.556,0,0,0,.267.752l3.778,6.419h3.694L555.86,106.3h.669a1.956,1.956,0,0,0,2.223-2.223" transform="translate(-503.462 -68.076)" fill="#adadb1"/>
  <path id="Trazado_332" data-name="Trazado 332" d="M560.995,112.4h3.343a1.973,1.973,0,0,0,2.223-2.24v-9.83a1.956,1.956,0,0,0-2.224-2.223h-6.57a1.973,1.973,0,0,0-2.24,2.223v9.83a1.973,1.973,0,0,0,2.24,2.24Zm-2.541-11.033c0-.736.1-1.087,1.087-1.087h2.892c.769,0,1.087.134,1.087,1.087v7.757c0,.9-.284,1.087-1.087,1.087h-2.892c-.853,0-1.087-.234-1.087-1.087Z" transform="translate(-498.533 -68.076)" fill="#adadb1"/>
  <path id="Trazado_333" data-name="Trazado 333" d="M570.9,112.4h7.356v-2.173h-5.517c-.836,0-1.087-.184-1.087-1.1v-3.109h5.918v-2.173h-6v-2.457c0-.819.184-1.087,1.087-1.087h4.931v-2.19H570.9a1.956,1.956,0,0,0-2.223,2.223v9.83a1.973,1.973,0,0,0,2.24,2.24" transform="translate(-489.701 -68.076)" fill="#adadb1"/>
</svg>
