<svg id="Grupo_143" data-name="Grupo 143" xmlns="http://www.w3.org/2000/svg" width="75.732" height="38.143" viewBox="0 0 75.732 38.143">
  <path id="Trazado_358" data-name="Trazado 358" d="M557.683,159.19h-1.06L556,161.125h1.009a2.625,2.625,0,0,0,.673-.135.907.907,0,0,0,.488-.3,1.347,1.347,0,0,0,.32-.538.841.841,0,0,0,0-.707q-.152-.252-.808-.252" transform="translate(-496.976 -136.711)" fill="#adadb1"/>
  <path id="Trazado_359" data-name="Trazado 359" d="M548.342,157.61a2.423,2.423,0,0,0,1.111-.2,2.3,2.3,0,0,0,.74-.724,8.832,8.832,0,0,0,.774-1.683,4.12,4.12,0,0,0,.337-2.086c-.135-.387-.5-.555-1.11-.555h-.572l-1.851,5.233Z" transform="translate(-502.593 -141.373)" fill="#adadb1"/>
  <path id="Trazado_360" data-name="Trazado 360" d="M536.373,159.19h-1.06l-.622,1.935h1.01a2.906,2.906,0,0,0,.673-.135.976.976,0,0,0,.488-.3,1.345,1.345,0,0,0,.32-.538.841.841,0,0,0,0-.707c-.118-.168-.37-.252-.808-.252" transform="translate(-511.521 -136.711)" fill="#adadb1"/>
  <path id="Trazado_361" data-name="Trazado 361" d="M530.876,90.7l-2.036,3.449h1.666Z" transform="translate(-501.381 -79.393)" fill="#adadb1"/>
  <path id="Trazado_362" data-name="Trazado 362" d="M557.982,147.09c-19.753,0-35.872,7.622-35.872,16.96s16.119,16.96,35.872,16.96,35.855-7.622,35.855-16.96-16.1-16.96-35.855-16.96m16.237,12.316.673-1.985,6.528-.1-1.312,2.019-6.427,3.045,3.365-3.079Zm-5.182-5.62a2.775,2.775,0,0,1,1.548.353,1.683,1.683,0,0,1,.673,1.01,4.223,4.223,0,0,1,0,1.548,10.3,10.3,0,0,1-.471,1.851,11.527,11.527,0,0,1-1.11,2.389,6.921,6.921,0,0,1-1.262,1.413,3.818,3.818,0,0,1-1.329.774,5.336,5.336,0,0,1-1.464.252h-3.466l3.365-9.591Zm-19.787,0h2.541l-.538,9.591h-2.406l.185-1.582h-2.709l-.925,1.582h-2.372Zm-9.809,0h2.322l-2.524,7.235h3.634l-.824,2.356h-5.99Zm-1.481,17.095-6.528.118,1.3-2.019,6.444-3.062-3.365,3.1,2.877-.118Zm10.3-2.709a4.355,4.355,0,0,1-.707,1.363,3.924,3.924,0,0,1-1.06.925,3.164,3.164,0,0,1-.959.37,2.489,2.489,0,0,1,.5.353,1.9,1.9,0,0,1,.219.5,2.139,2.139,0,0,1,.135.589l.269,2.759h-2.692l-.336-2.911a1.8,1.8,0,0,0-.2-.723.606.606,0,0,0-.5-.236H542.7l-1.262,3.87h-2.389l3.1-9.506h3.988a4.14,4.14,0,0,1,1.683.236,1.2,1.2,0,0,1,.673.875,2.829,2.829,0,0,1-.151,1.531m8.968,2.036a9.063,9.063,0,0,1-1.346,2.743,5.989,5.989,0,0,1-1.851,1.683,4.779,4.779,0,0,1-2.339.589,3.365,3.365,0,0,1-2-.5,2.457,2.457,0,0,1-.858-1.683,6.023,6.023,0,0,1,.37-2.776,8.009,8.009,0,0,1,2.238-3.617,4.879,4.879,0,0,1,3.365-1.3,2.558,2.558,0,0,1,2.558,1.262,4.779,4.779,0,0,1-.118,3.567m.5-6.831-.976-5.266L555,163.344h-2.187l3.365-9.591h2.187l.976,5.317,1.851-5.317h2.2l-3.365,9.591ZM559.513,175l.168-9.506h2.507l-.488,6.848,3.937-6.848h2.423L562.1,175Zm14.386-4.021H570.18l-.606,1.868H573.7L572.99,175h-6.511l3.1-9.506h6.192l-.656,2.036h-4l-.5,1.514h3.718Zm10.348-2.844a4.391,4.391,0,0,1-.723,1.363,3.686,3.686,0,0,1-1.06.925,3.167,3.167,0,0,1-.959.37,1.786,1.786,0,0,1,.5.353,1.885,1.885,0,0,1,.219.5,3.39,3.39,0,0,1,.151.589l.252,2.759h-2.692l-.336-2.911a1.548,1.548,0,0,0-.2-.723.606.606,0,0,0-.5-.236h-.219L577.416,175h-2.389l3.1-9.506h3.971a4.272,4.272,0,0,1,1.682.236,1.178,1.178,0,0,1,.656.875,2.963,2.963,0,0,1-.135,1.531" transform="translate(-520.108 -144.97)" fill="#adadb1"/>
  <path id="Trazado_363" data-name="Trazado 363" d="M542.217,159.282a1.952,1.952,0,0,0-1.363.622,5.5,5.5,0,0,0-1.127,2.086,3.771,3.771,0,0,0-.236,2.07.959.959,0,0,0,.993.622,1.934,1.934,0,0,0,1.4-.623,5.6,5.6,0,0,0,1.127-2.2,3.028,3.028,0,0,0,.2-1.952.959.959,0,0,0-.993-.622" transform="translate(-508.28 -136.652)" fill="#adadb1"/>
  <path id="Trazado_364" data-name="Trazado 364" d="M558.794,145.83c-20.864,0-37.874,8.581-37.874,19.08s16.96,19.063,37.874,19.063,37.857-8.564,37.857-19.063-17.011-19.08-37.857-19.08m0,37.016c-20.393,0-37.016-8.059-37.016-17.953s16.64-17.953,37.016-17.953S595.81,155,595.81,164.893s-16.64,17.953-37.016,17.953" transform="translate(-520.92 -145.83)" fill="#adadb1"/>
</svg>
