<svg id="Grupo_148" data-name="Grupo 148" xmlns="http://www.w3.org/2000/svg" width="76.741" height="45.394" viewBox="0 0 76.741 45.394">
  <path id="Trazado_407" data-name="Trazado 407" d="M253.385,147.323a8.063,8.063,0,0,0-1.127,7.14,10.961,10.961,0,0,0,3.57,5.058,24.584,24.584,0,0,0,7.2,4.149,47.287,47.287,0,0,0,15.878,3.132,57.934,57.934,0,0,0,7.908-.3,49.93,49.93,0,0,0,8.048-1.566,32.193,32.193,0,0,0,9.661-4.275,15.142,15.142,0,0,0,4.572-4.7,8.064,8.064,0,0,0,1.1-6.044,9.738,9.738,0,0,0-2.537-4.572,20.7,20.7,0,0,0-6.514-4.541,37.909,37.909,0,0,0-9.082-2.9,49.139,49.139,0,0,0-6.624-.877l-1.566-.125h-5.12c-.83,0-1.66.078-2.49.157a52.219,52.219,0,0,0-7.829,1.3,34.651,34.651,0,0,0-9.99,4.024,15.815,15.815,0,0,0-5.183,4.791m33.916,10.256a9.959,9.959,0,0,1-3.367,6.013,4.071,4.071,0,0,1-2.38.908,8.56,8.56,0,0,0-1.566.078,50.906,50.906,0,0,1-6.263-.517,45,45,0,0,1-6.091-1.19c-.689-.188-1.362-.423-2.02-.658s-.564-.564-.11-.924a35.686,35.686,0,0,1,14.562-6.858,14.375,14.375,0,0,1,4.243-.485,2.944,2.944,0,0,1,3.006,3.633m13.591-11.211.7-1.394c.313-.579.626-.72,1.206-.423a8.6,8.6,0,0,1,4.995,6.639,4.832,4.832,0,0,1,0,.673,6.544,6.544,0,0,1-1.566,4.149,14.5,14.5,0,0,1-4.7,3.868,31.458,31.458,0,0,1-9.865,3.429c-.141,0-.423,0-.438-.094a.658.658,0,0,1,0-.548c.438-.642.924-1.253,1.409-1.879a55.8,55.8,0,0,0,4.463-7.109c1.3-2.411,2.474-4.87,3.711-7.312m-23.268-5.606a5.417,5.417,0,0,1,3.93-1.644,41.5,41.5,0,0,1,11.368,1.284c1.018.235,2.02.564,3.022.877a4.691,4.691,0,0,1,.893.438.517.517,0,0,1,.078.861,2.972,2.972,0,0,1-.642.532,59.72,59.72,0,0,1-12.417,5.887,19.763,19.763,0,0,1-5.1,1.065,5.151,5.151,0,0,1-2.223-.36,2.678,2.678,0,0,1-1.456-2.865,9.928,9.928,0,0,1,2.552-6.075m-8.424-.157a7.078,7.078,0,0,1,1.832-.172c.517,0,.626.251.313.658-.846,1.143-1.722,2.223-2.568,3.351a52.875,52.875,0,0,0-7.344,13.184,5.863,5.863,0,0,1-.626,1.253.971.971,0,0,1-1.331.438,5.591,5.591,0,0,1-1.863-1.253,10.961,10.961,0,0,1-2.912-4.134c-.219-.642-.3-1.347-.454-2h.078a6.874,6.874,0,0,1,1.8-4.353,15.909,15.909,0,0,1,4.353-3.476,35.575,35.575,0,0,1,8.722-3.46" transform="translate(-242.001 -136.91)" fill="#adadb1"/>
  <path id="Trazado_408" data-name="Trazado 408" d="M285.994,158.744a4.277,4.277,0,0,0-.642,0h-8.5v11.164h9.223l.36-.141a1.754,1.754,0,0,0,1.237-1.441,3.869,3.869,0,0,0,.078-.846v-6.467c0-1.394-.548-2.036-1.722-2.255m-1.566,7.406c0,.814-.266,1.018-1.049,1.033h-3.194v-5.809h3.46c.485,0,.689.251.767.736a1.562,1.562,0,0,1,0,.47v3.57" transform="translate(-227.871 -124.562)" fill="#adadb1"/>
  <path id="Trazado_409" data-name="Trazado 409" d="M295.475,159.142v-.391h-8.393a2.286,2.286,0,0,0-2.3,2.333q0,4.416,0,8.831h3.132V167.44h4.29v2.443h3.257a3.3,3.3,0,0,1,0-.391v-10.35m-3.241,5.543h-4.275v-2.443a.72.72,0,0,1,.72-.736h3.554Z" transform="translate(-223.384 -124.552)" fill="#adadb1"/>
  <path id="Trazado_410" data-name="Trazado 410" d="M271.616,158.69h-2.662c-.3,0-.376.11-.376.391v7.312c0,.642-.188.814-.8.814h-3.46v-8.471H261v11.2h9.489a1.707,1.707,0,0,0,1.566-1.566,4.7,4.7,0,0,0,0-.814v-8.737h-.376" transform="translate(-236.839 -124.586)" fill="#adadb1"/>
  <path id="Trazado_411" data-name="Trazado 411" d="M279.848,163.257v-2.6a1.832,1.832,0,0,0-1.378-1.769,5.572,5.572,0,0,0-1.331-.188H268.95v11.164h3.21v-8.487h3.492a.658.658,0,0,1,.752.752v7.626a.566.566,0,0,1,0,.157h3.461a.834.834,0,0,1,0-.188v-6.467" transform="translate(-232.341 -124.58)" fill="#adadb1"/>
  <path id="Trazado_412" data-name="Trazado 412" d="M253.2,158.69c-.219,0-.188.157-.188.3v3.7h-4.275V158.69H245.57v11.258H248.7v-4.4h4.29v4.4h3.32a.2.2,0,0,0,0-.094V158.988a2.412,2.412,0,0,0,0-.266H253.18" transform="translate(-245.57 -124.586)" fill="#adadb1"/>
  <path id="Trazado_413" data-name="Trazado 413" d="M262.075,158.7a.439.439,0,0,0-.313.219c-.83,1.127-1.566,2.286-2.458,3.429a1.561,1.561,0,0,1-.219.282l-.188-.282c-.736-1.127-1.487-2.255-2.223-3.4a.454.454,0,0,0-.407-.235H252.79l.25.36c1.206,1.816,2.364,3.648,3.633,5.418a3.6,3.6,0,0,1,.7,2.411v3.038h3.32v-4.118a1,1,0,0,1,.156-.517c1.441-2.083,2.881-4.181,4.337-6.263l.172-.282h-3.257" transform="translate(-241.485 -124.58)" fill="#adadb1"/>
  <path id="Trazado_414" data-name="Trazado 414" d="M292.58,159.136v10.8h3.132V158.76h-2.693c-.329,0-.407.11-.407.438" transform="translate(-218.97 -124.546)" fill="#adadb1"/>
</svg>
