<svg id="Grupo_162" data-name="Grupo 162" xmlns="http://www.w3.org/2000/svg" width="58.758" height="58.758" viewBox="0 0 58.758 58.758">
  <path id="Trazado_503" data-name="Trazado 503" d="M101.8,89.568a.555.555,0,1,0-.555-.555.555.555,0,0,0,.555.555Zm2.116,0a.555.555,0,1,0-.561-.241A.555.555,0,0,0,103.919,89.568Zm-5.324,7.353a1.179,1.179,0,0,0,.832-.347.572.572,0,0,1,.364-.156c.1,0,.156,0,.156.191,0,.728-.173,2.237-.52,2.428h-.295c-.33.087-.5.434-.607.624v.121h.1a3.249,3.249,0,0,0,.555,0,1.283,1.283,0,0,0,.989-.468,3.139,3.139,0,0,0,.694-1.162,4.873,4.873,0,0,1,1.734-2.307h0a4.839,4.839,0,0,1-1.734-2.324,3.209,3.209,0,0,0-.694-1.145,1.283,1.283,0,0,0-.989-.468,3.243,3.243,0,0,0-.555,0h-.1v.121c.1.191.277.538.607.624h.26c.347.191.52,1.734.52,2.428,0,.139,0,.191-.156.191a.572.572,0,0,1-.364-.156,1.11,1.11,0,0,0-.832-.347,1.075,1.075,0,0,0-1.11.954v.121a1.075,1.075,0,0,0,1.11.954Zm7.579-6.8h-4.544a.364.364,0,0,0-.382.364.382.382,0,0,0,.382.382h4.544a.382.382,0,0,0,.382-.382.364.364,0,0,0-.382-.364ZM125.979,105.4H125.6c-1.266,0-2.289-1.127-2.584-2.81s.5-3.365,1.908-3.607a1.3,1.3,0,0,1,.364,0c1.231,0,2.307,1.145,2.567,2.81S127.384,105.16,125.979,105.4Zm-6.035-11.811,3.469-1.873a.971.971,0,0,0,.416-.572l2.549,4.891-.971.52-1.734-3.469-.572.312,1.214,2.359-.971.52-1.214-2.359-.624.347,1.838,3.469-.954.52ZM102.219,124.22a18.939,18.939,0,1,1,18.939-18.939A18.939,18.939,0,0,1,102.219,124.22ZM82.431,98.014l-3.642-1.908a1.127,1.127,0,0,0-.347,0,.832.832,0,0,0-.364.087l.78-1.544,3.208,1.734,1.561-3.1.989.52-2.185,4.353Zm-.642,2.376-.885.295-.434,2.862.746.555-.208,1.387-3.729-2.966a.729.729,0,0,0-.278,0,.468.468,0,0,0-.312.121l.295-1.942,5.03-1.734ZM85.5,85.753l.8.763-2.567,2.792L84.46,90l1.734-1.925.8.763-1.734,1.925,1.058,1.023-.937,1.023-2.931-2.827a.954.954,0,0,0-.538-.173h-.121l3.729-4.058Zm4.544-3.018L94.5,85.614l-1.214.694-.78-.5-2.5,1.439v.937l-1.214.694V84.14a.52.52,0,0,0-.416-.434l1.734-.971Zm9.591-3.156h3.815a1.734,1.734,0,0,1,1.821,1.734,1.578,1.578,0,0,1-.867,1.509h0l1.075,1.422h-1.544l-.954-1.2H101.04v1.283H99.67V80.2a.937.937,0,0,0-.364-.624Zm7.8,2.758a2.376,2.376,0,0,1,2.411-1.526,4.249,4.249,0,0,1,1.387.243,3.85,3.85,0,0,1,1.89,1.387,2.289,2.289,0,0,1,.295,2.046,2.376,2.376,0,0,1-2.411,1.544h0a4.6,4.6,0,0,1-1.474-.208,2.862,2.862,0,0,1-2.168-3.469Zm9.331,2.185a.815.815,0,0,0,.208-.676l.33.312h0l1.023.954-.347,2.966,2.844-.642,1.127,1.041-2.879,3.8-1.006-.937,1.734-2.393-3.191.746h-.1l.416-3.33-2.116,2.046-1.006-.954,2.931-2.862Zm-14.551-6.937a27.593,27.593,0,1,1,0,.069Zm0,56.417a28.789,28.789,0,1,1,28.789-28.789A28.79,28.79,0,0,1,102.219,134Zm0-58.151a29.318,29.318,0,1,1,0,.069Zm23.136,24.54h-.208c-.78.139-1.162.919-.989,1.994s.694,1.578,1.37,1.578h.208c.78-.121,1.162-.919.989-1.994S126.031,100.39,125.355,100.39ZM106.069,89.568a.555.555,0,1,0-.555-.555.555.555,0,0,0,.555.555Zm5.55.4a1.214,1.214,0,0,1,.156.607,1.318,1.318,0,0,1-1.318,1.318H108.2a1.734,1.734,0,0,0-1.2.382c-.642.538-.416,1.179-1.734,1.179h-3.607a5.584,5.584,0,0,0,1.873,2.1h4.353a.416.416,0,0,1,.4.26.5.5,0,0,1,0,.156.434.434,0,0,1-.416.347H103.45a3.85,3.85,0,0,0-1.856,2.341h8.03a.954.954,0,0,1,0,1.89h-4.076a5.082,5.082,0,0,0,0,10.146h5.064a.4.4,0,0,1,.4.4.382.382,0,0,1-.4.382h-5.2a3.729,3.729,0,0,0,0,7.44h1.96c1.734,0,2.064.937,2.064,1.908a2.272,2.272,0,0,1-.937,1.526c.694-.26,3.018-1.127,3.018-3.313A3.035,3.035,0,0,0,108.5,116h-3.208a.4.4,0,0,1,0-.8H110.7a4.613,4.613,0,1,0,0-9.227h-5.2a.4.4,0,1,1,0-.78h4.318a6.781,6.781,0,0,0,7.2-6.937,9.833,9.833,0,0,0-5.463-8.273ZM94.831,103.027V89.152A17.933,17.933,0,0,0,90.374,92.1v11.013H84.529a16.547,16.547,0,0,0-.156,2.289,17.971,17.971,0,0,0,.139,2.168H90.3v11.169a17.672,17.672,0,0,0,4.457,2.966V107.484h5.2a5.723,5.723,0,0,1-.278-1.734,5.637,5.637,0,0,1,.642-2.636Zm15.158-18.245a2.272,2.272,0,0,0,.867.173,1.231,1.231,0,0,0,1.249-.815c.26-.763-.225-1.492-1.249-1.856a2.531,2.531,0,0,0-.85-.156,1.231,1.231,0,0,0-1.249.815C108.5,83.706,108.983,84.417,109.989,84.782Zm-6.66-2.758a.624.624,0,0,0,0-1.231h-2.324v1.231ZM91.484,85.146l-1.526-.989V86l1.474-.85ZM79.743,101.1l-1.734.572,1.474,1.11.26-1.734Z" transform="translate(-72.84 -75.85)" fill="#adadb1" fill-rule="evenodd"/>
</svg>
