<svg id="Grupo_135" data-name="Grupo 135" xmlns="http://www.w3.org/2000/svg" width="56.464" height="56.463" viewBox="0 0 56.464 56.463">
  <path id="Trazado_501" data-name="Trazado 501" d="M829.7,123.278c-5.861,5.957-25.359,4.673-28.921,0a61.845,61.845,0,0,1-5.42-29.477c-.153-3.333.938-5.574,3.275-6.742,8.14-3.658,24.4-4.06,31.966-.134,3.1,1.187,4.252,4.195,4.118,8.561a70.447,70.447,0,0,1-5.018,27.791M791.391,93.724c.651-3.965,3.179-6.876,7.259-9.232,8.887-5.88,22.984-5.957,33.154.192a12.929,12.929,0,0,1,6.78,8.619,40.969,40.969,0,0,1-4.271,28.308c-4.961,11.339-31.143,11.492-37.291,1.322-5.286-7.068-7.834-18.847-5.708-29.209Zm23.75,39.609a28.614,28.614,0,1,0-.077,0Zm6.933-38.977h7.2v2.566H826.9v20.168h-2.356V96.9h-2.337Zm-2.873,8.83h-3.256v-6.4h2.011l1.245,2.988Zm2.356,13.924H819.2v-10.9h-3.237v10.879h-2.241V94.356h5.555l2.241,4.5ZM808.609,94.356h2.356V117.34h-2.356Zm-7.891,0h6.838v2.528h-4.482V103.7H806.6v2.528h-3.524v10.936h-2.356Z" transform="translate(-787.1 -76.87)" fill="#adadb1" fill-rule="evenodd"/>
</svg>
