<svg id="Grupo_165" data-name="Grupo 165" xmlns="http://www.w3.org/2000/svg" width="56.147" height="56.147" viewBox="0 0 56.147 56.147">
  <path id="Trazado_428" data-name="Trazado 428" d="M289.043,80.36a28.073,28.073,0,1,0,28.073,28.073A28.073,28.073,0,0,0,289.043,80.36m0,55.359a27.306,27.306,0,1,1,27.286-27.286,27.306,27.306,0,0,1-27.286,27.286" transform="translate(-260.97 -80.36)" fill="#adadb1"/>
  <path id="Trazado_429" data-name="Trazado 429" d="M267.663,90.891h0l1.636-2.02.606-.767a.848.848,0,0,0,.121-.868.828.828,0,0,0-.788-.485.929.929,0,0,0-.687.364c-.242.3-.485.626-.727.909L266.35,89.9l.768.606.444.364" transform="translate(-255.484 -73.845)" fill="#adadb1"/>
  <path id="Trazado_430" data-name="Trazado 430" d="M288.421,81a26.821,26.821,0,1,0,26.8,26.821A26.821,26.821,0,0,0,288.421,81M284.1,82.676l2.5-.283,1.818,5.312,1.818-5.312,2.5.283.283,7.554-2.02-.283-.182-5.029-1.757,5.029h-1.414L285.9,84.918l-.182,5.029-2.02.283ZM267.175,95.138l-.606-.485h0l.121-.141,1.555-2.02,1.818-2.282.343-.444a2.021,2.021,0,0,1,.788-.566,1.838,1.838,0,0,1,1.9.4,1.9,1.9,0,0,1,.5.868,2.122,2.122,0,0,1,0,1.01h.121a2,2,0,0,1,3.13,2.181,3.816,3.816,0,0,1-.828,1.293l-1.959,2.2-1.535,2.02-.1.141h0l-.586-.465-2.282-1.818-2.383-1.9M288.421,124.6a16.743,16.743,0,1,1,11.852-4.9,16.763,16.763,0,0,1-11.852,4.9m15.955-25.428-.949-1.656,3.312-4.4L301.751,95.4l-1.394-1.293,4.484-5.958,1.394,1.293-2.626,3.433,4.181-1.919,1.232,1.535-2.787,3.656,3.918-1.8.969,1.636Z" transform="translate(-260.348 -79.707)" fill="#adadb1"/>
  <path id="Trazado_431" data-name="Trazado 431" d="M268.715,86.954a.828.828,0,0,0-.2-.767.808.808,0,0,0-.929-.2,1.212,1.212,0,0,0-.525.485l-1.777,2.2a1.418,1.418,0,0,0-.121.182l.364.283.929.747.929-1.151c.323-.384.626-.767.929-1.171a1.776,1.776,0,0,0,.4-.606" transform="translate(-256.698 -74.695)" fill="#adadb1"/>
  <path id="Trazado_432" data-name="Trazado 432" d="M267,102.295h15.915V86.38A16.359,16.359,0,0,0,267,102.295" transform="translate(-254.821 -74.222)" fill="#adadb1"/>
  <path id="Trazado_433" data-name="Trazado 433" d="M274.87,110.155A16.359,16.359,0,0,0,290.785,94.26H274.87Z" transform="translate(-246.797 -66.187)" fill="#adadb1"/>
</svg>
