<svg id="Grupo_129" data-name="Grupo 129" xmlns="http://www.w3.org/2000/svg" width="54.825" height="54.811" viewBox="0 0 54.825 54.811">
  <path id="Trazado_544" data-name="Trazado 544" d="M392.31,72.28h54.825v54.811H392.31Zm1.894,1.88v51.051h51.037V74.16Zm25.526,4.117a17.072,17.072,0,1,1-17.072,17.072A17.072,17.072,0,0,1,419.729,78.277Zm0,1.811a15.226,15.226,0,1,1,0,.041Zm8.975,23.755a.59.59,0,1,1,.59-.59A.59.59,0,0,1,428.7,103.844Zm0,0a.521.521,0,1,0-.522-.521A.521.521,0,0,0,428.7,103.844Zm.1-.494.192.316h-.055l-.192-.316h-.151v.316h-.082v-.755h.288a.329.329,0,0,1,.165,0,.164.164,0,0,1,.082.137c0,.124-.1.178-.22.178Zm-.233,0h.123c.1,0,.233,0,.233-.11s-.082-.124-.165-.124h-.192Zm-5.05-4.776a22.631,22.631,0,0,1-3.678,7.63h0a28.821,28.821,0,0,1-2.964-5.489,22.356,22.356,0,0,1-3.678,7.767h0c-.11-.247-3.966-5.2-3.966-10.142V89.86h6.656V87.513h6.628v-2.36h7.891v8.536c0,4.94-3.76,9.867-3.939,10.142h0a27.962,27.962,0,0,1-2.964-5.407Zm-13.024-7.466v7.424a14.328,14.328,0,0,0,2.745,7.411,14.519,14.519,0,0,0,2.745-7.411V91.108Zm6.656-2.347v7.411a14.4,14.4,0,0,0,2.745,7.411,14.4,14.4,0,0,0,2.745-7.411V88.762Zm6.628-2.36v7.452a14.368,14.368,0,0,0,2.745,7.411,14.4,14.4,0,0,0,2.745-7.411V86.4Zm.274.288h4.886v5.942a17.658,17.658,0,0,1-.082,2.5l-4.762-8.44Zm0,3.486,4.117,7.26a16.675,16.675,0,0,1-1.7,3.294,13.407,13.407,0,0,1-2.429-6.779V90.175Zm-6.628-1.139h4.831v5.942a17.917,17.917,0,0,1-.082,2.511Zm0,3.486,4.117,7.26a17.257,17.257,0,0,1-1.7,3.307,13.573,13.573,0,0,1-2.415-6.862V92.481ZM410.782,91.4h4.831v5.942a17.658,17.658,0,0,1-.082,2.5Zm0,3.486,4.117,7.246a17.71,17.71,0,0,1-1.688,3.307,13.462,13.462,0,0,1-2.429-6.779Zm-12.557,20.585h6.862c1.5,0,2.237.274,2.237,1.372s-.851,1.372-1.77,1.468c-.22,0-.165.123,0,.137,1.3.11,2.141.247,2.141,1.441s-.961,1.853-2.9,1.839h-6.642V121.3c.947,0,1.482-.261,1.482-1.29v-2.992c0-.769-.165-1.139-1.372-1.139v-.4Zm3.074,2.662h2.909a1.124,1.124,0,0,0,1.29-1.208c0-.755-.631-1-1.372-1h-1.853c-.768,0-.933.288-.961.659s0,.714,0,1.551Zm0,.618v1.372c0,.727.329.947.988.974a16.73,16.73,0,0,0,2.2,0,1.372,1.372,0,0,0,1.372-1.372c0-.878-.672-1.043-1.5-1.084s-2.141,0-3.06,0Zm6.7-3.28h3.225c-.11,2.182-.165,3.211-.165,4.241s.453,1.564,1.811,1.564,2.223-.494,2.292-1.564,0-2.045,0-2.745-.6-1.016-1.372-1.016v-.425h3.184c0,1.99-.11,3.307-.11,4.364s.082,1.372,1.29,1.372v.48h-2.9v-.823a3.074,3.074,0,0,1-2.635.933c-1.208,0-3.266-.151-3.266-1.88s.069-2.443.069-3.115-.439-.906-1.441-.906v-.412Zm14.931,6.2H418.6v-.494c.988,0,1.372-.316,1.372-1.016v-3.294c0-.755-.439-.988-1.263-.988v-.412h4.213v.412c-.81,0-1.263.233-1.263.988v3.294c0,.7.329,1.016,1.372,1.016v.494Zm.59-3.088c0-2.1,1.015-3.28,4.391-3.28a15.218,15.218,0,0,1,3.705.371v1.715h-1.249c0-1.057-.7-1.606-2.457-1.606s-2.553.576-2.553,2.745.837,2.745,2.553,2.745,2.5-.576,2.5-1.866h1.372c0,1.372-1.18,2.319-3.884,2.319s-4.391-.686-4.391-3.184Zm8.961-3.115h4.186v.412c-.906,0-1.249.206-1.249.919v1.757l2.415-1.757c.494-.357.823-1-.453-1v-.384h3.993v.4a7.41,7.41,0,0,0-3.966,2c1.372,1.125,2.456,2.1,3.1,2.649a2.429,2.429,0,0,0,1.455.755v.4h-2.745s-2.47-2.237-2.745-2.5-.425-.384-.769-.124l-.3.22v.974c0,.741.714,1.016,1.372,1.016v.412h-4.556v-.425c.755,0,1.468-.124,1.468-.974v-3.472c0-.782-.439-.919-1.29-.919v-.412Zm10.787,6.217a.59.59,0,1,1,.59-.59.59.59,0,0,1-.59.59Zm0,0a.521.521,0,1,0-.522-.521.521.521,0,0,0,.522.521Zm.1-.494.206.3h-.1l-.192-.3h-.151v.3h-.082v-.659h.288a.343.343,0,0,1,.165,0,.192.192,0,0,1,.069.151c0,.123-.082.178-.206.178Zm-.233,0h.124c.1,0,.233,0,.233-.11s-.082-.124-.165-.124h-.192Z" transform="translate(-392.31 -72.28)" fill="#adadb1" fill-rule="evenodd"/>
</svg>
