<svg id="Grupo_136" data-name="Grupo 136" xmlns="http://www.w3.org/2000/svg" width="54.507" height="54.464" viewBox="0 0 54.507 54.464">
  <path id="Trazado_445" data-name="Trazado 445" d="M831.18,142.09a27.233,27.233,0,1,0,27.586,27.253A27.233,27.233,0,0,0,831.18,142.09m0,53.408a24.608,24.608,0,0,1-22.316-12.755l.588-.215a35.025,35.025,0,0,0,4.075,5.016,26.058,26.058,0,0,0,17.633,6.994,25.47,25.47,0,0,0,21.708-11.99c.333-.1.451-.255.333-.549a26.627,26.627,0,0,0,3.448-12.657,23.313,23.313,0,0,0-1.058-7.151,28.153,28.153,0,0,0-1.489-3.683.607.607,0,0,1,0-.353.825.825,0,0,1,.255.313,33.057,33.057,0,0,1,1.7,3.664,18.373,18.373,0,0,1,1.587,7.21A26.312,26.312,0,0,1,831.18,195.5m-22.061-13.362L828.4,168.265l-1.646-.94-17.124,14.283a26.294,26.294,0,0,1-3.272-12.245,24.451,24.451,0,0,1,24.392-24.569l-3.487,21.865,1.646.96,2.194-22.825c0-.274.235-.274.235,0l.137,24.079,3.918-2.312-3.742-21.767A24.961,24.961,0,0,1,856.1,169.343a26.254,26.254,0,0,1-3.272,12.323l-17.163-14.283-1.646.94,18.436,13.381c.45.313.313.451-.157.2L831.572,169.95v4.467l20.768,7.935a25.019,25.019,0,0,1-42.28,0l20.807-7.935v-4.487l-21.551,12.441c-.529.274-.647.137-.176-.2m-.51.235a30.7,30.7,0,0,1-2.272-6.661.825.825,0,0,1,0-.313,1.532,1.532,0,0,1,.157.313,31.154,31.154,0,0,0,2.586,6.269Zm48.981-17.633a1.548,1.548,0,0,1-.157-.313,27.917,27.917,0,0,0-7.033-12.265,26.548,26.548,0,0,0-19-8.483,26.175,26.175,0,0,0-26.175,26.175,28.565,28.565,0,0,0,1.685,9.8c.882,2.155,2.41,5.074,2.488,5.211a.748.748,0,0,1,0,.333.823.823,0,0,1-.235-.274,46.742,46.742,0,0,1-2.8-5.29,26.827,26.827,0,1,1,51.155-15.38.951.951,0,0,1,0,.333" transform="translate(-804.26 -142.09)" fill="#adadb1"/>
</svg>
