<svg id="Grupo_158" data-name="Grupo 158" xmlns="http://www.w3.org/2000/svg" width="62.107" height="51.2" viewBox="0 0 62.107 51.2">
  <path id="Trazado_415" data-name="Trazado 415" d="M419.534,213.3a5.527,5.527,0,1,0-5.527,5.527,5.656,5.656,0,0,0,5.527-5.527m-8.586,0a3.206,3.206,0,0,1,3.058-3.482,3.3,3.3,0,0,1,3.04,3.482,3.353,3.353,0,0,1-3.04,3.5,3.261,3.261,0,0,1-3.058-3.5" transform="translate(-377.491 -167.624)" fill="#adadb1"/>
  <path id="Trazado_416" data-name="Trazado 416" d="M412.065,148.039h3.206V146.16h-8.88v1.879h3.353v8.438h2.321Z" transform="translate(-363.776 -105.572)" fill="#adadb1"/>
  <path id="Trazado_417" data-name="Trazado 417" d="M422.76,216.006H427l.866,2.34h2.764l-4.238-10.336H423.5l-4.366,10.336h2.764Zm2.192-5.527,1.437,3.8H423.5Z" transform="translate(-368.52 -167.422)" fill="#adadb1"/>
  <path id="Trazado_418" data-name="Trazado 418" d="M386.466,156.477h2.34v-8.438h3.187V146.16H383.26v1.879h3.206Z" transform="translate(-383.26 -105.572)" fill="#adadb1"/>
  <path id="Trazado_419" data-name="Trazado 419" d="M407.764,213.3a5.527,5.527,0,1,0-5.527,5.527,5.527,5.527,0,0,0,5.527-5.527m-8.567,0a3.224,3.224,0,0,1,3.04-3.482A3.261,3.261,0,0,1,405.3,213.3a3.316,3.316,0,0,1-3.058,3.5,3.261,3.261,0,0,1-3.04-3.5" transform="translate(-387.406 -167.624)" fill="#adadb1"/>
  <path id="Trazado_420" data-name="Trazado 420" d="M399.552,156.477h1.161v-3.924l4.072-6.393h-2.616l-2.616,4.366-2.469-4.366H394.32l4.072,6.393v3.924Z" transform="translate(-373.943 -105.572)" fill="#adadb1"/>
  <path id="Trazado_421" data-name="Trazado 421" d="M421.237,221.7c15.734,0,28.557-8,28.557-17.853s-12.9-17.871-28.557-17.871-28.557,8.014-28.557,17.871,12.8,17.853,28.557,17.853m0-34.84c15.255,0,27.636,7.609,27.636,16.987s-12.418,16.987-27.636,16.987S393.6,213.211,393.6,203.851s12.4-16.987,27.636-16.987" transform="translate(-390.801 -185.98)" fill="#adadb1"/>
  <path id="Trazado_422" data-name="Trazado 422" d="M408.2,197.812h.442v-.442c.663-4.109,2.137-7.37,4.053-8.844l1.069-.866h-1.382c-6.669.424-11.533,2.192-12.362,4.514a2.575,2.575,0,0,0-.129.737,2.228,2.228,0,0,0,.332,1.161c.94,1.585,3.814,2.893,7.9,3.593m-7.277-5.2c.626-1.842,4.919-3.335,10.41-3.832a16.876,16.876,0,0,0-3.39,8.07c-3.574-.645-6.135-1.842-6.872-3.077a1.365,1.365,0,0,1-.221-.719,1.237,1.237,0,0,1,0-.442" transform="translate(-384.727 -184.565)" fill="#adadb1"/>
  <path id="Trazado_423" data-name="Trazado 423" d="M406.092,195.814l-.092.479h.5c1.142.092,2.321.129,3.519.129a31.6,31.6,0,0,0,3.519-.129h.479v-.479c-.663-3.685-2.137-5.914-3.924-5.914s-3.261,2.211-3.924,5.914m3.924-5.03c1.216,0,2.358,1.842,2.966,4.7-.977,0-1.972.111-2.966.111a26.442,26.442,0,0,1-2.966-.111c.608-2.874,1.732-4.7,2.966-4.7" transform="translate(-379.58 -182.678)" fill="#adadb1"/>
  <path id="Trazado_424" data-name="Trazado 424" d="M414.064,197.347v.442h.424c4.109-.7,6.983-2.008,7.9-3.593a2.174,2.174,0,0,0,.2-1.842c-.811-2.321-5.675-4.109-12.362-4.514H408.85l1.087.866a14.444,14.444,0,0,1,4.053,8.844m7.793-4.827a1.845,1.845,0,0,1,0,.442,1.363,1.363,0,0,1-.221.719c-.755,1.29-3.316,2.432-6.872,3.077a16.876,16.876,0,0,0-3.39-8.07c5.527.5,9.765,2.063,10.41,3.832" transform="translate(-377.179 -184.413)" fill="#adadb1"/>
  <path id="Trazado_425" data-name="Trazado 425" d="M416.176,214.432l1.327.111-1.013-.884c-2.616-2.229-4.238-7.554-4.238-13.855v-1.4h-.369c-6.283-1.124-10.741-3.685-11.386-6.725l-.147-.719-.553.479a11.257,11.257,0,0,0-4.588,8.641c0,7.37,8.991,13.615,20.948,14.518m-16.305-22.109c1.161,2.985,5.527,5.527,11.515,6.633v.774c0,5.859,1.4,10.907,3.685,13.634-10.87-1.161-18.958-6.854-18.958-13.523a10.226,10.226,0,0,1,3.777-7.517" transform="translate(-388.669 -181.785)" fill="#adadb1"/>
  <path id="Trazado_426" data-name="Trazado 426" d="M414.409,195.775v-.645h-.479c-1.234.111-2.524.166-3.8.166a28.792,28.792,0,0,1-3.8-.166h-.479v.645c0,5.859,1.842,10.281,4.274,10.281s4.274-4.422,4.274-10.281m-4.274,9.415c-1.621,0-3.335-3.685-3.408-9.1,1.124,0,2.266.129,3.408.129a29.462,29.462,0,0,0,3.39-.129c0,5.527-1.842,9.1-3.39,9.1" transform="translate(-379.698 -178.272)" fill="#adadb1"/>
  <path id="Trazado_427" data-name="Trazado 427" d="M414.281,198.437v1.492c0,6.3-1.621,11.625-4.238,13.855l-1.013.884,1.327-.111c11.939-.9,20.948-7.13,20.948-14.518a11.312,11.312,0,0,0-4.587-8.641l-.553-.479-.166.719c-.626,2.966-5.1,5.527-11.386,6.725Zm12.4-5.914a10.225,10.225,0,0,1,3.777,7.517c0,6.669-8.07,12.362-18.94,13.523,2.285-2.727,3.685-7.775,3.685-13.634v-.774c6.062-1.161,10.354-3.685,11.5-6.633" transform="translate(-377.028 -181.819)" fill="#adadb1"/>
</svg>
