<svg id="Grupo_168" data-name="Grupo 168" xmlns="http://www.w3.org/2000/svg" width="65.949" height="56.728" viewBox="0 0 65.949 56.728">
  <path id="Trazado_341" data-name="Trazado 341" d="M559.88,209.177a.877.877,0,0,0-.544-.175h-2.4a25.606,25.606,0,0,0-2.893-6.154l3.98-3.787,2.63,3.033a.912.912,0,0,0,1.017.245.877.877,0,0,0,.579-.859l-.175-14.027a1.018,1.018,0,0,0-.3-.649.912.912,0,0,0-.684-.263l-14.483.807a.894.894,0,0,0-.824.649.912.912,0,0,0,.333,1l3.507,2.525-3.507,3.367A26.739,26.739,0,0,0,506.279,209h-2.122a.948.948,0,0,0-.491.14c-.21.14-4.892,3.261-5.015,7.838-.088,2.858,1.6,5.558,4.962,8.031a1,1,0,0,0,.543.175h2.122a26.669,26.669,0,0,0,50.5,0h2.49a.825.825,0,0,0,.526-.175c.193-.123,4.717-3.331,4.8-7.943,0-2.806-1.561-5.471-4.787-7.89m-28.282-16.71a24.934,24.934,0,0,1,14.027,4.331.859.859,0,0,0,1.14-.105l4.8-4.647a.894.894,0,0,0-.105-1.385l-2.157-1.561,11.011-.631.14,10.52-1.6-1.859a1.034,1.034,0,0,0-.666-.316.964.964,0,0,0-.666.263l-5.26,4.962a.9.9,0,0,0-.123,1.175A23.893,23.893,0,0,1,554.988,209H548.15a18.13,18.13,0,0,0-32.876,0h-7.1a24.776,24.776,0,0,1,23.408-16.535M546.116,209H517.343a16.289,16.289,0,0,1,28.791,0M531.6,241.44a24.811,24.811,0,0,1-23.32-16.254h7.364a18.1,18.1,0,0,0,32.175,0h7.013a24.775,24.775,0,0,1-23.3,16.254m-13.87-16.254h28.055a16.307,16.307,0,0,1-28.055,0m41.31-1.753H504.525c-2.718-2.051-4.05-4.173-4-6.312.088-3.156,3.139-5.593,3.98-6.225h54.6c2.578,2,3.857,4.085,3.822,6.207,0,3.156-2.981,5.681-3.8,6.33" transform="translate(-498.648 -186.54)" fill="#adadb1"/>
  <path id="Trazado_342" data-name="Trazado 342" d="M507.148,140.18h-5.278v1.035h1.4l-2.42,4.506-2.648-4.489,1.929-.018V140.18H492.49v1.052h1.753l.7,1.28,1.964,3.612.789,1.438h4.243l1.6-2.946,1.841-3.4h.052l1.718-.018Z" transform="translate(-488.559 -113.019)" fill="#adadb1"/>
  <path id="Trazado_343" data-name="Trazado 343" d="M514.328,201.91c-3,0-5.418,1.753-5.418,3.91s2.42,3.893,5.418,3.893,5.418-1.753,5.418-3.893-2.42-3.91-5.418-3.91m-.088,6.645c-.771,0-1.4-1.263-1.4-2.823s.631-2.805,1.4-2.805,1.42,1.262,1.42,2.805-.631,2.823-1.42,2.823" transform="translate(-490.917 -174.959)" fill="#adadb1"/>
  <path id="Trazado_344" data-name="Trazado 344" d="M533.8,201.92h-.123c-3,0-5.418,1.753-5.418,3.91s2.4,3.875,5.383,3.893h0a7.015,7.015,0,0,0,1.859-.245,4.191,4.191,0,0,0,3.507-3.647,4.138,4.138,0,0,0-3.507-3.63,6.471,6.471,0,0,0-1.876-.263m0,6.575a.542.542,0,0,1-.228,0c-.789,0-1.42-1.262-1.42-2.823s.631-2.805,1.42-2.805a.684.684,0,0,1,.316,0,3.051,3.051,0,0,1,1.087,2.735c0,1.4-.508,2.56-1.175,2.77" transform="translate(-476.338 -174.952)" fill="#adadb1"/>
  <path id="Trazado_345" data-name="Trazado 345" d="M522.419,208.295h-1.753v-5.26h1.753V202h-7.014v1.052h1.753v5.26H515.3v1.14h10.643v-3.507H524.8a2.332,2.332,0,0,1-2.35,2.279" transform="translate(-486.103 -174.891)" fill="#adadb1"/>
  <path id="Trazado_346" data-name="Trazado 346" d="M526.538,140.18h-5.26v1.035h1.4l-2.437,4.506-2.63-4.489,1.929-.018-.017-1.035H511.88v1.052h1.754l3.454,6.33h4.243l2.034-3.735,1.42-2.613h.316l1.438-.018Z" transform="translate(-473.951 -113.019)" fill="#adadb1"/>
</svg>
