<svg id="Grupo_154" data-name="Grupo 154" xmlns="http://www.w3.org/2000/svg" width="54.296" height="59.121" viewBox="0 0 54.296 59.121">
  <path id="Trazado_470" data-name="Trazado 470" d="M97.745,115.89,88.71,131.571l9.035,15.58,9.119-15.58Z" transform="translate(-70.639 -115.89)" fill="#adadb1"/>
  <path id="Trazado_471" data-name="Trazado 471" d="M94.08,134.47l9.119,15.614H121.27l-9.035-15.614Z" transform="translate(-66.974 -103.208)" fill="#adadb1"/>
  <path id="Trazado_472" data-name="Trazado 472" d="M77.97,150.084H96.041l9.035-15.614H87.005Z" transform="translate(-77.97 -103.208)" fill="#adadb1"/>
  <path id="Trazado_473" data-name="Trazado 473" d="M83.134,149.862l-1.464-3.432H80.19v7.521h1.329v-4.9l1.615,3.55,1.683-3.55v4.9h1.346V146.43H84.682Z" transform="translate(-76.455 -95.045)" fill="#adadb1"/>
  <line id="Línea_13" data-name="Línea 13" y1="7.521" transform="translate(11.593 51.385)" fill="none" stroke="#adadb1" stroke-miterlimit="10" stroke-width="1.67"/>
  <path id="Trazado_474" data-name="Trazado 474" d="M85.63,147.574h1.6v6.377h1.346v-6.377H90.19V146.43H85.63Z" transform="translate(-72.742 -95.045)" fill="#adadb1"/>
  <path id="Trazado_475" data-name="Trazado 475" d="M99.7,211.467c-1.077-.538-1.5-.808-1.5-1.346s.337-.74.942-.74a1.077,1.077,0,0,1,1.009,1.211h1.363a2.187,2.187,0,0,0-2.372-2.339c-1.548,0-2.271.808-2.271,1.935s.673,1.683,1.683,2.288c1.43.808,1.683,1.01,1.683,1.464s-.387.875-1.077.875a1.243,1.243,0,0,1-1.127-1.329h-1.3a2.266,2.266,0,0,0,2.423,2.541,2.187,2.187,0,0,0,2.423-2.137c0-1.211-.74-1.683-1.935-2.423" transform="translate(-79.292 -156.919)" fill="#adadb1"/>
  <path id="Trazado_476" data-name="Trazado 476" d="M103.739,213.455c0,.808-.387,1.262-1.127,1.262a1.144,1.144,0,0,1-1.3-1.262V208.29H100v5.165a2.305,2.305,0,0,0,2.625,2.473,2.271,2.271,0,0,0,2.473-2.473V208.29h-1.346Z" transform="translate(-77.07 -156.888)" fill="#adadb1"/>
  <path id="Trazado_477" data-name="Trazado 477" d="M107.252,211.84a1.784,1.784,0,0,0,1.077-1.683c0-1.195-.892-1.868-2.288-1.868h-2.49v7.5h2.743a2.12,2.12,0,0,0,2.305-2.086,1.918,1.918,0,0,0-1.346-1.868m-1.3,2.81h-1.077v-5.165h1.11c.606,0,1.077.252,1.077.925s-.4.942-1.077.942h-.538v1.211h.538c.791,0,1.262.269,1.262.993a1.089,1.089,0,0,1-1.211,1.144" transform="translate(-74.644 -156.888)" fill="#adadb1"/>
  <path id="Trazado_478" data-name="Trazado 478" d="M107.3,149.391h-2.709V146.43h-1.4v7.521h1.4v-3.3h2.759v3.3h1.346V146.43h-1.4Z" transform="translate(-60.756 -95.045)" fill="#adadb1"/>
  <line id="Línea_14" data-name="Línea 14" y1="7.521" transform="translate(35.367 51.385)" fill="none" stroke="#adadb1" stroke-miterlimit="10" stroke-width="1.67"/>
  <line id="Línea_15" data-name="Línea 15" y1="7.521" transform="translate(49.904 51.385)" fill="none" stroke="#adadb1" stroke-miterlimit="10" stroke-width="1.67"/>
  <path id="Trazado_479" data-name="Trazado 479" d="M111.2,211.427c-1.094-.606-1.481-.875-1.481-1.346s.387-.724.925-.724a1.221,1.221,0,0,1,1.077,1.195H113a2.17,2.17,0,0,0-2.356-2.339c-1.548,0-2.271.808-2.271,1.935s.656,1.683,1.683,2.221c1.43.808,1.683,1.06,1.683,1.531a.946.946,0,0,1-1.06.875,1.367,1.367,0,0,1-1.161-1.413H108.24a2.24,2.24,0,0,0,2.44,2.557,2.187,2.187,0,0,0,2.423-2.07c0-1.279-.74-1.683-1.952-2.423" transform="translate(-71.443 -156.946)" fill="#adadb1"/>
</svg>
