<svg id="Grupo_133" data-name="Grupo 133" xmlns="http://www.w3.org/2000/svg" width="54.315" height="56.463" viewBox="0 0 54.315 56.463">
  <path id="Trazado_1157" data-name="Trazado 1157" d="M726.421,62.547c-2.787-.286-10.143-.7-17.134-.7s-14.3.411-17.134.7c-3.187.32-4.672,1.942-4.672,5.083,0,5.986.217,15.318.628,20.79.366,4.878.651,8.738,6.728,12.428,4.352,2.65,8.681,4.912,14.313,7.813h.194c5.643-2.913,9.972-5.175,14.313-7.813,6.077-3.69,6.362-7.55,6.728-12.428.411-5.506.628-14.85.628-20.79,0-3.141-1.485-4.763-4.672-5.083Zm2.159,25.747c-.354,4.672-.582,7.768-5.826,10.954-4.124,2.5-7.745,4.409-13.239,7.253l-.194.091-.183-.091c-5.312-2.753-9.138-4.752-13.239-7.253-5.243-3.187-5.483-6.283-5.825-10.954-.4-5.449-.617-14.7-.617-20.653,0-2.17.743-2.981,2.958-3.21,2.753-.263,10.041-.674,16.906-.674s14.153.411,16.917.674c2.216.228,2.959,1.039,2.959,3.21,0,5.951-.217,15.192-.617,20.653Z" transform="translate(-682.169 -61.85)" fill="#adadb1" fill-rule="evenodd"/>
  <path id="Trazado_1158" data-name="Trazado 1158" d="M708.261,74.914l-.651,2.159c-2.376-4.843-5.209-7.391-8.636-7.391a7.151,7.151,0,0,0-6.054,3.267,7.3,7.3,0,0,1,6.854-4.489c4.569,0,7.174,3.621,8.533,6.42Z" transform="translate(-681.394 -60.91)" fill="#adadb1" fill-rule="evenodd"/>
  <path id="Trazado_1159" data-name="Trazado 1159" d="M691.31,78.46c0,8.076,2.376,11.96,5.883,11.96a2.593,2.593,0,0,0,2.8-2.7,6.2,6.2,0,0,0-.868-2.993,8.092,8.092,0,0,1,.183,1.588,1.656,1.656,0,0,1-1.714,1.839c-2.285,0-4.66-4.569-5.323-9.7Z" transform="translate(-681.623 -59.487)" fill="#adadb1" fill-rule="evenodd"/>
  <path id="Trazado_1160" data-name="Trazado 1160" d="M715.387,68.49a7.288,7.288,0,0,1,6.854,4.489,7.14,7.14,0,0,0-6.054-3.267c-3.427,0-6.248,2.547-8.624,7.391L706.9,74.91c1.359-2.8,3.952-6.42,8.533-6.42Z" transform="translate(-679.405 -60.905)" fill="#adadb1" fill-rule="evenodd"/>
  <path id="Trazado_1161" data-name="Trazado 1161" d="M722.032,78.46c-.663,5.186-2.993,9.755-5.334,9.755a1.645,1.645,0,0,1-1.7-1.839,8.156,8.156,0,0,1,.172-1.588,6.352,6.352,0,0,0-.857,2.993,2.593,2.593,0,0,0,2.787,2.7c3.507,0,5.86-3.884,5.883-11.96Z" transform="translate(-678.351 -59.487)" fill="#adadb1" fill-rule="evenodd"/>
  <path id="Trazado_1162" data-name="Trazado 1162" d="M720.465,72.38c-3,0-5.928,2.387-7.676,7.893l1.142.8-.548,2.707-2.113.88-.388,2.662,1.028-1.268,1.142-.457-.343,1.725-1.908.788-.674,4.569.468,1.474-1.839.731-1.885-.7.468-1.474-.674-4.569-1.908-.788-.343-1.725,1.142.457,1.039,1.268-.4-2.662-2.113-.88-.64-2.73,1.142-.8c-1.748-5.506-4.683-7.893-7.676-7.893-3.712,0-5.243,3.518-5.049,6.408h.9c.743,4.1,2.821,7.573,4.386,7.573.48,0,.731-.366.731-.971,0-1.439-.982-2.947-.982-5.711,0-1.279.411-2.079,1.371-2.079.651,0,1.142.685,1.5,1.439-.582,2.068-.491,3.792,1.142,4.569l1.8.8s1.039,4.432,1.142,4.74a4.871,4.871,0,0,0,.377.937l1.565,2.684.571,2.844c.263,1.336,1.222,1.336,2.284,1.336s2.033,0,2.285-1.336c.091-.5.56-2.844.56-2.844l1.565-2.684a3.749,3.749,0,0,0,.377-.937c.08-.308,1.142-4.74,1.142-4.74l1.793-.8c1.645-.731,1.736-2.456,1.142-4.569.32-.754.857-1.439,1.508-1.439.948,0,1.371.8,1.371,2.079,0,2.764-.994,4.272-.994,5.711,0,.605.251.971.731.971,1.565,0,3.655-3.427,4.4-7.573h.891c.194-2.89-1.337-6.408-5.037-6.408ZM701.617,82.763c-1.142-.491-1.291-1.873-.9-3.712l1.279,2.033.48,2.068-.857-.366Zm14.187,0-.868.366.48-2.068,1.279-2.01c.388,1.839.274,3.221-.891,3.712Z" transform="translate(-681.547 -60.352)" fill="#adadb1" fill-rule="evenodd"/>
  <path id="Trazado_1163" data-name="Trazado 1163" d="M704.656,108.446v2.216h2.97c1.668,0,2.285-.674,2.285-1.6,0-.605-.309-1.588-2.285-1.588H702.6V106.23h5.323c3.427,0,4.169,1.439,4.169,2.833,0,1.691-1.142,2.844-4.181,2.844H702.6V108.48Z" transform="translate(-680.017 -55.535)" fill="#adadb1" fill-rule="evenodd"/>
  <path id="Trazado_1164" data-name="Trazado 1164" d="M684.909,108.446v2.216h3.027c1.668,0,2.285-.674,2.285-1.6,0-.605-.3-1.588-2.285-1.588H682.83V106.23h5.323c3.427,0,4.181,1.439,4.181,2.833,0,1.691-1.142,2.844-4.181,2.844H682.83V108.48Z" transform="translate(-682.83 -55.535)" fill="#adadb1" fill-rule="evenodd"/>
  <path id="Trazado_1165" data-name="Trazado 1165" d="M716.776,108.435v1.257h3v.971h-2.993c-1.7,0-2.284-.674-2.284-1.6s.857-1.576,2.216-1.576h5.163V106.23h-5.243c-2.684,0-4.249.857-4.249,2.833s1.508,2.844,4.169,2.844h5.323V108.48Z" transform="translate(-678.624 -55.535)" fill="#adadb1" fill-rule="evenodd"/>
  <path id="Trazado_1166" data-name="Trazado 1166" d="M716.533,45.625H723V44.38H714.34v5.677h8.727V48.8h-6.534v-.96h6.123V46.585h-6.123v-.96Z" transform="translate(-668.752 6.315)" fill="#adadb1" fill-rule="evenodd"/>
  <path id="Trazado_1167" data-name="Trazado 1167" d="M697.423,112.01c-3.5,0-4.843-1.142-4.843-2.936s1.382-2.924,4.843-2.924,4.843,1.142,4.843,2.924S700.884,112.01,697.423,112.01Zm2.719-2.936c0-.971-.937-1.679-2.719-1.679s-2.719.708-2.719,1.679.834,1.691,2.719,1.691S700.142,110,700.142,109.074Z" transform="translate(-681.443 -55.547)" fill="#adadb1" fill-rule="evenodd"/>
</svg>
