<svg id="Grupo_151" data-name="Grupo 151" xmlns="http://www.w3.org/2000/svg" width="88.489" height="19.283" viewBox="0 0 88.489 19.283">
  <path id="Trazado_347" data-name="Trazado 347" d="M81.7,166.586H98.393c3.517,0,5.738-1.783,5.738-5.048v-6.831H90.451v4.257h8.985v1.683a1.245,1.245,0,0,1-1.43,1.43H82.644c-1.11,0-1.464-.572-1.464-1.481v-7.252c0-.993.538-1.312,1.144-1.312H104.2V147.59H81.652a4.829,4.829,0,0,0-5.283,5.25v8.632a4.812,4.812,0,0,0,5.334,5.2" transform="translate(-76.348 -147.417)" fill="#adadb1"/>
  <path id="Trazado_348" data-name="Trazado 348" d="M91.039,90.28l7.672,14.487h4.459l7.672-14.487v14.487h4.829V85.67h-7.42l-7.319,13.713L93.613,85.67h-7.4v19.1h4.829Z" transform="translate(-55.483 -85.598)" fill="#adadb1"/>
  <path id="Trazado_349" data-name="Trazado 349" d="M113.784,152.816v8.631a4.812,4.812,0,0,0,5.334,5.2h20.191v-4.829H120.077c-1.127,0-1.481-.572-1.481-1.481v-6.73c0-.976.555-1.312,1.161-1.312h19.484v-4.8H119.051a4.846,4.846,0,0,0-5.283,5.25" transform="translate(-50.82 -147.477)" fill="#adadb1"/>
</svg>
