<svg id="Grupo_137" data-name="Grupo 137" xmlns="http://www.w3.org/2000/svg" width="74.672" height="55.188" viewBox="0 0 74.672 55.188">
  <path id="Trazado_466" data-name="Trazado 466" d="M807.981,147.768c-4.678-5.048-12.333-6.108-18.777-6.108s-14.369,1.077-18.962,6.394l-.235.286a17.733,17.733,0,0,0-3.634,11.778c0,15.934,12.989,18.508,22.832,18.508s22.933-2.541,22.933-18.508a17.734,17.734,0,0,0-3.651-11.778c-.185-.185-.354-.387-.5-.572M774.33,150.9c3.079-4.728,8.918-5.889,14.891-5.889S801,146.1,804.043,150.746l.2.32c-5.317,3.113-11.357,3.214-15.025,11.021-3.971-7.571-9.944-7.622-15.143-10.617a6.141,6.141,0,0,1,.3-.572m14.891,24.279c-8.817,0-17.145-2.457-17.145-15.143a15.265,15.265,0,0,1,.151-2.692.765.765,0,0,1,.135-.522l8.917,2.995a13.965,13.965,0,0,1,7.942,8.076c2.12-4.577,4.391-6.9,7.975-8.413l8.985-3.2v.219a24.553,24.553,0,0,1,.236,3.5c0,12.653-8.413,15.143-17.246,15.143" transform="translate(-751.901 -141.66)" fill="#adadb1"/>
  <path id="Trazado_467" data-name="Trazado 467" d="M774.519,108.72l4.728-3.92H769.32v3.92Z" transform="translate(-735.736 -62.753)" fill="#adadb1"/>
  <path id="Trazado_468" data-name="Trazado 468" d="M828.511,166.679h-8.749v3.533h6.949c2.019,0,1.683,1.329,1.683,1.329h-5.569a4.307,4.307,0,0,0-3.92,1.582v-.639c0-5.973-4.509-5.8-4.509-5.8H802.617l-11.98,9.456v-5.822a3.618,3.618,0,0,0-3.92-3.634h-8.749v3.533H784.9c2.036,0,1.767,1.329,1.767,1.329H781.1a4.29,4.29,0,0,0-3.87,1.531v-1.481a4.442,4.442,0,0,0-4.728-4.913H757.76v13.107h4.459v-9.17h3.13V179.8h4.24v-9.187h1.43c2.07,0,1.8,1.683,1.8,1.683v7.5h4.408V178.12a3.988,3.988,0,0,0,3.18,1.683h12.2l12.03-9.658v9.607h9.439a4.307,4.307,0,0,0,4.291-3.365,3.971,3.971,0,0,0,3.819,3.365h10.247v-9.473a3.634,3.634,0,0,0-3.937-3.634m-41.9,9.506h-4.661a.875.875,0,1,1,0-1.683h4.61Zm26.265-.269h-3.988v-5.536h4.038s1.9.151,1.9,2.574-.892,2.961-1.952,2.961m15.429.269h-4.678a.875.875,0,0,1-.942-.892c0-.808.791-.858,1.06-.858h4.56Z" transform="translate(-757.76 -124.615)" fill="#adadb1"/>
  <path id="Trazado_469" data-name="Trazado 469" d="M770.9,114.153h9.91V110.3h-5.2Z" transform="translate(-734.658 -58.999)" fill="#adadb1"/>
</svg>
