<svg xmlns="http://www.w3.org/2000/svg" width="150.495" height="21.521" viewBox="0 0 150.495 21.521">
  <g id="mclaren-seeklogo.com" transform="translate(40.601 -340.9)">
    <path id="Unión_1" data-name="Unión 1" d="M127.118,21.52V16.73c0-1.2-.652-2.333-2.584-2.333H122.8V21.52h-6.472V10.986h10.234c5.192,0,7,1.029,7,4.666V21.52Zm-24.606,0c-3.712,0-5.443-1.5-5.443-4.138V15.526c0-3.11,1.731-4.54,5.919-4.54h6.622c4.49,0,5.493,1.329,5.493,3.06v.427c0,1.982-1.58,2.859-4.188,2.859h-7.4v.1c0,.727.351,1,1.279,1h9.531V21.52Zm.978-6.446v.376h4.539c.753,0,.954-.251.954-.727,0-.451-.4-.677-.979-.652h-3.536C103.741,14.071,103.49,14.473,103.49,15.075ZM85.907,21.52V12.842c0-1.154.828-1.856,2.157-1.856h8.3v3.186H92.329V21.52Zm-13.72,0c-2.358,0-4.089-.251-4.991-1.129a2.482,2.482,0,0,1-.677-1.856V18.21c0-1.706,1.028-3.035,4.164-3.035h7.4v-.1c0-.7-.351-1-1.279-1h-9.28v-3.06H79.06c3.712,0,5.443,1.505,5.443,4.139v2.282c0,3.11-1.731,4.088-5.895,4.088Zm.451-3.737c0,.477.351.652.953.652h3.487c.728,0,.978-.4.978-1v-.426H73.591C72.864,17.006,72.639,17.307,72.639,17.783ZM54.128,21.52V9.305h6.446v9.029h4.967V21.52Zm-11.839,0c-4.415,0-6.3-1.354-6.271-4.791v-.978c0-2.91,1.756-4.791,6.07-4.791H52.7v3.186H44.12c-.9,0-1.606.552-1.606,1.931V16.3c0,1.58.828,2.031,1.656,2.031H52.7V21.52Zm-14.071,0v-6.2l-6.8,6.2H15.275V15.275l-7.6,6.245H0s12.692-9.882,13.52-10.535a6.3,6.3,0,0,1,4.44-1.68h3.813v6.321s4.264-3.712,5.443-4.741a5.361,5.361,0,0,1,3.712-1.58h3.762V21.52ZM131.732,6.9a37.337,37.337,0,0,0-12.165,2.307,66.809,66.809,0,0,1,12.917-6.371A41.742,41.742,0,0,1,145.553,0c7.55,0,8.051,5.142-9.983,16.931C141.69,9.13,137.552,6.9,131.732,6.9Z" transform="translate(-40.601 340.9)" fill="#adadb1"/>
  </g>
</svg>
