<svg id="Grupo_149" data-name="Grupo 149" xmlns="http://www.w3.org/2000/svg" width="71.43" height="44.913" viewBox="0 0 71.43 44.913">
  <path id="Trazado_457" data-name="Trazado 457" d="M209.722,162.029a15.974,15.974,0,0,0,.827,2.983,9.08,9.08,0,0,0,.827,1.621,5.836,5.836,0,0,0,2.561,2.075,9.55,9.55,0,0,0,1.3.47,19.016,19.016,0,0,0,3.794.681c1.232.1,2.464.178,3.712.227,1.783,0,3.55.1,4.864.13h3.7c1.621,0,3.08-.081,4.62-.195a27.246,27.246,0,0,0,3.437-.421,12.18,12.18,0,0,0,2.724-.778,6.079,6.079,0,0,0,3.242-3.1,13.108,13.108,0,0,0,.7-1.881,26.9,26.9,0,0,0,.762-3.745c.162-1.248.292-2.513.422-3.761s.211-2.513.227-3.761a53.719,53.719,0,0,0-.1-6.047,10,10,0,0,0-.438-2.286,6.1,6.1,0,0,0-2.156-3.113A7.475,7.475,0,0,0,242.5,140a17.838,17.838,0,0,0-3.242-.665c-1.378-.178-2.756-.292-4.134-.357l-4.28-.146h-5.739c-2.156,0-4.3.13-6.485.324-1.07.1-2.14.211-3.242.405a11.217,11.217,0,0,0-2.61.762,6.112,6.112,0,0,0-3.242,3,8.657,8.657,0,0,0-.713,2.529,23.018,23.018,0,0,0-.195,2.788q0,1.8,0,3.6a56.714,56.714,0,0,0,.47,6.4c.146,1.167.324,2.335.551,3.5m.924-11.64a24.223,24.223,0,0,1,.13-3.064,10.7,10.7,0,0,1,.422-2.675,5.042,5.042,0,0,1,1.9-2.74,6.482,6.482,0,0,1,1.783-.875,9.92,9.92,0,0,1,2.14-.47c1.021-.13,2.026-.243,3.048-.34.713-.081,1.427-.113,2.156-.146,1.183,0,2.367-.13,3.55-.13h5.236c1.329,0,2.643.1,3.972.162s2.821.227,4.215.438a10.5,10.5,0,0,1,2.659.681,5.09,5.09,0,0,1,2.513,2.026,6,6,0,0,1,.729,1.8,11.1,11.1,0,0,1,.292,1.929,54.258,54.258,0,0,1,.13,5.853c0,1.151-.1,2.318-.211,3.469s-.178,1.881-.292,2.821a24.091,24.091,0,0,1-.924,4.523,8.111,8.111,0,0,1-.6,1.459,5.172,5.172,0,0,1-2.756,2.513,9.727,9.727,0,0,1-2.237.551,39.525,39.525,0,0,1-4.15.405c-1.9.1-3.794.146-5.707.146h-.454c-1.621,0-3.242,0-4.864-.13-1.2,0-2.4-.13-3.583-.227a18.044,18.044,0,0,1-2.951-.47,7.668,7.668,0,0,1-1.378-.47,5.253,5.253,0,0,1-2.626-2.594,12.205,12.205,0,0,1-.859-2.448,27.7,27.7,0,0,1-.6-3.469c-.13-1.313-.276-2.626-.373-3.923a41.956,41.956,0,0,1-.13-4.734" transform="translate(-192.311 -138.83)" fill="#adadb1"/>
  <path id="Trazado_458" data-name="Trazado 458" d="M206.812,162.516h1.054a.551.551,0,0,1,.535.519.308.308,0,0,1,0,.113v1.313H203.44v-1.41a.535.535,0,0,1,.519-.535h1.086v-.551a2.736,2.736,0,0,0,0-.519H198.56v1.07h1.054a.584.584,0,0,1,.551.519,1.625,1.625,0,0,1,0,.276v4.053a1.772,1.772,0,0,1,0,.292.567.567,0,0,1-.535.5h-1.07v1.054h6.485v-1.07l-1.005-.113c-.405,0-.584-.211-.6-.616s0-.892,0-1.329H208.4v1.281a.485.485,0,0,1,0,.162.519.519,0,0,1-.519.5h-.421l-.632.081V169.2h6.485v-1.086H213l-.762-.1a.535.535,0,0,1-.519-.486,2.069,2.069,0,0,1,0-.324v-3.988a2.161,2.161,0,0,1,0-.324.584.584,0,0,1,.567-.5h1.021V161.3h-6.485Z" transform="translate(-198.56 -124.872)" fill="#adadb1"/>
  <path id="Trazado_459" data-name="Trazado 459" d="M225.28,161.406v1.054h.113l.924.113a.567.567,0,0,1,.567.551v4.118a.552.552,0,0,1,0,.146l-.162-.211-4.037-5.317a.908.908,0,0,0-.762-.405H216.25v1.07h1.038a.567.567,0,0,1,.567.535,1.63,1.63,0,0,1,0,.276v4.021a1,1,0,0,1,0,.211.584.584,0,0,1-.584.6H216.25v1.07h5.155a4.623,4.623,0,0,0,0-1.07h-.292a1.932,1.932,0,0,1-.746-.1.551.551,0,0,1-.535-.551V163.4h0l.13.162L224,168.9a.973.973,0,0,0,.827.405h3.988v-5.982a1.613,1.613,0,0,1,0-.276.584.584,0,0,1,.567-.584h1.038v-1.07h-5.172" transform="translate(-187.571 -124.816)" fill="#adadb1"/>
  <path id="Trazado_460" data-name="Trazado 460" d="M238.7,164.963a3.421,3.421,0,0,0-1.362-2.513,4.767,4.767,0,0,0-1.2-.648,7.927,7.927,0,0,0-2.691-.422h-8.009v1.1l.843.081c.5,0,.665.227.665.746v4.134a1.62,1.62,0,0,1,0,.276.584.584,0,0,1-.567.519H225.34v1.1h7.83a13.181,13.181,0,0,0,1.394,0,6.064,6.064,0,0,0,2.059-.551,3.486,3.486,0,0,0,1.913-2.091,4.394,4.394,0,0,0,.178-1.767m-3.826,1.621a3.112,3.112,0,0,1-.243.6,1.508,1.508,0,0,1-1.086.7,3.238,3.238,0,0,1-.7,0h-2.724V162.9h2.756a2.871,2.871,0,0,1,.908.13,1.443,1.443,0,0,1,.94.875,3.437,3.437,0,0,1,.227,1.281,4.508,4.508,0,0,1-.114,1.313" transform="translate(-181.924 -124.823)" fill="#adadb1"/>
  <path id="Trazado_461" data-name="Trazado 461" d="M219.526,162.473a5.982,5.982,0,0,0-1.994-.892,12.125,12.125,0,0,0-3.048-.34,13.23,13.23,0,0,0-2.788.259,7.117,7.117,0,0,0-1.978.746,3.842,3.842,0,0,0-.13,6.485,5.576,5.576,0,0,0,1.038.5,9.727,9.727,0,0,0,2.545.535,14.591,14.591,0,0,0,3.858-.178,6.856,6.856,0,0,0,2.091-.746,3.81,3.81,0,0,0,.405-6.485m-2.286,4.069a1.994,1.994,0,0,1-1.621,1.621,5.351,5.351,0,0,1-2.432,0,1.978,1.978,0,0,1-1.54-1.621,6.75,6.75,0,0,1-.13-.956,5.3,5.3,0,0,1,.146-1.135,1.994,1.994,0,0,1,1.491-1.491,4.864,4.864,0,0,1,2.464,0,1.978,1.978,0,0,1,1.621,1.621,4.6,4.6,0,0,1,0,1.994" transform="translate(-192.776 -124.91)" fill="#adadb1"/>
  <path id="Trazado_462" data-name="Trazado 462" d="M246.68,167.725l-1.816-2.772-2.01-3.048a1,1,0,0,0-.908-.535h-6.063v1.086h.227l1.151.13a.405.405,0,0,1,.34.632v.13l-2.691,4.361a1.61,1.61,0,0,1-.13.178.648.648,0,0,1-.5.292h-.438l-.6.081v1.07H238.4v-1.054h-.989a.373.373,0,0,1-.276-.616l.308-.486a.276.276,0,0,1,.292-.162h4.815a5.526,5.526,0,0,1,.389.616.341.341,0,0,1-.195.519,1.427,1.427,0,0,1-.454.1l-.746.081v1.07h6.906v-1.054c-.308,0-.616-.081-.924-.1a1.054,1.054,0,0,1-.843-.535m-8.317-2.2c.519-.811,1.005-1.621,1.491-2.416.114.1,1.459,2.124,1.621,2.416h-3.1" transform="translate(-177.017 -124.828)" fill="#adadb1"/>
  <path id="Trazado_463" data-name="Trazado 463" d="M213.586,142.425c0,.7.081,1.378.13,2.075,0,1.135.146,2.27.211,3.4s.13,1.864.178,2.788.162,2.172.227,3.242.113,1.718.178,2.594c.081,1.183.178,2.351.259,3.534s.13,1.929.211,2.886.195,2.237.276,3.34a1.778,1.778,0,0,1,0,.292,36.3,36.3,0,0,0,3.875.276,1.22,1.22,0,0,1,.081-.259c.324-1.216.648-2.448,1.005-3.648a9.305,9.305,0,0,1,.746-1.929,2.416,2.416,0,0,1,1.881-1.346,14.833,14.833,0,0,1,2.237-.162,13.2,13.2,0,0,1,2.253.178,2.383,2.383,0,0,1,1.816,1.281c0,.162.162.324.227.486a14.99,14.99,0,0,1,.665,1.864l.875,3.242a1.625,1.625,0,0,1,0,.259,28.466,28.466,0,0,0,3.875-.292c.73-8.641,1.265-17.3,1.816-25.939a18.628,18.628,0,0,0-2.691-.211.975.975,0,0,0,0,.195c-.373,1.621-.73,3.242-1.086,4.864-.535,2.383-1.119,4.75-1.751,7.117a13.652,13.652,0,0,1-.811,2.237,4.037,4.037,0,0,1-3.242,2.367,12,12,0,0,1-1.7.1,12.677,12.677,0,0,1-2.48-.146,4,4,0,0,1-2.529-1.492,5.672,5.672,0,0,1-.746-1.378,21.855,21.855,0,0,1-.811-2.578c-.892-3.437-1.621-6.922-2.416-10.392a4.749,4.749,0,0,0-.211-.924,24.726,24.726,0,0,0-2.691.195v.162a7.5,7.5,0,0,0,.113,1.621" transform="translate(-189.317 -137.886)" fill="#adadb1"/>
</svg>
