<svg id="Grupo_153" data-name="Grupo 153" xmlns="http://www.w3.org/2000/svg" width="93.242" height="39.356" viewBox="0 0 93.242 39.356">
  <path id="Trazado_403" data-name="Trazado 403" d="M49.549,227.229a16.279,16.279,0,1,0-16.279-16.26,16.279,16.279,0,0,0,16.279,16.26m0-31.33a15.051,15.051,0,1,1-10.662,4.408A15.07,15.07,0,0,1,49.549,195.9" transform="translate(-2.765 -191.291)" fill="#adadb1"/>
  <path id="Trazado_404" data-name="Trazado 404" d="M19.914,206.1c.749.883,1.651,1.92,2.688,3.091h0c.979,1.094,2.073,2.265,3.283,3.494h0c.979.979,2.035,2.035,3.168,3.091h0c1.229,1.133,2.534,2.3,3.839,3.475h0c1.229,1.056,2.534,2.093,3.839,3.11h0c1.517,1.152,3.11,2.265,4.8,3.34H49.4a19.62,19.62,0,0,0,29.3,0h7.679a99.443,99.443,0,0,0,24.246-22.845H81.288a19.716,19.716,0,0,0-34.248,0H17.38s.883,1.248,2.534,3.244Zm9.867,9.6c-1.094-1-2.15-2.035-3.206-3.091H44.487a20.561,20.561,0,0,0,.25,3.091Zm68.65,0H83.573a18.314,18.314,0,0,0,.269-3.091h17.815c-1.056,1.056-2.131,2.092-3.225,3.091m9.215-9.6c-.768.9-1.67,1.92-2.707,3.091H83.554a20.868,20.868,0,0,0-.806-3.091ZM82.69,219.249H94.477c-1.305,1.075-2.611,2.131-3.955,3.11H81.25a22.84,22.84,0,0,0,1.44-3.11M64.164,195.54a17.028,17.028,0,1,1-12.048,4.994,17.028,17.028,0,0,1,12.048-4.994M47.078,222.417H37.768c-1.325-.979-2.649-2.035-3.955-3.11h11.9a22.841,22.841,0,0,0,1.44,3.11m-1.5-16.26a20.871,20.871,0,0,0-.806,3.091H23.274c-1.037-1.133-1.92-2.189-2.688-3.091Z" transform="translate(-17.38 -192.91)" fill="#adadb1"/>
  <line id="Línea_6" data-name="Línea 6" y1="8.428" transform="translate(45.767 15.493)" fill="none" stroke="#adadb1" stroke-miterlimit="10" stroke-width="2.11"/>
  <path id="Trazado_405" data-name="Trazado 405" d="M31.531,147.558l2.112-4.953v4.953h2.073V139.13H33.432l-2.38,5.548-2.189-5.548H26.54v8.428h1.766V142.49l2.016,5.068Z" transform="translate(7.171 -123.637)" fill="#adadb1"/>
  <path id="Trazado_406" data-name="Trazado 406" d="M36.066,142.47l3.916,5.087h1.593V139.13H39.79v5.126h0l-3.955-5.126H34.3v8.428h1.766Z" transform="translate(14.308 -123.637)" fill="#adadb1"/>
  <line id="Línea_7" data-name="Línea 7" y1="8.428" transform="translate(58.763 15.493)" fill="none" stroke="#adadb1" stroke-miterlimit="10" stroke-width="2.11"/>
</svg>
