<svg xmlns="http://www.w3.org/2000/svg" width="90.141" height="44.913" viewBox="0 0 90.141 44.913">
  <g id="Grupo_147" data-name="Grupo 147" transform="translate(0.5)">
    <path id="Trazado_452" data-name="Trazado 452" d="M310.42,103.079h.881v-2.134h1.527v-.685H311.3V99.065h1.605V98.38H310.42Z" transform="translate(-285.281 -58.205)" fill="#adadb1"/>
    <line id="Línea_9" data-name="Línea 9" y1="4.699" transform="translate(64.413 40.214)" fill="none" stroke="#adadb1" stroke-miterlimit="10" stroke-width="1"/>
    <path id="Trazado_453" data-name="Trazado 453" d="M336.1,99.065h1.038v4.014h.881V99.065h1.038V98.38H336.1Z" transform="translate(-260.684 -58.205)" fill="#adadb1"/>
    <line id="Línea_10" data-name="Línea 10" y1="4.699" transform="translate(0 40.214)" fill="none" stroke="#adadb1" stroke-miterlimit="10" stroke-width="1"/>
    <path id="Trazado_454" data-name="Trazado 454" d="M325.382,101.914v.039h0v-.039l-1.194-3.544H323.15v4.718h.744V99.545l1.214,3.544h1.018V98.37h-.744Z" transform="translate(-273.088 -58.215)" fill="#adadb1"/>
    <line id="Línea_11" data-name="Línea 11" y1="4.699" transform="translate(89.141 40.214)" fill="none" stroke="#adadb1" stroke-miterlimit="10" stroke-width="1"/>
    <line id="Línea_12" data-name="Línea 12" y1="4.699" transform="translate(38.628 40.214)" fill="none" stroke="#adadb1" stroke-miterlimit="10" stroke-width="1"/>
    <path id="Trazado_455" data-name="Trazado 455" d="M305.572,101.914l.02.039h-.02v-.039l-1.194-3.544H303.34v4.718h.744V99.545l1.233,3.544h1.018V98.37h-.764Z" transform="translate(-292.063 -58.215)" fill="#adadb1"/>
    <path id="Trazado_456" data-name="Trazado 456" d="M345.55,139.71c-18.972,0-34.38,7.734-34.38,17.268,0,7.734,10.1,14.273,24.023,16.485l10.357-24.689,10.318,24.786c13.92-2.212,24.023-8.752,24.023-16.485,0-9.535-15.389-17.268-34.4-17.268M361.35,165.73l-15.8-18.267-15.663,18.228c-7.831-2.154-12.844-5.874-12.844-10.572,0-7.342,12.687-14.253,28.546-14.253s28.859,6.911,28.859,14.253c0,4.679-5.188,8.477-13.039,10.612" transform="translate(-301.009 -139.71)" fill="#adadb1"/>
  </g>
</svg>
