<svg id="Grupo_164" data-name="Grupo 164" xmlns="http://www.w3.org/2000/svg" width="91.984" height="56.511" viewBox="0 0 91.984 56.511">
  <path id="Trazado_434" data-name="Trazado 434" d="M226.438,99.91l3.81,4.236h-.97c-5.3,0-9.608,2.035-9.608,6.389,0,3.5,4.307,6.366,9.608,6.366s9.608-2.863,9.608-6.366-4.378-7.857-6.6-10.6Zm7.407,10.46c0,1.822-2.059,3.289-4.567,3.289s-4.591-1.467-4.591-3.289,2.082-3.289,4.591-3.289,4.567,1.467,4.567,3.289" transform="translate(-167.206 -60.603)" fill="#adadb1"/>
  <path id="Trazado_435" data-name="Trazado 435" d="M223.255,108.665a2.863,2.863,0,1,1-5.727,0V101.85h-4.9v7.289c0,7.1,15.429,7.1,15.429,0V101.85h-4.733Z" transform="translate(-176.826 -57.953)" fill="#adadb1"/>
  <line id="Línea_8" data-name="Línea 8" y1="12.353" transform="translate(75.466 43.874)" fill="none" stroke="#adadb1" stroke-miterlimit="10" stroke-width="6"/>
  <path id="Trazado_436" data-name="Trazado 436" d="M210,100.131l1.7,2.082-9.466,14.412h5.7l1.538-2.556H220.32l1.609,2.556h5.94L216.486,100.06Zm1.491,10.578,3.266-5.4,3.408,5.4Z" transform="translate(-191.023 -60.398)" fill="#adadb1"/>
  <path id="Trazado_437" data-name="Trazado 437" d="M273.439,83.324a16.163,16.163,0,0,0-10.152,3.408,16.281,16.281,0,0,0-19.854,0,16.021,16.021,0,0,0-9.679-3.36,16.328,16.328,0,0,0-10.128,3.337,16.3,16.3,0,1,0,0,26.031,16.234,16.234,0,0,0,19.807,0,16.045,16.045,0,0,0,9.679,3.242,16.329,16.329,0,0,0,10.152-3.384,16.322,16.322,0,1,0,10.128-29.3m-.426,30.764a14.412,14.412,0,0,1-9.7-3.928,14.672,14.672,0,0,1-10.152,3.976,14.2,14.2,0,0,1-9.679-3.928,14.506,14.506,0,0,1-19.831,0,15.4,15.4,0,0,1-1.444,1.16,14.435,14.435,0,0,1-21.771-6.105,6.413,6.413,0,0,1-1.491-.284,15.737,15.737,0,0,1,14.2-21.038,6.347,6.347,0,0,1,.686,1.278h0a14.412,14.412,0,0,1,9.915,4.141l.071-2.011A15.6,15.6,0,0,1,233,83.939a7.9,7.9,0,0,1,.734,1.254,15.051,15.051,0,0,1,9.915,4.165V87.323a15.358,15.358,0,0,1,9.3-3.455,8.544,8.544,0,0,1,.686,1.254h0a15,15,0,0,1,9.915,4.236V87.3a15.619,15.619,0,0,1,9.276-3.479,9.607,9.607,0,0,0,.757,1.278c7.738.355,13.938,4.993,14.2,14.648a14.2,14.2,0,0,1-14.648,14.2" transform="translate(-197.5 -83.3)" fill="#adadb1"/>
  <path id="Trazado_438" data-name="Trazado 438" d="M217.226,103.37a15.407,15.407,0,0,1-.947-5.537,15.572,15.572,0,0,1,3.384-9.466h2.082a13.631,13.631,0,1,0-12.495,23.073l.686-.828a12.522,12.522,0,0,0,2.13.189,12.353,12.353,0,0,0,7.762-2.556h1.917a14.6,14.6,0,0,1-3.053-4.567,6.274,6.274,0,0,1-1.467-.26m-5.135,6.7a12.022,12.022,0,1,1,.331-24.019,11.833,11.833,0,0,1,6.626,2.106,16.281,16.281,0,0,0,0,19.76,12.684,12.684,0,0,1-6.957,2.153" transform="translate(-195.976 -81.646)" fill="#adadb1"/>
  <path id="Trazado_439" data-name="Trazado 439" d="M212.888,91.76a2.485,2.485,0,0,1,.734-1.041,11.831,11.831,0,0,0-2.887-4.449,13.654,13.654,0,0,0-1.089,17.535,12.958,12.958,0,0,0,1.112,1.278v-1.728a12.424,12.424,0,0,0,2.082-11.6m-2.153,10.7a11.974,11.974,0,0,1-2.154-7.1,12.14,12.14,0,0,1,2.13-6.65,12.022,12.022,0,0,1,0,13.631" transform="translate(-184.562 -79.242)" fill="#adadb1"/>
  <path id="Trazado_440" data-name="Trazado 440" d="M221.158,91.723a2.367,2.367,0,0,1,.757-1.041,12.282,12.282,0,0,0-2.863-4.4,13.418,13.418,0,0,0-3.692,9.134,13.607,13.607,0,0,0,3.881,9.608v-1.609a14.317,14.317,0,0,0,2.627-7.62,12.849,12.849,0,0,0-.639-4.07m-2.106,10.649a12,12,0,0,1,0-13.512,12,12,0,0,1,0,13.512" transform="translate(-173.096 -79.228)" fill="#adadb1"/>
  <path id="Trazado_441" data-name="Trazado 441" d="M231.562,103.392a15.713,15.713,0,0,1,2.366-15.051h2.035a13.843,13.843,0,0,0-9.347-3.881A13.56,13.56,0,0,0,217.15,88.2a14.2,14.2,0,0,1,3.976,10.1,14.624,14.624,0,0,1-3.9,9.726,13.536,13.536,0,0,0,6.318,3.36,10.4,10.4,0,0,1,.663-.852,13.013,13.013,0,0,0,2.153.189,13.37,13.37,0,0,0,7.9-2.556h1.727a14.717,14.717,0,0,1-2.958-4.473,6.27,6.27,0,0,1-1.467-.26m-5.3,6.65a11.974,11.974,0,0,1-6.673-2.13,16.565,16.565,0,0,0,3.313-9.631,16.281,16.281,0,0,0-3.337-10.081,11.832,11.832,0,0,1,13.7,0,16.257,16.257,0,0,0,0,19.712,12.613,12.613,0,0,1-7.1,2.153" transform="translate(-170.65 -81.715)" fill="#adadb1"/>
  <path id="Trazado_442" data-name="Trazado 442" d="M247.649,93.149a14.2,14.2,0,0,0-12.613-8.709,13.655,13.655,0,0,0-9.466,3.739,14.435,14.435,0,0,1,0,19.854,13.986,13.986,0,0,0,6.318,3.36l.663-.876a10.885,10.885,0,0,0,2.153.213,12.684,12.684,0,0,0,12.85-12.471,12.848,12.848,0,0,0-.639-4.07,2.367,2.367,0,0,1,.757-1.041m-12.944,16.944a11.832,11.832,0,0,1-6.7-2.13,16.186,16.186,0,0,0,0-19.712,11.832,11.832,0,0,1,7.1-2.177,12.022,12.022,0,1,1-.308,24.019" transform="translate(-159.144 -81.742)" fill="#adadb1"/>
  <path id="Trazado_443" data-name="Trazado 443" d="M229.6,91.726a2.485,2.485,0,0,1,.734-1.041,11.43,11.43,0,0,0-2.863-4.425,13.607,13.607,0,0,0,.142,18.932v-1.657a12.186,12.186,0,0,0,2.6-7.644,12.848,12.848,0,0,0-.639-4.07m-2.106,10.673a11.833,11.833,0,0,1-2.106-6.957,12,12,0,0,1,2.082-6.6,12.14,12.14,0,0,1,2.106,6.957,12,12,0,0,1-2.083,6.6" transform="translate(-161.685 -79.255)" fill="#adadb1"/>
  <path id="Trazado_444" data-name="Trazado 444" d="M223.141,103.348a15.9,15.9,0,0,1-.923-5.537,15.572,15.572,0,0,1,3.384-9.466h1.964a13.63,13.63,0,0,0-9.3-3.834,13.323,13.323,0,0,0-9.466,3.715,14.388,14.388,0,0,1,0,19.9,13.844,13.844,0,0,0,6.295,3.313c.213-.284.426-.568.686-.876a10.718,10.718,0,0,0,2.153.213,12.187,12.187,0,0,0,7.9-2.674h1.822a14.2,14.2,0,0,1-2.958-4.5,6.483,6.483,0,0,1-1.491-.26m-5.206,6.7a11.832,11.832,0,0,1-6.626-2.106,16.281,16.281,0,0,0,0-19.783,11.832,11.832,0,0,1,13.654,0,16.423,16.423,0,0,0-3.313,9.631,16.211,16.211,0,0,0,3.337,10.057,12.613,12.613,0,0,1-7.1,2.177" transform="translate(-182.059 -81.648)" fill="#adadb1"/>
</svg>
