<svg id="Grupo_161" data-name="Grupo 161" xmlns="http://www.w3.org/2000/svg" width="64.577" height="56.254" viewBox="0 0 64.577 56.254">
  <path id="Trazado_504" data-name="Trazado 504" d="M67.006,84.206a20.074,20.074,0,0,0-4.191-6.412,21.839,21.839,0,0,0-6.339-4.324A21,21,0,0,0,48.947,72H43.064a20.589,20.589,0,0,0-7.515,1.471A19.78,19.78,0,0,0,29.2,77.765a20.3,20.3,0,0,0-4.265,6.412,19.442,19.442,0,0,0-1.471,7.574v3.78a19.486,19.486,0,0,0,1.471,7.574,20.4,20.4,0,0,0,4.265,6.4,18.045,18.045,0,0,0,6.353,4.206,20.589,20.589,0,0,0,7.515,1.471h5.883a21.09,21.09,0,0,0,7.53-1.471,19.722,19.722,0,0,0,6.339-4.206,20.178,20.178,0,0,0,4.191-6.4,19.486,19.486,0,0,0,1.471-7.574V91.78a19.442,19.442,0,0,0-1.471-7.574ZM45.432,74.6a.5.5,0,0,1,.338-.515c.5,0,1-.206,1.338.382.088,4.721.088,9.309.088,13.942A.662.662,0,0,1,46.77,89c-.412,0-1,.25-1.338-.338C45.358,83.942,45.432,79.236,45.432,74.6ZM35.24,110.472a17.56,17.56,0,0,1-4.265-3.956C27.637,102.3,26.887,97,27.2,91.942a19.31,19.31,0,0,1,1.25-6.824,18.133,18.133,0,0,1,3.588-5.633A15.78,15.78,0,0,1,43.8,74.427L37.917,91.6Zm13.236,2.353a41.928,41.928,0,0,1-8.442-.412,17.75,17.75,0,0,1-3.427-1.265L44.3,93.972a2.221,2.221,0,0,1,1.75-1.6,2.088,2.088,0,0,1,2.338,1.6l7.6,16.839a15.839,15.839,0,0,1-7.544,2.015ZM63.933,101.06a18.118,18.118,0,0,1-2.588,5.133,15.662,15.662,0,0,1-4.015,3.868L54.462,91.6,48.579,74.427a14.589,14.589,0,0,1,6.177,1.353,16.03,16.03,0,0,1,5.265,3.706,17.353,17.353,0,0,1,3.559,5.75,18.8,18.8,0,0,1,1.25,6.736,28.487,28.487,0,0,1-.868,9.074Z" transform="translate(-14.474 -72)" fill="#adadb1"/>
  <path id="Trazado_505" data-name="Trazado 505" d="M17.127,47.9l1.206,2.059H12.421l-.75,1.338H8.95l5.427-9.427h2.706L22.7,51.3H19.995l-4.309-7.206-2.1,3.809Z" transform="translate(-8.95 4.779)" fill="#adadb1"/>
  <path id="Trazado_506" data-name="Trazado 506" d="M37.3,105.677h-6.75a2.453,2.453,0,0,0-.6.1,1.927,1.927,0,0,0-.515.279,1.279,1.279,0,0,0-.471.941h0v2.941h0a1.074,1.074,0,0,0,.132.515,1.353,1.353,0,0,0,.338.426,1.691,1.691,0,0,0,1.118.382H37.3v1.927H29.863a3.574,3.574,0,0,1-2.309-.721,2.618,2.618,0,0,1-.824-2.015h0v-3.986h0a2.618,2.618,0,0,1,.912-1.985,3.368,3.368,0,0,1,2.221-.735H37.3v1.912Z" transform="translate(-12.936 -57.057)" fill="#adadb1"/>
  <path id="Trazado_507" data-name="Trazado 507" d="M37.389,103.76v6.089h0a1.809,1.809,0,0,0,.338,1.206,1.75,1.75,0,0,0,1.221.353h3.177a1.824,1.824,0,0,0,1.279-.338,1.706,1.706,0,0,0,.279-1.221h0V103.76h2.441v6.4h0a3.28,3.28,0,0,1-.868,2.28,3.236,3.236,0,0,1-2.25.853H38.095a2.809,2.809,0,0,1-3.088-3.132h0v-6.4Z" transform="translate(-9.049 -57.052)" fill="#adadb1"/>
  <path id="Trazado_508" data-name="Trazado 508" d="M52.139,103.76a4.176,4.176,0,0,1,1.059.132,2.94,2.94,0,0,1,.853.382,2.191,2.191,0,0,1,.618.6,3.1,3.1,0,0,1,.132,3.574,2.691,2.691,0,0,1-.735.735,1.338,1.338,0,0,1,.647.544,2.941,2.941,0,0,1,.426,1.206,12.31,12.31,0,0,1,0,2.265H52.875a10.589,10.589,0,0,0-.132-1.75,1.868,1.868,0,0,0-.515-1.191,1.927,1.927,0,0,0-1.25-.265H46.918l-.353-2.074H51.36a1.969,1.969,0,0,0,.515,0,1.1,1.1,0,0,0,.838-.471.985.985,0,0,0-.132-1.324,1.221,1.221,0,0,0-.662-.25,2.207,2.207,0,0,0-.559,0H45.874v7.353H43.58v-9.442h8.559Z" transform="translate(-5.005 -57.052)" fill="#adadb1"/>
  <path id="Trazado_509" data-name="Trazado 509" d="M51.687,47.9l1.191,2.059h-5.9L46.216,51.3H43.51l5.427-9.427h2.706L57.261,51.3H54.555l-4.309-7.206L48.128,47.9Z" transform="translate(7.316 4.779)" fill="#adadb1"/>
</svg>
