<svg id="Grupo_140" data-name="Grupo 140" xmlns="http://www.w3.org/2000/svg" width="62.524" height="78.844" viewBox="0 0 62.524 78.844">
  <g id="Grupo_139" data-name="Grupo 139" transform="translate(17.196 0)">
    <path id="Trazado_350" data-name="Trazado 350" d="M700.355,191.637l.118.841h6.394l.471,7.858.454-7.858h6.141l.135-.824a173.766,173.766,0,0,0,1.817-24.111l5.4-.707-5.4-.69a173.526,173.526,0,0,0-1.817-24.094l-.135-.808h-6.091l-.454-7.874-.454,7.874H700.54l-.1.824a203.588,203.588,0,0,0-1.582,24.094l-5.418.707,5.4.69a186.077,186.077,0,0,0,1.6,24.077m11.929-1.077h-4.526l1.245-22.142,4.812-.623a172.754,172.754,0,0,1-1.682,22.765m0-47.414a169.446,169.446,0,0,1,1.682,22.748l-4.812-.623-1.245-22.21Zm-10.1,0h4.593l-1.279,22.142-4.8.623a198.991,198.991,0,0,1,1.481-22.765m3.365,25.238,1.262,22.125h-4.61a181,181,0,0,1-1.481-22.748Z" transform="translate(-693.44 -133.37)" fill="#adadb1"/>
  </g>
  <path id="Trazado_351" data-name="Trazado 351" d="M702.8,176.217a1.313,1.313,0,0,1,.993.421,2.812,2.812,0,0,1,.589,1.211l.32-.084-.336-1.834a.4.4,0,0,1-.168.168.555.555,0,0,1-.252,0,1.06,1.06,0,0,1-.454-.118,1.465,1.465,0,0,0-.538-.1,2.02,2.02,0,0,0-1.784,1.043,5.839,5.839,0,0,0,0,5.351,1.936,1.936,0,0,0,1.683.858,1.581,1.581,0,0,0,1.194-.538,2.926,2.926,0,0,0,.656-1.464l-.235-.118a2.443,2.443,0,0,1-.572,1.262,1.38,1.38,0,0,1-1.043.471,1.3,1.3,0,0,1-1.262-.875,6.461,6.461,0,0,1-.37-2.389,5.8,5.8,0,0,1,.437-2.372,1.363,1.363,0,0,1,1.228-.959" transform="translate(-671.416 -104.355)" fill="#adadb1"/>
  <path id="Trazado_352" data-name="Trazado 352" d="M695.5,176.858l2.911,6.175h.252v-6.511a.3.3,0,0,1,.1-.252.371.371,0,0,1,.236,0h.3V176H697.79v.252h.3a.387.387,0,0,1,.269,0,.454.454,0,0,1,0,.252v4.846h0L695.755,176H694.56v.252h.555a.353.353,0,0,1,.084.252v5.923a.386.386,0,0,1-.084.252h-.555v.269h1.514v-.219h-.3a.354.354,0,0,1-.253,0,.387.387,0,0,1,0-.252v-5.637h0Z" transform="translate(-675.48 -104.273)" fill="#adadb1"/>
  <path id="Trazado_353" data-name="Trazado 353" d="M692.329,182.73h-.875a.4.4,0,0,1-.253,0,.3.3,0,0,1,0-.252v-5.923a.287.287,0,0,1,0-.252.421.421,0,0,1,.253,0h.875V176H689.3v.252h1.127a.355.355,0,0,1,0,.252v5.923a.37.37,0,0,1,0,.252H689.3v.269h3.029Z" transform="translate(-679.07 -104.273)" fill="#adadb1"/>
  <path id="Trazado_354" data-name="Trazado 354" d="M687.393,181.4h-.185a2.3,2.3,0,0,1-.572,1.094,1.279,1.279,0,0,1-.909.353H684.7a.336.336,0,0,1-.168-.118.3.3,0,0,1-.1-.252v-5.923a.3.3,0,0,1,.1-.252.337.337,0,0,1,.236,0h.269V176H683.22v.252h.236a.42.42,0,0,1,.286,0,.353.353,0,0,1,0,.252v5.923a.353.353,0,0,1,0,.252.319.319,0,0,1-.252.084h-.269v.252h3.9Z" transform="translate(-683.22 -104.273)" fill="#adadb1"/>
  <path id="Trazado_355" data-name="Trazado 355" d="M719.1,182.73h-.3a.4.4,0,0,1-.252,0,.387.387,0,0,1-.1-.252v-5.586h0l2.894,6.175h.3v-6.511c0-.118,0-.2.1-.252a.337.337,0,0,1,.236,0h.3V176H720.77v.252h.3a.387.387,0,0,1,.269,0,.455.455,0,0,1,0,.252v4.846h0L718.785,176H717.59v.252h.252a.4.4,0,0,1,.3,0,.354.354,0,0,1,.084.252v5.923a.184.184,0,0,1-.269.252h-.3v.269h1.514Z" transform="translate(-659.761 -104.273)" fill="#adadb1"/>
  <path id="Trazado_356" data-name="Trazado 356" d="M716.19,181.4H716a2.306,2.306,0,0,1-.572,1.094,1.279,1.279,0,0,1-.909.353H713.5a.42.42,0,0,1-.252-.084.286.286,0,0,1,0-.252v-5.923a.285.285,0,0,1,0-.252.421.421,0,0,1,.253,0h.269V176H712v.252h.236a.438.438,0,0,1,.286,0,.355.355,0,0,1,.084.252v5.923a.355.355,0,0,1-.084.252.37.37,0,0,1-.269.084H712v.252h3.9Z" transform="translate(-663.576 -104.273)" fill="#adadb1"/>
  <path id="Trazado_357" data-name="Trazado 357" d="M708.353,175.91a1.682,1.682,0,0,0-1.531,1.01,4.949,4.949,0,0,0-.589,2.608,4.862,4.862,0,0,0,.639,2.642,1.783,1.783,0,0,0,1.481,1.01,1.817,1.817,0,0,0,1.531-.993,5.132,5.132,0,0,0,.606-2.658,5.466,5.466,0,0,0-.572-2.557,1.682,1.682,0,0,0-1.565-1.06m1.413,3.617a6.424,6.424,0,0,1-.387,2.625,1.144,1.144,0,0,1-1.026.774c-.387,0-.74-.269-.993-.808a6.244,6.244,0,0,1-.4-2.591,5.957,5.957,0,0,1,.387-2.49c.252-.555.589-.841,1.009-.841a1.233,1.233,0,0,1,1.077.925,7.248,7.248,0,0,1,.336,2.406" transform="translate(-667.517 -104.334)" fill="#adadb1"/>
</svg>
