<svg id="Grupo_163" data-name="Grupo 163" xmlns="http://www.w3.org/2000/svg" width="92.486" height="30.752" viewBox="0 0 92.486 30.752">
  <path id="Trazado_377" data-name="Trazado 377" d="M134.163,102.774h2.432c.378.871.723,1.791,1,2.6h1.019l-2.875-6.72h-.23l-2.99,6.72h.69a25.558,25.558,0,0,1,.953-2.6m1.232-2.859,1.068,2.448h-2.119Z" transform="translate(-120.817 -74.742)" fill="#adadb1"/>
  <path id="Trazado_378" data-name="Trazado 378" d="M138.414,105.08a1.758,1.758,0,0,1-1.561-1h-.1a3.138,3.138,0,0,1-.164.854,2.415,2.415,0,0,0,1.561.559,2.2,2.2,0,0,0,2.382-2.185c0-2.054-3.039-1.347-3.039-3.105a1.134,1.134,0,0,1,1.216-1.117,1.2,1.2,0,0,1,1.183.821h.1a6.333,6.333,0,0,1,.263-.789,2.119,2.119,0,0,0-1.38-.46,1.889,1.889,0,0,0-2.136,1.84c0,2.169,3.007,1.38,3.007,3.171a1.347,1.347,0,0,1-1.331,1.413" transform="translate(-118.201 -74.748)" fill="#adadb1"/>
  <path id="Trazado_379" data-name="Trazado 379" d="M141.45,99.18v6.128h.854V99.18a15.117,15.117,0,0,1,2,.115,1.805,1.805,0,0,1,0-.3,1.642,1.642,0,0,1,0-.279H139.38a1.651,1.651,0,0,1,0,.279,1.809,1.809,0,0,1,0,.3,16.264,16.264,0,0,1,2.1-.115" transform="translate(-116.407 -74.697)" fill="#adadb1"/>
  <path id="Trazado_380" data-name="Trazado 380" d="M149.728,101.943a3.748,3.748,0,1,0-3.664,3.549,3.417,3.417,0,0,0,3.664-3.549m-6.26.263c0-1.955,1.019-3.286,2.711-3.286a2.514,2.514,0,0,1,1.988.936,3.138,3.138,0,0,1,.624,2.119,2.924,2.924,0,0,1-2.694,3.138,2.645,2.645,0,0,1-2.629-2.957" transform="translate(-114.383 -74.749)" fill="#adadb1"/>
  <path id="Trazado_381" data-name="Trazado 381" d="M148.282,100.137h.1l4.14,4.584c.2.214.394.46.493.591h.3V98.74h-.542v4.929h-.082L148.1,98.74h-.361v6.572h.542Z" transform="translate(-111.032 -74.684)" fill="#adadb1"/>
  <path id="Trazado_382" data-name="Trazado 382" d="M154.74,100.4c.657,1.249,1.314,2.5,1.939,3.762l.526,1.084h.115c.575-1.314,1.4-2.859,2.514-4.929.131.953.329,3.023.476,4.929h.9c-.263-1.84-.509-4.206-.772-6.572h-.2c-.969,1.742-1.857,3.417-2.777,5.044-1.019-1.643-1.939-3.5-2.711-5.044h-.246c-.1,1.019-.674,5.044-.92,6.572h.674c0-1.183.263-3.089.476-4.929" transform="translate(-107.271 -74.729)" fill="#adadb1"/>
  <path id="Trazado_383" data-name="Trazado 383" d="M160.263,102.774h2.432c.394.871.739,1.791,1.019,2.6h1l-2.892-6.72h-.214l-2.99,6.72h.69a25.555,25.555,0,0,1,.953-2.6m1.232-2.859,1.068,2.448h-2.119Z" transform="translate(-104.037 -74.742)" fill="#adadb1"/>
  <path id="Trazado_384" data-name="Trazado 384" d="M167.091,100.2c0-.969-.641-1.462-2.136-1.462H163v6.572h.838v-3.286h.361l.772.9,1.134,1.479c.2.263.394.526.608.838h1.1l-.181-.246-.46-.526-1.988-2.514c.986-.181,1.972-.706,1.972-1.824m-2.087,1.5a5.572,5.572,0,0,1-1.249,0V99.167a10.282,10.282,0,0,1,1.429,0,1.117,1.117,0,0,1,1.051,1.216,1.413,1.413,0,0,1-1.232,1.38" transform="translate(-101.221 -74.684)" fill="#adadb1"/>
  <path id="Trazado_385" data-name="Trazado 385" d="M167.99,99.18v6.128h.854V99.18a15.312,15.312,0,0,1,2,.115,1.805,1.805,0,0,1,0-.3,1.642,1.642,0,0,1,0-.279H165.92a1.638,1.638,0,0,1,0,.279,1.812,1.812,0,0,1,0,.3,16.43,16.43,0,0,1,2.1-.115" transform="translate(-99.343 -74.697)" fill="#adadb1"/>
  <path id="Trazado_386" data-name="Trazado 386" d="M170.444,98.74h-.854v6.572h.854Z" transform="translate(-96.984 -74.684)" fill="#adadb1"/>
  <path id="Trazado_387" data-name="Trazado 387" d="M171.782,100.137h.1l4.157,4.584c.2.214.394.46.493.591h.3V98.74h-.542v4.929h-.1l-4.551-4.929h-.394v6.572h.542Z" transform="translate(-95.923 -74.684)" fill="#adadb1"/>
  <path id="Trazado_388" data-name="Trazado 388" d="M216.651,84.1h-37.41a3.434,3.434,0,0,0-2.547.969,3.516,3.516,0,0,0-.936,1.742s0,.164-.361.164H168c-.329,0-.361-.131-.361-.148a3.861,3.861,0,0,0-.936-1.758,3.45,3.45,0,0,0-2.53-.969H126.733a1.4,1.4,0,0,0-1.15.591,1.314,1.314,0,0,0,0,1.347l.805,1.183a1.413,1.413,0,0,0,1.281.657.739.739,0,0,1,.542.411l.69,1.232a1.988,1.988,0,0,0,1.643,1.1.789.789,0,0,1,.559.411l.854,1.511a1.725,1.725,0,0,0,1.249.871L148.863,98a1.314,1.314,0,0,1,.739.756c.378.969.854,1.758,3.286,2.5l12.8,3.5a2.809,2.809,0,0,0,2.727-.575l3.007-2.859a.394.394,0,0,1,.591,0l2.99,2.859a2.842,2.842,0,0,0,2.744.575l12.716-3.549c2.432-.739,2.957-1.544,3.286-2.5a1.4,1.4,0,0,1,.756-.756l15.674-4.584a1.643,1.643,0,0,0,1.249-.871l.854-1.5a.772.772,0,0,1,.559-.427,1.988,1.988,0,0,0,1.643-1.1l.69-1.232a.739.739,0,0,1,.542-.411,1.331,1.331,0,0,0,1.265-.657l.69-1.134a1.644,1.644,0,0,0,.214-.772,1.1,1.1,0,0,0-.148-.559,1.4,1.4,0,0,0-1.166-.608m-40.2,2.875a2.858,2.858,0,0,1,.739-1.413,2.793,2.793,0,0,1,2.054-.756h17.185a3.778,3.778,0,0,0-.92,1.035c-.2.378-.46.805-.739,1.314h-18.3v-.181M190.709,91.1v-.854l1.643.23-.69.821-.953-.2m.526.657-.526.591v-.69Zm-.526-2.054v-.739l2.662.181-.624.821Zm0-1.314v-.706h3.647c-.181.3-.378.591-.608.92Zm-26.533-3.582a2.826,2.826,0,0,1,2.054.756,2.859,2.859,0,0,1,.739,1.413.59.59,0,0,0,0,.181H148.633l-.756-1.314a3.286,3.286,0,0,0-.9-1.035ZM151.689,91.38l-.657-.871,1.643-.23v.854Zm.936.361v.69c-.164-.214-.345-.394-.526-.591l.526-.1M150.6,90.1l-.624-.821,2.645-.181v.739Zm-1-1.364-.624-.92h3.7v.706Zm-21.95-1.512c-.476,0-.575-.1-.723-.345l-.674-1.1a.855.855,0,0,1-.131-.444c0-.246.181-.444.641-.46h18.647a2.662,2.662,0,0,1,2,1.3c.164.312.361.657.591,1.051Zm2.53,2.629a1.167,1.167,0,0,1-.723-.624c-.3-.509-.674-1.232-.871-1.479H148.3c.181.312.394.624.608.953L131.6,89.852a5.307,5.307,0,0,1-1.446,0m2.366,2.3-.838-1.479a1.084,1.084,0,0,0-.2-.279l17.908-1.216.641.887-16.594,2.218c-.624,0-.822-.131-.854-.164m4.929,1.758-3.7-1.084,16.528-2.284c.246.279.476.575.723.871l-11.4,2.415a6.325,6.325,0,0,1-2.267.115m5.652,1.643-3.877-1.134.608-.1,11.7-2.415c.345.378.69.756,1.084,1.15L144.9,95.438a3.647,3.647,0,0,1-1.856.148m5.964,1.741-4.321-1.265a1.642,1.642,0,0,0,.378-.1l7.919-2.448a20.873,20.873,0,0,0,1.774,1.643l-4.14,1.939a2.809,2.809,0,0,1-1.643.3m15.263,2.185a27.037,27.037,0,0,1-2.809-.986l4.83-5.044h1.528Zm4.189-6.03h1.281l-1.873,6.769a30.465,30.465,0,0,1-3.056-.608l3.647-6.161m-7.541,4.7a24.88,24.88,0,0,1-2.284-1.167l5.093-3.647h1.791ZM158.1,96.785a23,23,0,0,1-2.366-1.643l3.7-1.742h3.286ZM155.238,94.8s-1.1-.936-1.643-1.364h4.469Zm-2.908,5.57c-1.643-.624-1.873-1.232-2.1-1.824a2.086,2.086,0,0,0-.394-.657,5.568,5.568,0,0,0,1.019-.345s2.2-1.019,4.354-2.054a21.249,21.249,0,0,0,2.448,1.643l-3.861,2.76a1.922,1.922,0,0,1-1.462.411m4.633,1.3-3.434-.936a3.582,3.582,0,0,0,.591-.329l4.042-2.908a23.38,23.38,0,0,0,2.382,1.232l-2.251,2.349c-.2.2-.838.706-1.331.591m4.732,1.3-3.664-1a4.089,4.089,0,0,0,.657-.526l2.382-2.481a22.889,22.889,0,0,0,2.924,1.035l-1.216,2.087c-.148.279-.657.969-1.084.9m4.8,1.019a1,1,0,0,1-.739.1l-3.286-.887a3.5,3.5,0,0,0,.706-.854l1.282-2.185a26.288,26.288,0,0,0,3.2.641L167.034,103a1.643,1.643,0,0,1-.608.936m1.429-.279a1.643,1.643,0,0,1-.789.427,2.463,2.463,0,0,0,.509-.986l.624-2.284c.805.1,1.643.148,2.448.181l-2.727,2.662m3.516-3.286a30.238,30.238,0,0,1-3.023-.164l1.889-6.835h1.134Zm-18.269-7.475h0V87.7h37.065v5.192Zm22.393.542h1.528l4.83,5.044a22.634,22.634,0,0,1-2.809.969Zm3.007,6.161a29.582,29.582,0,0,1-3.056.608l-1.857-6.769h1.281Zm-.706-6.161h1.774l5.109,3.647a23,23,0,0,1-2.284,1.166l-4.6-4.814m2.711,0h3.286l3.7,1.742a22.992,22.992,0,0,1-2.366,1.643l-4.682-3.286m4.633,0h4.452c-.46.46-1.528,1.331-1.561,1.364l-2.892-1.364m-13.176,6.835V93.433h1.117l1.906,6.835a26.416,26.416,0,0,1-3.023.164m3.056,2.76-2.333-2.218a23.5,23.5,0,0,0,2.432-.181l.641,2.3a2.3,2.3,0,0,0,.509.969c-.493-.131-.641-.279-1.249-.871m2.612.821a1.019,1.019,0,0,1-.739-.1,1.742,1.742,0,0,1-.608-.936l-.608-2.251a28.342,28.342,0,0,0,3.2-.641l1.3,2.185a2.958,2.958,0,0,0,.69.854Zm4.058-1.117c-.427,0-.92-.624-1.068-.887l-1.216-2.087a22.888,22.888,0,0,0,2.924-1.035l2.382,2.481a3.384,3.384,0,0,0,.657.526Zm5.372-1.462-.624.164c-.509.115-1.134-.394-1.331-.591l-2.251-2.284a23.135,23.135,0,0,0,2.366-1.232l4.058,2.875a2.908,2.908,0,0,0,.591.329l-2.809.772m6.1-2.957c-.214.591-.46,1.2-2.087,1.824a1.988,1.988,0,0,1-1.462-.394l-3.877-2.859q1.264-.761,2.448-1.643l4.37,2.054a5.076,5.076,0,0,0,1.019.345,2.809,2.809,0,0,0-.411.657m1.232-1.2a2.776,2.776,0,0,1-1.643-.3l-4.14-1.939a15.235,15.235,0,0,0,1.774-1.643l7.919,2.432a1.642,1.642,0,0,0,.361.1Zm5.931-1.758a4.091,4.091,0,0,1-1.873-.131h0l-7.64-2.349c.378-.378.739-.772,1.084-1.15l11.714,2.4.608.1Zm5.652-1.643a6.308,6.308,0,0,1-2.267-.115s-7.82-1.643-11.4-2.349c.246-.279.476-.575.706-.854l16.659,2.234Zm5.7-3.286-.821,1.462c-.148.263-.23.246-.871.164l-16.594-2.218c.246-.312.444-.608.657-.887L211.673,90.3h.2l-.2.3m2.941-2.744-.706,1.249a1.166,1.166,0,0,1-.723.624,5.423,5.423,0,0,1-1.462,0l-17.317-1.15c.23-.329.444-.641.624-.953h19.715l-.148.23m2.5-2.2-.674,1.1c-.131.2-.214.3-.723.345H195.391c.23-.394.427-.739.591-1.051a2.547,2.547,0,0,1,2-1.3h18.647a.608.608,0,0,1,.575.263.28.28,0,0,1,0,.2,1.051,1.051,0,0,1-.131.444" transform="translate(-125.397 -84.098)" fill="#adadb1"/>
  <path id="Trazado_389" data-name="Trazado 389" d="M144.343,86.79,142.7,90.339h.493c.131-.427.3-.838.444-1.232v-.1h1.2c.164.378.345.821.526,1.347h.608l-1.528-3.549Zm-.542,1.988s.444-1.051.509-1.166.46,1.1.493,1.166Z" transform="translate(-114.272 -82.367)" fill="#adadb1"/>
  <path id="Trazado_390" data-name="Trazado 390" d="M146.114,88.279c-.378-.148-.723-.279-.723-.706a.559.559,0,0,1,.591-.559.624.624,0,0,1,.591.427h.1l.1-.345h0a1.133,1.133,0,0,0-.723-.246c-.706,0-1.15.378-1.15.986s.46.789.854.953.706.263.706.69a.674.674,0,0,1-.657.706.871.871,0,0,1-.789-.509h-.1l-.115.493h0a1.331,1.331,0,0,0,.821.3,1.167,1.167,0,0,0,1.265-1.166c0-.575-.427-.739-.838-.9" transform="translate(-112.922 -82.329)" fill="#adadb1"/>
  <path id="Trazado_391" data-name="Trazado 391" d="M148.859,87.208V86.83H146.23v.378h0a9.117,9.117,0,0,1,1.068,0V90.4h.493V87.109a10.067,10.067,0,0,1,1.019,0Z" transform="translate(-112.003 -82.341)" fill="#adadb1"/>
  <path id="Trazado_392" data-name="Trazado 392" d="M149.65,86.792a1.819,1.819,0,1,0-.016,3.631,1.807,1.807,0,0,0,1.939-1.857,1.758,1.758,0,0,0-1.922-1.742m1.364,1.84a1.643,1.643,0,0,1-.444,1.15,1.249,1.249,0,0,1-.92.394,1.347,1.347,0,0,1-1.331-1.528c0-1,.526-1.643,1.38-1.643a1.314,1.314,0,0,1,1.019.476,1.643,1.643,0,0,1,.3,1.084Z" transform="translate(-111.02 -82.369)" fill="#adadb1"/>
  <path id="Trazado_393" data-name="Trazado 393" d="M153.022,86.83v2.579L150.64,86.83h-.23V90.4h.345V87.619h0l2.152,2.366.263.312h.2V86.83Z" transform="translate(-109.315 -82.341)" fill="#adadb1"/>
  <path id="Trazado_394" data-name="Trazado 394" d="M157.028,86.83h-.148l-.838,1.528s-.542.969-.575,1.068c-.526-.871-.986-1.774-1.38-2.579h-.181c0,.509-.345,2.612-.476,3.4h.411c0-.493.1-1.216.181-2v-.476a16.227,16.227,0,0,1,.953,1.873l.3.575h.1c.3-.657.706-1.429,1.249-2.432.1.608.2,1.791.246,2.481h.526c-.115-.838-.246-1.955-.411-3.4Z" transform="translate(-107.373 -82.341)" fill="#adadb1"/>
  <path id="Trazado_395" data-name="Trazado 395" d="M157.643,86.79h0L156,90.421h.427c.131-.427.3-.854.46-1.249H158.1c.164.394.345.838.526,1.347h.657l-1.512-3.549Zm-.608,1.988.493-1.166.509,1.166Z" transform="translate(-105.721 -82.367)" fill="#adadb1"/>
  <path id="Trazado_396" data-name="Trazado 396" d="M160.394,87.619c0-.526-.378-.789-1.15-.789H158.16V90.4h.509V88.752h.131l.411.476.575.756.329.444h.641l-1.364-1.643c.624-.115,1-.476,1-.969m-1.725.772V87.109a3.287,3.287,0,0,1,.69,0,.542.542,0,0,1,.526.591.706.706,0,0,1-.624.69,2.467,2.467,0,0,1-.591,0" transform="translate(-104.332 -82.341)" fill="#adadb1"/>
  <path id="Trazado_397" data-name="Trazado 397" d="M159.716,86.869v.378h0a9.006,9.006,0,0,1,1.051,0v3.187h.509V87.148a9.514,9.514,0,0,1,1,0h0V86.77H159.65Z" transform="translate(-103.374 -82.38)" fill="#adadb1"/>
  <line id="Línea_5" data-name="Línea 5" y1="3.45" transform="translate(59.644 4.505)" fill="none" stroke="#adadb1" stroke-miterlimit="10" stroke-width="0.22"/>
  <path id="Trazado_398" data-name="Trazado 398" d="M164.9,89.409h0l-2.366-2.579h-.246V90.4h.345V87.619h0l2.136,2.366.279.312h.181V86.83H164.9Z" transform="translate(-101.677 -82.341)" fill="#adadb1"/>
</svg>
