<svg id="Grupo_138" data-name="Grupo 138" xmlns="http://www.w3.org/2000/svg" width="36.16" height="60.613" viewBox="0 0 36.16 60.613">
  <path id="Trazado_304" data-name="Trazado 304" d="M743.66,142.38c-4.879,0-9.445,3.181-12.86,8.977a46.152,46.152,0,0,0,0,42.679c3.415,5.854,7.981,8.957,12.86,8.957s9.445-3.181,12.86-8.957a46.308,46.308,0,0,0,0-42.679c-3.415-5.854-7.982-8.977-12.86-8.977m0,59.715c-4.547,0-8.821-3.025-12.08-8.508a45.236,45.236,0,0,1,0-41.781c3.259-5.5,7.533-8.528,12.08-8.528s8.821,3.025,12.08,8.528a45.392,45.392,0,0,1,0,41.781c-3.259,5.484-7.533,8.508-12.08,8.508" transform="translate(-725.57 -142.38)" fill="#adadb1"/>
  <path id="Trazado_305" data-name="Trazado 305" d="M738.981,95.342V95.03H722.12v.312h16.861Z" transform="translate(-712.461 -66.734)" fill="#adadb1"/>
  <path id="Trazado_306" data-name="Trazado 306" d="M730.55,96.252h8.43V95.94H722.12v.312Z" transform="translate(-712.461 -65.868)" fill="#adadb1"/>
  <path id="Trazado_307" data-name="Trazado 307" d="M740.316,95.45H721.66v.312h18.656Z" transform="translate(-712.898 -66.334)" fill="#adadb1"/>
  <path id="Trazado_308" data-name="Trazado 308" d="M746.58,159.937a1.268,1.268,0,0,0,1.21-1.327h.82v-.39H730.09v.39h.839a1.249,1.249,0,0,0,1.19,1.327c.82,0,1.132-.507,1.132-1.268a3.357,3.357,0,0,1,3.9,3.591h4.469a3.337,3.337,0,0,1,3.9-3.591c0,.761.293,1.268,1.112,1.268" transform="translate(-721.27 -127.309)" fill="#adadb1"/>
  <path id="Trazado_309" data-name="Trazado 309" d="M739.628,160.5h-6.323a.176.176,0,0,0-.176.156v1.249a.156.156,0,0,0,.176.156h6.323a.156.156,0,0,0,.156-.156v-1.249a.176.176,0,0,0-.156-.156" transform="translate(-718.377 -125.139)" fill="#adadb1"/>
  <path id="Trazado_310" data-name="Trazado 310" d="M731.544,166.554v.937H750.2v-.937h-.82a23.632,23.632,0,0,1,3.9-14.07,11.924,11.924,0,0,0-5.464,3.9c.82-.273,1.542-.82,2.264-1.093a39.151,39.151,0,0,0-2.83,11.24H745.3c-2.381-3.9-3.727-6.167-3.727-14.324a8.976,8.976,0,0,0,3.083,1.542,13.329,13.329,0,0,1-3.766-8.352,13.33,13.33,0,0,1-3.786,8.352,9.053,9.053,0,0,0,3.1-1.542c0,8.157-1.366,10.343-3.747,14.324h-1.951a39.139,39.139,0,0,0-2.829-11.24c.722.273,1.463.82,2.283,1.093a11.924,11.924,0,0,0-5.464-3.9,23.611,23.611,0,0,1,3.9,14.07Zm10.187-3.9a14.442,14.442,0,0,0,1.952,3.9h-1.952Zm-1.737,0v3.9h-1.952a14.405,14.405,0,0,0,1.952-3.9" transform="translate(-722.782 -139.507)" fill="#adadb1"/>
  <path id="Trazado_311" data-name="Trazado 311" d="M729.57,105.045h.917l-.468-1.8Z" transform="translate(-705.372 -58.913)" fill="#adadb1"/>
  <path id="Trazado_312" data-name="Trazado 312" d="M744.815,164.418v-2.752a.176.176,0,0,0-.156-.156h-4.566a.176.176,0,0,0-.176.156v2.752h-13c2.3,10.987,8.352,18.812,15.456,18.812s13.153-7.806,15.456-18.812Zm-11.533,7.435h-.624v-3.9l-1.054,3.044-.956-3.044v3.9H730v-4.9h.976l.6,2.108.605-2.108h1.034Zm3.1,0-.195-.761h-1.308l-.176.761h-.839l1.327-4.84h.722l1.366,4.84Zm3.9-.624a1.016,1.016,0,0,1-.449.527,1.308,1.308,0,0,1-.742.176c-.429,0-.761-.137-1.5-.683l.507-.624c.625.41.781.488,1,.488a.624.624,0,0,0,.488-.2.7.7,0,0,0,.176-.468.469.469,0,0,0,0-.293.507.507,0,0,0-.234-.215,6.245,6.245,0,0,0-.566-.293,3.9,3.9,0,0,1-.859-.6,1.21,1.21,0,0,1-.468-.9,1.7,1.7,0,0,1,.176-.7.957.957,0,0,1,.429-.449,1.678,1.678,0,0,1,.8-.137,1.757,1.757,0,0,1,1.249.625l-.527.566a1.425,1.425,0,0,0-.7-.41.624.624,0,0,0-.488.137.429.429,0,0,0,0,.585,3.2,3.2,0,0,0,.664.527c.332.2.6.332.761.449a1.878,1.878,0,0,1,.429.527,1.27,1.27,0,0,1,.117.644,1.579,1.579,0,0,1-.175.722m2.986.624h-2.244v-4.9h2.166v.82H741.81v1.054h1.347v.82H741.81v1.327h1.542Zm3.22,0h-.7l-.527-1.073h-.41v1.054h-.683v-4.879h.683c1.054,0,2.108.312,2.108,1.776a1.717,1.717,0,0,1-1.093,1.854Zm3.337,0-.176-.761h-1.386l-.176.761h-.839l1.307-4.84h.742l1.386,4.84Zm3.356-4.02H752.25v4.02h-.683v-4.02h-1.074v-.82h2.713Zm.781-.82h.683v4.84h-.683Z" transform="translate(-724.286 -124.178)" fill="#adadb1"/>
  <path id="Trazado_313" data-name="Trazado 313" d="M722.69,105.045h.937l-.488-1.8Z" transform="translate(-711.918 -58.913)" fill="#adadb1"/>
  <path id="Trazado_314" data-name="Trazado 314" d="M736.1,164.67v2.342c.566,0,1.346-.117,1.346-1.249s-.683-1.093-1.346-1.093" transform="translate(-715.551 -121.172)" fill="#adadb1"/>
</svg>
