<svg id="Grupo_157" data-name="Grupo 157" xmlns="http://www.w3.org/2000/svg" width="103.364" height="38.46" viewBox="0 0 103.364 38.46">
  <path id="Trazado_487" data-name="Trazado 487" d="M343.3,210.517a3.365,3.365,0,0,0,1.809-2.967c0-.76-.344-3.31-3.835-3.31H329.48V216.9h11.795c3.907,0,4.07-2.424,4.07-3.618a3.129,3.129,0,0,0-2.062-2.768m-10-3.727h6.928a1.3,1.3,0,0,1,1.411,1.284,1.23,1.23,0,0,1-1.3,1.375h-7.037Zm7.091,7.507h-7.091v-2.713h7.037a1.429,1.429,0,0,1,1.538,1.429,1.357,1.357,0,0,1-1.483,1.357" transform="translate(-294.496 -178.516)" fill="#adadb1"/>
  <path id="Trazado_488" data-name="Trazado 488" d="M362.672,212a4.107,4.107,0,0,0,1.9-3.256,3.98,3.98,0,0,0-4.45-4.486H348.87v12.663h3.853V213.01h6.8a1.936,1.936,0,0,1,1.809,1.809v2.026H364.7v-1.954a3.763,3.763,0,0,0-1.954-2.912m-3.075-1.357h-6.928v-3.835h6.928c.941,0,1.538,1.1,1.538,2.008a1.809,1.809,0,0,1-1.538,1.809" transform="translate(-278.81 -178.53)" fill="#adadb1"/>
  <path id="Trazado_489" data-name="Trazado 489" d="M345.05,204.24,338.23,216.9h3.781l1.429-2.551h7.941l1.357,2.551h3.727l-6.8-12.663Zm-.235,7.344,2.478-4.577,2.6,4.577Z" transform="translate(-287.417 -178.516)" fill="#adadb1"/>
  <path id="Trazado_490" data-name="Trazado 490" d="M370.7,204.24v9.045c0,.488-.181,1.067-.886,1.067h-6.657a.941.941,0,0,1-1.067-1.013c0-3.907-.145-9.045,0-9.045H358.34V214.37c0,1.936,2.08,2.6,4.378,2.6h8.665c1.809,0,3.166-1.031,3.13-2.6v-10Z" transform="translate(-271.149 -178.516)" fill="#adadb1"/>
  <path id="Trazado_491" data-name="Trazado 491" d="M323.652,209.22c-3.021-.145-6.693-.109-8.955-.235-1.23,0-1.23-2.424.127-2.424h6.928c.941,0,.941,1.031.941,1.067h3.473c0-.163.362-3.618-2.949-3.618H313.2c-1.646,0-2.84.995-2.84,2.225v2.677c0,1.719,1.538,2.551,3.618,2.6,3.13.09,5.029.181,7.525.308a1.357,1.357,0,1,1,0,2.713h-6.458a1.393,1.393,0,0,1-1.411-1.483h-3.437a3.437,3.437,0,0,0,3.256,4.034h9.9a2.677,2.677,0,0,0,3-2.6s0-2.6,0-2.659a2.6,2.6,0,0,0-2.659-2.551" transform="translate(-310.141 -178.702)" fill="#adadb1"/>
  <path id="Trazado_492" data-name="Trazado 492" d="M332.143,204.24v9.045c0,.488-.181,1.067-.886,1.067h-6.621a.977.977,0,0,1-1.085-1.013c0-3.907,0-9.045,0-9.045H319.77V214.37c0,1.918,2.008,2.6,4.324,2.6h8.647c1.809,0,3.22-1.031,3.2-2.6v-10Z" transform="translate(-302.351 -178.516)" fill="#adadb1"/>
  <path id="Trazado_493" data-name="Trazado 493" d="M334.744,193.258c-3.473,2.062-5.644,4.848-5.644,7.688s2.171,5.59,5.626,7.634a26.718,26.718,0,0,0,25.326,0c3.473-2.026,5.662-4.794,5.662-7.634s-2.207-5.644-5.68-7.688a26.375,26.375,0,0,0-25.326,0m30.463,7.688c0,2.641-2.08,5.228-5.427,7.236a26.031,26.031,0,0,1-24.819,0c-3.292-1.936-5.427-4.522-5.427-7.236s2.1-5.264,5.427-7.236a25.742,25.742,0,0,1,24.765,0c3.328,1.972,5.427,4.595,5.427,7.236" transform="translate(-294.803 -190.02)" fill="#adadb1"/>
  <path id="Trazado_494" data-name="Trazado 494" d="M331.216,129.75l-1.7,4.305-7.525,1.61,7.525,1.61,1.791,4.577,1.791-4.486,8.159-1.7-8.249-1.791Z" transform="translate(-285.36 -126.891)" fill="#adadb1"/>
  <path id="Trazado_495" data-name="Trazado 495" d="M333.688,135.161l-3.238.706,3.238.724.814,1.972.706-1.881,3.491-.814-3.491-.706-.8-1.791Z" transform="translate(-278.516 -123.963)" fill="#adadb1"/>
  <path id="Trazado_496" data-name="Trazado 496" d="M339.154,133.37l-.8,1.791-3.148.706,3.148.724.8,1.972.724-1.881,3.491-.814-3.491-.706Z" transform="translate(-274.665 -123.963)" fill="#adadb1"/>
  <path id="Trazado_497" data-name="Trazado 497" d="M337.946,135.65l.724-1.99,3.491-.705-3.491-.724-.814-1.791-.706,1.791-3.22.724,3.22.705Z" transform="translate(-275.7 -126.333)" fill="#adadb1"/>
  <path id="Trazado_498" data-name="Trazado 498" d="M336.084,135.74l-.8,1.791-3.148.724,3.148.706.8,1.881.8-1.881,3.509-.706-3.6-.814Z" transform="translate(-277.149 -122.046)" fill="#adadb1"/>
  <path id="Trazado_499" data-name="Trazado 499" d="M330.934,136.04l-.724,1.881-3.22.724,3.22.615.814,1.972.724-1.881,3.491-.705-3.491-.814Z" transform="translate(-281.315 -121.803)" fill="#adadb1"/>
</svg>
