<svg id="Grupo_145" data-name="Grupo 145" xmlns="http://www.w3.org/2000/svg" width="83.211" height="36.528" viewBox="0 0 83.211 36.528">
  <path id="Trazado_318" data-name="Trazado 318" d="M448.121,169.528a9.321,9.321,0,0,0,4.812,1.06,9.893,9.893,0,0,0,5.418-1.245,9.776,9.776,0,0,0,3.214-4.122l-5.822-.673a4.255,4.255,0,0,1-1.026,1.195,2.826,2.826,0,0,1-1.683.555,2.557,2.557,0,0,1-2.221-1.262,5.166,5.166,0,0,1-.774-2.625h11.778v-.824a15.8,15.8,0,0,0-1.009-6.141,7.74,7.74,0,0,0-2.911-3.584,9.389,9.389,0,0,0-5.216-1.245,7.908,7.908,0,0,0-6.411,2.776,10.953,10.953,0,0,0-2.305,7.252,12.13,12.13,0,0,0,1.161,5.468,7.89,7.89,0,0,0,2.911,3.365m2.726-13.158a2.574,2.574,0,0,1,2.271-1.4,2.356,2.356,0,0,1,1.952.925,5.519,5.519,0,0,1,.925,3.045h-5.822a5.786,5.786,0,0,1,.673-2.574" transform="translate(-400.454 -142.338)" fill="#adadb1"/>
  <path id="Trazado_319" data-name="Trazado 319" d="M467.912,150.624a5.048,5.048,0,0,0-2.86.841,8.412,8.412,0,0,0-2.1,2.406v-2.81H457.43v27.813h6.007V168.307a6.055,6.055,0,0,0,2.019,1.683,5.266,5.266,0,0,0,2.49.572,5.553,5.553,0,0,0,4.661-2.507,12.2,12.2,0,0,0,1.834-7.269,14.521,14.521,0,0,0-1.682-7.269,5.3,5.3,0,0,0-4.8-2.928m-.118,13.46a2.07,2.07,0,0,1-1.682,1.043A2.272,2.272,0,0,1,464.228,164a5.905,5.905,0,0,1-.774-3.365,6.562,6.562,0,0,1,.74-3.55,2.254,2.254,0,0,1,1.9-1.11,2.1,2.1,0,0,1,1.767,1.111,6.141,6.141,0,0,1,.723,3.365,6.949,6.949,0,0,1-.69,3.584" transform="translate(-391.255 -142.346)" fill="#adadb1"/>
  <path id="Trazado_320" data-name="Trazado 320" d="M432.183,172.342a7.773,7.773,0,0,0,2.591-4,27.932,27.932,0,0,0,.656-6.865V145.69h-6.6v17.7a7.992,7.992,0,0,1-.522,3.365,1.683,1.683,0,0,1-1.683,1.01,1.531,1.531,0,0,1-1.077-.336,3.012,3.012,0,0,1-.791-1.363,12.877,12.877,0,0,1-.236-2.591l-6.427-.236a22.074,22.074,0,0,0,1.3,6.444,6.966,6.966,0,0,0,2.726,3.146,9.59,9.59,0,0,0,5.048,1.077,7.538,7.538,0,0,0,5.048-1.683" transform="translate(-418.1 -145.69)" fill="#adadb1"/>
  <path id="Trazado_321" data-name="Trazado 321" d="M435.174,169.528a9.236,9.236,0,0,0,4.812,1.06,9.893,9.893,0,0,0,5.418-1.245,9.774,9.774,0,0,0,3.214-4.122l-5.822-.673a4.255,4.255,0,0,1-1.026,1.195,2.809,2.809,0,0,1-1.682.555,2.608,2.608,0,0,1-2.255-1.262,5.533,5.533,0,0,1-.757-2.625h11.778v-.824a15.8,15.8,0,0,0-1.01-6.141,7.673,7.673,0,0,0-2.928-3.584,9.321,9.321,0,0,0-5.2-1.245,7.908,7.908,0,0,0-6.41,2.776,10.97,10.97,0,0,0-2.322,7.252,12.35,12.35,0,0,0,1.161,5.468,8.026,8.026,0,0,0,2.928,3.365m2.675-13.158a2.524,2.524,0,0,1,2.238-1.4,2.406,2.406,0,0,1,1.969.925,5.519,5.519,0,0,1,.925,3.046h-5.822a5.553,5.553,0,0,1,.69-2.574" transform="translate(-409.313 -142.338)" fill="#adadb1"/>
</svg>
