<svg id="Grupo_134" data-name="Grupo 134" xmlns="http://www.w3.org/2000/svg" width="41.354" height="55.881" viewBox="0 0 41.354 55.881">
  <path id="Trazado_297" data-name="Trazado 297" d="M738.17,15.863v1.081l20.685-3.636,20.668,3.636V15.863L758.855,12.21Z" transform="translate(-738.17 -12.21)" fill="#adadb1"/>
  <path id="Trazado_298" data-name="Trazado 298" d="M746.57,78.959V93.624a39.828,39.828,0,0,0,4.168,17.409c6.4,13.293,16.312,17.941,16.415,17.992h.309c.1,0,10-4.7,16.414-17.992a39.831,39.831,0,0,0,4.031-17.409V78.959L767.221,75.34ZM787.2,93.624a39.072,39.072,0,0,1-4.048,17.152,38.4,38.4,0,0,1-15.917,17.564,38.505,38.505,0,0,1-15.917-17.564,39.075,39.075,0,0,1-4.014-17.152V83.058c1.132-.583,8.147-3.928,20-3.928s18.867,3.43,19.931,3.928Z" transform="translate(-746.57 -73.145)" fill="#adadb1"/>
  <path id="Trazado_299" data-name="Trazado 299" d="M764.987,98.7a5.146,5.146,0,0,0-2.161-.12,1.389,1.389,0,0,0-1.252,1.166.7.7,0,0,0,.909.617,1,1,0,0,0,.635-.7,1.836,1.836,0,0,1-.635.309c-.326,0-.5-.172-.412-.394a.84.84,0,0,1,.737-.583,4.751,4.751,0,0,1,1.235,0c.617,0,.926.154.772.446a4.524,4.524,0,0,0-.72,1.183c-.137.326-.1.5-.326.5a.875.875,0,0,0-.635.137.686.686,0,0,0-.24.549.772.772,0,0,1,.72-.326c.12,0,0,.309,0,.549s-.737,1.852-1.989,1.852a1.406,1.406,0,0,1-1.458-1.475c.12-.326.343,0,.617-.1s.515-.48.172-.72c-.806-.549-1.561.806-.738,1.972a1.973,1.973,0,0,0,2.693.377,3.327,3.327,0,0,0,1.235-1.492c.223-.446.412-.926.412-.926a2.315,2.315,0,0,0,.686-.1,1.082,1.082,0,0,0,.515-.5,2.041,2.041,0,0,1-1.063.137,6.17,6.17,0,0,1,.343-.875,2.264,2.264,0,0,1,.686-.892,16.147,16.147,0,0,0,1.818-.223,4.338,4.338,0,0,0,1.424-.7,7.838,7.838,0,0,1-2.144.377,5.146,5.146,0,0,1-1.715,0" transform="translate(-737.063 -56.681)" fill="#adadb1"/>
  <path id="Trazado_300" data-name="Trazado 300" d="M756.686,100.415c-.96-.377-1.527-.583-1.544-1.046,0-.772.995-.583,1.2-.515a2.916,2.916,0,0,1,1.715,1.372s-.206-1.252-.24-1.492-.189-.206-.257-.189-.154.257-.154.257-3.156-1.321-3.156.755c0,.978,1.029,1.132,1.492,1.372.926.5,2.092.789,2.213,1.527s-.515,1.406-1.715,1.406a1.715,1.715,0,0,1-1.715-1.458c0-.24.274,0,.48,0a.412.412,0,0,0,.36-.6c-.12-.309-1.115-.326-1.115.669a1.955,1.955,0,0,0,2.041,1.852,2.058,2.058,0,0,0,2.161-1.492c.309-1.355-.343-1.818-1.715-2.333" transform="translate(-741.077 -56.66)" fill="#adadb1"/>
  <path id="Trazado_301" data-name="Trazado 301" d="M761.643,98.937l.515.24a.686.686,0,0,0,.549,0,1.2,1.2,0,0,0,.412-.566.276.276,0,0,0,0-.257,8.259,8.259,0,0,1-.686-1.938,6.271,6.271,0,0,1,0-1.3,4.721,4.721,0,0,0,0-.755c0-.1-.189-.206-.36-.309l-.292-.206a.566.566,0,0,1-.154-.463v-.274a6.276,6.276,0,0,0-1.6-1.715c-.291,0-.377.309-.394.5a6.106,6.106,0,0,0,.24,1.081l.137.549a11.015,11.015,0,0,0,1.441,3.036l.189.309a.309.309,0,0,1-.1.412,6.963,6.963,0,0,1-1.887-.172,5.137,5.137,0,0,1-.858-.309,5.147,5.147,0,0,0-.841-.274.943.943,0,0,0-.394,0H757.3a3.6,3.6,0,0,0-1.252-.257c-1.166-.12-1.269.12-1.321.24s.669.926.789,1.029a1.716,1.716,0,0,0,1.012.292,6.76,6.76,0,0,1,1.063-.12h.223a6.859,6.859,0,0,0,.943.1,7.953,7.953,0,0,1,1.269.223l.5.1a6.258,6.258,0,0,1,1.1.48m.429-1.029a.189.189,0,0,1,.189.172.172.172,0,0,1-.189.172.189.189,0,0,1-.189-.172.206.206,0,0,1,.189-.171m-6.278-.309c-.154,0-.274-.086-.274-.189s.12-.189.274-.189.274.086.274.189-.12.189-.274.189m2.23,0c-.1,0-.189,0-.189-.12s.086-.137.189-.137.189,0,.189.137,0,.12-.189.12m1.715.532c-.343-.086-.995-.292-.961-.412h0a2.418,2.418,0,0,1,1.012.12c.36,0,.995.292.961.429h0a2.436,2.436,0,0,1-1.012-.12" transform="translate(-740.735 -61.666)" fill="#adadb1"/>
  <path id="Trazado_302" data-name="Trazado 302" d="M763.344,78.676l-.137.292-.137.206h0v.24a1.116,1.116,0,0,0,.137.154v.189h-.549l-.429-.206-.343-.12H761.1a1.6,1.6,0,0,0-.154.206h-.137l-.343.137h0l.172.12h.737l.532.137.086.154.1.137-.223.137-.652.274-1.338.738-.875.137-.343.189-.292.395-.155.463v.823a.446.446,0,0,0,.429,0,4.337,4.337,0,0,1,.875-.257.12.12,0,0,1,.154,0,.15.15,0,0,1-.1.137h0c-.377.12-.789.24-.772.395v.12a1.509,1.509,0,0,0,.875,0h.24a1.906,1.906,0,0,1,.669-.12,1.028,1.028,0,0,1,.36.137,1.716,1.716,0,0,0,.669.189,3.072,3.072,0,0,1,.841.154.981.981,0,0,1,0,.5v.137a7.189,7.189,0,0,1-2.178,3.31,1.613,1.613,0,0,0-.326.343v.189a.565.565,0,0,1-.343.377c-.12,0-.394.274-.737.515a4.064,4.064,0,0,1-1.218.772,8.88,8.88,0,0,1-1.6-.96c-1.235-1.2-1.715-.943-2.076-.806h0c-.36.172-.737,1.218-.789,1.441l-.154.652-.1.48a8.913,8.913,0,0,1-.343.926l-.292.823a5.136,5.136,0,0,1-.274.686l-.12.326a8.227,8.227,0,0,0,0,2.624h0c.172,0,.5-.36.669-.532h0a1.355,1.355,0,0,0,.291-.669,3.937,3.937,0,0,0,0-.566,3.429,3.429,0,0,1-.1-1.715v-.137c0-.154.154-.309.292-.463l.189-.206a.583.583,0,0,1,.291-.223h.155a1.715,1.715,0,0,0,.36-.532l.155-.652V90.7h0a.223.223,0,0,1,.189,0l1.1,1.269a3.075,3.075,0,0,1,.566.583h0a6.862,6.862,0,0,1-1.063-.189c-1.046-.309-1.527-.257-1.9.206A3.928,3.928,0,0,0,752.9,94.9c0,.154.463,2.127.48,2.4a1.718,1.718,0,0,0,.223.823h0a1.716,1.716,0,0,1,.532.823,3.225,3.225,0,0,0,1.149,1.441.137.137,0,0,0,.12,0c.24-.154.343-.943.343-1.269a1.184,1.184,0,0,0-.274-.84h0a.961.961,0,0,0-.463-.257h-.137s0-.6-.206-.72a2.281,2.281,0,0,1-.326-.909,3.976,3.976,0,0,0-.206-.978,1.938,1.938,0,0,1-.172-1.012.24.24,0,0,1,.206-.206.548.548,0,0,1,.343,0,7,7,0,0,0,1.544.926,3.6,3.6,0,0,1,.806.6,2.367,2.367,0,0,0,.48.343,2.4,2.4,0,0,0,.875,0h.36c-.12,0-.12.274-.12.36.137.943,3.619,3.568,3.893,3.722a10.286,10.286,0,0,1,1.509,1.492.7.7,0,0,1,.189.463.788.788,0,0,0,.206.583.737.737,0,0,0,.515.274.429.429,0,0,0,.343-.24h0a2.3,2.3,0,0,0,.549-1.3c0-.652.343-.909.446-.926h0v.12a1.525,1.525,0,0,0-.291.686v.292a1.013,1.013,0,0,1-.24.755,4.184,4.184,0,0,0-.84,2.333,5.367,5.367,0,0,0,.875,2.8v.086l.189.292a3.427,3.427,0,0,1,.446.858.977.977,0,0,1-.309.617,15.854,15.854,0,0,1-1.475,1.715.48.48,0,0,0-.412.154l-.189.137a.652.652,0,0,0-.257.343.483.483,0,0,1-.137.206h0l-.5.5a1.9,1.9,0,0,0-.635,1.6c0,.172.171.24.6.257a2.59,2.59,0,0,0,1.509-.909h0a.924.924,0,0,1,.223-.6,3.115,3.115,0,0,0,.549-.532h0a.825.825,0,0,0,.137-.309.668.668,0,0,1,.086-.24.222.222,0,0,0,.172-.1.755.755,0,0,0,.429-.463c.1-.292.84-.806,1.355-1.184a3.425,3.425,0,0,0,.532-.412.651.651,0,0,0,.12-.446.858.858,0,0,0-.206-.583,3.432,3.432,0,0,1-.446-.909h0V107.1h0c0-.652.961-1.286,1.389-1.561l.171-.12a5.145,5.145,0,0,0,1.853-2.607v-.343c0-.223,0-.446.154-.463s.137,0,.206.086a.206.206,0,0,1,0,.206c0,.189-.1,2.058-.1,2.127l.172.206h0s.086-.532.086-.72a3.3,3.3,0,0,1,.395-1.063h0a3.032,3.032,0,0,1,0,.72,1.509,1.509,0,0,1-.189.823,3.826,3.826,0,0,0-.532,1.012l-.1.24v.1a2.164,2.164,0,0,0,.206.84h0v-.24a1.869,1.869,0,0,1,.635-1.3,2.4,2.4,0,0,0,.995-1.732,5.55,5.55,0,0,0,0-.84s-.274-.377-.291-.395.1,0,.12,0l.274.377a.721.721,0,0,1,.172.292,4.549,4.549,0,0,0,0,.858h0a6.094,6.094,0,0,0,.343.909h0a3.423,3.423,0,0,0,0-.635,1.832,1.832,0,0,1,0-.6v-.5a1.562,1.562,0,0,0-.206-.909v-.206h0a3.241,3.241,0,0,0,1.955-1.715,3.886,3.886,0,0,0,.24-1.441,7.286,7.286,0,0,0-.172-1.715,2.4,2.4,0,0,1,0-.995v-.617a1.716,1.716,0,0,1,.429-1.029l.257-.395a.754.754,0,0,0,0-.7h0a1.183,1.183,0,0,1-.412.652c-.326.12-.5.515-.617.806s-.137.274-.172.274h0a1.938,1.938,0,0,1,0-1.321v-.1a3.554,3.554,0,0,1,.755-1.183l.1-.137a1.834,1.834,0,0,0,.206-.995h0a4.078,4.078,0,0,1-1.183,1.321,3.639,3.639,0,0,0-.446.532c-.086.12-.189.257-.223.257a2.127,2.127,0,0,1,.309-1.715V91.3a4.166,4.166,0,0,1,1.1-1.458h0a.292.292,0,0,0-.189,0h0a3.326,3.326,0,0,0-1.6,1.492,4.561,4.561,0,0,0-.5,2.041,2.006,2.006,0,0,0,.1.72c.154.463.48,1.715.566,2.093a14.093,14.093,0,0,1,0,1.87v.532l-.154.48a2.279,2.279,0,0,1-.772.806,4.048,4.048,0,0,1-1.355.875,1.39,1.39,0,0,1-.566,0,7.015,7.015,0,0,0-1.921-3.053,13.955,13.955,0,0,0-2.127-1.561A8.991,8.991,0,0,1,764.8,93.2V92.089h.086l.326.172.343.137.48.1.274.137.24.154.36.274.412.206h.257l-.532-.24-.189-.343-.223-.326-.274-.154h0l.343.223.343.274.343.137h0l-.154-.377-.274-.257-.395-.343-.326-.172-.343-.12-.343-.223h0l.5.189.429.12.343.137.515.24.429.1.532-.1.5-.343v-.206h-.154l-.463.223h-.652l-.292-.274-.395-.377-.36-.189h-.429l-.274-.137h0V90.6h1.458l.326.154h.326l-.377-.377-.377-.274-.326-.1a5.411,5.411,0,0,0-.549,0h0v-.1h.257l.394.1.377.223.412.137h.583l-.172-.223-.309-.1-.24-.189-.36-.24-.274-.1h-.412l-.223-.189a.569.569,0,0,0,0-.1h.24l.274.137.412.12-.086-.172-.154-.172a1.384,1.384,0,0,1-.137-.189h0l.429.24.343.12.257.24.5.274h0l-.086-.24-.274-.343-.223-.395-.394-.412-.532-.274-.206-.223-.343-.377a1.411,1.411,0,0,0,0-.189l.36.12.412.1.274.189.24.292.394.172.961.12h0l-.274-.274-.532-.24-.292-.223-.189-.309-.172-.326L767.2,86.7l-.36-.206-.36-.292-.137-.309.24.24.48.412.36.172.309.24.36.36h.566l-.566-.5-.12-.395-.309-.292-.155-.172-.154-.48-.309-.326-.515-.48h0a.68.68,0,0,0,0-.12h.086l.48.274.566.172.583.137.669.1-.172-.309-.326-.154-.326-.189-.377-.154-.326-.137-.343-.446.292.206h1.218l.377.223.309.343h0V84.25l-.206-.274-.532-.292-.429-.172-.652-.1h0l-.12-.137-.48-.446-.223-.1-.12-.137h.24l.857.137.48.172h.635l.24.274.343.206h.394l-.789-.96a4.321,4.321,0,0,0-.377-.223l-.446-.12-.411-.463-.48-.292-.36-.1.086-.154.394-.172.583-.12v-.137a1.919,1.919,0,0,0-.257-.189l-.309-.1-.172.1h-.48l-.566-.137-.6-.5-.274-.137-.995-.12-.069-.257-.309-.343-.394-.36Zm-4.442,4.46h-.086c-.1.1-.172.154-.274,0a.276.276,0,0,1,0-.206.412.412,0,0,1,.1-.377h0a.223.223,0,0,1,.189-.12.309.309,0,0,1,.274.1.137.137,0,0,1,0,.154c0,.154-.137.257-.24.36m.7-.36h-.1v-.154h0a.308.308,0,0,1,.137,0,.137.137,0,0,1,0,.12m.446.772a.146.146,0,1,1,.154-.137.154.154,0,0,1-.154.137m1.269-1.921-.549.36-.377.154H760a1.444,1.444,0,0,1,.566-.395h.1l.223-.1a1.816,1.816,0,0,1,.446-.172h.154a.657.657,0,0,1-.137.189m-9.211,14.6a.172.172,0,1,1,.172-.172.171.171,0,0,1-.172.172m1.424-5.146a1.355,1.355,0,0,1-.343.6h0c-.1,0,0-.395,0-.72a1.372,1.372,0,0,1,.326-.6h0v.72m.686-1.269c-.171,0-.309,0-.309-.172s.137-.189.309-.189.291.086.291.189-.12.172-.291.172m1.458,1.9h0a.687.687,0,0,1-.377-.223.754.754,0,0,1-.274-.377h0a.856.856,0,0,1,.394.24c.171.154.292.343.223.412m-.583,8.027a.2.2,0,0,1,0,.395.206.206,0,1,1,0-.395m-1.853-6.689a.274.274,0,0,1,.189-.137h0v.309a.6.6,0,0,1-.206.137h0v-.309m.446,3.619h0a1.715,1.715,0,0,1-.291-.738c0-.274-.155-.806,0-.84h0a1.712,1.712,0,0,1,.275.738c0,.274.154.806,0,.84m2.624-1.715c-.154.12-.652-.189-.755-.274l-.669-.5h0a3.432,3.432,0,0,1,.943.343c.309.189.48.309.5.394m1.029-2.59a1.817,1.817,0,0,1-.5.806h0v-.172a2.518,2.518,0,0,1,.206-.806,1.714,1.714,0,0,1,.5-.806h0v.172a2.943,2.943,0,0,1-.189.806m7.942,12.572h0a1.406,1.406,0,0,1-.086-.48.686.686,0,0,1,.086-.377l.343-.566h.206c.069,0,0,.1,0,.206l-.12.274-.154.377Zm.772,2.744h0s-.583-.961-.429-1.183,0,0,.137,0a.326.326,0,0,1,.206.12c.24.292.137,1.081.137,1.115m-2.9,6.055a.411.411,0,0,1-.291.154h0a.444.444,0,0,1,.154-.292.48.48,0,0,1,.292-.172h0a.656.656,0,0,1-.12.36m1.012-1.509c-.1,0-.189.154-.257.154h0a.424.424,0,0,1,.137-.309.464.464,0,0,1,.034-.223h0a.519.519,0,0,1-.12.326m8.851-11.749.343-.515a6.157,6.157,0,0,0,.72-1.218,7.5,7.5,0,0,0,.12-1.715c0-.377,0-.686,0-.686h0a5.267,5.267,0,0,1,.377,2.521,3.431,3.431,0,0,1-.909,1.441l-.223.223c-.172.223-.292.154-.326.12a.12.12,0,0,1,0-.12h0M769.656,102a.377.377,0,0,1,.171-.172h0a.269.269,0,0,1,.274.274,1.844,1.844,0,0,1,0,.5.154.154,0,0,1-.137.137h-.12v-.36h0a.276.276,0,0,1,0-.206m-2.3,7.255a.206.206,0,1,1-.206.206.206.206,0,0,1,.206-.206m-.875.532h0c.1.1-.652.875-.686.909a3.686,3.686,0,0,1-.875.738h0c-.086-.1.686-.892.72-.926a2.946,2.946,0,0,1,.875-.72m-3.842-28.953a.4.4,0,0,1,.24,0h0a.271.271,0,0,1-.172.24.343.343,0,0,1-.223,0h0a.274.274,0,0,1,.171-.206m-1.132.72a.429.429,0,0,1,.292-.24h.292a.394.394,0,0,1,.36.274.446.446,0,0,1,0,.463.154.154,0,0,1-.137,0,1.269,1.269,0,0,1-.772-.429.1.1,0,0,1,0-.12m.514,2.058h-.137v-.1h0l.24-.154.463-.343a.12.12,0,0,1,.1,0h0a.189.189,0,0,1,0,.137l-.137.206v.154a.806.806,0,0,1-.326.1m-2.487,6.312a1.389,1.389,0,0,1,1.081-.515c.84,0,1.1.429,1.149.566h-.326a2.145,2.145,0,0,0-.789-.154,3.294,3.294,0,0,0-.857.12h-.24m2.779,9.845s-1.561-1.2-2.075-1.715-.806-.858-.789-1.063h0a1.089,1.089,0,0,1,.738.429c.377.429,2.092,2.35,2.11,2.367Zm.326-8.182H762.8c-.069,0-.206-.154-.206-.24a.343.343,0,0,1,.326-.292c.189,0,.274,0,.292.377a.206.206,0,0,1,0,.189m.343-5.283h0a3,3,0,0,1-.446.72l-.24.343a3.606,3.606,0,0,1-.7.772.1.1,0,0,1-.077.035.095.095,0,0,1-.077-.155l.223-.394.652-1.235h0c.206-.395.532-.943.7-.978h0c.206.12.172.223,0,.875m2.384,12.161a.858.858,0,0,0-.189.377.257.257,0,0,1-.12.172h-.12a.359.359,0,0,1,0-.292l.137-.686a.24.24,0,0,1,.171,0h.137a.326.326,0,0,1,0,.48m-.446-9.331a.172.172,0,1,1,.192-.062.171.171,0,0,1-.192.062m.137-.48a.18.18,0,1,1,.189-.172.189.189,0,0,1-.189.172m.154-.532a.189.189,0,1,1,.189-.189.189.189,0,0,1-.189.189m.12-.566a.206.206,0,0,1-.223-.171c0-.1.1-.172.223-.172a.189.189,0,0,1,.206.172.206.206,0,0,1-.206.172m.1-.446c-.172,0-.309,0-.309-.172s.137-.172.309-.172.309,0,.309.172-.137.172-.309.172m0-1.235a.343.343,0,0,1,.24,0h0a.415.415,0,0,1-.24.189.24.24,0,0,1-.223,0h0a.414.414,0,0,1,.24-.172m-.189-.36c0-.086.086-.137.206-.154a.24.24,0,0,1,.206,0h0c0,.086-.1.154-.223.172a.36.36,0,0,1-.206,0h0Zm.24,1.063c-.137,0-.24,0-.24-.172s.1-.154.24-.154.24,0,.24.154-.1.172-.24.172m0-1.441c-.12,0-.206,0-.206-.154s0-.154.206-.154.206,0,.206.154-.086.154-.206.154m0-.515c-.1,0-.189,0-.189-.137a.182.182,0,0,1,.36,0,.154.154,0,0,1-.171.137m0-.412c-.086,0-.172,0-.172-.12a.155.155,0,0,1,.172-.137.137.137,0,0,1,.154.137.21.21,0,1,1-.411.086m.154-.566a.146.146,0,0,1-.292,0,.146.146,0,0,1,.292,0m-.206-.309a.137.137,0,0,1-.155-.137.146.146,0,0,1,.292,0,.138.138,0,0,1-.138.137m-.171-1.355a.292.292,0,0,1,.206,0s.1,0,0,.12,0,0-.12.1h0a.717.717,0,0,0-.446.172.292.292,0,0,1-.292.12s-.086,0,0-.137h0c0-.206,0-.48.36-.583s.12,0,.154,0a.205.205,0,0,1,0,.137v.137a.342.342,0,0,0,.206,0m-.189-1.389v.12a.275.275,0,0,1-.292.12h0a.153.153,0,0,1,0-.12.274.274,0,0,1,.343,0m-.343-.566a.257.257,0,0,1,.206.172s0,.1,0,.12a.171.171,0,0,1-.12,0,.1.1,0,0,1-.086,0h-.24a.454.454,0,0,1,.257-.1m0,9.3c.1,0,.189,0,.189.137a.171.171,0,0,1-.189.154.155.155,0,0,1-.172-.154s0-.137.171-.137m-.171.394c.086,0,.171,0,.171.12s0,.12-.171.12-.172,0-.172-.12.086-.12.172-.12m-.172.343c.1,0,.172,0,.172.12s0,.12-.172.12a.12.12,0,0,1,0-.24m-.291,3.036a9.311,9.311,0,0,0,1.492,2.762h0l-.394-.189s-.36-.189-1.046-1.321a5.271,5.271,0,0,1-.514-1.544.224.224,0,0,1,0-.1h0a.257.257,0,0,1,.223,0c.12,0,.154.223.189.377m-.343-9.434a.12.12,0,0,1,.137,0v.257a1.322,1.322,0,0,1-.532.326.48.48,0,0,1-.429,0h0c0-.154.326-.257.532-.309a1.3,1.3,0,0,0,.274-.189Zm-.446-.446h.206c.051,0,0,0,0,.206a.944.944,0,0,1-.292.24l-.154.154a.154.154,0,0,1-.189,0,.1.1,0,0,1,0-.1s0,0,0-.1.343-.377.446-.446Z" transform="translate(-742.831 -70.82)" fill="#adadb1"/>
  <path id="Trazado_303" data-name="Trazado 303" d="M758.313,79.669l.274-.12a1.031,1.031,0,0,0,0-.257l-.566-.652h0V78.9l-.172.412h0l.378.189Z" transform="translate(-738.502 -70.784)" fill="#adadb1"/>
</svg>
