<svg id="Grupo_152" data-name="Grupo 152" xmlns="http://www.w3.org/2000/svg" width="94.883" height="35.887" viewBox="0 0 94.883 35.887">
  <path id="Trazado_500" data-name="Trazado 500" d="M55.856,141.62c-26.225,0-47.456,8.037-47.456,17.951s21.231,17.936,47.456,17.936,47.427-8.023,47.427-17.936S82.052,141.62,55.856,141.62Zm0,33.982c-25.117,0-45.595-7.166-45.595-16.1s20.433-16.149,45.595-16.149S101.48,150.6,101.48,159.5s-20.419,16.178-45.624,16.178ZM74.8,158.67a4.669,4.669,0,0,0-3.457,2.216,6.531,6.531,0,0,0-1.226,2.719,2.113,2.113,0,0,0,.369,1.743c.281.207,1.477.857,3.4-1.079a17.642,17.642,0,0,0,2.113-2.807l-.34-.089c.576-1.2.458-2.482-.857-2.63ZM55.856,144.693c-24.422,0-44.161,6.634-44.161,14.775s19.739,14.775,44.161,14.775,44.176-6.649,44.176-14.775-19.828-14.7-44.176-14.7ZM35.172,167.357a4.831,4.831,0,0,1-5.082-4.861,5.393,5.393,0,0,1,4.344-4.935c.34,0,.473.118.473.31s-.133.266-.4.4a4.433,4.433,0,0,0-2.275,3.428,2.719,2.719,0,0,0,1.906,2.659,3.424,3.424,0,0,0,.946,0c2.955,0,6.309-3.339,9.914-8.422-.576,0-3.058.31-3.664,1.019-.281.207-.458.089-.532-.163a1.137,1.137,0,0,1,.192-.384c.975-1.108,3.915-1.359,4.61-1.477,2.645-4.033,6-6.619,6.929-6.811h-.074a29.993,29.993,0,0,0-6.176-1c-5.91,0-8.54,2.541-8.422,4.861a1.478,1.478,0,0,0,1.965,1.344,5.3,5.3,0,0,0,3.442-2.275.325.325,0,0,1,.428-.192.384.384,0,0,1,.118.369c-.148,1.2-1.995,4.432-5.171,4.432a3.117,3.117,0,0,1-2.955-3.28c0-2.955,3.132-6.087,10.741-6.087a27.931,27.931,0,0,1,4.831.428A78,78,0,0,0,62.593,148a36.944,36.944,0,0,0,5.082-.177,10.551,10.551,0,0,1,1.98-.34c.621,0,.621.236.621.488,0,.975-3.428,2.851-6.338,2.851-4.285,0-8.732-1.95-11.037-2.571a.31.31,0,0,1,0,.384,2.7,2.7,0,0,1-.458.5,18.838,18.838,0,0,0-4.949,5.718,38.714,38.714,0,0,0,3.974-.458,3.088,3.088,0,0,1-.118-.739c.089-1.315.857-2.113,1.832-1.965a1.093,1.093,0,0,1,.916,1.049,2.733,2.733,0,0,1-.8,1.655,5.216,5.216,0,0,1-.946.606c0,.34.458.621.857.65-.089.34,0,.488-.207.458a1.478,1.478,0,0,1-1.285-.886c-1.226.207-2.423.369-4.831.606-6.028,9.988-7.919,11.6-11.657,11.6Zm42.078-1.537c1.315,0,3.723-2.571,4.314-3.177.118-.163.34-.428.458-.428s.369.118.369.3a2.791,2.791,0,0,1-.488.857c-1.226,1.477-3.25,3.886-5.54,3.945-1.138,0-1.566-.458-1.714-1.344a7.491,7.491,0,0,1-4.107,1.256,2.5,2.5,0,0,1-2.423-1.61,3.694,3.694,0,0,1-.177-2.3,5.082,5.082,0,0,1-2.689.458,2.394,2.394,0,0,1-2.482-2.1c-1.477,2.689-1.477,2.778-2.955,5.585H57.082l3.339-5.659a7.27,7.27,0,0,0,.783-2.009.591.591,0,0,0-.576-.739,3.442,3.442,0,0,0-1.8,1.064,35.946,35.946,0,0,0-2.955,3.708c-1.2,1.773-3.236,3.8-5.481,3.8a3.206,3.206,0,0,1-3.383-2.6s-.163.4-1.6,1.226c-.133,0-.428.236-.517.177a1.344,1.344,0,0,1-.458-.768c.089,0,.266-.118.842-.576a4.034,4.034,0,0,0,1.389-1.477c.266-.576.768-1.477,1.093-2.142a6.058,6.058,0,0,1,5.112-3.782.62.62,0,0,1,.635.325.561.561,0,0,1,.163.547,5.91,5.91,0,0,0-3.856,2.393,6.959,6.959,0,0,0-1.049,2.571,2.054,2.054,0,0,0,1.477,2.512c1.773.281,3.236-1,4.432-2.955a6.8,6.8,0,0,0,.517-2.6,2.955,2.955,0,0,0-.694-1.8.768.768,0,0,1,.724-.857.443.443,0,0,1,.369.118,4.033,4.033,0,0,1,.946,2.659,4.7,4.7,0,0,1,0,.916c1.285-1.551,2.955-3.575,4.166-3.974a1.625,1.625,0,0,1,.739-.118,1.729,1.729,0,0,1,1.98,2.009c1.226-1.4,2.083-1.921,3.221-1.862a1.581,1.581,0,0,1,1.655,1.6,1.773,1.773,0,0,1-1.625,1.743,1.625,1.625,0,0,1-1.684-1.226,1.684,1.684,0,0,0,.443,3.1,3.96,3.96,0,0,0,3.029-1.285c2.083-1.965,3.25-4.019,6.25-3.989a2.822,2.822,0,0,1,2.541,2.083l3.945-6.663h2.423l-6.56,11.628a2.482,2.482,0,0,0-.4,1.079C76.733,165.954,77.457,165.821,77.25,165.821ZM53.108,154a1.64,1.64,0,0,0,.428-1.093c0-.177-.133-.4-.34-.369a.975.975,0,0,0-.857.768,1.936,1.936,0,0,0,0,1.2s.236-.015.709-.5Z" transform="translate(-8.4 -141.62)" fill="#adadb1" fill-rule="evenodd"/>
</svg>
