<svg id="car-black-side-silhouette" xmlns="http://www.w3.org/2000/svg" width="62.749" height="29" viewBox="0 0 62.749 29">
  <g id="Grupo_122" data-name="Grupo 122" transform="translate(0)">
    <path id="Trazado_71" data-name="Trazado 71" d="M.945,102.54c.088-1.062.187-2.264.38-3.3.134-.725.429-1.691,1.425-1.691a2.909,2.909,0,0,1,.3.02c.062.006.123.014.224.016a.36.36,0,0,0,.075-.151c.293-.838,1.519-1.88,3.093-3.154.388-.313.851-.689,1.049-.884a2,2,0,0,1,.288-1.543,1.226,1.226,0,0,1,.994-.435c.077,0,.159,0,.342.021a15.382,15.382,0,0,0,2.195-.374,79.889,79.889,0,0,1,15.36-1.76c11.043-.219,19.721,7.75,20.078,8.086l.256.238a31.323,31.323,0,0,0,6.263,1.6c6.209,1.223,7.394,3.2,7.617,3.966a3.732,3.732,0,0,1,1.426,2.291,2.832,2.832,0,0,0,.334,1.166l.107.138v5.844l-.012.107c-.337,1.552-1.945,2.373-4.651,2.373a11.25,11.25,0,0,1-1.485-.088c-.038,0-.371-.008-.95-.02.059-.163.113-.329.159-.5s.086-.328.118-.5a6.511,6.511,0,1,0-12.907-1.223,6.56,6.56,0,0,0,.077.952c.025.169.054.338.092.5s.08.339.132.5c-8.133-.174-18.481-.4-26.5-.606.035-.164.058-.331.08-.5s.035-.333.044-.5c.006-.118.018-.233.018-.352a6.51,6.51,0,0,0-13.018-.149c0,.049-.008.1-.008.149,0,.126.012.249.02.375.01.178.027.355.051.529A4.376,4.376,0,0,1,.666,111.33a7.652,7.652,0,0,1-.15-5.891A11.176,11.176,0,0,0,.945,102.54Z" transform="translate(0 -89.299)" fill="#ffc371"/>
    <path id="Trazado_72" data-name="Trazado 72" d="M51.331,192.143a5.507,5.507,0,0,1-10.192-.213c-.063-.164-.119-.333-.167-.5s-.084-.333-.115-.5a5.6,5.6,0,0,1-.091-.973,5.511,5.511,0,1,1,10.886,1.2,4.907,4.907,0,0,1-.134.5C51.463,191.816,51.4,191.98,51.331,192.143Z" transform="translate(3.259 -166.459)" fill="#ffc371"/>
    <path id="Trazado_73" data-name="Trazado 73" d="M258.412,191.273a5.506,5.506,0,0,1-10.761-.33c-.03-.166-.054-.334-.07-.5s-.025-.325-.025-.491v-.013a5.511,5.511,0,0,1,11.022.013c0,.111-.011.218-.017.328-.01.169-.026.335-.052.5S258.451,191.11,258.412,191.273Z" transform="translate(-242.609 -166.458)" fill="#ffc371"/>
  </g>
</svg>
