<svg xmlns="http://www.w3.org/2000/svg" width="28.978" height="29" viewBox="0 0 28.978 29">
  <g id="pen" transform="translate(-0.181)">
    <path id="Trazado_75" data-name="Trazado 75" d="M150.1,153.63l3.439-3.439,1.675,1.674-3.439,3.439Zm0,0" transform="translate(-138.083 -138.335)" fill="#ffc371"/>
    <path id="Trazado_76" data-name="Trazado 76" d="M2.5.235a.789.789,0,0,0-1.124,0L.407,1.22a.792.792,0,0,0,0,1.113L2.084,4.005,4.168,1.921Zm0,0" transform="translate(0 0)" fill="#ffc371"/>
    <path id="Trazado_77" data-name="Trazado 77" d="M197.022,193.67l-8.127-8.127-3.439,3.439,8.127,8.126c.082.082.167.162.253.24l3.425-3.426C197.184,193.836,197.1,193.752,197.022,193.67Zm0,0" transform="translate(-170.651 -170.896)" fill="#ffc371"/>
    <path id="Trazado_78" data-name="Trazado 78" d="M311.119,308.148l-3.061,3.06a7.1,7.1,0,0,0,1.368.588l3.307,1.026-1.025-3.307A7.1,7.1,0,0,0,311.119,308.148Zm0,0" transform="translate(-283.574 -283.823)" fill="#ffc371"/>
    <path id="Trazado_79" data-name="Trazado 79" d="M29.729,37.759a2.37,2.37,0,0,1-.435-2.752l6.728,6.727L39.46,38.3l-8.378-8.378-3.439,3.439.5.5a3.948,3.948,0,0,0,.468,5.019l6.318,6.318a.789.789,0,0,0,1.116-1.116Zm0,0" transform="translate(-25.122 -27.556)" fill="#ffc371"/>
  </g>
</svg>
