<svg id="Grupo_142" data-name="Grupo 142" xmlns="http://www.w3.org/2000/svg" width="112.344" height="50.258" viewBox="0 0 112.344 50.258">
  <path id="Trazado_510" data-name="Trazado 510" d="M619.021,146.107v-.37l-.337-.168h0a31.093,31.093,0,0,0-12.72-2.709,30.286,30.286,0,0,0-12.568,2.709h0l-.336.168v.37h0a42.435,42.435,0,0,0,.858,16.539A29.664,29.664,0,0,0,605.7,180.162h0l.421.286.4-.286h0A29.663,29.663,0,0,0,618.3,162.647a42.434,42.434,0,0,0,.858-16.539Z" transform="translate(-550.306 -142.86)" fill="#adadb1" fill-rule="evenodd"/>
  <path id="Trazado_511" data-name="Trazado 511" d="M616.278,161.713a28.335,28.335,0,0,1-10.8,16.4,28.35,28.35,0,0,1-10.819-16.4,40.968,40.968,0,0,1-.875-15.58,28.756,28.756,0,0,1,11.61-2.423,29.5,29.5,0,0,1,11.778,2.423,40.617,40.617,0,0,1-.875,15.58Z" transform="translate(-549.767 -142.28)" fill="#fff" fill-rule="evenodd"/>
  <path id="Trazado_512" data-name="Trazado 512" d="M605.783,166.124l-1.683,7.891h3.365l.69-3.365h0c.2-.875,1.211-1.935,3.8-1.969h0l.555-2.625h0a4.206,4.206,0,0,0-3.146.69c-.134.135-.454.252-.387,0h0l.118-.623Z" transform="translate(-542.468 -127.072)" fill="#adadb1" fill-rule="evenodd"/>
  <path id="Trazado_513" data-name="Trazado 513" d="M614.9,102.32l-.437,1.9h3.348l.437-1.9Z" transform="translate(-521.264 -66.465)" fill="#adadb1" fill-rule="evenodd"/>
  <path id="Trazado_514" data-name="Trazado 514" d="M614.986,104.21h3.348l-1.649,7.908H613.32l1.666-7.908Z" transform="translate(-522.042 -65.175)" fill="#adadb1" fill-rule="evenodd"/>
  <path id="Trazado_515" data-name="Trazado 515" d="M624.021,102.32l-.421,1.9h3.348l.421-1.9Z" transform="translate(-515.025 -66.465)" fill="#adadb1" fill-rule="evenodd"/>
  <path id="Trazado_516" data-name="Trazado 516" d="M624.116,104.21h3.348l-1.632,7.908H622.45l1.666-7.908Z" transform="translate(-515.81 -65.175)" fill="#adadb1" fill-rule="evenodd"/>
  <path id="Trazado_517" data-name="Trazado 517" d="M625.982,166.187l-1.682,7.891h3.365l.841-4.24h0a2.221,2.221,0,0,1,2.2-1.683c.757,0,1.413.471,1.11,1.935h0l-.808,4.055h3.365l.959-4.677h0c.3-1.447.235-3.55-2.557-3.55a4.543,4.543,0,0,0-3.365,1.06c-.236.135-.32,0-.269-.168h0l.135-.555Z" transform="translate(-528.681 -127.135)" fill="#adadb1" fill-rule="evenodd"/>
  <path id="Trazado_518" data-name="Trazado 518" d="M617.422,164.16l-2.322,11.1h3.365l.841-4.24h0a2.2,2.2,0,0,1,2.2-1.683c.757,0,1.413.454,1.11,1.935h0l-.825,4.038h3.365l.959-4.661h0c.286-1.447.236-3.55-2.557-3.55a4.644,4.644,0,0,0-3.365,1.043c-.236.135-.337,0-.269-.151h0l.791-3.786Z" transform="translate(-534.96 -128.322)" fill="#adadb1" fill-rule="evenodd"/>
  <path id="Trazado_519" data-name="Trazado 519" d="M564.757,102.3l-1.884,8.884h5.754l-.471,2.238H559.07l2.305-11.122Z" transform="translate(-559.07 -66.478)" fill="#adadb1" fill-rule="evenodd"/>
  <path id="Trazado_520" data-name="Trazado 520" d="M594.132,166a5.048,5.048,0,0,0-3.466,1.447c-.4-1.144-1.834-1.447-2.877-1.447a5.57,5.57,0,0,0-3.1,1.06h0l.185-.892h-3.365l-1.683,7.891H583.2l.892-4.257h0a2.086,2.086,0,0,1,1.918-1.565c.724,0,1.312.421,1.077,1.548h0l-.892,4.274h3.365l.875-4.257h0a2.1,2.1,0,0,1,1.935-1.565c.724,0,1.312.421,1.077,1.548h0l-.892,4.274h3.365l1.127-5.4h0c.421-2.171-1.582-2.658-2.928-2.658Z" transform="translate(-559.034 -127.066)" fill="#adadb1" fill-rule="evenodd"/>
  <path id="Trazado_521" data-name="Trazado 521" d="M586.565,85.657l.841-.32.118.32-1.212.437-.622-1.7.353-.135.522,1.4Z" transform="translate(-540.901 -78.792)" fill="#adadb1" fill-rule="evenodd"/>
  <path id="Trazado_522" data-name="Trazado 522" d="M587.4,85.725l-.387.118.135-1.935.421-.118,1.11,1.582-.4.118-.2-.337-.656.185-.017.387Z" transform="translate(-540 -79.112)" fill="#adadb1" fill-rule="evenodd"/>
  <path id="Trazado_523" data-name="Trazado 523" d="M590.17,85.184l-.353.067-.286-1.5h0l-.051,1.565-.37.067-.606-1.43h0l.286,1.5-.353.067-.336-1.784.539-.1.589,1.346v-.017l.05-1.464.538-.1.353,1.784Z" transform="translate(-539.256 -79.379)" fill="#adadb1" fill-rule="evenodd"/>
  <path id="Trazado_524" data-name="Trazado 524" d="M598,145.231l.875-.1h0c.437,0,.589.2.606.4a.337.337,0,0,1-.185.387.421.421,0,0,1,.336.4.5.5,0,0,1-.118.387c0,.118-.185.185-.555.236H598.2l-.2-1.8Z" transform="translate(-546.632 -141.311)" fill="#adadb1" fill-rule="evenodd"/>
  <path id="Trazado_525" data-name="Trazado 525" d="M600.13,145a.959.959,0,0,1,.084,1.9.841.841,0,0,1-.909-.925.824.824,0,0,1,.825-.976Z" transform="translate(-545.75 -141.399)" fill="#adadb1" fill-rule="evenodd"/>
  <path id="Trazado_526" data-name="Trazado 526" d="M600.75,145.014h.909a.5.5,0,0,1,.555.538.4.4,0,0,1-.286.421c.135,0,.219.135.219.471v.353h-.421a.945.945,0,0,1,0-.353c0-.252,0-.353-.286-.353h-.269v.707h-.387V144.98Z" transform="translate(-544.755 -141.413)" fill="#adadb1" fill-rule="evenodd"/>
  <path id="Trazado_527" data-name="Trazado 527" d="M602.923,146.005h.757l-.1.976h-.253v-.236h0a.673.673,0,0,1-.589.219.858.858,0,0,1-.74-1.026.875.875,0,0,1,.993-.875.724.724,0,0,1,.723.69h-.37a.4.4,0,0,0-.37-.337c-.269,0-.539.135-.589.589s.2.656.471.673.353,0,.471-.353h-.421v-.3Z" transform="translate(-543.916 -141.362)" fill="#adadb1" fill-rule="evenodd"/>
  <path id="Trazado_528" data-name="Trazado 528" d="M595.432,84.44l-.151.791-.37-.067.32-1.783.37.067-.118.673.69.135.135-.69.37.067-.32,1.8-.387-.067.152-.808-.69-.118Z" transform="translate(-534.608 -79.392)" fill="#adadb1" fill-rule="evenodd"/>
  <path id="Trazado_529" data-name="Trazado 529" d="M596.52,85.491l-.37-.084.421-1.767.37.084-.421,1.767Z" transform="translate(-533.761 -79.215)" fill="#adadb1" fill-rule="evenodd"/>
  <path id="Trazado_530" data-name="Trazado 530" d="M598.339,84.12l.336.1-.522,1.733-.37-.1-.32-1.464h-.017l-.37,1.245-.336-.1.522-1.733.387.1.319,1.43h0l.37-1.211Z" transform="translate(-533.358 -79.106)" fill="#adadb1" fill-rule="evenodd"/>
  <path id="Trazado_531" data-name="Trazado 531" d="M598.293,86.044l-.353-.135.639-1.7.353.118-.639,1.716Z" transform="translate(-532.539 -78.826)" fill="#adadb1" fill-rule="evenodd"/>
  <path id="Trazado_532" data-name="Trazado 532" d="M605.409,150.467a2.306,2.306,0,0,0-.909-.185,1.683,1.683,0,0,0-.909.2,15.152,15.152,0,0,0-1.683.959,4.862,4.862,0,0,0-1.682,2.053c-.32.875-.488,1.43-.589,1.817s-.135.589-.2.791a6.732,6.732,0,0,1-.286.623,1.68,1.68,0,0,0-.168.774,6.6,6.6,0,0,1,0,.959q-.045.441-.135.875a6.33,6.33,0,0,1-.168.808,6.127,6.127,0,0,0,0,1.01,7.315,7.315,0,0,1,0,1.06,3.716,3.716,0,0,1-.236.925,3.376,3.376,0,0,0-.168.74,1.883,1.883,0,0,1-.2.639c-.118.219-.286.5-.454.757s-.336.5-.454.673a.64.64,0,0,0-.151.522c0,.151.168.269.454.3a.959.959,0,0,0,.673-.135.723.723,0,0,0,.32-.454,4.282,4.282,0,0,0,0-.69,2.318,2.318,0,0,1,.118-.723h0l.1-.219v-.219h0a.906.906,0,0,1,.2-.252.978.978,0,0,0,.219-.185,3.63,3.63,0,0,0,.353-.757,3.265,3.265,0,0,0,.2-.959,2.207,2.207,0,0,1,0-.623,1.678,1.678,0,0,1,.168-.437.856.856,0,0,1,.185-.37.269.269,0,0,1,.3-.168.2.2,0,0,1,.236.2,1.333,1.333,0,0,0,0,.337l.185.32a.74.74,0,0,0,.336.252.589.589,0,0,1,.32.286.336.336,0,0,1,0,.387,5.678,5.678,0,0,0-.3.572,1.684,1.684,0,0,0-.185.606,2.142,2.142,0,0,1,0,.572.992.992,0,0,1-.269.656,3.149,3.149,0,0,0-.4.522.875.875,0,0,0-.151.387.386.386,0,0,0,.135.3.656.656,0,0,0,.488.168.975.975,0,0,0,.538-.151.69.69,0,0,0,.286-.37.774.774,0,0,0,0-.387.973.973,0,0,1,0-.3,1.571,1.571,0,0,1,0-.37,2.582,2.582,0,0,1,.1-.387,2.263,2.263,0,0,1,.387-1.026,3.361,3.361,0,0,0,.286-.522,1.4,1.4,0,0,1,.2-.421.257.257,0,0,1,.151-.219c.034-.017,0,0,.168,0s.1.1.084.168a.947.947,0,0,1-.118.219,3.971,3.971,0,0,1-.269.421c-.1.168-.219.337-.286.471a.622.622,0,0,0-.1.421.32.32,0,0,0,.32.252,1.246,1.246,0,0,0,.454,0,.252.252,0,0,0,.2-.2,1.229,1.229,0,0,1,.185-.909,1.122,1.122,0,0,0,.135-.3.537.537,0,0,0,0-.219,1.985,1.985,0,0,1,.286.37l.2.387a.757.757,0,0,0,.4.387,1.885,1.885,0,0,0,1.01.168,3.65,3.65,0,0,0,.791,0c.135,0,.151-.1.219-.219a3.207,3.207,0,0,0,.236-.555.488.488,0,0,0-.152-.572,4.721,4.721,0,0,1,.168-.656,1.311,1.311,0,0,1,.32-.606,4.276,4.276,0,0,1,.5-.437,1.681,1.681,0,0,0,.387-.337,1.682,1.682,0,0,1,.623.488,1.935,1.935,0,0,1,.3.925,2.976,2.976,0,0,0,0,.589.708.708,0,0,0,.084.437c.084.118,0,.219,0,.353a2.837,2.837,0,0,0,0,.37.556.556,0,0,0,.2.32.487.487,0,0,0,.353.1.438.438,0,0,0,.269-.252.69.69,0,0,0,.1-.4.488.488,0,0,0,0-.286l-.168-.185a.3.3,0,0,1-.1-.151.637.637,0,0,1,0-.32.472.472,0,0,0,0-.37.658.658,0,0,0-.168-.235,1.044,1.044,0,0,1-.168-.4,2.854,2.854,0,0,1,0-.673,2.216,2.216,0,0,0,0-.74.926.926,0,0,0-.32-.522,7.254,7.254,0,0,0,1.312-.185,1.514,1.514,0,0,0,.993-.723,3.046,3.046,0,0,1-.825-.084,2.658,2.658,0,0,1-1.161-.791,2.545,2.545,0,0,0,0-.488,1.286,1.286,0,0,0-.1-.336,2.134,2.134,0,0,1-.185-.437,2.27,2.27,0,0,1,0-.858,6.227,6.227,0,0,0-.151-1.817,5.047,5.047,0,0,0-1.11-2.187,6.72,6.72,0,0,0,.269-1.094,1.31,1.31,0,0,0-.151-.724,1.329,1.329,0,0,0-.824-.555,5.687,5.687,0,0,0-1.683-.2h-2.356c-.757,0-1.363-.084-1.38-.286a.353.353,0,0,1,.252-.337h.471a3.536,3.536,0,0,0,.841.168,8.708,8.708,0,0,0,.925,0,2.626,2.626,0,0,0,.791-.151,3.362,3.362,0,0,1,.875-.151l-.976-.32a2.423,2.423,0,0,0-1.026,0,.59.59,0,0,0-.32-.219,1.044,1.044,0,0,0-.572,0l-.622.118h-.471a2.779,2.779,0,0,0-.639.168.555.555,0,0,0-.353.555.808.808,0,0,0,.421.774,3.147,3.147,0,0,0,1.682.286h2.473a2.642,2.642,0,0,1,1.548.37c.2.236.252.387.219.522a.84.84,0,0,1-.286.353h-.606a2.2,2.2,0,0,1-.841-.2Z" transform="translate(-547.311 -139.716)" fill="#adadb1" fill-rule="evenodd"/>
  <path id="Trazado_533" data-name="Trazado 533" d="M603.5,161.118a4.181,4.181,0,0,0,.168-.639,4.046,4.046,0,0,0,0-1.228,1.059,1.059,0,0,0-.286.135,1.163,1.163,0,0,0-.286.286,6.731,6.731,0,0,1,0-.824,5.4,5.4,0,0,1,0-.723c0-.135,0-.219.084-.269l.135-.168a.49.49,0,0,0-.034-.673,1.686,1.686,0,0,1-.236-.32.523.523,0,0,1,0-.32c0-.118.118-.286.353-.437a2.742,2.742,0,0,1,1.144-.37.1.1,0,0,1,.118,0,.168.168,0,0,1,0,.118,1.906,1.906,0,0,0-.269.219,1.494,1.494,0,0,0-.286.252.605.605,0,0,0-.135.387.741.741,0,0,0,.421.572,2.947,2.947,0,0,0,.69.353,1.514,1.514,0,0,0,.5,0s-.252-.219-.421-.37a4.964,4.964,0,0,1-.37-.337.4.4,0,0,1-.118-.2.37.37,0,0,1,.151-.286l.337-.32a.9.9,0,0,0,.185-.219l.539.252.555.2a2.465,2.465,0,0,1,.387.168,1.686,1.686,0,0,1,.32.269,1.48,1.48,0,0,0,.841.437,2.1,2.1,0,0,0,1.161,0,5.449,5.449,0,0,1-.656-.269,2.725,2.725,0,0,1-.791-.572,1.228,1.228,0,0,0-.32-.3l-.286-.084a3.043,3.043,0,0,1-.589-.2,1.48,1.48,0,0,1-.623-.353,4.792,4.792,0,0,1-.37-.942,4.313,4.313,0,0,0-.269-.774,3.711,3.711,0,0,0-.286-.387,1.5,1.5,0,0,1-.252-.572,3.613,3.613,0,0,0-.151-.74,2.086,2.086,0,0,0-.219-.538,2.534,2.534,0,0,1-.219-.555,1.366,1.366,0,0,0-.219-.471,2.3,2.3,0,0,0-.4-.37,1.2,1.2,0,0,0-.622-.269,1.867,1.867,0,0,0-.791.252,4.235,4.235,0,0,0-.824.623c-.236.236-.522.454-.74.673a1.819,1.819,0,0,0-.522.808c-.084.336-.2.757-.337,1.144a24.364,24.364,0,0,1-.69,1.9,2.592,2.592,0,0,0-.185,1.11,1.362,1.362,0,0,0,0,.555.212.212,0,0,0,.286.185.438.438,0,0,0,.235-.286.256.256,0,0,1,.253-.236.438.438,0,0,1,.286,0l.168.1.252.135a.219.219,0,0,0,.252-.084.421.421,0,0,1,.286-.168h.3a.656.656,0,0,0,.252,0,.387.387,0,0,0,.219-.236.353.353,0,0,1,.235-.185.521.521,0,0,1,.185,0,2.78,2.78,0,0,1,.3.538,1.01,1.01,0,0,1,.118.471,1.31,1.31,0,0,1-.1.437,2.668,2.668,0,0,1-.269.538,1.194,1.194,0,0,0-.252.656c0,.236.135.5.572.724a.859.859,0,0,0,0,.37,2.251,2.251,0,0,0,.454.522,1.517,1.517,0,0,1,.286.438,2.318,2.318,0,0,1,.2.522h0Z" transform="translate(-546.111 -138.219)" fill="#fff" fill-rule="evenodd"/>
  <path id="Trazado_534" data-name="Trazado 534" d="M587.26,84.817l.454-.118-.421-.639h0l-.034.757Z" transform="translate(-539.829 -78.928)" fill="#fff" fill-rule="evenodd"/>
  <path id="Trazado_535" data-name="Trazado 535" d="M598.337,146.25h.454a.235.235,0,0,0,.252-.3c-.034-.185-.151-.2-.286-.185h-.488v.488Z" transform="translate(-546.447 -140.883)" fill="#fff" fill-rule="evenodd"/>
  <path id="Trazado_536" data-name="Trazado 536" d="M598.264,145.738h.454c.135,0,.252-.084.236-.219s-.135-.185-.3-.168h-.421v.387Z" transform="translate(-546.475 -141.162)" fill="#fff" fill-rule="evenodd"/>
  <path id="Trazado_537" data-name="Trazado 537" d="M600.042,146.513c.2,0,.488-.151.471-.656s-.32-.623-.522-.606-.488.135-.471.656S599.84,146.529,600.042,146.513Z" transform="translate(-545.595 -141.229)" fill="#fff" fill-rule="evenodd"/>
  <path id="Trazado_538" data-name="Trazado 538" d="M601.37,145.709c.185,0,.286,0,.3-.252a.235.235,0,0,0-.269-.236H601v.488Z" transform="translate(-544.584 -141.25)" fill="#fff" fill-rule="evenodd"/>
  <path id="Trazado_539" data-name="Trazado 539" d="M598.137,167.121a4.139,4.139,0,0,0-3.365,1.312h0l.925-4.274h-3.365l-2.322,11.1h3.365l.151-.791h0a4.8,4.8,0,0,0,3.2,1.195,5.351,5.351,0,0,0,5.283-4.577c.488-3.483-2-3.9-3.937-3.9Zm.118,4.341a2.574,2.574,0,0,1-2.507,2.389c-1.178,0-1.8-.909-1.548-2.389a2.675,2.675,0,0,1,2.675-2.356c1.178,0,1.682.858,1.38,2.356Z" transform="translate(-552.085 -128.322)" fill="#adadb1" fill-rule="evenodd"/>
  <path id="Trazado_540" data-name="Trazado 540" d="M604.193,166c-3.045,0-5.99.925-6.73,4.274s1.817,4.223,4.863,4.223,6.007-1.3,6.579-4.223c.673-3.365-1.683-4.274-4.779-4.274Zm1.043,4.274a2.608,2.608,0,0,1-2.524,2.406c-1.178,0-1.8-.909-1.548-2.406a2.692,2.692,0,0,1,2.675-2.356c1.178,0,1.683.875,1.4,2.356Z" transform="translate(-547.087 -127.066)" fill="#adadb1" fill-rule="evenodd"/>
  <path id="Trazado_541" data-name="Trazado 541" d="M580.19,165.91c-4.257,0-5.149,1.683-5.418,2.692h3.365c.2-.757,1.077-.841,1.683-.841s1.3.185,1.077,1.279c-5.586.135-7.084,1.211-7.454,3.029s1.127,2.322,3,2.322a6.057,6.057,0,0,0,3.6-.942h0l-.168.623h3.365l1.094-5.266h0c.522-2.524-2.036-2.894-4.105-2.894Zm.236,5.435a2.339,2.339,0,0,1-2.339,1.38c-1.245,0-1.211-.5-1.178-.925s.488-1.178,3.668-1.211h0l-.151.757Z" transform="translate(-563.432 -127.127)" fill="#adadb1" fill-rule="evenodd"/>
  <path id="Trazado_542" data-name="Trazado 542" d="M617.061,166.145l-.168.69h0a4.038,4.038,0,0,0-2.776-.892,5.149,5.149,0,0,0-5.048,3.887c-.69,3.062.959,4.206,2.658,4.206a7.016,7.016,0,0,0,3.836-.909c-.353,1.683-1.144,2.423-2.322,2.423s-1.346-.454-1.582-1.077h-3.365c-.135,2.389.909,2.894,4.593,2.894s5.5-1.683,5.889-3.55h0l1.682-7.672Zm-.909,3.988c-.2.791-.572,2.154-2.339,2.1-1.178,0-1.329-1.346-1.178-2.07a2.322,2.322,0,0,1,2.255-2.2C616.674,167.962,616.287,169.644,616.152,170.132Z" transform="translate(-539.613 -127.109)" fill="#adadb1" fill-rule="evenodd"/>
</svg>
