<svg id="Grupo_167" data-name="Grupo 167" xmlns="http://www.w3.org/2000/svg" width="55.086" height="55.086" viewBox="0 0 55.086 55.086">
  <path id="Trazado_446" data-name="Trazado 446" d="M469.273,192.774A20.352,20.352,0,0,0,464,192.1a20.114,20.114,0,0,0-5.172.654l5.231,14.425Z" transform="translate(-436.439 -185.185)" fill="#adadb1"/>
  <path id="Trazado_447" data-name="Trazado 447" d="M477.346,206.142a20.37,20.37,0,0,0-1.308-7.312l-9.808,25.6a20.706,20.706,0,0,0,11.116-18.289" transform="translate(-429.176 -178.579)" fill="#adadb1"/>
  <path id="Trazado_448" data-name="Trazado 448" d="M479.773,193.549l-6.043,16.645h-8.52l-6.063-16.724a21.023,21.023,0,0,0-5.826,4.993l8.62,22.351,3.151-8.164h8.283l3.17,8.164,8.7-22.609a20.512,20.512,0,0,0-5.469-4.657" transform="translate(-441.847 -183.84)" fill="#adadb1"/>
  <path id="Trazado_449" data-name="Trazado 449" d="M475.093,188.61a27.543,27.543,0,1,0,27.523,27.563,27.543,27.543,0,0,0-27.523-27.563m0,51.519a24.036,24.036,0,1,1,24.016-24,24.036,24.036,0,0,1-24.016,24" transform="translate(-447.53 -188.61)" fill="#adadb1"/>
  <path id="Trazado_450" data-name="Trazado 450" d="M463.99,205.36l-5.33,13.87v.436a21.084,21.084,0,0,0,10.72,0v-.515Z" transform="translate(-436.606 -172.17)" fill="#adadb1"/>
  <path id="Trazado_451" data-name="Trazado 451" d="M451,205.916a20.588,20.588,0,0,0,10.74,18.051l-9.571-24.907A20.585,20.585,0,0,0,451,205.916" transform="translate(-444.124 -178.353)" fill="#adadb1"/>
</svg>
