<svg id="Grupo_144" data-name="Grupo 144" xmlns="http://www.w3.org/2000/svg" width="74.151" height="38.024" viewBox="0 0 74.151 38.024">
  <path id="Trazado_373" data-name="Trazado 373" d="M513.022,185.314c20.434,0,37.129-8.535,37.129-19.021s-16.695-19-37.129-19S476,155.825,476,166.293s16.677,19.021,37.111,19.021m0-33.514c18.86,0,34.23,6.513,34.23,14.494s-15.46,14.476-34.32,14.476-34.212-6.513-34.212-14.512,15.37-14.494,34.212-14.494" transform="translate(-476 -147.29)" fill="#adadb1"/>
  <path id="Trazado_374" data-name="Trazado 374" d="M497.832,109.114l3.615-12.669,3.632,12.669h4.992L504.918,90.97H497.26l-.018.823h.734l-5.135,17.321Z" transform="translate(-447.677 -81.075)" fill="#adadb1"/>
  <path id="Trazado_375" data-name="Trazado 375" d="M484.535,170.854h4.992v-7.909l5.618,7.462h5.8l-6.692-8.947,5.78-8.41h-5.8l-4.706,6.835V153.05H483.64v.752a2.182,2.182,0,0,1,.895.143Z" transform="translate(-469.969 -142.743)" fill="#adadb1"/>
  <path id="Trazado_376" data-name="Trazado 376" d="M496.045,170.822h4.992V153.09H495.15v.752a2.1,2.1,0,0,1,.895.143Z" transform="translate(-460.884 -142.712)" fill="#adadb1"/>
</svg>
