<svg id="Grupo_166" data-name="Grupo 166" xmlns="http://www.w3.org/2000/svg" width="92.61" height="29.982" viewBox="0 0 92.61 29.982">
  <path id="Trazado_399" data-name="Trazado 399" d="M313.648,88.106l1.117.575c.246.148,1.314.673,1.314.673a.346.346,0,0,1,0,.1s-.082.411-.131.608-.131.69-.164.788a.3.3,0,0,0,.115.328l1.084.509,1.4.624a4.069,4.069,0,0,0,0,.46,5.293,5.293,0,0,0,.082.772.458.458,0,0,0,.181.443,3.182,3.182,0,0,0,.772.328l.87.246c.427.131,1,.263,1,.263a1.971,1.971,0,0,0,.148.673,6.584,6.584,0,0,0,.263,1,.575.575,0,0,0,.312.312,8.313,8.313,0,0,0,.854.2l.969.148c.3,0,.985.1.985.1a.874.874,0,0,0,0,.131,5.935,5.935,0,0,0,.427.657,5.109,5.109,0,0,0,.411.575c.148.148.246.3.411.345a9.485,9.485,0,0,0,1.182.246l1.495.181h1.035a3.753,3.753,0,0,0,.131.493,2.136,2.136,0,0,0,.378.657.838.838,0,0,0,.591.378l1,.082h2.4a.955.955,0,0,0,.082.214,3.287,3.287,0,0,0,.312.575,1.642,1.642,0,0,0,.361.427.936.936,0,0,0,.542.263,5.947,5.947,0,0,0,1,0,10.367,10.367,0,0,0,1.232-.23l.92-.214a3.546,3.546,0,0,0,.279.46,3.282,3.282,0,0,0,.378.46.887.887,0,0,0,.608.164,4.583,4.583,0,0,0,1.331-.2c.41-.1,1.034-.312,1.034-.312a1.146,1.146,0,0,0,0,.263,7.423,7.423,0,0,0,.46,1.182,10.868,10.868,0,0,0,.608,1.314,10.339,10.339,0,0,0,.8,1.3c.328.443.706.92.953,1.2a18.776,18.776,0,0,0,1.642,1.56c.361.263,1.084.821,1.412,1.068a12.205,12.205,0,0,0,1.232.739c.328.181,1.15.591,1.527.755s.87.361.87.361.115.23.181.394.378.772.427.854.164,0,.246,0l.723-.263.608-.246s.23.378.345.526l.394.575h.2c.049,0,.361-.213.558-.312l.69-.361.312.378.526.624a.148.148,0,0,0,.213,0l.575-.427.558-.394.46.46a3.422,3.422,0,0,0,.558.493.115.115,0,0,0,.148,0,.51.51,0,0,0,.1-.1s.329-.312.443-.443l.46-.427.181.148.558.411a2.285,2.285,0,0,0,.394.279h.164a5.261,5.261,0,0,0,.493-.575l.394-.493s.443.246.542.328l.673.345h.214a6.585,6.585,0,0,0,.394-.575l.361-.542.575.246.739.279a.246.246,0,0,0,.246,0l.329-.657c.115-.246.312-.624.312-.624s.509-.2.936-.394,1.429-.739,1.971-1.067a19.7,19.7,0,0,0,1.642-1.166c.394-.312,1.117-.969,1.3-1.133l.624-.673c.2-.181.985-1.182,1.182-1.462s.69-1.117.8-1.314.443-.887.509-1.051.312-.887.312-.887l.411.164a4.4,4.4,0,0,0,.739.181,2.185,2.185,0,0,0,.493,0,2.691,2.691,0,0,0,.46-.263,2.2,2.2,0,0,0,.378-.411,4.242,4.242,0,0,0,.246-.411l.263.1.838.246.887.181a3.563,3.563,0,0,0,.739,0,1.117,1.117,0,0,0,.558-.345,1.771,1.771,0,0,0,.345-.493,3.41,3.41,0,0,0,.2-.443l.312.115a7.983,7.983,0,0,0,.985.2H385.4a4.926,4.926,0,0,0,.739,0,.493.493,0,0,0,.394-.213,1.2,1.2,0,0,0,.263-.378,4.04,4.04,0,0,0,.23-.591l.131-.476h2.759a3.991,3.991,0,0,0,.641,0,.64.64,0,0,0,.411-.213,1.646,1.646,0,0,0,.263-.427,4.649,4.649,0,0,0,.164-.558l.082-.509h.312l.821.082h1.1a3.844,3.844,0,0,0,.69,0,1.525,1.525,0,0,0,.394-.246,5.486,5.486,0,0,0,.46-.526,3.968,3.968,0,0,0,.345-.706,3.494,3.494,0,0,1,.214-.69h.394l1.035-.115a5.636,5.636,0,0,0,.854-.164.937.937,0,0,0,.476-.246,1.2,1.2,0,0,0,.312-.509,3.762,3.762,0,0,0,.131-.673,5.487,5.487,0,0,0,0-.624h.279l.706-.115a3.942,3.942,0,0,0,.87-.263,1.642,1.642,0,0,0,.443-.279,2.182,2.182,0,0,0,.279-.591,3.284,3.284,0,0,0,.082-.69v-.575l.706-.2a7.715,7.715,0,0,0,.969-.361c.164,0,.542-.3.575-.312a1.645,1.645,0,0,0,0-.427,4.115,4.115,0,0,0-.164-.739,2.267,2.267,0,0,0-.263-.64l.9-.378c.246-.1,1.018-.493,1.1-.542a.475.475,0,0,0,.181-.148,3.765,3.765,0,0,0,.246-.394.255.255,0,0,0-.1-.181l-.526-.673a10.425,10.425,0,0,0-.854-.8h-.558l-3.055.246c-.854.115-2.595.181-3.1.2a27.914,27.914,0,0,1-2.973-.1c-.8-.1-4.73-.279-5.617-.279s-5.255.214-5.978.263-3.285.148-4.007.148a23.09,23.09,0,0,1-2.759-.164c-.476,0-2.168-.23-2.891-.246s-1.182,0-1.757,0a14.321,14.321,0,0,0-2.266.345c-.624.131-1.429.378-1.429.378l-1.56-.673a24.076,24.076,0,0,0-2.973-.854,20.463,20.463,0,0,0-4.007-.394,21.925,21.925,0,0,0-3.465.312,23.256,23.256,0,0,0-3.12.772c-.542.181-1.642.608-1.642.608a9.983,9.983,0,0,0-1.232-.279,38.653,38.653,0,0,0-3.892-.279c-.8,0-4.927.181-5.715.213s-3.432-.1-4.369-.164-4.73-.181-5.551-.181-4.188,0-4.779.1-3.285.2-3.6.2h-2.644a17.589,17.589,0,0,1-2.595-.115l-1.839-.2a.46.46,0,0,0-.394.148l-.476.526c-.2.213-.887,1.035-.887,1.035v.246c0,.246,0,.3.181.345m4.927,3.17-1.084-.476a2.479,2.479,0,0,1-.641-.345v-.312a.378.378,0,0,0-.131-.345,1.985,1.985,0,0,0-.263-.213v-.246H336.69a.361.361,0,0,1,.164.2.8.8,0,0,0,.164.131c.049.016.148,0,.2.164a.624.624,0,0,0,.148.148c.1.082.115.115.082.148l-.23.312-.1.214a1.118,1.118,0,0,1-.246,0s.115-.1.1-.181a.476.476,0,0,0-.427-.279,12.269,12.269,0,0,0-1.314.082l-2.792.246-3.761.279-3.285.213-2.71.148-2.234.115h-1.642a1.544,1.544,0,0,1-.509-.164M347.644,102.2v.148a1.077,1.077,0,0,1-.246.148.213.213,0,0,1-.23,0,.424.424,0,0,1-.328-.2c-.131-.2-.115-.164-.115-.263a3.763,3.763,0,0,0,0-.591l-.115-.263s.2-.46.246-.542l.115-.23a2.543,2.543,0,0,0,.1.361,1.875,1.875,0,0,1,.2.361l.263.673a.625.625,0,0,1,0,.279.262.262,0,0,0,0,.2M345.443,97.2c-.1-.181-.164-.2-.246-.214a1.377,1.377,0,0,0-.263,0c-.131,0-.214-.213-.312-.23s0,0-.148,0a.2.2,0,0,1-.181,0l.657-.608c.2-.214.608-.608.788-.772l.493-.493a.3.3,0,0,0,.214.115h.411a.542.542,0,0,0,.378,0,.46.46,0,0,1,.131,0l-.2.279a9.117,9.117,0,0,0-.608.854l-.657.985-.263.427-.1.131a.509.509,0,0,0-.1-.312m.2-4.993a5.643,5.643,0,0,0-.46.361l-.345.328a.788.788,0,0,1-.328-.131,2.531,2.531,0,0,0-.443-.115H343.9l.411-.345c.164-.131.476-.328.608-.443l.3-.181h.148a.13.13,0,0,1,.148.1.387.387,0,0,1,0,.2c0,.049.1,0,.115,0v.131m0,.312.328-.263h.378a.09.09,0,0,1,.1.1v.148c0,.016.1,0,.1,0h0a5.406,5.406,0,0,1-.526.509l-.427.46h0a.855.855,0,0,0-.2-.263.493.493,0,0,0-.3-.181.771.771,0,0,0-.246,0l.427-.378.378-.361m-.854-1.248a.949.949,0,0,1-.23.3,3.641,3.641,0,0,1-.378.312,1.2,1.2,0,0,1-.328.23h-.279l-.312-.115a.23.23,0,0,0-.181,0h-.23V91.7l.542-.312.723-.378a1.117,1.117,0,0,1,.509-.164.3.3,0,0,1,.213,0,.525.525,0,0,1,0,.263m-.673-.821s-.476.279-.641.345a5.247,5.247,0,0,1-.608.246.837.837,0,0,1-.345,0h-.361a.362.362,0,0,1,0-.1l.641-.312c.312-.115.9-.345,1.035-.361a2.143,2.143,0,0,1,.328,0c.066,0,.131.082.115.131a.542.542,0,0,1-.2.246m-.115-1.084-.115.115a1.365,1.365,0,0,1-.23.213l-.509.131-.69.2a.509.509,0,0,1-.361,0h-.345a.214.214,0,0,0-.148,0h0V89.9l.624-.246.969-.246c.214,0,.378-.115.46,0H344m-2.266,1.265c.115,0,.246.1.246.181a.312.312,0,0,1,0,.263,1.239,1.239,0,0,0,0,.181.647.647,0,0,0,0,.148.328.328,0,0,1-.148.082H341.7a.344.344,0,0,0,0-.164.411.411,0,0,0-.345,0l-.706.263-.788.361a.87.87,0,0,1-.443.1,1.494,1.494,0,0,1-.427-.1l-.345-.164h-.181a.28.28,0,0,1,.082-.164.386.386,0,0,0,.3-.131l.575-.2.936-.3a2.547,2.547,0,0,0,.755-.246,1.036,1.036,0,0,1,.378-.131,2.415,2.415,0,0,1,.443.1m-2.431,2.2.558-.263,1.15-.526.657-.312a1.263,1.263,0,0,1,.263-.115h.411c.115,0,.3,0,.328.1a.475.475,0,0,1,0,.279.689.689,0,0,0,0,.263s0,.214,0,.214H342.7l-.2.1a.3.3,0,0,0-.1-.164.345.345,0,0,0-.312,0l-.673.378-.608.378a.411.411,0,0,1-.328.115,1.464,1.464,0,0,1-.394,0l-.361-.246s-.246,0-.246-.131h0m1.856.854,1.068-.608a3.531,3.531,0,0,1,.575-.312h.837a.828.828,0,0,1,0,.213v.246l-1.133.887-.641.542a3.309,3.309,0,0,0-.361-.181,1.2,1.2,0,0,0-.361-.1,1.117,1.117,0,0,1-.279-.115h-.23a.623.623,0,0,0-.246,0v-.1s.558-.378.821-.526m1.035,1.1.969-.8c.164-.131.558-.443.624-.476a.2.2,0,0,1,.181,0h.328c.082,0,.23,0,.246.1a3.692,3.692,0,0,1,0,.394.443.443,0,0,0,0,.213h0l-.181.181c-.115.1-.46.427-.591.575s-.476.443-.575.558l-.3.3a.542.542,0,0,0-.148-.279.936.936,0,0,0-.476-.131c-.164,0-.345-.148-.427-.164a.279.279,0,0,0-.148,0h-.115l.476-.411m1.741.476.772-.739a1.973,1.973,0,0,1,.345-.312,1.841,1.841,0,0,1,.378-.1.525.525,0,0,1,.164.23.427.427,0,0,0,.3.312.821.821,0,0,0,.394,0h.131l-.3.279c-.082.1-.378.394-.542.542l-.739.723-.312.279a.328.328,0,0,0-.082-.213.64.64,0,0,0-.443-.1.444.444,0,0,1-.328-.115,1,1,0,0,0-.2-.148.378.378,0,0,0-.164,0h-.148Zm3.022-1v-.082l.411-.46.476-.493.131-.164a2.608,2.608,0,0,0-.148.411,2.888,2.888,0,0,0,0,.509,1.644,1.644,0,0,1-.082.361,2.389,2.389,0,0,0,0,.263l-.164.1h-.131a.756.756,0,0,0-.1-.312.525.525,0,0,0-.181-.164H347.1m-.739,4.171h.443a2.755,2.755,0,0,1,.526,0s0,0,0,.148v.8a4.924,4.924,0,0,1,0,.723,11.386,11.386,0,0,1-.575,1.248c-.1.246-.378.739-.411.838s-.082.115-.1.164-.115-.1-.214-.214a.378.378,0,0,0-.46-.115l-1.15.3a2.186,2.186,0,0,1-.558,0,.394.394,0,0,1-.263-.246c-.082-.1-.148-.181-.246-.181h-.181l.969-1.035c.181-.181,1.133-1.2,1.347-1.445l.641-.739c.082-.115.148-.181.181-.181M347.5,97.8a.936.936,0,0,0-.115.263v.148H347.1v-.115s-.082-.148-.131-.246a.361.361,0,0,1,0-.378,5.257,5.257,0,0,1,.2-.542,1.838,1.838,0,0,1,.23-.542,2.331,2.331,0,0,1,.312-.608l.23-.361a.279.279,0,0,1,.131-.1l.1.148s.131.131.115.2l-.312.657a8.575,8.575,0,0,0-.246.838,1.643,1.643,0,0,1-.148.526m.509-4.812-.87.969a4.667,4.667,0,0,1-.443.509l-.148.2h0a.362.362,0,0,0,0-.23.525.525,0,0,0-.2-.328h-.443l.345-.361.493-.476a.591.591,0,0,1,.23-.164h.329a.657.657,0,0,0,.328-.394.509.509,0,0,0-.164-.378.575.575,0,0,0-.328-.115.739.739,0,0,0-.312,0h-.131a1.428,1.428,0,0,1,0-.181.46.46,0,0,0-.1-.3.509.509,0,0,0-.328-.214h-.263c-.049,0,0-.131,0-.246a.371.371,0,0,0-.246-.3,1.315,1.315,0,0,0-.328,0v-.131a.8.8,0,0,0-.1-.411.969.969,0,0,0-.312-.181h-.148a2.255,2.255,0,0,0,0-.279.411.411,0,0,0-.148-.345.457.457,0,0,1-.312-.213.607.607,0,0,0-.164-.181.526.526,0,0,0-.23,0h-.41a.968.968,0,0,1-.279,0,.97.97,0,0,0-.328,0H342.06a1.068,1.068,0,0,1-.345-.1l-.213-.1h-.1a.36.36,0,0,0,0-.1.492.492,0,0,1,0-.1h.887a7.287,7.287,0,0,1,1.1,0,7.75,7.75,0,0,0,.821,0H345a7.216,7.216,0,0,1,1.527.115,6.78,6.78,0,0,1,1.232.279,3.564,3.564,0,0,1,1.265.673,1.117,1.117,0,0,1,.361.8,2.727,2.727,0,0,1-.263.87l-.427.739s-.427.443-.591.624m-6.569-3.088c.082,0,.164.164.131.214a.571.571,0,0,1-.1.148v.131a.721.721,0,0,0,0,.148h-.312v-.164a.69.69,0,0,0-.329-.131,3.283,3.283,0,0,0-.706.131l-.854.263a1.854,1.854,0,0,1-.542.131,1.314,1.314,0,0,1-.427-.148l-.214-.115-.148-.1a1.264,1.264,0,0,1,.164-.2l.443-.148a8.693,8.693,0,0,1,.936-.23l.953-.2a3.4,3.4,0,0,1,.509-.148.427.427,0,0,1,.246.1l.279.214m-.328-.9a.674.674,0,0,0-.115.246v.181h-.263v-.148a.888.888,0,0,0-.345,0h-.953l-.87.115a.64.64,0,0,1-.312,0l-.476-.213c-.082,0-.131-.1-.164-.1h-.131v-.164a.925.925,0,0,1,0-.131h3.547v.148M320.628,93.3a4.254,4.254,0,0,1-.953-.312.575.575,0,0,1-.148-.279.838.838,0,0,0-.279-.378l-.3-.148v-.2h1.741l2.661-.131c.558,0,2.989-.148,3.449-.2l4.106-.3,3.235-.082,2.3-.213a2.169,2.169,0,0,0,.657-.115h.213a2.155,2.155,0,0,0,.345.328.882.882,0,0,1,.411.361.918.918,0,0,1-.131.328.741.741,0,0,0,0,.279h-.312a.326.326,0,0,0,0-.115.279.279,0,0,0-.181-.23,1.067,1.067,0,0,0-.575,0l-1.642.279-3.285.542c-.558.1-2.808.443-3.285.509s-2.595.345-3.285.411l-2.086.2a13.15,13.15,0,0,1-1.347,0,9.767,9.767,0,0,1-1.478-.378m3.4,2.611a4.428,4.428,0,0,1-.985-.181.361.361,0,0,1-.361-.23c0-.181,0-.312-.164-.427a1.265,1.265,0,0,0-.345-.3h-.263a.461.461,0,0,1,0-.2,1.329,1.329,0,0,0,.279,0h1.4a5.93,5.93,0,0,0,1.412-.115l2.119-.23,3.285-.46c.411,0,2.463-.361,3.022-.476l2.923-.509,1.281-.23c.23,0,.361-.148.493-.131l.394.213.493.181c.131,0,.263.115.263.164a.625.625,0,0,1,0,.328,1.832,1.832,0,0,0-.115.263v.2l-.3.1v-.2c0-.066-.214-.181-.3-.164a1.053,1.053,0,0,0-.361,0l-2.2.657-2.119.591-2.414.591-2.677.526c-.427.082-2.069.3-2.5.328a7.523,7.523,0,0,1-.838,0,11.571,11.571,0,0,1-1.379-.164m6.142,2.3a14.272,14.272,0,0,1-1.544-.115l-1.642-.246a.624.624,0,0,1-.312-.214,1.217,1.217,0,0,0-.312-.246l-.443-.214-.246-.1h-.214L326.8,97.2c.279,0,2.119-.3,2.562-.394l2.693-.591c.345,0,2.431-.624,2.841-.739l2.184-.624,1.642-.493a.821.821,0,0,1,.378-.148l.608.164a3.069,3.069,0,0,1,.542.164s.1.115,0,.2,0,.591,0,.641.148.164.148.164l-.328.115h-.214V95.48a.624.624,0,0,0-.246-.148.492.492,0,0,0-.246,0l-.673.3-1.544.608-2.02.772-2.611.887-1.856.526a3.856,3.856,0,0,1-.657.131m3.5,1.642h-1.38a5.064,5.064,0,0,1-.772,0,1,1,0,0,1-.328-.312,1,1,0,0,0-.427-.3.542.542,0,0,0-.312,0s0-.148,0-.148a2.923,2.923,0,0,0,.509-.148,9.661,9.661,0,0,0,.936-.3c.2-.066.9-.23,1.2-.345s1.642-.558,1.938-.657l2.25-.838,2.431-.969.608-.279a2.348,2.348,0,0,1,.542-.246,3.085,3.085,0,0,1,.542,0h.263a.429.429,0,0,1,0,.246.674.674,0,0,0,.131.443,1.526,1.526,0,0,0,.493.214,1.9,1.9,0,0,0,.427,0,.23.23,0,0,0,.115,0l-.476.279-.476.246a.732.732,0,0,0,0-.131,1.4,1.4,0,0,0-.378,0,1.33,1.33,0,0,0-.411.131c-.131.1-1.412.772-1.642.9s-2.184,1.133-2.447,1.248l-1.642.838a2.5,2.5,0,0,1-.526.181h-1.018m4.089,1.248-1.3.214a.641.641,0,0,1-.493-.131c-.131-.131-.214-.345-.394-.443a.706.706,0,0,0-.394-.115H334.9s1.511-.772,1.741-.854l2.776-1.429,2.3-1.248c.361-.2.854-.46.936-.526a.558.558,0,0,1,.23-.148h.164l.214.279a.772.772,0,0,0,.46.3,2.184,2.184,0,0,0,.427,0h.345s-.558.526-.657.591-1.3,1.067-1.527,1.281l-1.314,1.051a11.678,11.678,0,0,1-.969.706,6.571,6.571,0,0,1-.706.263l-1.642.345m5.321.443a.509.509,0,0,1-.394,0c-.148-.1-.279,0-.46,0l-.739.2a6.676,6.676,0,0,1-.854.181.575.575,0,0,1-.378-.1,1.642,1.642,0,0,0-.378-.361.46.46,0,0,0-.279,0s-.263.164-.3,0l1-.739c.181-.148.92-.723,1.1-.887l1.33-1.084c.279-.214,1.068-.887,1.265-1.067l.624-.575a.691.691,0,0,0,.1.23,2.139,2.139,0,0,0,.345.246,1.38,1.38,0,0,0,.575,0h.394c.082,0,.181,0,.181.148a1.9,1.9,0,0,1,0,.23v-.164l-1.2,1.347L343.8,100.9l-.838.87m9.328,9.854-.181.3-.148-.082s.115,0,0-.164a.411.411,0,0,0-.214-.23l-.9-.411c-.246-.115-1.265-.673-1.642-.9a12.238,12.238,0,0,1-1.642-1.232c-.361-.361-1.347-1.248-1.642-1.642a16.762,16.762,0,0,1-1.15-1.511,15.838,15.838,0,0,1-.887-1.642,1.642,1.642,0,0,0-.3-.558c-.1-.1-.131-.131-.181-.131h-.164l-.23-.148a2.393,2.393,0,0,1,0-.279s.246.312.394.312a1.15,1.15,0,0,0,.279,0,.542.542,0,0,1,.279,0,.361.361,0,0,1,.131.246,1.164,1.164,0,0,0,.131.46c.082.181.427.887.624,1.215s.772,1.133,1,1.429,1.068,1.182,1.265,1.363,1.3,1.068,1.642,1.33a19.689,19.689,0,0,0,1.856,1.133l1.412.657a1.168,1.168,0,0,1,.328.131.49.49,0,0,0,.082.115Zm.328-.591h-.082v-.263a.575.575,0,0,0-.148-.394,1.314,1.314,0,0,0-.394-.23,5.437,5.437,0,0,1-1-.493,12.328,12.328,0,0,1-1.265-.739c-.378-.246-.887-.591-1.232-.854a12.2,12.2,0,0,1-1.068-.953c-.279-.279-.772-.821-1.084-1.215a11.8,11.8,0,0,1-.9-1.314c-.214-.378-.427-.838-.509-.92a.919.919,0,0,0-.328-.263h-.493a.131.131,0,0,1,0-.082,1.086,1.086,0,0,0,.394,0l.87-.263a1.624,1.624,0,0,0,.526-.181h.23s.1,0,.164.148a2.7,2.7,0,0,0,.23.361.526.526,0,0,0,.411.164,1.758,1.758,0,0,0,.526-.1c.148,0,.427-.246.509-.3s.148-.1.181,0,.082.1.131.115a.3.3,0,0,1,.131.115s.443.64.657.92a7.855,7.855,0,0,0,.772.854c.23.213.887.772,1.133.969a14.648,14.648,0,0,0,1.347.854l1.067.542.772.312a.41.41,0,0,1,.2.164.131.131,0,0,1,0,.181s-.378.608-.526.887-.427.723-.558.92-.394.673-.476.838-.312.509-.328.558m1.987.657-.312.739-.115.23-.23.082v-.164c0-.066-.164-.181-.23-.181a.723.723,0,0,0-.263,0h-.279a2.005,2.005,0,0,1-.181-.394.3.3,0,0,1,0-.263l.591-1.084c.1-.131.591-.969.706-1.182s.378-.673.427-.772.1-.181,0-.279,0-.115-.1-.148h-.131l.263-.427h.279a2.168,2.168,0,0,1,.443,0,.588.588,0,0,1,.394.263.607.607,0,0,1-.131.46,17.186,17.186,0,0,0-.624,1.642c-.1.3-.542,1.33-.591,1.478m2.036.115a4.852,4.852,0,0,1-.214.9,2.1,2.1,0,0,1-.131.394.92.92,0,0,1-.246.164h-.115a.136.136,0,0,0,0-.181.2.2,0,0,0-.2-.131h-.3c-.082,0-.2,0-.3-.3s-.1-.246,0-.411.443-1.15.526-1.38.46-1.182.558-1.412a4.691,4.691,0,0,0,.214-.624.706.706,0,0,0-.131-.3s-.1-.082-.131,0h0l.131-.361h.3a1.314,1.314,0,0,1,.427,0c.181,0,.394,0,.411.148a.492.492,0,0,1,0,.328c0,.181-.378,1.462-.411,1.642s-.312,1.232-.345,1.4m2.135-2.053c0,.2-.148,1.527-.148,1.642v.9a1.559,1.559,0,0,1-.082.64,2.936,2.936,0,0,1,0,.411h0l-.328.246c-.082,0-.082,0-.131-.115l-.263-.115a1.231,1.231,0,0,1-.509-.476.574.574,0,0,1,0-.476c0-.214.246-.969.3-1.248s.246-1.018.3-1.281a5.908,5.908,0,0,0,.181-.821.477.477,0,0,0-.131-.361l-.148-.1h-.1v-.279h.3a.985.985,0,0,1,.328,0,1.3,1.3,0,0,1,.378,0c.115,0,.214.1.181.279s0,.838,0,1.018M347.48,99.29c0-4.812,5.19-9.066,12.087-9.066s12.087,4.254,12.087,9.066-5.206,9.066-12.087,9.066-12.087-4.237-12.087-9.066m6.142-11.5a1.2,1.2,0,0,0-.427-.23h-.246a.739.739,0,0,1-.148-.1l.46-.181c.131,0,.755-.279,1.166-.394s.854-.23,1.38-.328,1.314-.214,1.938-.279a16.162,16.162,0,0,1,1.905-.115,11.914,11.914,0,0,1,2.02.115c.46.115,1.314.164,1.839.279s1.495.361,1.922.509a7.793,7.793,0,0,1,1,.361.54.54,0,0,0,.18.148h.164a3.283,3.283,0,0,0-.361.476,1.774,1.774,0,0,0,.739,2.135c.887.657,2.48,1.642,2.743,3.1a4.531,4.531,0,0,1,0,.969l-.214-.23a5.45,5.45,0,0,0-.181-.64,4.07,4.07,0,0,0-.575-.8A6.174,6.174,0,0,0,367.7,91.6a10.96,10.96,0,0,0-2.036-1.067,15.576,15.576,0,0,0-2.086-.673,21.713,21.713,0,0,0-3.2-.427,23.61,23.61,0,0,0-2.989.148,13.613,13.613,0,0,0-2.644.608,8.342,8.342,0,0,0-1.445.558,11.281,11.281,0,0,0-1.248.657l-.92.608c-.246.164-.3.3-.443.246a.411.411,0,0,1-.279-.246,4.945,4.945,0,0,1,.378-.394c.164-.181.591-.526.854-.755l.854-.739a3.854,3.854,0,0,0,.312-.345s.082.148.214.1a.969.969,0,0,0,.476-.378,1.725,1.725,0,0,0,.361-1.018.983.983,0,0,0-.2-.723m28.116,1.757a.641.641,0,0,0-.328-.246,6.093,6.093,0,0,0-1-.1h-.985a1.478,1.478,0,0,1-.591-.115h-.131a.115.115,0,0,0-.131,0,.884.884,0,0,1,0-.181h0a2.449,2.449,0,0,0,.46,0l1.084-.164,1.215-.213a1.528,1.528,0,0,1,.591,0,.263.263,0,0,1,.164.213,3.275,3.275,0,0,0,.115.378,1.7,1.7,0,0,1,.082.263.9.9,0,0,1-.213.246l-.263.263a.527.527,0,0,0,0-.246m-3.137.131,1.133.148c.279,0,1.018.164,1.232.181s.526,0,.641,0,.148.213.164.312a1.213,1.213,0,0,1,0,.328.739.739,0,0,1-.23.23.968.968,0,0,1-.263.164v-.2a.493.493,0,0,0-.312-.131l-.575-.115-1.018-.213a4.928,4.928,0,0,1-.673-.131c-.164,0-.279-.23-.378-.263h-.2v-.115a1.017,1.017,0,0,1,.2-.148h.328m2.053,2.693a1.15,1.15,0,0,0-.493-.246l-.936-.279-.87-.279a2.148,2.148,0,0,1-.427-.148,3.285,3.285,0,0,0-.279-.213.427.427,0,0,0-.164,0V91a1.186,1.186,0,0,1,.246,0,1.773,1.773,0,0,1,.361,0c.164,0,.985.263,1.33.312l1.051.23c.263,0,.46,0,.509.148a.935.935,0,0,1,0,.427c0,.115,0,.345,0,.378s-.148.1-.246.131h-.148a.214.214,0,0,0,0-.2m-.493,1.4h-.378a.115.115,0,0,0,0-.181.805.805,0,0,0-.328-.23l-.706-.263-.985-.427-.69-.279a.275.275,0,0,1-.23-.148c-.033-.049-.164,0-.164,0v-.411h.2a.361.361,0,0,1,.23,0s.345.131.493.2l1.15.411c.246.1.706.279.9.328a1.581,1.581,0,0,1,.411.148.493.493,0,0,1,.131.312c0,.131,0,.148,0,.23v.263m-1.084,1.067a.37.37,0,0,0-.23.082h-.148a.1.1,0,0,0,0-.115.329.329,0,0,0-.214-.213h-.427a1.79,1.79,0,0,1-.427-.2c-.2-.1-.575-.345-.788-.443l-.706-.394-.246-.148h-.2a.509.509,0,0,1-.181,0s.181,0,.214-.082a2.454,2.454,0,0,0,0-.345s0-.115,0-.115h.2a.657.657,0,0,1,.328,0,10.275,10.275,0,0,1,1.051.526c.312.131.92.46,1.117.526s.509.181.558.279a.3.3,0,0,1,0,.263s-.082.131,0,.181,0,.131,0,.164m-2,.838a2.764,2.764,0,0,0-.394-.115,2.137,2.137,0,0,1-.509-.312l-.657-.476c-.164-.115-.394-.312-.509-.378a2.464,2.464,0,0,0-.476-.1,1.647,1.647,0,0,1-.3,0s0,.148-.115.1l-.148-.1h0v-.131a.721.721,0,0,1,.2,0,.937.937,0,0,0,.361,0l.2-.082.214-.131c.082,0,0-.115.115-.131h.263l.575.427,1.035.624a5.764,5.764,0,0,1,.657.427c.115.1.181.148.181.23s-.082.164-.115.246,0,.131,0,.2v.115h-.279a.131.131,0,0,0,0-.131.244.244,0,0,0-.181-.214m-1.347,1.035-.328-.181c-.148,0-.345-.263-.526-.394s-.624-.558-.706-.641a3.286,3.286,0,0,0-.493-.394,1.643,1.643,0,0,0-.394-.082H373.2s0,.1-.082.1h0l-.082-.1a.281.281,0,0,0,0-.115v-.131a1.639,1.639,0,0,0,.312.082h.115a.279.279,0,0,1,.2-.131h.23a.477.477,0,0,1,.263,0,5.789,5.789,0,0,1,.706.509l.92.739.427.312s.23.23.2.3a1.314,1.314,0,0,0-.148.23v.246c0,.049-.1,0-.148,0h-.181l.1-.115a.212.212,0,0,0-.1-.164m-1.478.739-.328-.181a1.429,1.429,0,0,1-.345-.279l-.443-.558c-.1-.115-.378-.46-.493-.575a.92.92,0,0,0-.411-.279h-.246s-.082.1-.082.131a.36.36,0,0,1-.131-.115l-.23-.361a1.641,1.641,0,0,0,.394.1h.279a.563.563,0,0,1,.624-.148c.131.1.8.772.9.854l.641.641a2.22,2.22,0,0,1,.394.411c0,.1,0,.164,0,.213v.361a.2.2,0,0,1-.181,0h-.181a.1.1,0,0,0,.1-.115.23.23,0,0,0-.131-.2m3.908-8.376a.429.429,0,0,0,0,.181h-.1l-.263.164a.389.389,0,0,0,0-.131.394.394,0,0,0-.263-.181,2.877,2.877,0,0,0-.575,0h-.9a.312.312,0,0,0-.164,0h-.1a.345.345,0,0,1-.131,0v.115a.69.69,0,0,0,.46.164l.575.1a4.757,4.757,0,0,1,.558.115,1.644,1.644,0,0,0,.345,0s.148,0,.148.1v.164a.279.279,0,0,0,0,.164.1.1,0,0,1,0,.1,1.53,1.53,0,0,0-.246.115h-.115V90.11a.329.329,0,0,0-.2-.131l-.624-.164-.608-.131c-.164,0-.3-.1-.345,0s0,.1-.1.1h-.115c-.033,0-.082,0,0,.1a.722.722,0,0,0,.263.164l.673.2a4.191,4.191,0,0,1,.641.214c.164.033.328,0,.361.164a.23.23,0,0,1,0,.23s0,.131-.1.148a.727.727,0,0,1,0,.131.886.886,0,0,1-.181.1h-.131a.181.181,0,0,0,0-.181c0-.115-.181-.164-.361-.263a5.525,5.525,0,0,0-.641-.246l-.673-.263a.591.591,0,0,0-.3,0c-.1,0-.131,0-.115.115s.1,0,.1.131v.115h0a2.885,2.885,0,0,0,.361.213l.641.328.476.246s.23.148.2.213a.535.535,0,0,0,0,.23v.1l-.312.1a.3.3,0,0,0,0-.1.526.526,0,0,0-.2-.181l-.723-.411-.476-.263a1.8,1.8,0,0,0-.3-.23s-.164-.1-.246,0-.1.181,0,.23l.131.131h0a4.436,4.436,0,0,0,.378.3c.164.131.575.394.69.476a4.1,4.1,0,0,1,.394.279s.1.131,0,.2a.214.214,0,0,0,0,.115v.164a.181.181,0,0,1-.115,0h-.214a.213.213,0,0,1,0-.1.216.216,0,0,0-.148-.181l-.575-.427c-.148-.115-.46-.328-.542-.411s-.2-.263-.279-.328-.164-.115-.246-.082-.181.1-.2.181a.638.638,0,0,0,0,.181c0,.033.115,0,.115.1s-.082,0,0,.1a4.157,4.157,0,0,0,.427.345c.131.115.558.443.657.542s.312.263.328.361a.443.443,0,0,1,0,.3.46.46,0,0,1-.214,0h-.2V93.2a4.082,4.082,0,0,0-.345-.263l-.706-.591a1.641,1.641,0,0,1-.361-.411.332.332,0,0,0-.279-.263.394.394,0,0,0-.345.131c-.082.1-.082.213,0,.263s.164.115.131.131h-.115a1.828,1.828,0,0,1,.279.213l.624.509c.115.115.361.345.394.394a.345.345,0,0,1,.115.23.706.706,0,0,1,0,.246s0,0,0,.115a.591.591,0,0,1-.23,0h-.082s.1-.082.1-.115a.821.821,0,0,0-.246-.263s-.526-.46-.69-.624a2.1,2.1,0,0,1-.46-.509,1.89,1.89,0,0,0-.131-.46,4.114,4.114,0,0,1-.361-.394,7.459,7.459,0,0,1-.509-.821,2.1,2.1,0,0,1-.3-.706v-.443c0-.066-.115-.2-.164-.2h-1.133a1.282,1.282,0,0,1,.361-.345,5.121,5.121,0,0,1,.87-.411,13,13,0,0,1,1.511-.3h4.664a4.922,4.922,0,0,1,.493,0c.1,0,.23,0,.246.115a.641.641,0,0,1,0,.181m-6.569,4.6.345.23a2.122,2.122,0,0,1,.345.328s.214.214.2.3a.788.788,0,0,1-.115.361.559.559,0,0,1-.214.148h-.181s.148,0,.148-.115,0-.115-.131-.213a2.887,2.887,0,0,1-.263-.312,1.64,1.64,0,0,1-.2-.3h-.164v-.394a2.462,2.462,0,0,0-.115-.328,1.832,1.832,0,0,0,0-.214s.361.411.46.493m-.312,1.921V95l.214.3a2.509,2.509,0,0,1,.3.3c.082,0,.378.476.493.641l.558.755s.263.361.246.443a1.548,1.548,0,0,1,0,.263s-.082.164-.115.164H373.1v-.115a.411.411,0,0,0-.214-.263,2.056,2.056,0,0,1-.394-.246s-.23-.493-.3-.641a3.882,3.882,0,0,0-.361-.624c-.082-.131-.148-.279-.2-.3s0,0-.082,0a.132.132,0,0,1-.1,0,1.217,1.217,0,0,0,.1-.3,1.488,1.488,0,0,1,.082-.279m3.564,7.785a2.3,2.3,0,0,0-.493-.246,3.471,3.471,0,0,1-.673-.246,1.019,1.019,0,0,1-.394-.23,6.97,6.97,0,0,1-.46-.755l-.575-1.1a1.035,1.035,0,0,1-.148-.411c0-.115,0-.526,0-.624a.853.853,0,0,0-.23-.345.144.144,0,0,1-.131-.1h-.148v-.164h.443a3.083,3.083,0,0,1,.394,0,.263.263,0,0,1,.23,0,1.522,1.522,0,0,1,.164.328,9.426,9.426,0,0,0,.624.953c.1.1.476.624.641.838l.739.969.46.526c0,.115.246.345.263.394a.19.19,0,0,1-.082.2,1.12,1.12,0,0,1-.2.213.689.689,0,0,1-.23.181v-.148a.223.223,0,0,0-.131-.213m-2.858.2a.656.656,0,0,0-.279-.23.658.658,0,0,1-.378-.263.378.378,0,0,1,0-.3.853.853,0,0,0,0-.526.772.772,0,0,0-.1-.246.164.164,0,0,0-.082-.1s.1-.345.115-.427v-.3a4.717,4.717,0,0,0,.263.411,5.8,5.8,0,0,1,.312.509c.082.164.361.608.427.755a.788.788,0,0,1,.148.427,1.266,1.266,0,0,1-.181.394.193.193,0,0,1-.131.213.526.526,0,0,1-.246.1.378.378,0,0,0,.115-.164.476.476,0,0,0-.115-.263m-.328.591a2.119,2.119,0,0,0,.46,0,.312.312,0,0,0,.312-.148,1.644,1.644,0,0,0,.246-.378,2.155,2.155,0,0,1,.1-.23l.345.148.641.213a1.642,1.642,0,0,1,.509.181.214.214,0,0,1,.131.2,3.3,3.3,0,0,1-.148.394,6.453,6.453,0,0,1-.411.838l-.706,1.1a15.2,15.2,0,0,1-1.117,1.347,4.684,4.684,0,0,1-.706.64,6.55,6.55,0,0,0-.657.246l-1,.624c-.263.164-.641.394-.92.542l-1.15.575-.608.279a.706.706,0,0,1-.345,0,.23.23,0,0,1-.214-.148l-.493-.854c-.115-.23-.575-1-.657-1.133a.821.821,0,0,0-.575-.361h-.214a.246.246,0,0,1-.1-.115,5.688,5.688,0,0,0,.657-.263l.854-.378c.263-.131.969-.509,1.281-.706a8.924,8.924,0,0,0,1-.723l1.035-.92a10.854,10.854,0,0,0,.821-.985l.411-.608.542.279a2.349,2.349,0,0,0,.673.263m-11.529,9.509v.246l-.411.394-.46.394.115-.23s.1-.164,0-.23a2.278,2.278,0,0,0-.394-.411.591.591,0,0,1-.2-.361,14.138,14.138,0,0,1,.1-1.429c0-.378.082-1.248.1-1.544a2.054,2.054,0,0,0,0-.772.739.739,0,0,0-.23-.328h-.2v-.263a2.163,2.163,0,0,0,.328,0,2.564,2.564,0,0,1,.509,0c.181,0,.378,0,.394.164s0,.427,0,.608.082,1.232.1,1.4.1,1.3.115,1.642,0,.8,0,.92m2.086,0a3.484,3.484,0,0,1-.312.394l-.46.526a.247.247,0,0,1,0-.181s.148-.148.131-.246a.723.723,0,0,0-.2-.361c0-.082-.263-.181-.361-.279a.624.624,0,0,1-.148-.378c0-.213-.1-1.363-.131-1.741s-.115-1.429-.131-1.642a.657.657,0,0,0-.164-.427.607.607,0,0,0-.263-.164.328.328,0,0,0-.131,0V108.6h.361a3.48,3.48,0,0,1,.542-.082c.148,0,.3,0,.328.148l.082.493c0,.131.312,1.347.345,1.527s.345,1.478.394,1.642a5.066,5.066,0,0,1,.131.772v.23m1.872,0-.411.575a.593.593,0,0,1,0-.23.279.279,0,0,0,0-.23.64.64,0,0,0-.2-.328.865.865,0,0,1-.378-.23c-.1-.1-.131-.115-.214-.411s-.263-1.067-.312-1.3-.3-1.314-.361-1.544a1.856,1.856,0,0,0-.2-.624,1.182,1.182,0,0,0-.328-.279H361.6v-.213a1.051,1.051,0,0,0,.3,0,3.857,3.857,0,0,1,.575-.181h.361l.148.345c0,.164.443,1.166.526,1.429s.542,1.314.624,1.527.279.706.312.8a2.427,2.427,0,0,1,.1.443,4.306,4.306,0,0,1-.279.46m2.381-1.067a6.266,6.266,0,0,1-.279.591l-.263.46a2.3,2.3,0,0,0,0-.443.509.509,0,0,0-.23-.312,2.607,2.607,0,0,0-.378-.181.559.559,0,0,1-.246-.312c-.115-.2-.378-.92-.46-1.133l-.542-1.363a8.363,8.363,0,0,0-.378-.87,1.215,1.215,0,0,0-.378-.279.509.509,0,0,0-.213,0h-.115v-.164l.542-.131a2.135,2.135,0,0,1,.493-.164h.246a.722.722,0,0,1,.164.263,8.649,8.649,0,0,0,.526.953c.115.214.476.838.591,1.018s.476.8.542.936l.246.411a1.507,1.507,0,0,0,.23.46c.066.115.082.181,0,.246m9.115-8.688a3.285,3.285,0,0,1-.263.673c-.082.181-.394.788-.509.985s-.575.936-.772,1.215-.8,1-.985,1.215-.92.9-1.1,1.084-1.462,1.018-1.642,1.182l-1.281.723c-.181.115-.772.394-.969.493a6.793,6.793,0,0,1-.838.361,1.068,1.068,0,0,1-.394,0h-.3v-.1l.723-.312c.246-.115,1.3-.608,1.642-.788s.9-.509,1.232-.723,1.068-.772,1.347-1.018a14.105,14.105,0,0,0,1.215-1.182c.131-.164.772-.755.9-.9a4.931,4.931,0,0,0,.591-.657,10.58,10.58,0,0,0,.69-1.15c.082-.214.181-.361.164-.46a.441.441,0,0,1,0-.164h-.164v-.181a.2.2,0,0,0,0-.1.509.509,0,0,0,.246,0,1.738,1.738,0,0,0,.394-.3,2.91,2.91,0,0,0,.328-.345v-.115h0a4.542,4.542,0,0,1-.181.591m2.841-1.068a4.473,4.473,0,0,1-.279.394l-.3.213a.394.394,0,0,0,0-.213.575.575,0,0,0-.279-.23,5.582,5.582,0,0,1-.755-.214,3.6,3.6,0,0,1-.755-.328c-.115-.1-.641-.706-.772-.87s-.558-.739-.723-.936l-.69-.936c-.2-.246-.493-.64-.575-.723s-.082-.115-.164-.164l-.1-.082v-.2a.524.524,0,0,0,0-.115,3.291,3.291,0,0,0,.427,0,1.444,1.444,0,0,1,.443,0,.279.279,0,0,1,.3.2,3.168,3.168,0,0,0,.493.575l1.215,1.133c.23.214,1,.969,1.281,1.215l.739.657.378.394a.312.312,0,0,1,0,.3m3.876-.739a5.2,5.2,0,0,1-.345.591,1.493,1.493,0,0,1-.279.279h-.1s.115-.115,0-.2a.427.427,0,0,0-.2-.279,3.878,3.878,0,0,0-.591-.148,8.854,8.854,0,0,1-1.215-.312,1.988,1.988,0,0,1-.706-.263c-.164-.131-.64-.575-.87-.788l-.969-.887-1.018-.953-.838-.772a4.461,4.461,0,0,0-.378-.394.174.174,0,0,1-.164-.115.329.329,0,0,1,0-.181v-.1a1.378,1.378,0,0,0,.378,0h.427a.674.674,0,0,1,.345,0,2.63,2.63,0,0,1,.624.378l1.117.854,1.544,1.084,1.445.969.985.591a3.766,3.766,0,0,1,.591.345s.164.148.1.3m4.139-1.068a2.167,2.167,0,0,1-.246.575,1.644,1.644,0,0,1-.246.411l-.164.131h0s.1-.115.1-.164a.541.541,0,0,0-.148-.263.51.51,0,0,0-.263-.1,4.928,4.928,0,0,1-.608,0,7.788,7.788,0,0,1-1-.148,3.53,3.53,0,0,1-.772-.2c-.263-.115-.821-.427-1.117-.591s-1.232-.739-1.544-.953l-1.839-1.3c-.214-.131-.69-.493-.887-.64l-.591-.443a4.076,4.076,0,0,1-.394-.427c-.1,0-.23,0-.263-.164a.311.311,0,0,1,0-.164l.591-.164a1.641,1.641,0,0,1,.476,0,3.383,3.383,0,0,1,.641.3l1.4.755,1.757.887c.279.131,1.15.575,1.462.706l1.724.755,1.018.378.755.23a.8.8,0,0,1,.46.2.493.493,0,0,1,0,.3m4.336-1.741a3.082,3.082,0,0,1-.148.493,2.394,2.394,0,0,1-.23.46.754.754,0,0,1-.279.131.2.2,0,0,0,.082-.181.23.23,0,0,0-.115-.181.312.312,0,0,0-.246-.1h-1.921a7.1,7.1,0,0,1-.838,0,4.32,4.32,0,0,1-.838-.181c-.361-.1-1.215-.394-1.642-.558l-1.823-.788-1.823-.9-1.2-.608c-.279-.148-.92-.493-1.068-.591l-.493-.164a3.015,3.015,0,0,1-.394-.115h-.2V95.5a6.447,6.447,0,0,0,.657-.181,1.642,1.642,0,0,1,.657-.164,6.144,6.144,0,0,1,.92.263l1.412.526c.246,0,2.349.8,2.693.9l2.529.755,2.562.641,1.314.246c.2,0,.394,0,.427.181a.607.607,0,0,1,0,.345m4.089-1.642a3.089,3.089,0,0,1-.328.591,1.647,1.647,0,0,1-.345.345.346.346,0,0,1-.115,0,.328.328,0,0,0,0-.2.312.312,0,0,0-.263-.2,3.629,3.629,0,0,0-.64,0,13.529,13.529,0,0,1-1.642-.131c-.673-.115-1.642-.263-2.349-.411l-2.348-.673-2.562-.772-2.036-.69c-.411-.148-1.642-.558-1.774-.64a1.873,1.873,0,0,0-.46-.115h-.854a.174.174,0,0,1-.164-.115.164.164,0,0,1,0-.115,1.644,1.644,0,0,0,.345,0,.812.812,0,0,0,.526-.131c.131-.131.164,0,.181-.115a2.189,2.189,0,0,0,0-.328v-.148a2.364,2.364,0,0,0,.378,0,6.189,6.189,0,0,1,.657.115l2.25.575,2.693.657c.361,0,2.036.427,2.414.509l3.285.608c.411,0,1.839.3,2.168.328s.838,0,.936.115.2,0,.164.181a2.676,2.676,0,0,1-.246.657m3.416-2.135a1.332,1.332,0,0,1-.181.443.69.69,0,0,1-.2.246h-.131a.394.394,0,0,0,0-.23s-.181-.214-.279-.214a3.675,3.675,0,0,0-.608,0l-.9.1a7.015,7.015,0,0,1-.788,0h-.772l-1.642-.246-2.086-.361-2.644-.46-2.02-.443-2.135-.509-1.527-.361-.9-.214a1.216,1.216,0,0,0-.411,0l-.443.131a.443.443,0,0,1-.213,0,.361.361,0,0,1-.2,0l.394-.148a.6.6,0,0,0,.427-.246.328.328,0,0,0,0-.213v-.131h.608l1.248.164,1.872.279c.345,0,2.66.378,3.12.427l2.825.361,2.956.312,2.036.181c.443,0,1.38.1,1.774.1a7.023,7.023,0,0,1,.8,0,.168.168,0,0,1,.164.181c-.016.082-.115.706-.148.838m2.726-2.447a1.494,1.494,0,0,1-.3.608,1.25,1.25,0,0,1-.246.148v-.2a.443.443,0,0,0-.279-.164c-.1,0-.69.148-.985.181a7.8,7.8,0,0,1-1.133,0h-1.642c-.411,0-1.56-.115-2.135-.181l-2.858-.312L389,92.409l-2.628-.361-1.971-.263-1.642-.263h-.624a3.14,3.14,0,0,0-.394,0h-.526l.427-.3c.131-.115.279-.213.312-.312a.44.44,0,0,0,0-.148h1.15l1.511.1,2.414.164,3.285.214,2.759.164,2.776.148,2.923.1h2.2c.131,0,.279,0,.3.148a4.5,4.5,0,0,1-.082.9m2.25-2.4a2.477,2.477,0,0,1,0,.279l-.312.164h-.115a.181.181,0,0,0,0-.148.46.46,0,0,0-.246-.181.838.838,0,0,0-.394,0c-.164,0-.673.213-.953.279a6.569,6.569,0,0,1-.9.115H395.9l-2.628-.2c-.575,0-2.348-.131-2.759-.164l-2.923-.164-2.972-.164-1.33-.1a5.83,5.83,0,0,1-.673,0c-.115,0-.115-.082-.2-.115h-.23l.312-.345c.082,0,.148-.2.181-.2a2.757,2.757,0,0,0,.329,0h19.658a2.925,2.925,0,0,1,.509,0c.1,0,.1.1.131.131a4.841,4.841,0,0,1,.2.657,1.793,1.793,0,0,1,.115.526M369.8,87.006c.411,0,1.642-.279,2.053-.312s1.3-.082,1.642-.082a14.054,14.054,0,0,1,1.889.1c.624.1,1.527.2,2.1.23s1.642,0,2.02,0h1.642a23.142,23.142,0,0,0,2.562-.1l2.5-.131h2.628a27.138,27.138,0,0,1,3.022.115l2.234.115h4.976l2.234-.164,2.053-.2a7.26,7.26,0,0,1,.92,0,.871.871,0,0,1,.41.2l.443.493.361.427s.131.213.1.279,0,.148-.082.181l-.345.148a.2.2,0,0,0-.1-.164.493.493,0,0,0-.378,0l-.723.3a3.748,3.748,0,0,1-.755.3H384.4l-1.363.115a1.791,1.791,0,0,1-.558,0H382.1v-.1h.394a4.619,4.619,0,0,0,.657-.181l1.511-.279c.394,0,2.184-.378,2.693-.443s1.856-.213,2.332-.246,1.79-.148,2.266-.164,1.511,0,1.774,0h2.086v-.246H388.5c-.493,0-1.856.164-2.3.23s-1.921.263-2.611.394l-2.266.427a16.123,16.123,0,0,1-1.642.279,19.991,19.991,0,0,1-2.151,0h-2.316a17.825,17.825,0,0,0-2.283.1,7.507,7.507,0,0,0-1.445.3,3.167,3.167,0,0,0-.854.378c-.23.164-.328.328-.312.394a.365.365,0,0,0,0,.1h.181l-.263.213a.772.772,0,0,0-.23.427c0,.148-.082.526-.1.69a.755.755,0,0,0,0,.345,4.515,4.515,0,0,0,.411.772l.443.739.3.46a2.646,2.646,0,0,1,.3.624,3.9,3.9,0,0,1,0,.46v1.133c0,.016-.115.115-.115.181a3.187,3.187,0,0,1,0,.328,2.71,2.71,0,0,1-.082.263s-.1-.213-.1-.23v-.46a17.074,17.074,0,0,1-.493-1.856,3.284,3.284,0,0,0-.591-1.363c-.23-.345-.378-.69-.641-1.133a5.47,5.47,0,0,0-1.478-1.215,1.922,1.922,0,0,1-.87-1.675c0-.214-.115-.526-.361-.394a1.053,1.053,0,0,1,.263-.312,3.875,3.875,0,0,1,1.1-.624c.427-.164,1.429-.427,1.823-.526m-17.376-.181c.246-.1,1.445-.509,1.823-.608s1.527-.361,2.168-.476a22.461,22.461,0,0,1,3.153-.246c1.067,0,2.036.1,2.562.148s1.544.263,1.971.345a14.9,14.9,0,0,1,1.527.427l1.248.443.427.181a.443.443,0,0,0,.181.164l.3.131a.559.559,0,0,1-.164.1l-.312.131-.2.1a.328.328,0,0,0,0-.181,4.666,4.666,0,0,0-.69-.328c-.3-.1-.739-.263-1.182-.394s-1.2-.345-1.642-.427-1.084-.2-1.642-.246-1.642-.148-2.283-.148a12.026,12.026,0,0,0-2.332.148,17.849,17.849,0,0,0-2.086.361c-.558.131-1.3.312-1.642.411a4.926,4.926,0,0,1-.772.246,3.29,3.29,0,0,1-.411,0h-.23a.46.46,0,0,1-.214,0l-.164-.082q.31-.108.608-.246m-37.773.115a2.4,2.4,0,0,1,.394-.411,2.184,2.184,0,0,1,.591,0l1.642.148h5.765l1.905-.148,1.971-.115h6.241l2.825.148c.493,0,2.94.115,3.5.115h1.757l3.12-.131h2.94c.657,0,2.266.164,2.808.23s1.068.2,1.232.213a.854.854,0,0,1,.476.1c.082.082.181.263.328.345s.394.148.476.246.082.328.131.427a1.759,1.759,0,0,1,.263.608,1.33,1.33,0,0,1-.131.772,3.758,3.758,0,0,1-.591.739c-.246.263-.624.526-.936.8a7.228,7.228,0,0,0-1.15,1.1,2.151,2.151,0,0,0-.526,1.035v.69a.755.755,0,0,1-.164.328,8.42,8.42,0,0,0-.64.756c-.148.2-.394.542-.443.64l-.115.2-.1-.164.23-.3c.082-.1,0-.378.082-.838.1-1.232,1.642-2.595,1.412-3.843a3.088,3.088,0,0,0-2.677-1.872c-.69-.115-3.005-.3-3.5-.312h-5.124a10.591,10.591,0,0,1-1.642-.131,13.986,13.986,0,0,1-1.774-.443c-.657-.2-1.182-.361-1.642-.46a10.231,10.231,0,0,0-1.642-.263c-.46,0-1.33-.115-2-.131H323.42c-.2,0-.148.115-.23.131h-1.724a.1.1,0,0,0,.082.131,4.265,4.265,0,0,0,.427,0h1.905a10.053,10.053,0,0,0,1.018,0h3.63a12.914,12.914,0,0,1,2.168.148,17.061,17.061,0,0,1,2.2.361c.723.181,1.642.46,2.036.591l1.33.361a3.04,3.04,0,0,1,.673.148c.082,0,.082.131,0,.23a1.49,1.49,0,0,0-.115.23v.164h-.279a.18.18,0,0,0,0-.115.857.857,0,0,0-.328-.2l-1.15-.131h-17.31a5.811,5.811,0,0,1-.936,0,7.2,7.2,0,0,1-1.2-.591c-.3-.164-.887-.427-1.035-.526a2.153,2.153,0,0,0-.361-.2c-.049-.016-.246.181-.312.263s-.164,0-.164,0l.87-.985" transform="translate(-313.32 -84.69)" fill="#adadb1"/>
  <path id="Trazado_400" data-name="Trazado 400" d="M357.826,96.935c0-4.319-4.73-8.655-11.693-8.655s-11.693,4.336-11.693,8.655,4.73,8.688,11.693,8.688,11.693-4.352,11.693-8.688m-18.788,4.254c0-.427.838-.854.821-1.215V93.9c0-.312-.854-.443-.854-1.035a.467.467,0,0,1,0-.131,6.438,6.438,0,0,1,3.564-2.168,13.139,13.139,0,0,1,5.42-.411c2.644.394,4.516,1.642,4.7,3.285a3.279,3.279,0,0,1,0,.411c0,.936-.443,1.774-1.889,2.595h0a3.794,3.794,0,0,1,2.25,3.383c0,2.069-2.381,3.794-6.569,3.81h-.854c-4.188-.213-6.684-2.069-6.684-2.463" transform="translate(-299.754 -82.384)" fill="#adadb1"/>
  <path id="Trazado_401" data-name="Trazado 401" d="M345.832,96.468c0-2.266-1.544-2.792-3.005-2.808s-3.137.476-3.137,2.808,1.642,2.726,3.087,2.726h.1a2.595,2.595,0,0,0,2.956-2.726" transform="translate(-296.382 -78.929)" fill="#adadb1"/>
  <path id="Trazado_402" data-name="Trazado 402" d="M342.653,95.1c1.642,0,2.792-.624,2.792-2.546s-1.117-2.529-2.792-2.546a2.48,2.48,0,0,0-2.792,2.546c0,1.987,1.265,2.529,2.792,2.546" transform="translate(-296.274 -81.287)" fill="#adadb1"/>
</svg>
