<svg id="Grupo_155" data-name="Grupo 155" xmlns="http://www.w3.org/2000/svg" width="67.798" height="46.103" viewBox="0 0 67.798 46.103">
  <path id="Trazado_480" data-name="Trazado 480" d="M204.086,202.252h-8.047a3.265,3.265,0,0,1-2.458-1.652,24.968,24.968,0,0,0-21.28-11.216,24.6,24.6,0,0,0-21.626,11.831h0a1.325,1.325,0,0,1-1.4.979h-8.72a2.132,2.132,0,0,0-2.132,2.132v14.366a2.132,2.132,0,0,0,2.132,2.132h7.279a1.92,1.92,0,0,1,1.5.96c0,.154.269.365.461.615s.749,1,1.018,1.44a26.274,26.274,0,0,0,42.484,1.594l.461-.634a26.2,26.2,0,0,0,1.921-3.15c.384-.691.653-.826,1.172-.826h7.241a2.132,2.132,0,0,0,2.132-2.132V204.326a2.132,2.132,0,0,0-2.132-2.132m-54.392.6h0a1.805,1.805,0,0,0,1.517-1.344,25.141,25.141,0,0,1,41.85-.538,3.841,3.841,0,0,0,2.977,1.921h8.047a1.555,1.555,0,0,1,.884.288l-1.921,1.921a1.152,1.152,0,0,0-.672-.192H142.3a1.248,1.248,0,0,0-.691.192l-1.613-2.055a1.65,1.65,0,0,1,.519-.1Zm5.762,25.736a12.483,12.483,0,0,1-2.093-2.151c-.538-.653-1.076-1.344-1.556-2.036s-.98-1.383-1.344-1.921a12.629,12.629,0,0,1-.787-1.268,1.594,1.594,0,0,1-.1-1.748,5.569,5.569,0,0,1,2.228-1.517l4.206,2.478-.192.307-3.592-1.921a21.127,21.127,0,0,0,20.128,13.636,20.512,20.512,0,0,0,19.456-13.31l-3.131,1.652-.1-.154a.577.577,0,0,1,0-.154h0l4.321-2.5,2.766,2.209c-.864,2.247-3.361,6.088-6.722,5.762a20.743,20.743,0,0,1-16.5,7.317,23.566,23.566,0,0,1-17.151-7.145l-2.036-.672a13.83,13.83,0,0,0,2.286,3.3h0m32.516-7.51c-2.343,6.664-9.6,9.161-15.711,9.277s-13.348-2.612-15.711-9.277v-.346h31.479a.461.461,0,0,1,0,.346m14.962-15v9.8a.672.672,0,0,1-.672.672H142.3a.672.672,0,0,1-.672-.672v-9.8a.672.672,0,0,1,.672-.672h60a.672.672,0,0,1,.672.672" transform="translate(-138.42 -189.376)" fill="#adadb1"/>
  <path id="Trazado_481" data-name="Trazado 481" d="M149.869,203.228h31.709c1.114,0,.634-.941.384-1.46a6.223,6.223,0,0,1,3.092,1.479c-2.785-8.528-10.487-12.657-19.552-12.657s-16.767,4.994-19.533,12.868a7.934,7.934,0,0,1,2.977-1.421.98.98,0,0,0,.922,1.191m.1-1.709c2.67-6.972,8.739-9.334,15.365-9.334s13.963,2.266,16.172,9.334a.858.858,0,0,0,0,.154v-.154c.1.422,0,.6-.423.6h-30.73c-.307,0-.73,0-.519-.6" transform="translate(-131.469 -188.259)" fill="#adadb1"/>
  <path id="Trazado_482" data-name="Trazado 482" d="M140.665,142.856l-2.574-6.4H134.25v8.431h2.362v-6.684l2.689,6.684h3.726V136.46h-2.362Z" transform="translate(-126.126 -119.302)" fill="#adadb1"/>
  <line id="Línea_16" data-name="Línea 16" y1="8.431" transform="translate(20.013 17.158)" fill="none" stroke="#adadb1" stroke-miterlimit="10" stroke-width="2.34"/>
  <path id="Trazado_483" data-name="Trazado 483" d="M153.855,136.46l-3.015,8.431h2.42l.538-1.517h3.5l-.634-1.863h-2.209l1.095-3.169,2.3,6.549h2.42l-2.977-8.431Z" transform="translate(-110.853 -119.302)" fill="#adadb1"/>
  <path id="Trazado_484" data-name="Trazado 484" d="M155.2,201.579h-2.516v-1.364h4.763v-1.921h-4.859a2.132,2.132,0,0,0-2.3,2.439c0,.845.134,2.708,2.842,2.708H155.7v1.364h-5.166v1.921h5.243a2.458,2.458,0,0,0,2.42-2.612c0-1.633-.864-2.554-2.977-2.554" transform="translate(-127.522 -181.175)" fill="#adadb1"/>
  <path id="Trazado_485" data-name="Trazado 485" d="M162.606,142.856l-2.554-6.4H156.21v8.431h2.343v-6.684l2.708,6.684h3.726V136.46h-2.382Z" transform="translate(-105.909 -119.302)" fill="#adadb1"/>
  <path id="Trazado_486" data-name="Trazado 486" d="M159.847,201.579h-2.516v-1.364h4.744v-1.921h-4.859a2.132,2.132,0,0,0-2.3,2.439c0,.845.134,2.708,2.843,2.708h2.574v1.364H155.1v1.921h5.243a2.458,2.458,0,0,0,2.42-2.612c0-1.633-.864-2.554-2.977-2.554" transform="translate(-123.26 -181.175)" fill="#adadb1"/>
</svg>
