<svg id="Grupo_130" data-name="Grupo 130" xmlns="http://www.w3.org/2000/svg" width="61.76" height="56.51" viewBox="0 0 61.76 56.51">
  <path id="Trazado_315" data-name="Trazado 315" d="M480.862,131.94A30.543,30.543,0,0,0,523.315,116.5a28.8,28.8,0,0,0-.226-22.41c-3.25-7.683-11.383-13.149-18.9-15.159a4.113,4.113,0,0,0-3.25,1.878,30.75,30.75,0,0,1,14.145,9.186,22.354,22.354,0,0,1,3.456,22.879c-4,9.392-13.919,15.291-23.743,16.136a30.637,30.637,0,0,1-16.906-6.65,22.917,22.917,0,0,1-7.627-25.566c2.517-7.7,10.613-13.769,18.033-15.986a4.189,4.189,0,0,0-3.306-1.878,40.709,40.709,0,0,0-8.434,3.757,25.96,25.96,0,0,0-12.773,21.6c-.789,11.834,6.631,22.541,17,27.651m13.938-2.386c9.975-.864,20.1-6.668,24.232-16.342a22.879,22.879,0,0,0-4.677-24.964,31.407,31.407,0,0,0-12.792-7.889c.132-.263.507-.413.789-.582l3.062,1.014a11.268,11.268,0,0,0-2.4-.244,27.669,27.669,0,0,0,7.626,2.874,34.223,34.223,0,0,1,4.734,3.757,19.168,19.168,0,0,0-2.912-1.146,13.639,13.639,0,0,0,5.429,4.133l.338.244a23.867,23.867,0,0,1,3.193,5.936,15.023,15.023,0,0,0-2.874-2.893,16.229,16.229,0,0,0,3.757,6.387,11.87,11.87,0,0,1,.6,3.588,26.289,26.289,0,0,1-.15,4.565,13.9,13.9,0,0,0-1.465-4.414,15.535,15.535,0,0,0,.676,8.359,25.961,25.961,0,0,1-2.968,6.631,13.673,13.673,0,0,0,.244-5.053,16.043,16.043,0,0,0-1.784,3.87l-.6,4a25.433,25.433,0,0,1-5.128,4.828,10.9,10.9,0,0,0,2.4-5.166,12.042,12.042,0,0,0-3.663,4.32l-1.221,2.48a30.711,30.711,0,0,1-7.42,3.25,14.411,14.411,0,0,0,4.753-4.583,13.6,13.6,0,0,0-5.635,3.607c-.62.545-.883,1.54-1.766,1.672a40.231,40.231,0,0,1-4.339.564Zm13.938-46.961a20.212,20.212,0,0,1-4.227-1.634,26.9,26.9,0,0,1,4.227,1.634m2.047-.113a19.953,19.953,0,0,1,3.757,3.419,30.521,30.521,0,0,1-3.757-3.419m6.65,7.007a11.272,11.272,0,0,1-3.926-2.761,30.292,30.292,0,0,1,3.926,2.761m4.621,9.392a13.791,13.791,0,0,1-2.893-4.527,27.553,27.553,0,0,1,2.893,4.527m0,12.06a37.995,37.995,0,0,0-.6-6.424,8.641,8.641,0,0,1,.6,6.424m-4.79,9.73a39.128,39.128,0,0,0,1.71-6.1,7.721,7.721,0,0,1-1.71,6.1m-7.363,6.537a48.834,48.834,0,0,0,3.588-5.316,8.472,8.472,0,0,1-3.588,5.316m-9.768,4.151c1.878-1.3,3.757-2.855,5.635-4.32a11.683,11.683,0,0,1-5.635,4.32m-5.391,1.089a11.647,11.647,0,0,0,9.561.639,16.908,16.908,0,0,0-5.729-1.108c1.653-.319,3.231-.751,4.809-1.221a10.275,10.275,0,0,0,8.6-1.578,17.92,17.92,0,0,0-5.861.395,40.54,40.54,0,0,0,6.049-3.55,8.566,8.566,0,0,0,7.4-4.133,23.333,23.333,0,0,0-4.94,2.01,28.029,28.029,0,0,0,4.414-5.3,8.34,8.34,0,0,0,5.372-7.025,31.407,31.407,0,0,0-3.4,3.757,27.535,27.535,0,0,0,2.235-8.6,8.96,8.96,0,0,0,.92-8.321,17.867,17.867,0,0,0-1.014,3.757,25.116,25.116,0,0,0-1.878-7.307,6.987,6.987,0,0,0-2.085-6.236l-.92-.9a13.148,13.148,0,0,0,.958,3.362c-1.183-2.217-4.039-3.982-4.9-6.424a11.572,11.572,0,0,0-4.208-3.062v.15a9.4,9.4,0,0,0,1.446,1.878,34.074,34.074,0,0,0-8.753-4.076c1.315-.845,2.592,0,3.757.413a26.806,26.806,0,0,1,15.967,38,32.648,32.648,0,0,1-27.576,17.3Zm1.014.188a64.539,64.539,0,0,0,7.514.526,11.271,11.271,0,0,1-7.514-.526m8.528-2.01a56.364,56.364,0,0,0,6.65-1.052,9.58,9.58,0,0,1-6.65,1.052m8.885-5a30.676,30.676,0,0,0,5.635-3.062,7.627,7.627,0,0,1-5.635,3.062m6.781-7.833a23.5,23.5,0,0,0,3.87-5.241,7.4,7.4,0,0,1-3.87,5.241m3.137-11.684a17.769,17.769,0,0,1,.845-6.706,33.93,33.93,0,0,1-.845,6.706m-2.367-12.247a18.933,18.933,0,0,1-2.2-5.335,20.365,20.365,0,0,1,2.2,5.335M487.662,80.226c-7.514,2.329-15.516,8.528-18.071,16.286A23.368,23.368,0,0,0,476,121.4a30.675,30.675,0,0,0,18.446,8.058v2.686a24.949,24.949,0,0,1-4.79-.62,18.784,18.784,0,0,0-3.475-3.438,36.284,36.284,0,0,0-3.513-1.878v.132a14.821,14.821,0,0,0,4.677,4.489,31.219,31.219,0,0,1-7.364-3.25,17.635,17.635,0,0,0-3.325-5.429l-1.54-1.409a12.271,12.271,0,0,0,1.578,4.17l.808,1.033a29.225,29.225,0,0,1-5.147-4.752,24.414,24.414,0,0,0-1.014-5.3,22,22,0,0,0-1.353-2.649,13.281,13.281,0,0,0,.244,5.053,26.878,26.878,0,0,1-2.968-6.575,15.759,15.759,0,0,0,.733-8.246,14.313,14.313,0,0,0-1.465,4.377,26.469,26.469,0,0,1,.282-7.8,27.083,27.083,0,0,0,3.062-4.4,19.7,19.7,0,0,0,.9-2.273,12.644,12.644,0,0,0-2.78,2.874,24.418,24.418,0,0,1,3.193-5.973,18.3,18.3,0,0,0,4.6-3.005l1.183-1.315a12.36,12.36,0,0,0-2.949,1.165,25.481,25.481,0,0,1,4.94-3.757,27.089,27.089,0,0,0,7.42-2.8,11.269,11.269,0,0,0-2.386.244L487,79.813a3.515,3.515,0,0,1,.864.545m1.352,51.131a11.683,11.683,0,0,1-5.635-4.32c1.879,1.465,3.663,3.024,5.635,4.32m-9.956-4.227a8.453,8.453,0,0,1-3.569-5.278,49.1,49.1,0,0,0,3.569,5.278m-7.326-6.5a7.719,7.719,0,0,1-1.709-6.1,39.121,39.121,0,0,0,1.709,6.1M467.206,111a8.735,8.735,0,0,1,.6-6.424,42.32,42.32,0,0,0-.6,6.424m.094-12.022a23.652,23.652,0,0,1,2.837-4.565,14.8,14.8,0,0,1-2.837,4.565m4.64-9.5a29.583,29.583,0,0,1,3.87-2.724,10.408,10.408,0,0,1-3.87,2.724m2.893-3.55A20.342,20.342,0,0,1,478.5,82.5a27.674,27.674,0,0,1-3.663,3.419m5.748-3.306a25.663,25.663,0,0,1,4.32-1.672,21.658,21.658,0,0,1-4.227,1.634m-9.167,4.414a32.778,32.778,0,0,1,13.75-7.871,5.185,5.185,0,0,1,1.428.394,35.972,35.972,0,0,0-8.716,4.057,7.515,7.515,0,0,0,1.484-1.878c-1.878.883-4.208,2.048-4.921,4.245l-.3.657a22.54,22.54,0,0,0-3.87,4.546,14.242,14.242,0,0,0,.883-3.362,7.514,7.514,0,0,0-3.006,7.176,24.74,24.74,0,0,0-1.878,7.307,16.91,16.91,0,0,0-1.033-3.757,9.26,9.26,0,0,0,.977,8.491,26.3,26.3,0,0,0,2.179,8.4,37.308,37.308,0,0,0-3.4-3.757,7.984,7.984,0,0,0,4.132,6.537c1.428.282,1.691,1.878,2.63,2.818a31.576,31.576,0,0,0,2.893,3.062,29.663,29.663,0,0,0-4.921-2.066v.15a8.678,8.678,0,0,0,7.514,4.057,31.2,31.2,0,0,0,5.973,3.531,19.384,19.384,0,0,0-5.861-.413,7.518,7.518,0,0,0,1.878,1.183,11.591,11.591,0,0,0,6.706.413,48.132,48.132,0,0,0,4.715,1.221,16.905,16.905,0,0,0-5.748,1.108,11.665,11.665,0,0,0,9.58-.639v2.686a32.478,32.478,0,0,1-28.458-19.292c-3.757-9.542-2.048-21.621,5.391-28.928m-2.874,6.894a19.8,19.8,0,0,1,2.217-5.335,19.554,19.554,0,0,1-2.217,5.335m-2.517,12.247a35.38,35.38,0,0,1-.827-6.706,17.77,17.77,0,0,1,.827,6.706m3.193,11.74a7.626,7.626,0,0,1-3.926-5.3,25.431,25.431,0,0,0,3.926,5.3m6.744,7.777a7.739,7.739,0,0,1-5.635-3.062,33.564,33.564,0,0,0,5.635,3.062m8.9,4.959a9.242,9.242,0,0,1-6.668-1.014,44.891,44.891,0,0,0,6.668,1.014m8.509,2.048a11.27,11.27,0,0,1-7.514.526,65.749,65.749,0,0,0,7.514-.526" transform="translate(-463.729 -78.93)" fill="#adadb1"/>
  <path id="Trazado_316" data-name="Trazado 316" d="M468.79,88.318l3.663,6.293.132,2.836.564,7.4.413,2.968a5.635,5.635,0,0,0,3.757,3.757,126.822,126.822,0,0,0,12.924,3.963c4.208-1.127,8.4-2.31,12.454-3.757a6.086,6.086,0,0,0,4.095-3.757,99.176,99.176,0,0,0,1.165-13.337l3.757-6.368-.939-.131-12.792-1.578-7.927-.789-6.161.657Zm21.565-1.878,13.544,1.5,6.744.883-3.287,5.635c-.188,4.02-.432,8.04-.864,11.947a4.846,4.846,0,0,1-1.747,3.644,17.353,17.353,0,0,1-4.3,1.878c-3.287,1.146-6.706,2.029-10.087,2.987v-2.649c4.32-1.09,8.979-1.39,13-3.231a3.118,3.118,0,0,0,1.634-2.874l.3-12.3c.714-1.183,1.446-2.386,2.1-3.588h-17Zm.207,20.776H504.48c-.376,1.653-2.2,1.878-3.475,2.461l-3.456.9-6.95,1.352Zm-.432-16.662h.188v4.659h7.27V90.554h9.2l-.864,1.54h-8.1a5.919,5.919,0,0,0,0,1.428h7.251a4.565,4.565,0,0,0-.15,1.878h-7.082v4.79h7.025v.169H490.467v3.362h14.389v.169H490.467v2.536h14.276v.169H490.561v4.94h-.169v-5.917h-7.27v4.959a21.544,21.544,0,0,1-5.635-1.747H482.8a8.969,8.969,0,0,0,0-1.446h-6.687a11.723,11.723,0,0,1-.207-1.878h6.819v-4.7h-7.007v-.169h14.426V96.884H475.571v-.207h14.52V94.141H475.477v-.207h14.6Zm14.652,10.219v2.93H490.6v-2.93Zm-29.229-3.644h14.295v2.912H475.59Zm-.207-3.456-1.785-3.062h16.286v3.062ZM490.035,86.5v3.757H473.129v.207l2.048,3.475.244,11.834a3.982,3.982,0,0,0,.9,2.724,15.028,15.028,0,0,0,5.222,2.085L490,112.287h0v2.686a125.075,125.075,0,0,1-12.886-4.039,4.809,4.809,0,0,1-3.1-4.114c-.488-4.057-.789-8.171-.939-12.36-1.052-1.878-2.254-3.757-3.287-5.635L483.855,87.1Z" transform="translate(-459.284 -72.877)" fill="#adadb1"/>
  <path id="Trazado_317" data-name="Trazado 317" d="M487.447,91.85H480.29v1.484h7.232a7.337,7.337,0,0,0,0-1.446" transform="translate(-449.182 -67.581)" fill="#adadb1"/>
  <line id="Línea_4" data-name="Línea 4" x2="7.232" transform="translate(23.576 30.074)" fill="none" stroke="#adadb1" stroke-miterlimit="10" stroke-width="0.62"/>
</svg>
