<svg id="Grupo_156" data-name="Grupo 156" xmlns="http://www.w3.org/2000/svg" width="43.217" height="55.373" viewBox="0 0 43.217 55.373">
  <path id="Trazado_80" data-name="Trazado 80" d="M197.339,203.909c.125,3.563.249,7.625.392,11.794a20.541,20.541,0,0,0,.784,5.2,31.554,31.554,0,0,0,9.443,14.645,23.891,23.891,0,0,0,9.8,5.452,4.454,4.454,0,0,0,3.563-.267c1.621-.891,3.3-1.782,4.882-2.708a29.647,29.647,0,0,0,11.26-12.471,27.188,27.188,0,0,0,2.9-10.512c.143-2.548.143-5.1.16-7.643V189.923a.766.766,0,0,0-.624-.873c-1.889-.534-3.777-1.158-5.683-1.586a70.82,70.82,0,0,0-13.7-1.568,59.862,59.862,0,0,0-15.91,1.782,39.655,39.655,0,0,0-6.806,2.28.7.7,0,0,0-.481.73v13.273m1.318,10.779c-.107-2.37-.232-4.739-.285-7.126,0-3.118,0-6.253-.107-9.371a.624.624,0,0,1,.41-.659,40.495,40.495,0,0,1,11.705-3.563c2.405-.321,4.846-.463,7.269-.695h.5a.2.2,0,0,1,.2.2v9.514a.2.2,0,0,1-.2.2h-6.253c-.107,0-.16,0,0-.16a8.868,8.868,0,0,1,1.033-.445.125.125,0,0,0,0-.232,1.782,1.782,0,0,0-1.782.267,2.442,2.442,0,0,0-.463.5,1.051,1.051,0,0,1-1,.517,5.813,5.813,0,0,0-.944,0,.143.143,0,0,1-.178-.178,2.317,2.317,0,0,1,.677-1.372c.143-.125.339-.214.481-.338a.338.338,0,0,0,.125-.143v-.232h-.178a2.69,2.69,0,0,0-1.782,1.318,2.176,2.176,0,0,0-.178.428c-.107.232-.143.606-.321.677a6.234,6.234,0,0,1-1.39.41s-.214-.2-.214-.3a2.121,2.121,0,0,1,.606-1.443l.374-.428a.107.107,0,0,0,0-.2,1.229,1.229,0,0,0-1.122.445,3.206,3.206,0,0,0-.8,1.96.463.463,0,0,1-.356.5c-.267.089-.517.214-.766.321s-.428,0-.428-.267a2.868,2.868,0,0,1,.534-1.782l.089-.125a.143.143,0,0,0-.125-.2.855.855,0,0,0-.873.481,3.848,3.848,0,0,0-.445,2.031,1.3,1.3,0,0,1-1.1,1.016.588.588,0,0,1-.267-.214c-.125-.143-.2-.356-.339-.41a.766.766,0,0,0-.659,0,.927.927,0,0,0,0,.641.275.275,0,0,0,.16.285.2.2,0,0,1,0,.267l-.41.285a.552.552,0,0,0-.178.766.535.535,0,0,0,.73.3,1.031,1.031,0,0,1,1.1,0,.677.677,0,0,0,.677-.089.837.837,0,0,0,0-.695c0-.232-.249-.428,0-.606a18.9,18.9,0,0,1,7.857-2.423,2.522,2.522,0,0,1,.517,0h.107a.361.361,0,0,1,.125.214v3.278c0,.267-.374.5-.463.766s-.463.267-.73.3a7.727,7.727,0,0,1-.909,0c-.3,0-.463-.125-.41-.481a2.459,2.459,0,0,1,1.158-1.782l.107-.089s0-.125-.089-.125a1.978,1.978,0,0,0-1.586.909,3.24,3.24,0,0,0-.356,1.158c-.089.695,0,.713-.766.891l-.766.2h-.3a.378.378,0,0,1-.143-.2,2.4,2.4,0,0,1,.766-2.227c0-.089,0-.16,0-.178a1.318,1.318,0,0,0-1.158.641,2.387,2.387,0,0,0-.339,1.924.41.41,0,0,1-.3.552,6.7,6.7,0,0,0-.73.339c-.285.16-.428,0-.5-.232a2.423,2.423,0,0,1,.321-1.978,1.238,1.238,0,0,0,.107-.16s0-.178-.089-.16a1.1,1.1,0,0,0-.909.57,2.334,2.334,0,0,0-.267,1.782c.16.748.178.8-.41,1.14a.3.3,0,0,1-.321,0l-.428-.374a.5.5,0,0,0-.748,0,.837.837,0,0,0-.089.677c.249.41.2.641-.214.891a.606.606,0,0,0-.2.909.659.659,0,0,0,.944,0l.285-.232c.2-.214.374-.2.588,0s.321.249.463.232a1.016,1.016,0,0,0,.624-.285c.089-.107,0-.392,0-.57a1.141,1.141,0,0,0-.232-.338.16.16,0,0,1,0-.267,17.941,17.941,0,0,1,7.732-2.459.2.2,0,0,1,.2.2v4.9a.2.2,0,0,1-.2.214H199.5c-.624,0-.641,0-.677-.606m10.226,18.867-.214.873a.184.184,0,0,1-.125.178c-.036,0,0-.089,0-.2V233.5a.571.571,0,0,1,.125-.339v-.107c0-.089.16-.143.178-.107a.954.954,0,0,1,0,.232m9.639.3c-.178.178-.517.3-.339.588a.2.2,0,0,1,0,.267c-.285.232-.267.3.143.659v.107h-.089a.89.89,0,0,0-.392,0,.374.374,0,0,0-.107.339c0,.107.232.16.356.232s.214,0,.285.089,0,.2,0,.285a2.927,2.927,0,0,0,0,.392.41.41,0,0,1-.142.321.321.321,0,0,0-.142.463v.178c0,.071-.178.392-.143.428a.944.944,0,0,0,.428.2.191.191,0,0,1,.16.2c-.018.071,0,0-.16,0h-.481a.552.552,0,0,0-.2.374c0,.089.178.2.285.232a1.94,1.94,0,0,0,.428.125c.107,0,.178,0,.16.16s-.107,0-.214,0a4.77,4.77,0,0,0-.463-.16l-.98-.267h-.2V238.6a.392.392,0,0,0-.267-.143h-.267c-.107,0-.178,0-.143-.2a.411.411,0,0,0,0-.2.731.731,0,0,0,0-.392s-.214-.2-.285-.16a1,1,0,0,0-.285.321.644.644,0,0,0,0,.16c0,.107-.107.125-.178,0a.856.856,0,0,0-.339-.16h-.267c-.107,0-.143-.107-.107-.214a5.6,5.6,0,0,0,.392-.909.332.332,0,0,0-.089-.214.267.267,0,0,0-.3,0,.57.57,0,0,0-.178.178c-.089.3-.107.641-.2.962h-.125c-.089,0-.143-.089-.125-.2a1.246,1.246,0,0,0,0-.57c0-.143-.677-.249-1.016-.214a.339.339,0,0,1-.285-.143.445.445,0,0,0-.588-.143c-.089,0-.143,0-.125-.107a3.041,3.041,0,0,1,.125-.374c.143-.3,0-.428-.249-.517s-.392-.2-.552-.16a1.175,1.175,0,0,0-.463.2s-.16,0-.125-.089.089-.356.143-.552.125-.3,0-.392-.285-.2-.356-.143a1.352,1.352,0,0,0-.249.374v.16c0,.089,0,.143-.143.143s-.089-.107-.089-.214a.884.884,0,0,1,0-.232c.107-.3.178-.624.267-.909s-.125-.321-.339-.285a.512.512,0,0,1-.267,0c-.036,0,0-.16,0-.178h0a1.655,1.655,0,0,1,1.1.267h.321a.338.338,0,0,1,.321,0l.125.125a.16.16,0,0,0,.249,0l.285-.356a.232.232,0,0,1,.285,0c.249.089.624,0,.909.3a1.14,1.14,0,0,0,.748.249c.107,0,.232-.2.339-.321l.142-.214s.143-.143.178-.125,0,.125,0,.214a1.95,1.95,0,0,1-.143.267.249.249,0,0,0,0,.3l.16.125h.2l.107-.356a.481.481,0,0,1,.2-.321c.107,0,.2,0,.267.107a.2.2,0,0,0,.249.125h.232a.285.285,0,0,1,.3,0l.107.143a.143.143,0,0,0,.249,0l.232-.285a.3.3,0,0,1,.267-.142c.089,0,.089,0,0,.125s-.107,0-.125.125-.142.249-.107.3a.856.856,0,0,0,.356.214h.374c.125,0,.267.16.338.125a.623.623,0,0,0,.232-.356c0-.356,0-.445.374-.356s.16.178.089.249m20.684-17.816a27.063,27.063,0,0,1-3.937,11.438,27.935,27.935,0,0,1-6.556,7.536,42.866,42.866,0,0,1-8.178,5.06l-.374.16a.125.125,0,0,1-.178-.125V223.845c0-.107.089-.232.2-.214s.659.374.873,0a.249.249,0,0,1,.267-.107c.267.089.517.214.695.16s.214-.321.339-.624a.463.463,0,0,1,.267-.249,10.316,10.316,0,0,0,3.314-2.387.659.659,0,0,1,.3-.178,9.817,9.817,0,0,1,8.908.57c.232.143.445.3.73.517s.16,0,.16-.089a1.408,1.408,0,0,0-.089-.588,5.044,5.044,0,0,0-.784-1.051c-.267-.3-.285-.481.125-.677s.837-.356,1.372-.552c.089,0,.107-.125,0-.2a.909.909,0,0,0-.374-.214,2.013,2.013,0,0,0-1.978.57c-.143.16-.392.41-.57.374a5.565,5.565,0,0,1-1.176-.463.481.481,0,0,1,0-.392,10.554,10.554,0,0,1,1-1,1.015,1.015,0,0,1,.321-.214.143.143,0,0,0,0-.232,1.372,1.372,0,0,0-1.568,0,4.009,4.009,0,0,0-.98,1.069c-.249.463-.517.748-1.069.695a1.6,1.6,0,0,0-.5,0,.16.16,0,0,1-.16-.2,2.387,2.387,0,0,1,1.194-1.675v-.2a.5.5,0,0,0-.41.071,2.3,2.3,0,0,0-2.334,1.782c-.232.837-.285.926-1.122,1.033-.107,0-.16,0-.107-.143a4.189,4.189,0,0,0,.41-.855q.321-1.158.535-2.352c0-.249.125-.356.392-.356H238.8c.374,0,.463.16.41.481m-40.425-25.584a37.715,37.715,0,0,1,7.322-2.352,59.667,59.667,0,0,1,15.5-1.354,67.878,67.878,0,0,1,15.251,2.174c.82.232,1.6.534,2.387.837a.7.7,0,0,1,.338.445v6.058a.426.426,0,0,1,0,.143.169.169,0,0,1-.214,0l-2.405-.855a57.006,57.006,0,0,0-9.728-2.352h-.41a38.161,38.161,0,0,0-6.841-.41c-.784,0-.784,0-.784.784v3.563c0,.445.107.57.57.57h19.6a.2.2,0,0,1,.2.2v.107a.2.2,0,0,1-.2.2h-19.6c-.641,0-.641,0-.641.677v4.258a.659.659,0,0,0,0,.267.136.136,0,0,0,.232.089l.214-.107a.946.946,0,0,1,.321,0c.374,0,.517-.142.428-.463a.285.285,0,0,1,0-.267h.107a.222.222,0,0,1,.178.125c.071.125.463.3.552,0a6.3,6.3,0,0,1,.267-.82s0-.089-.143-.16a.178.178,0,0,0-.267,0,.945.945,0,0,0-.178.214.517.517,0,0,0-.089.232c0,.107,0,.178-.142.16s-.089-.107,0-.214v-.178c0-.125.142-.3.107-.339a1.78,1.78,0,0,0-.428-.267l-.16-.089a.143.143,0,0,1,0-.232.41.41,0,0,0,.125-.552.267.267,0,0,0-.3,0h0c-.089,0-.178,0-.178-.125v-.891a.267.267,0,0,1,.16-.178.285.285,0,0,1,.232,0l.107.178a.125.125,0,0,0,.232,0l.3-.3a.409.409,0,0,1,.125-.125h.16c.036,0,0,.089,0,.16a.32.32,0,0,0,0,.125c0,.107,0,.285,0,.356a.356.356,0,0,0,.339.107c.125,0,.178-.214.249-.339a1.156,1.156,0,0,0,.089-.321c0-.107.107-.107.178,0s.356.392.57.232.178,0,.232,0,.2.356.5.214.107,0,.143,0,.374.285.552,0a.926.926,0,0,0,0-.374c0-.107,0-.2.142-.2s.125,0,.107.2a.608.608,0,0,0,0,.178.873.873,0,0,0,0,.428.374.374,0,0,0,.3.089,1,1,0,0,0,.214-.356,3.187,3.187,0,0,0,.107-.3.125.125,0,0,1,.214,0l.178.178a.2.2,0,0,0,.285,0l.249-.3a.481.481,0,0,1,.339-.107l1.14.2a.16.16,0,0,1,.125.214.84.84,0,0,0,0,.285,1.033,1.033,0,0,0,0,.321.231.231,0,0,0,.267.142s.16,0,.178-.107a6.5,6.5,0,0,0,.249-.891.232.232,0,0,1,.249-.16,1.55,1.55,0,0,1,1,.178h.481c.214,0,.16,0,.125.143s-.143.321-.2.481v.125a1.55,1.55,0,0,0,.392.374,1.069,1.069,0,0,0,.57.178.321.321,0,0,0,.339-.445.365.365,0,0,1,.089-.232.324.324,0,0,0,0-.428c-.125-.125-.249-.285-.481-.143h0a.2.2,0,0,1,0-.107h.214a1.443,1.443,0,0,1,.748.125.552.552,0,0,0,.445.125.338.338,0,0,1,.321,0,.588.588,0,0,0,.321.2c.125,0,.232-.16.374-.3a.321.321,0,0,1,.285-.107.979.979,0,0,0,.339,0,2.441,2.441,0,0,1,1.211.339,1.211,1.211,0,0,0,.445-.178c.143-.089,0,0,0-.107h0v.285a.267.267,0,0,0,.232.232c.285,0,.321-.249.321-.552s0-.16.2-.125h.2s.2.16.232.143a1.182,1.182,0,0,1,.677.16c.214.16.3-.143.428-.232l.107-.107h0a.528.528,0,0,0,.463.481c.463.107.428.321.695.178s.178,0,.2,0a.338.338,0,0,1,0,.321c-.232.249-.214.321.143.588v.178l-.392.125v.3a1.659,1.659,0,0,0,.428.16c.107,0,.232.16.178.249s-.428.428-.125.659.089.107,0,.125c-.428.125-.249.57-.374.855s0,.143.089.143h.143a.178.178,0,0,0,.2-.178v-.178s.089,0,.089.178v.481a.214.214,0,0,1-.2.214H227.8c-.41,0-.57.089-.552.535v3.563c0,.481.178.57.624.57h11.082a.249.249,0,0,1,.232.2v.125a.178.178,0,0,1-.16.214H228.108c-.677,0-.677,0-.677.677v4.276c0,.5,0,.517.5.3h.232l.285-.125a.16.16,0,0,0,0-.249,2.013,2.013,0,0,0-.178-.232l-.142-.107h0c.41.143.428,0,.57-.517a.173.173,0,0,1,.107-.143c.107-.053.107-.339,0-.428a.766.766,0,0,0-.321-.16.21.21,0,0,1-.2-.178v-.143c0-.143.178-.392.125-.445a.927.927,0,0,0-.374-.2.249.249,0,0,1-.16-.267v-.57a.178.178,0,0,1,.214-.16.518.518,0,0,0,.178,0c.125,0,.267.107.356,0a.552.552,0,0,0,.2-.356c0-.3.089-.338.267-.267s.125.125,0,.214-.285.392-.143.588.143.16.143.143h.178c.178,0,.285-.178.232-.463s0-.16.125-.267.143-.089.2,0h0a.428.428,0,0,0,.285.214c.2,0,.267-.089.338-.392a.214.214,0,0,1,.232-.178,1.359,1.359,0,0,1,.909.214l.125.143h.677c.107,0,.143,0,0,.16l-.125.16a.623.623,0,0,0,0,.356.321.321,0,0,0,.285.16.534.534,0,0,0,.3-.249,3.369,3.369,0,0,1,.2-.784.214.214,0,0,1,.232-.178l1.3.2h.214c.018,0,0,0,0,.107v.089a.659.659,0,0,0,.125.214h.321c.107,0,.16,0,.125.125v.588a.356.356,0,0,0,.374.107c.089,0,.125-.249.178-.374s0-.2,0-.285v-.232a.2.2,0,0,0-.125-.249l-.249-.089h.784a5.785,5.785,0,0,0,.588.107.856.856,0,0,1,.339.16c.285.249.356.232.606-.107a.445.445,0,0,1,.321-.143,2.3,2.3,0,0,1,.855,0,.267.267,0,0,1,.143.2h-.214a4.079,4.079,0,0,1-.5-.16c-.321-.16-.428,0-.5.267a1.95,1.95,0,0,0,0,.321c0,.178-.143.392,0,.517s.2.107.392.143a.178.178,0,0,1,.143.214.339.339,0,0,0,0,.16c0,.125-.107.285,0,.374a.428.428,0,0,0,.321.16c.125-.089.16-.249.232-.392s0-.214.107-.285c.2-.339.125-.517-.267-.57h-.2a.358.358,0,0,1,0-.142.089.089,0,0,1,.089-.125h.125l.463.2a.249.249,0,0,1,.107.285,8.177,8.177,0,0,0-.214.837.463.463,0,0,0,0,.267.338.338,0,0,1-.089.339c0,.107-.2.214-.178.285a1.07,1.07,0,0,0,.285.321.481.481,0,0,1,.143.339,7.113,7.113,0,0,1-.089,1.318.2.2,0,0,1-.214.178H228.161c-.374,0-.517.125-.534.5a8.2,8.2,0,0,1-5.933,7.269,7.762,7.762,0,0,1-1.55.338c-.5,0-.606.249-.606.695v16.124a1.1,1.1,0,0,1,0,.232c0,.107-.107.2-.2.125a.849.849,0,0,1-.143-.517V233.11c0-.552-.107-.713-.73-.713H206.764a.926.926,0,0,1-.5-.2.171.171,0,0,1-.16-.178.262.262,0,0,1,.232-.107h12.2c.641,0,.659,0,.659-.677v-4.133c0-.57,0-.588-.588-.588l-15.714.089c-.552,0-.659,0-.766-.57a.125.125,0,0,1,.16-.16h.285c.143,0,.285.107.392,0s.2-.267.16-.321a.872.872,0,0,0-.374-.285l-.766-.214a.214.214,0,0,1-.16-.249.959.959,0,0,1,.089-.5c.089-.16,0-.2,0-.2v-.16l.089-.143a.178.178,0,0,0-.089-.249l-.285-.143a3.418,3.418,0,0,1-.784-.3c-.214-.143-.125-.232,0-.321a.356.356,0,0,0,.125-.338c0-.267-.285-.339-.624-.249s-.143,0-.089-.125h0a.214.214,0,0,1,.267-.125,1,1,0,0,0,.463.125,1.579,1.579,0,0,0,.16-.321.249.249,0,0,1,.267-.16h.552a.57.57,0,0,1,.321.178c.2.2.285.178.534-.143s.125,0,.125,0,.16.428.534.339.16,0,.125.125,0,.214-.089.3a1.105,1.105,0,0,0,0,.41s.214.178.285.143a.606.606,0,0,0,.249-.3,1.454,1.454,0,0,1,.2-.5.268.268,0,0,0,0-.249,2.547,2.547,0,0,0-.374-.214h-.16s-.143,0-.125-.125.107-.089.214,0a1.55,1.55,0,0,1,.748.2c.339.3.517.232.641,0s.143-.089.178,0a.785.785,0,0,0,.178.339h.2a.552.552,0,0,1,.374,0l.552.285c.107,0,.178.143.16.178s-.107,0-.2,0a.232.232,0,0,1-.16,0c-.16-.16-.3-.267-.5,0s-.089.285,0,.3a1.339,1.339,0,0,0,.321.125,1.213,1.213,0,0,1,.356.125.659.659,0,0,0,.321.125c.232,0,.285-.249.178-.481s.125-.143.178-.214.143-.249.107-.321a.659.659,0,0,0-.3-.232h-.178a.127.127,0,0,1-.107-.178.178.178,0,0,1,.232,0,3.223,3.223,0,0,0,1,.356c.267,0,.356-.16.3-.374s0-.178.125-.178h.713a.767.767,0,0,1,0,.356c0,.16-.16.356-.107.428s.3.125.445.178.178,0,.178.125a.7.7,0,0,1,0,.232c0,.107-.089.125-.143,0a.391.391,0,0,0-.125-.125.713.713,0,0,0-.41,0s-.16.267-.107.339a1.006,1.006,0,0,0,.339.214,2.366,2.366,0,0,1,.374.16c.107.071.5,0,.463-.143a.534.534,0,0,1,.214-.57.2.2,0,0,0,0-.267l-.285-.232h-.143a.143.143,0,0,1,0-.214h.143c.053,0,.641,0,.837.267a.232.232,0,0,0,.285.107c.214-.089.356-.232.16-.534s0-.16,0-.178a1.688,1.688,0,0,1,.3,0c.053,0,.5.232.713,0s.107,0,0,0a3.384,3.384,0,0,0-.232.677.285.285,0,0,0,.16.232.214.214,0,0,0,.285,0,1.265,1.265,0,0,0,.214-.232.3.3,0,0,0,0-.178.143.143,0,0,1,.2,0,2.728,2.728,0,0,0,1.033.41.713.713,0,0,1,.428.16,1.5,1.5,0,0,0,.356.143h.267a.429.429,0,0,1,.232,0,.141.141,0,0,1-.107.125v.107a.605.605,0,0,0-.107.321,3.564,3.564,0,0,0,.944.445c.089,0,.214-.178.392-.374a.3.3,0,0,1,.321-.107l.766.214.249.089h.2a.138.138,0,0,1,.107.214.338.338,0,0,0,0,.16c0,.125,0,.392,0,.41.463.178.374.606.463.944a.25.25,0,0,1,0,.107.249.249,0,0,0,.232.107c.16,0,.214-.143.214-.339v-1.782c0-.285-.107-.41-.41-.445a9.122,9.122,0,0,1-4.953-2.084,1.033,1.033,0,0,0-.659-.2H200.315c-.356,0-.588,0-.606-.463a.178.178,0,0,1,.2-.2H212.7a.277.277,0,0,0-.107-.214,5.612,5.612,0,0,1-1.461-3.189,8.369,8.369,0,0,1-.143-1.639V204.212c0-.748,0-.748.73-.748h6.61c.428,0,.552-.125.552-.552,0-3.243,0-6.485-.089-9.728,0-.41-.125-.57-.552-.552a50.117,50.117,0,0,0-17.976,3.563c-.552.214-1.087.463-1.675.73a.143.143,0,0,1-.2-.107v-5.594a.766.766,0,0,1,.517-.8" transform="translate(-197.318 -185.881)" fill="#adadb1"/>
  <path id="Trazado_81" data-name="Trazado 81" d="M216.482,200.024l.374.125c.125,0,.249.107.339,0a.267.267,0,0,0,.143-.392v-.16h-.2c-.2,0-.392,0-.517-.2a.445.445,0,0,0-.285,0s-.143.339-.107.356a1.264,1.264,0,0,0,.321.143" transform="translate(-182.539 -175.333)" fill="#adadb1"/>
  <path id="Trazado_82" data-name="Trazado 82" d="M218.775,199.771h0a.768.768,0,0,1-.232,0h0a2.724,2.724,0,0,0-.481-.2l-.089.125a.214.214,0,0,0,.107.249l.3.143h.445c.107,0,.2,0,.2-.125a.678.678,0,0,0,0-.178.463.463,0,0,0,0-.232.428.428,0,0,0-.232,0" transform="translate(-181.18 -175.205)" fill="#adadb1"/>
  <path id="Trazado_83" data-name="Trazado 83" d="M205.18,196.725V207.5a6.752,6.752,0,0,0,.891,3.367,8.124,8.124,0,0,0,5.345,3.759,4.845,4.845,0,0,0,2.067.232,10.352,10.352,0,0,0,5.345-2.494,5.826,5.826,0,0,0,2.12-4.614V196.565c0-.41-.107-.535-.5-.535h-14.5c-.624,0-.695,0-.695.677m7.821-.16h6.7c.445,0,.624.107.606.588v10.8a5.345,5.345,0,0,1-2.156,4.08,9.513,9.513,0,0,1-4.793,2.352,2.815,2.815,0,0,1-.944,0,8.569,8.569,0,0,1-4.882-2.352,6.7,6.7,0,0,1-1.782-4.614V197.17c0-.41.125-.535.517-.517h6.752" transform="translate(-191.173 -177.949)" fill="#adadb1"/>
  <path id="Trazado_84" data-name="Trazado 84" d="M218.125,192.074c.659.214,1.336.356,1.978.552l2.387.748a.16.16,0,0,0,.214-.143c.107-.713,0-.73-.695-1l-2.566-.82c-.517-.16-.606-.232-.445-.766a.232.232,0,0,1,.249-.143l3.26,1a.16.16,0,0,0,.214-.125c0-.624,0-.659-.641-.873-.962-.321-1.942-.624-2.922-.909a.3.3,0,0,1-.2-.267v-.3a.143.143,0,0,1,.2-.143l3.314.926a.178.178,0,0,0,.232-.125c.143-.659,0-.695-.624-.926l-2.227-.641c-.606-.178-1.211-.3-1.782-.445a.231.231,0,0,0-.232,0v3.991c0,.107.2.267.321.321" transform="translate(-181.278 -184.505)" fill="#adadb1"/>
  <path id="Trazado_85" data-name="Trazado 85" d="M198.3,193.559a.16.16,0,0,0,.2.16c.837-.143.944-.3.944-1.122a.534.534,0,0,1,.428-.57l3.047-1.1a.855.855,0,0,0,.677-.909v-1.372a.624.624,0,0,0-.624-.695,1.622,1.622,0,0,0-.713,0c-1.229.41-2.459.837-3.67,1.3-.125,0-.249.285-.249.428v2.851Zm1.176-3.438a.3.3,0,0,1,.178-.267c.82-.267,1.657-.57,2.512-.82.142,0,.481.089.481.143s0,.677-.143.73c-.926.374-1.782.695-2.851,1.033a.125.125,0,0,1-.178-.125Z" transform="translate(-196.551 -184.298)" fill="#adadb1"/>
  <path id="Trazado_86" data-name="Trazado 86" d="M209.123,189.294h2.619c.285,0,.481.107.481.41s-.267.285-.481.267h-3.136a.232.232,0,0,0-.2.214v.428a.2.2,0,0,0,.2.2h3.367c1.122,0,1.194-.428,1.247-1.336a3.852,3.852,0,0,0,0-.445.624.624,0,0,0-.677-.659l-2.69-.089c-.232,0-.534.125-.57-.249s.232-.445.535-.445H212.9a.214.214,0,0,0,.214-.125v-.125c0-.445-.089-.641-.588-.624h-2.6c-1.408,0-1.657,0-1.568,1.782,0,.606.3.82.909.82" transform="translate(-188.702 -185.234)" fill="#adadb1"/>
  <path id="Trazado_87" data-name="Trazado 87" d="M201.7,190.4v1.087a.767.767,0,0,0,.98.73c1.051-.249,2.067-.517,3.118-.748.677-.16.926-.392.944-1.069V188.05a.731.731,0,0,0-.962-.8c-1.14.2-2.3.463-3.438.695a.8.8,0,0,0-.695.837v1.211a1.121,1.121,0,0,0,0,.2v.214m1.5-1.693,2.013-.41c.339,0,.535.107.517.463v.73c0,1.176.178.962-1,1.283-.481.125-.98.232-1.461.374s-.552,0-.552-.392v-1.425a.588.588,0,0,1,.481-.624" transform="translate(-193.942 -184.845)" fill="#adadb1"/>
  <path id="Trazado_88" data-name="Trazado 88" d="M205.184,191.339c.73,0,.82,0,.837-.82v-.089c0-.321.107-.445.41-.463l1.461-.143c.837,0,.962,0,1.229.784a.481.481,0,0,0,.285.3,2.941,2.941,0,0,0,.677,0,.16.16,0,0,0,.125-.214c-.178-.428-.321-.82-.481-1.247a.41.41,0,0,1,0-.356,2.4,2.4,0,0,0,.2-1.372c0-.659-.267-.926-.926-.891-1.247,0-2.494.2-3.741.321a.41.41,0,0,0-.285.3c0,1.211,0,2.441,0,3.67a.249.249,0,0,0,.2.232m.891-3.225a.392.392,0,0,1,.249-.249l2.049-.2c.321,0,.463.125.481.445s0,.659-.392.713c-.713.089-1.443.143-2.191.214a.214.214,0,0,1-.214-.2c0-.249,0-.5,0-.73" transform="translate(-191.337 -185.141)" fill="#adadb1"/>
  <path id="Trazado_89" data-name="Trazado 89" d="M214.808,191.291l.588.107a.16.16,0,0,0,.2-.16v-1.443a.16.16,0,0,1,.2-.16l2.405.552a1.189,1.189,0,0,1,.16.339V191.7a.41.41,0,0,0,.232.321,2.262,2.262,0,0,0,.552.143.16.16,0,0,0,.2-.16c0-1.336,0-2.637,0-3.92a.339.339,0,0,0-.2-.249,4.974,4.974,0,0,0-.588-.107.16.16,0,0,0-.2.16v1.194a.16.16,0,0,1-.2.16c-.82-.178-1.586-.321-2.334-.5-.107,0-.214-.214-.214-.339v-.962c0-.321-.107-.267-.2-.285a5.335,5.335,0,0,0-.57-.107.2.2,0,0,0-.214.178v3.83a.267.267,0,0,0,.2.232" transform="translate(-183.787 -184.968)" fill="#adadb1"/>
  <path id="Trazado_90" data-name="Trazado 90" d="M212.072,190.925c.588,0,1.158.107,1.782.16l2.263.249a.214.214,0,0,0,.232-.16c.125-.606,0-.659-.624-.748l-2.761-.339c-.125,0-.338-.16-.338-.249v-1.924a.178.178,0,0,1,.2-.178l3.332.249a.178.178,0,0,0,.2-.178v-.5a.214.214,0,0,0-.2-.214l-3.866-.3a.624.624,0,0,0-.695.677v2.9c0,.374.2.534.57.552" transform="translate(-186.164 -185.173)" fill="#adadb1"/>
  <path id="Trazado_91" data-name="Trazado 91" d="M217.6,194.515h.267l.267.089a.2.2,0,0,0,.249-.125,2.33,2.33,0,0,0,.089-.267.2.2,0,0,1,.249-.107h.214a.8.8,0,0,0,.41,0,.285.285,0,0,0,0-.267.766.766,0,0,0-.339-.232h-.249l-.285-.125a.178.178,0,0,0-.249.107.945.945,0,0,1-.107.249.5.5,0,0,1-.214.249c-.089,0-.16,0-.16-.107V193.8c0-.018.267-.392.125-.57a.3.3,0,0,0-.339,0,.356.356,0,0,0-.16.5,1.4,1.4,0,0,0-.143.232c-.036.089-.125.249,0,.3a.82.82,0,0,0,.356.232" transform="translate(-181.806 -180.176)" fill="#adadb1"/>
  <path id="Trazado_92" data-name="Trazado 92" d="M220.9,194.746l-.321-.125c-.107,0-.267-.107-.356,0s0,0-.143.143,0,.2,0,.214v.178a1.058,1.058,0,0,0,0,.143,1.158,1.158,0,0,0,0,.428.374.374,0,0,0,.249.125c.214-.178.3,0,.445.107s.339,0,.356,0a4.545,4.545,0,0,0,.321-.944,1.749,1.749,0,0,0-.249-.232c-.107-.071-.089,0-.125,0" transform="translate(-179.578 -179.088)" fill="#adadb1"/>
  <path id="Trazado_93" data-name="Trazado 93" d="M211.706,194.845a.339.339,0,0,0,.321-.107,5.779,5.779,0,0,0,.214-.766.232.232,0,0,0-.125-.267l-.695-.285a.489.489,0,0,0-.3.107c-.107.107,0,.125,0,.16a.392.392,0,0,1-.178.517v.16c.3.16.588.339.891.481" transform="translate(-186.671 -179.989)" fill="#adadb1"/>
  <path id="Trazado_94" data-name="Trazado 94" d="M203.082,208.561l-.249-.125s-.178,0-.2-.143a1.139,1.139,0,0,1,0-.249,1.318,1.318,0,0,0,0-.428s-.285-.16-.321-.125a1.388,1.388,0,0,0-.232.428,1.988,1.988,0,0,1,0,.232v.249a.2.2,0,0,0,.125.249h.2a.338.338,0,0,1,.232.249s0,.089,0,.143a.107.107,0,0,0,.2,0l.143-.143.143-.214a.178.178,0,0,0-.089-.267" transform="translate(-193.601 -168.994)" fill="#adadb1"/>
  <path id="Trazado_95" data-name="Trazado 95" d="M213.025,195.6v-.3c0-.107.16-.321.125-.374a1.247,1.247,0,0,0-.41-.178h-.606a.125.125,0,0,0-.16.16.341.341,0,0,0,0,.125v.2h.285s.143.089.107.2a.5.5,0,0,0,0,.214.374.374,0,0,0,0,.339.321.321,0,0,0,.3,0,.82.82,0,0,0,.232-.356" transform="translate(-185.869 -178.961)" fill="#adadb1"/>
  <path id="Trazado_96" data-name="Trazado 96" d="M214.225,194.831h-.339a.16.16,0,0,0-.16.2h0a.481.481,0,0,0,0,.232h.5c.125,0,.2,0,.178.125h0a.873.873,0,0,0-.178.445s.267.2.321.16a1.05,1.05,0,0,0,.249-.41l.107-.267c0-.107.125-.267.089-.339a1,1,0,0,0-.356-.214h-.285" transform="translate(-184.504 -178.942)" fill="#adadb1"/>
  <path id="Trazado_97" data-name="Trazado 97" d="M200.959,207.942c.125,0,.214.143.339.178a.392.392,0,0,0,.321,0,.463.463,0,0,0,.125-.339c0-.089-.178-.178-.285-.232a3.242,3.242,0,0,1-.445-.125c-.267-.143-.5,0-.481.232s0,.321-.16.445,0,.321,0,.41.267,0,.392,0a.179.179,0,0,0,.125,0l.089-.089-.089-.16a.356.356,0,0,1,0-.232h0" transform="translate(-194.987 -169.087)" fill="#adadb1"/>
  <path id="Trazado_98" data-name="Trazado 98" d="M220.129,201.433h0l-.107.428a.659.659,0,0,0,0,.374s.232.16.285.125a.766.766,0,0,0,.232-.338.588.588,0,0,0,0-.267c0-.125,0-.143.178,0s.374.392.606,0a.392.392,0,0,0,0-.356,4.845,4.845,0,0,0-.962-.267l-.232.232" transform="translate(-179.594 -173.963)" fill="#adadb1"/>
  <path id="Trazado_99" data-name="Trazado 99" d="M206.537,207.061h.107s.107,0,0,.125a.142.142,0,0,1,0,.107c-.285.232-.178.392,0,.606a.16.16,0,0,0,.249,0l.178-.3a2.509,2.509,0,0,0,.107-.392c0-.125.089-.267,0-.356a.747.747,0,0,0-.339-.16,2.714,2.714,0,0,0-.356-.107h-.463v.267a3.269,3.269,0,0,0,.428.232" transform="translate(-190.517 -169.703)" fill="#adadb1"/>
  <path id="Trazado_100" data-name="Trazado 100" d="M215.912,201a1.194,1.194,0,0,0,.2-.321v-.16c0-.053,0-.107.16,0h.16c.125,0,.285.089.356,0a.392.392,0,0,0,.143-.321c0-.107-.214-.267-.285-.232a.53.53,0,0,1-.535-.232.16.16,0,0,0-.267,0,.338.338,0,0,0-.125.214,1.069,1.069,0,0,1-.2.659.588.588,0,0,0,.125.374c.125.107.178,0,.232,0" transform="translate(-183.091 -175.112)" fill="#adadb1"/>
  <path id="Trazado_101" data-name="Trazado 101" d="M212.983,194.859h.3c.143,0,.285.107.392,0s.178-.267.125-.3a1.32,1.32,0,0,0-.374-.232h-.2c-.107,0-.125-.089,0-.16a.367.367,0,0,0,.089-.606c-.285-.249-.339,0-.356,0a4.442,4.442,0,0,0-.285.944s.214.16.339.232" transform="translate(-185.311 -179.967)" fill="#adadb1"/>
  <path id="Trazado_102" data-name="Trazado 102" d="M219.3,194.6l.374.089a1.1,1.1,0,0,0,.41,0,.339.339,0,0,0,.125-.3.963.963,0,0,0-.392-.232.767.767,0,0,0-.267,0c-.107,0-.143-.089,0-.143s.125-.089.125-.143a1.161,1.161,0,0,0,0-.232.2.2,0,0,0-.143-.249.231.231,0,0,0-.214,0s-.107.267-.16.392l-.107.285c0,.107-.143.249-.107.3a.837.837,0,0,0,.339.267" transform="translate(-180.421 -180.032)" fill="#adadb1"/>
  <path id="Trazado_103" data-name="Trazado 103" d="M216.164,195.5a.16.16,0,0,0,.125,0,1.423,1.423,0,0,0,.463,0v-.321a3.709,3.709,0,0,0-.873-.339s-.3.2-.285.267a.725.725,0,0,1-.2.57c-.2.178,0,.178,0,.285a.228.228,0,0,0,.178.2c.053,0,.125,0,.178-.178a2.119,2.119,0,0,0,.142-.285v-.125a.107.107,0,0,1,.16,0" transform="translate(-183.254 -178.879)" fill="#adadb1"/>
  <path id="Trazado_104" data-name="Trazado 104" d="M219.322,194.592h-.214a1.247,1.247,0,0,1-.249,0c-.143,0-.339-.16-.445-.107a.289.289,0,0,0-.089.374c.071.143.178.214.285.178s.249-.142.321,0,0,.249,0,.321-.214.41,0,.5a.341.341,0,0,0,.321,0,7.121,7.121,0,0,0,.339-.926,1.2,1.2,0,0,0-.2-.249" transform="translate(-180.925 -179.165)" fill="#adadb1"/>
  <path id="Trazado_105" data-name="Trazado 105" d="M219.03,201.41l.267.125.267.143c.107,0,.249.107.321,0a.767.767,0,0,0,.232-.3,1.993,1.993,0,0,0,.107-.41v-.41c0-.107-.249-.107-.339,0a.731.731,0,0,0-.16.356.889.889,0,0,0,0,.232c0,.107-.089.143-.16,0l-.232-.249h-.214l-.107.2a.178.178,0,0,0,0,.249" transform="translate(-180.401 -174.475)" fill="#adadb1"/>
  <path id="Trazado_106" data-name="Trazado 106" d="M217.608,194.573a.463.463,0,0,0-.16-.089,1.175,1.175,0,0,0-.445-.125.891.891,0,0,0-.374,0s-.142.214,0,.267.178.232.285.214c.41,0,.57,0,.214.428v.392c0,.089.339,0,.356,0a6.341,6.341,0,0,0,.214-.748.3.3,0,0,0,0-.3" transform="translate(-182.275 -179.271)" fill="#adadb1"/>
  <path id="Trazado_107" data-name="Trazado 107" d="M205.427,207.785c0-.107.089-.143.178,0a.285.285,0,0,0,.2,0h.232a.214.214,0,0,0,.143-.249v-.214a3.655,3.655,0,0,0-.713-.232c-.517,0-.214.5-.392.748s-.125.2,0,.285a.321.321,0,0,0,.143.16c.214.107.356-.089.374-.463" transform="translate(-191.348 -169.304)" fill="#adadb1"/>
  <path id="Trazado_108" data-name="Trazado 108" d="M207.432,208.1l-.2-.125a.143.143,0,0,1,0-.232s.125-.089.125-.143a.374.374,0,0,0,0-.2.232.232,0,0,0-.232-.178H206.9a2.352,2.352,0,0,0-.267.748.507.507,0,0,0,.232.321.392.392,0,0,1,.463.2c0,.089.2.2.3.16a.249.249,0,0,0,.214-.321c0-.125-.249-.2-.392-.3" transform="translate(-190.04 -169.195)" fill="#adadb1"/>
  <path id="Trazado_109" data-name="Trazado 109" d="M214.37,195.057l.249.089h.16c.463.267.463.267.588-.267h0c.267-.463.3-.517,0-.641a.2.2,0,0,0-.267.125v.481a.2.2,0,0,1-.214,0h0l-.214-.107a.214.214,0,0,0-.267.107h0a.2.2,0,0,0,.107.249" transform="translate(-183.99 -179.363)" fill="#adadb1"/>
  <path id="Trazado_110" data-name="Trazado 110" d="M211.06,196.212h0a.285.285,0,0,0,.267-.178.142.142,0,0,1,0-.107.128.128,0,0,1,.2-.107h.16a.659.659,0,0,0,.374,0s.142-.3,0-.339a.748.748,0,0,0-.285-.16h-.214l-.178-.089c-.178-.089-.463-.214-.534,0a6.206,6.206,0,0,0-.125.659.178.178,0,0,0,.16.214" transform="translate(-186.845 -178.665)" fill="#adadb1"/>
  <path id="Trazado_111" data-name="Trazado 111" d="M215.863,201.509a.66.66,0,0,0-.3.089v.517c0,.089,0,.267.143.267s.2-.143.3-.267a.143.143,0,0,1,.232,0,.114.114,0,0,0,.107.107.428.428,0,0,0,.321,0,.374.374,0,0,0,.2-.267c0-.606-.713-.125-.873-.534" transform="translate(-183.06 -173.736)" fill="#adadb1"/>
  <path id="Trazado_112" data-name="Trazado 112" d="M219.643,200.5a.606.606,0,0,0,.214.214,1.389,1.389,0,0,0,.41.125.517.517,0,0,0,.321,0l.143-.125a.3.3,0,0,0,0-.3l-.143-.143a2.6,2.6,0,0,0-.73-.2.249.249,0,0,0-.2.107.178.178,0,0,0,0,.285" transform="translate(-179.91 -174.791)" fill="#adadb1"/>
  <path id="Trazado_113" data-name="Trazado 113" d="M205.245,207.885a1.05,1.05,0,0,0-.463-.125h-.374a.409.409,0,0,0,0,.356s.2.125.3.178a2.788,2.788,0,0,1,.41.16h.125a.231.231,0,0,0,.249,0,.517.517,0,0,0,0-.267c0-.107-.2-.249-.321-.3" transform="translate(-191.808 -168.781)" fill="#adadb1"/>
  <path id="Trazado_114" data-name="Trazado 114" d="M203.442,207.765a2.367,2.367,0,0,0-.339-.089,1.282,1.282,0,0,0-.445,0,.374.374,0,0,0,0,.339.57.57,0,0,0,.178.178c.089,0,.2.089.214,0s.107,0,.178,0h.125a.748.748,0,0,0,.392,0,.374.374,0,0,0,.143-.285,1.177,1.177,0,0,0-.374-.267" transform="translate(-193.176 -168.875)" fill="#adadb1"/>
  <path id="Trazado_115" data-name="Trazado 115" d="M220.216,195.4a2.27,2.27,0,0,0-.321-.107c-.143,0-.285-.107-.392,0a.338.338,0,0,0-.143.321.5.5,0,0,0,.16.178h.428a.339.339,0,0,0,.16.089.641.641,0,0,0,.41,0,.321.321,0,0,0,0-.339c0-.107-.214-.125-.356-.178" transform="translate(-180.091 -178.564)" fill="#adadb1"/>
  <path id="Trazado_116" data-name="Trazado 116" d="M204.968,207.735c.107,0,.16-.214.214-.339a.49.49,0,0,0,0-.285.321.321,0,0,0,0-.517.232.232,0,0,0-.3,0h-.089a.321.321,0,0,0-.214.267v.41a1.476,1.476,0,0,0,0,.392.428.428,0,0,0,.339.125" transform="translate(-191.656 -169.736)" fill="#adadb1"/>
  <path id="Trazado_117" data-name="Trazado 117" d="M216.244,201.09a.605.605,0,0,0,0,.392.285.285,0,0,0,.321.107c.107,0,.16-.214.214-.339a2.1,2.1,0,0,0,.107-.356V200.5c0-.089-.249-.143-.339-.107s-.107,0-.16.143a.2.2,0,0,0,0,.2v.2a.357.357,0,0,0-.089.16" transform="translate(-182.551 -174.546)" fill="#adadb1"/>
  <path id="Trazado_118" data-name="Trazado 118" d="M217.82,200.352s.214.143.339.214l.356.143c.107,0,.232.089.3,0s.125,0,.2-.178a.2.2,0,0,0,0-.267l-.249-.16a1.6,1.6,0,0,0-.41-.142H218a.356.356,0,0,0-.125.339" transform="translate(-181.294 -174.877)" fill="#adadb1"/>
  <path id="Trazado_119" data-name="Trazado 119" d="M214.075,195.135a.41.41,0,0,1-.428-.125h-.392c-.107,0-.107.249,0,.3a.713.713,0,0,0,.356.2h.267c.089,0,.321.214.428.16a.389.389,0,0,0,.178-.374.658.658,0,0,0-.125-.232h-.214" transform="translate(-184.924 -178.746)" fill="#adadb1"/>
  <path id="Trazado_120" data-name="Trazado 120" d="M220.181,194.6a2.166,2.166,0,0,0,.089-.249.214.214,0,0,0-.089-.339.356.356,0,0,0-.214,0c-.107,0-.143.249-.2.392v.232a1.789,1.789,0,0,1,0,.3.2.2,0,0,0,.16.232h.2a.606.606,0,0,0,.107-.267v-.214h0" transform="translate(-179.771 -179.543)" fill="#adadb1"/>
  <path id="Trazado_121" data-name="Trazado 121" d="M204.486,207.749a.3.3,0,0,0-.232-.125.2.2,0,0,0-.249.125,1.229,1.229,0,0,0-.089.232.748.748,0,0,0,0,.285v.267a.214.214,0,0,0,.16.232.232.232,0,0,0,.16,0,.658.658,0,0,0,.125-.249V208.3h0s.2-.339.143-.41" transform="translate(-192.172 -168.895)" fill="#adadb1"/>
  <path id="Trazado_122" data-name="Trazado 122" d="M214.505,194.823a.8.8,0,0,0,.481-.125h0a.23.23,0,0,0-.107-.178c-.107-.071,0-.16.107-.3a.57.57,0,0,0,0-.428s-.249-.143-.3-.107a1.424,1.424,0,0,0-.232.392v.285c0,.053-.214.41,0,.534" transform="translate(-184.001 -179.788)" fill="#adadb1"/>
  <path id="Trazado_123" data-name="Trazado 123" d="M201.4,207.534a.445.445,0,0,0,.232-.321c-.107-.2,0-.267.107-.392a.534.534,0,0,0,0-.41.374.374,0,0,0-.321-.089.427.427,0,0,0-.143.16.25.25,0,0,0,0,.214v.178a.732.732,0,0,0-.089.16.606.606,0,0,0,0,.392s.249.16.321.107" transform="translate(-194.322 -169.909)" fill="#adadb1"/>
  <path id="Trazado_124" data-name="Trazado 124" d="M203.907,207.48c-.125,0-.338.143-.338.214a.713.713,0,0,1-.178.641s0,.267.16.339a.339.339,0,0,0,.339,0,6.369,6.369,0,0,0,.214-.748.339.339,0,0,0,0-.3.179.179,0,0,0-.125,0" transform="translate(-192.572 -169)" fill="#adadb1"/>
  <path id="Trazado_125" data-name="Trazado 125" d="M218.232,201.363h-.3a.445.445,0,0,0-.107.356c0,.089.2.143.3.178a1.963,1.963,0,0,0,.321,0h.285a.16.16,0,0,0,.214-.143v-.16a.714.714,0,0,1,0-.2h-.2a.62.62,0,0,1-.535-.178" transform="translate(-181.295 -173.893)" fill="#adadb1"/>
  <path id="Trazado_126" data-name="Trazado 126" d="M219.74,194.027a1.211,1.211,0,0,0,.481.178h.285a.232.232,0,0,0,.143-.249.356.356,0,0,0-.107-.232,3.015,3.015,0,0,0-.695-.178.339.339,0,0,0-.3,0,.231.231,0,0,0,0,.125.553.553,0,0,0,.267.339" transform="translate(-179.953 -179.919)" fill="#adadb1"/>
  <path id="Trazado_127" data-name="Trazado 127" d="M219.233,195.11c-.107,0-.16.2-.232.321a1.708,1.708,0,0,0-.125.356.8.8,0,0,0,0,.321s0,.107.214.16a.178.178,0,0,0,.249,0l.125-.285c0-.125.107-.232.143-.339a1.186,1.186,0,0,0,0-.356c0-.071-.267-.16-.338-.107" transform="translate(-180.48 -178.668)" fill="#adadb1"/>
  <path id="Trazado_128" data-name="Trazado 128" d="M211.628,194.765a1.2,1.2,0,0,0,0,.428s.267.143.3.125a2.909,2.909,0,0,0,.2-.41,1.051,1.051,0,0,1,.107-.249.428.428,0,0,1,.107-.16.214.214,0,0,0,0-.285.5.5,0,0,0-.267-.143c-.089,0-.232.2-.285.321a.89.89,0,0,0,0,.374" transform="translate(-186.148 -179.481)" fill="#adadb1"/>
  <path id="Trazado_129" data-name="Trazado 129" d="M213.741,193.8h0a.125.125,0,0,1,.143,0h0c.125,0,.267.143.374.125s.2-.267.16-.321a1.483,1.483,0,0,0-.374-.249.854.854,0,0,0-.321-.125.944.944,0,0,0-.445,0s-.089.267,0,.339a.588.588,0,0,0,.374.125" transform="translate(-184.875 -180.157)" fill="#adadb1"/>
  <path id="Trazado_130" data-name="Trazado 130" d="M211.453,194.8s.089,0,.125-.125a.2.2,0,0,0,0-.267.981.981,0,0,0-.249-.16,1.78,1.78,0,0,0-.5-.143.641.641,0,0,0-.374,0,.392.392,0,0,0,0,.321.535.535,0,0,0,.3.2,1.78,1.78,0,0,0,.445.125.73.73,0,0,0,.339,0" transform="translate(-187.077 -179.478)" fill="#adadb1"/>
  <path id="Trazado_131" data-name="Trazado 131" d="M203.244,207.624a7.243,7.243,0,0,0,.392-1.033.6.6,0,0,0-.16-.16.267.267,0,0,0-.3,0c-.089,0-.16.178-.143.214a.817.817,0,0,1-.16.552.3.3,0,0,0,0,.321.57.57,0,0,0,.338,0" transform="translate(-193.014 -169.857)" fill="#adadb1"/>
  <path id="Trazado_132" data-name="Trazado 132" d="M202.1,207.8v-.374a1.162,1.162,0,0,0,0-.178h-.2a.427.427,0,0,1-.463-.178.427.427,0,0,0-.321,0l-.125.249a9.136,9.136,0,0,0,.926.481.481.481,0,0,0,.267,0" transform="translate(-194.44 -169.342)" fill="#adadb1"/>
  <path id="Trazado_133" data-name="Trazado 133" d="M208.661,207.279a.375.375,0,0,0-.2-.089.624.624,0,0,0-.321.285,1.034,1.034,0,0,0-.16.41.5.5,0,0,0,0,.356.374.374,0,0,0,.339.143,2.936,2.936,0,0,0,.2-.339c.053-.125,0-.214.125-.321a.427.427,0,0,1,.107-.16.232.232,0,0,0,0-.285" transform="translate(-189.007 -169.226)" fill="#adadb1"/>
  <path id="Trazado_134" data-name="Trazado 134" d="M219.225,201.139a.98.98,0,0,0,.321-.285,2.068,2.068,0,0,0,.178-.5v-.321a.5.5,0,0,0-.2,0,.2.2,0,0,0-.232.16.25.25,0,0,0,0,.107.356.356,0,0,0,0,.232h0a.179.179,0,0,0-.089,0,.623.623,0,0,0-.107.339s.214.2.285.178" transform="translate(-180.293 -174.827)" fill="#adadb1"/>
  <path id="Trazado_135" data-name="Trazado 135" d="M219.4,201.787a.249.249,0,0,0,.214-.214c0-.249-.107-.392-.463-.338a.3.3,0,0,1-.214,0,.285.285,0,0,0-.5,0,.249.249,0,0,0,0,.374l.143.125h.339a1.1,1.1,0,0,0,.517.214" transform="translate(-180.877 -173.996)" fill="#adadb1"/>
  <path id="Trazado_136" data-name="Trazado 136" d="M216.47,201.216a.481.481,0,0,0-.321,0,.214.214,0,0,0-.089.107.73.73,0,0,0,.321.374.766.766,0,0,0,.428.143h.249a.232.232,0,0,0,.178-.249v-.178c0-.018-.445-.143-.713-.232" transform="translate(-182.669 -173.924)" fill="#adadb1"/>
  <path id="Trazado_137" data-name="Trazado 137" d="M218.852,195.037a.2.2,0,0,0-.214-.178.574.574,0,0,1-.445-.125c-.125-.125-.232,0-.321,0s-.143.2-.107.249a.588.588,0,0,0,.285.267h.321c.071,0,.321.339.481.089a.481.481,0,0,0,0-.356" transform="translate(-181.345 -179.005)" fill="#adadb1"/>
  <path id="Trazado_138" data-name="Trazado 138" d="M216.235,195.13a1.336,1.336,0,0,0,.552.178.517.517,0,0,0,.392-.107.356.356,0,0,0-.107-.374,3.725,3.725,0,0,0-.713-.232.338.338,0,0,0-.3,0,.214.214,0,0,0,0,.16c0,.107.143.249.249.3" transform="translate(-182.684 -179.098)" fill="#adadb1"/>
  <path id="Trazado_139" data-name="Trazado 139" d="M218.021,201.233a.392.392,0,0,0,0,.374.428.428,0,0,0,.321.125,2.419,2.419,0,0,0,.214-.3,1.285,1.285,0,0,0,0-.374,1.248,1.248,0,0,0,0-.445s-.214-.143-.249-.107a.569.569,0,0,0-.178.178c0,.089-.089.178,0,.214s0,.107,0,.2a.391.391,0,0,0-.089.143" transform="translate(-181.174 -174.458)" fill="#adadb1"/>
  <path id="Trazado_140" data-name="Trazado 140" d="M217.521,201.1h.321v.392h0a.962.962,0,0,0,0,.445.463.463,0,0,0,.285.125,2.023,2.023,0,0,0,.214-.392v-.232c0-.053.3-.392,0-.535s-.214,0-.356,0h-.178a1.779,1.779,0,0,1,0-.2l.107-.481a.909.909,0,0,0,0-.374s-.267-.143-.3-.107a.819.819,0,0,0-.232.356v.267l-.107.356a.143.143,0,0,0,.143.178" transform="translate(-181.725 -175.052)" fill="#adadb1"/>
  <path id="Trazado_141" data-name="Trazado 141" d="M213.552,195.429s.16,0,.214-.107l.16-.285a.407.407,0,0,1,.125-.356c.125-.107.125-.267,0-.321a.5.5,0,0,0-.339-.16c-.445,0-.2.5-.339.73s-.125.178,0,.267v.16h.125" transform="translate(-184.847 -179.38)" fill="#adadb1"/>
  <path id="Trazado_142" data-name="Trazado 142" d="M218.513,195.221a3.117,3.117,0,0,1-.392,0c-.125,0-.267-.107-.356,0a.463.463,0,0,0-.125.321.677.677,0,0,0,.339.232h.267a.321.321,0,0,0,.481.143.267.267,0,0,0,.142-.3.321.321,0,0,0-.356-.285" transform="translate(-181.434 -178.619)" fill="#adadb1"/>
  <path id="Trazado_143" data-name="Trazado 143" d="M217.932,201.346a.218.218,0,0,0-.143-.2c-.143-.053-.143-.089-.178,0a.659.659,0,0,1-.624-.16h-.2a.249.249,0,0,0-.16.267s0,.16.089.178a2.084,2.084,0,0,0,.784.285.277.277,0,0,0,.214-.107l.214-.214" transform="translate(-182.225 -174.072)" fill="#adadb1"/>
  <path id="Trazado_144" data-name="Trazado 144" d="M215.717,201.091h.374a.605.605,0,0,0,0-.41,3.564,3.564,0,0,0-.73-.2.356.356,0,0,0-.3,0s-.089.107,0,.143.249.356.3.339a.616.616,0,0,1,.463.143" transform="translate(-183.484 -174.494)" fill="#adadb1"/>
  <path id="Trazado_145" data-name="Trazado 145" d="M211.934,194.939h-.374c-.107,0-.16.232-.125.285a1.033,1.033,0,0,0,.339.267h.267c.036,0,.339.321.517,0a.464.464,0,0,0,0-.321v-.2h-.2a.514.514,0,0,1-.41-.125" transform="translate(-186.293 -178.871)" fill="#adadb1"/>
  <path id="Trazado_146" data-name="Trazado 146" d="M217.2,200.569a.392.392,0,0,0-.249,0,.249.249,0,0,0-.2.232v.214a5.685,5.685,0,0,0,.713.214h.321a.214.214,0,0,0,0-.143.748.748,0,0,0-.356-.3c-.2.16-.249,0-.374-.107" transform="translate(-182.13 -174.417)" fill="#adadb1"/>
  <path id="Trazado_147" data-name="Trazado 147" d="M216.751,194.249c0,.089.107.2.125.178a.784.784,0,0,1,.659.214.6.6,0,0,0,.321-.107.143.143,0,0,0,0-.232c-.089-.125-.16-.214-.214-.2a.784.784,0,0,1-.624-.2h-.232a.214.214,0,0,0-.089.267" transform="translate(-182.184 -179.606)" fill="#adadb1"/>
  <path id="Trazado_148" data-name="Trazado 148" d="M218.919,194.56c0,.089.143.143.2.143a.481.481,0,0,1,.57.2h.3c.036,0,0-.339,0-.356a9.344,9.344,0,0,0-.98-.392s-.089,0-.16.16a.214.214,0,0,0,0,.3" transform="translate(-180.539 -179.419)" fill="#adadb1"/>
  <path id="Trazado_149" data-name="Trazado 149" d="M201.686,208.083v.356c0,.071.249.178.321.143a.731.731,0,0,0,.232-.356,1.5,1.5,0,0,0,0-.3c0-.143.107-.3,0-.41s-.267-.178-.339-.125a.32.32,0,0,0-.143.16c0,.089-.089.2,0,.214s0,.107,0,.178a.746.746,0,0,0-.107.143" transform="translate(-193.932 -169.086)" fill="#adadb1"/>
  <path id="Trazado_150" data-name="Trazado 150" d="M213.5,194.268a.339.339,0,0,1,.41.143h.3c.071,0,.107,0,.16-.143a.25.25,0,0,0,0-.285c-.089,0-.178-.16-.214-.143a.731.731,0,0,1-.5-.142.535.535,0,0,0-.41,0s-.089.214,0,.267.249.267.339.232" transform="translate(-184.898 -179.804)" fill="#adadb1"/>
  <path id="Trazado_151" data-name="Trazado 151" d="M209.031,207.47a.535.535,0,0,0-.374-.16,1.839,1.839,0,0,0-.143.16c-.053.071,0,.2,0,.214V208a.623.623,0,0,0,0,.392s.249.16.285.125a1.141,1.141,0,0,0,.249-.374,2.476,2.476,0,0,0,.107-.338c0-.107.107-.285,0-.339" transform="translate(-188.592 -169.133)" fill="#adadb1"/>
  <path id="Trazado_152" data-name="Trazado 152" d="M212.252,194.644a3.565,3.565,0,0,0,.624.2.535.535,0,0,1,.249.125h.16a.464.464,0,0,0,0-.178,1.087,1.087,0,0,0-.339-.356.891.891,0,0,0-.41-.16h-.285a.2.2,0,0,0-.16.232s0,.178.089.214" transform="translate(-185.774 -179.325)" fill="#adadb1"/>
  <path id="Trazado_153" data-name="Trazado 153" d="M217.751,195.039a.374.374,0,0,0-.2-.089c-.107,0-.249.16-.3.267a1.461,1.461,0,0,0-.143.517v.338c0,.053.321,0,.339,0a7.627,7.627,0,0,0,.339-.748.249.249,0,0,0-.089-.285" transform="translate(-181.848 -178.793)" fill="#adadb1"/>
  <path id="Trazado_154" data-name="Trazado 154" d="M201.013,207.373c.089,0,.107-.16,0-.232s-.285-.267-.321-.249a.816.816,0,0,1-.534-.143.339.339,0,0,0-.339,0,.374.374,0,0,0,0,.356,3.97,3.97,0,0,0,.909.339.44.44,0,0,0,.285-.125" transform="translate(-195.398 -169.606)" fill="#adadb1"/>
  <path id="Trazado_155" data-name="Trazado 155" d="M203.262,207.336a.534.534,0,0,0,.143.143s.178.089.2,0,.125,0,.214,0a.339.339,0,0,0,.16.089.5.5,0,0,0,.392,0,.356.356,0,0,0,.089-.3,1.015,1.015,0,0,0-.321-.214l-.356-.107a.676.676,0,0,0-.41,0s-.143.232-.107.3" transform="translate(-192.676 -169.443)" fill="#adadb1"/>
  <path id="Trazado_156" data-name="Trazado 156" d="M203.783,207.471a5.337,5.337,0,0,0-.57-.16.5.5,0,0,1-.285-.16h-.16a.587.587,0,0,0,0,.285.481.481,0,0,0,.249.3.517.517,0,0,1,.552.16s.3,0,.392-.125a.445.445,0,0,0,0-.356" transform="translate(-193.072 -169.258)" fill="#adadb1"/>
  <path id="Trazado_157" data-name="Trazado 157" d="M205.8,207.764a1.213,1.213,0,0,0-.232-.214.189.189,0,0,0-.178.125,2.1,2.1,0,0,1-.089.2,3.561,3.561,0,0,0-.16.588.5.5,0,0,0,.089.374c.089,0,.374,0,.374-.089a1.906,1.906,0,0,1,.3-.82l-.107-.16" transform="translate(-191.207 -168.945)" fill="#adadb1"/>
  <path id="Trazado_158" data-name="Trazado 158" d="M214.987,193.94a.321.321,0,0,0,0,.3,4.7,4.7,0,0,0,.837.3.306.306,0,0,0,.232-.125.214.214,0,0,0,0-.285s-.143-.178-.178-.16a.98.98,0,0,1-.641-.2s-.267,0-.356.16" transform="translate(-183.591 -179.708)" fill="#adadb1"/>
  <path id="Trazado_159" data-name="Trazado 159" d="M220.243,200.646a.143.143,0,0,0-.232,0c-.089.125-.16.232-.143.285a.627.627,0,0,1-.125.445c-.125.143,0,.16,0,.267a.214.214,0,0,0,.249.16h.178a3.352,3.352,0,0,1,.249-.82,2.5,2.5,0,0,0-.214-.285" transform="translate(-179.833 -174.388)" fill="#adadb1"/>
  <path id="Trazado_160" data-name="Trazado 160" d="M201.581,207.3h.2c.178,0,.356,0,.463.2a.321.321,0,0,0,.3,0,.392.392,0,0,0,.143-.321c0-.089-.16-.16-.267-.2a2.423,2.423,0,0,0-.356,0h-.321a.143.143,0,0,0-.178.178v.285" transform="translate(-194.005 -169.393)" fill="#adadb1"/>
  <path id="Trazado_161" data-name="Trazado 161" d="M205.543,207.138a.677.677,0,0,0,.339.232l.374.125h.143a.2.2,0,0,0,.249,0,.3.3,0,0,0,.107-.2c0-.125-.16-.232-.285-.3a1.622,1.622,0,0,0-.445-.125c-.107,0-.267-.107-.339,0s-.178.249-.143.321" transform="translate(-190.895 -169.513)" fill="#adadb1"/>
  <path id="Trazado_162" data-name="Trazado 162" d="M199.832,206.181a.214.214,0,0,0-.232.143.623.623,0,0,0,0,.232v.089a.166.166,0,0,1-.125.2h0a.16.16,0,0,0,0,.249.817.817,0,0,1,.125.125.16.16,0,0,0,.249,0,.385.385,0,0,1,.143-.285.82.82,0,0,0,.125-.285.606.606,0,0,0,0-.392h-.16" transform="translate(-195.678 -170.017)" fill="#adadb1"/>
  <path id="Trazado_163" data-name="Trazado 163" d="M200.575,207.29h-.356a5.768,5.768,0,0,0-.339.926s0,.125.2.249a.125.125,0,0,0,.214,0,7.117,7.117,0,0,0,.356-.766v-.321" transform="translate(-195.316 -169.148)" fill="#adadb1"/>
  <path id="Trazado_164" data-name="Trazado 164" d="M206.877,208.093a1.657,1.657,0,0,0-.356-.178.481.481,0,0,0-.356,0s-.125.3,0,.339a.856.856,0,0,0,.285.142h.214a1.122,1.122,0,0,0,.41.143s.178-.249.16-.267a1.937,1.937,0,0,0-.41-.249" transform="translate(-190.447 -168.686)" fill="#adadb1"/>
  <path id="Trazado_165" data-name="Trazado 165" d="M200.222,206.863h.232s0,.107.089.107a.463.463,0,0,0,.374,0l.143-.321a7.928,7.928,0,0,0-.873-.428.267.267,0,0,0-.232,0,.624.624,0,0,0-.125.3l.3.16" transform="translate(-195.355 -170.004)" fill="#adadb1"/>
  <path id="Trazado_166" data-name="Trazado 166" d="M216.466,195a.8.8,0,0,0,.249-.339,2.105,2.105,0,0,0,.125-.356.57.57,0,0,0,0-.338l-.16-.16a.2.2,0,0,0-.267,0l-.125.267a2.482,2.482,0,0,0-.107.338c0,.143-.107.285,0,.392a.339.339,0,0,0,.3.143" transform="translate(-182.612 -179.731)" fill="#adadb1"/>
  <path id="Trazado_167" data-name="Trazado 167" d="M217.974,194.6c0,.107-.143.285-.089.339a.463.463,0,0,0,.356.142,1.639,1.639,0,0,0,.232-.285,1.871,1.871,0,0,0,.107-.428.5.5,0,0,0,0-.356s-.214-.143-.285-.107a.357.357,0,0,0-.143.143c0,.089,0,.2,0,.232v.178a.393.393,0,0,0,0,.143" transform="translate(-181.252 -179.616)" fill="#adadb1"/>
  <path id="Trazado_168" data-name="Trazado 168" d="M216.419,200.373a.2.2,0,0,0-.267,0,.8.8,0,0,0-.178.16,1.015,1.015,0,0,0-.178.552.943.943,0,0,0,0,.3.277.277,0,0,0,.178.232c.071.018.16,0,.232-.143a.232.232,0,0,0,0-.178.8.8,0,0,1,.178-.641.332.332,0,0,0-.089-.214" transform="translate(-182.886 -174.596)" fill="#adadb1"/>
  <path id="Trazado_169" data-name="Trazado 169" d="M208.2,207.542a2.351,2.351,0,0,0-.677-.232.392.392,0,0,0-.3.125.339.339,0,0,0,0,.321,5.687,5.687,0,0,0,.73.285.3.3,0,0,0,.3,0,.393.393,0,0,0,.089-.143.374.374,0,0,0-.16-.321" transform="translate(-189.612 -169.133)" fill="#adadb1"/>
  <path id="Trazado_170" data-name="Trazado 170" d="M215.07,195.37a.321.321,0,0,0,.143.107.214.214,0,0,0,.285,0s.125-.16.107-.2a.718.718,0,0,1,.16-.517c.16-.16,0-.232,0-.321a.249.249,0,0,0-.267-.089s-.232.178-.214.232a.517.517,0,0,1-.2.552s0,.2,0,.285" transform="translate(-183.443 -179.266)" fill="#adadb1"/>
  <path id="Trazado_171" data-name="Trazado 171" d="M200.743,208.121v.178a.694.694,0,0,1-.143.356v.267h.285a.249.249,0,0,0,.232-.2c0-.107,0-.178,0-.267s.178-.321.125-.41a.338.338,0,0,0-.356-.2.41.41,0,0,0-.16,0,1.334,1.334,0,0,1,0,.2" transform="translate(-194.753 -168.714)" fill="#adadb1"/>
  <path id="Trazado_172" data-name="Trazado 172" d="M215.18,202.346h0a.41.41,0,0,0,.3-.178,1.405,1.405,0,0,0,.178-.374.551.551,0,0,0,0-.232.2.2,0,0,0-.232-.16h-.267a4.621,4.621,0,0,0-.16.713.143.143,0,0,0,.16.178" transform="translate(-183.5 -173.754)" fill="#adadb1"/>
  <path id="Trazado_173" data-name="Trazado 173" d="M213.371,195.948a1.553,1.553,0,0,0,.41,0,.445.445,0,0,1,.214,0h.178a.16.16,0,0,0,0-.249l-.16-.107a2.458,2.458,0,0,0-.481-.143.837.837,0,0,0-.374,0s-.125.2-.107.249a.516.516,0,0,0,.3.249" transform="translate(-185.023 -178.42)" fill="#adadb1"/>
  <path id="Trazado_174" data-name="Trazado 174" d="M202.5,208.376h-.178a.267.267,0,0,0-.2,0h0l-.107-.089c-.089,0-.232-.089-.3,0a.339.339,0,0,0-.143.3s.107.267.178.267h.8c.107,0,.2,0,.214-.107s0-.107-.178-.143" transform="translate(-193.995 -168.4)" fill="#adadb1"/>
  <path id="Trazado_175" data-name="Trazado 175" d="M217.015,201.49c-.089,0-.143.2-.178.3a1.212,1.212,0,0,0,0,.392c0,.107,0,.16.143.089a2.207,2.207,0,0,0,.445-.321s.089-.3,0-.374a.481.481,0,0,0-.392,0" transform="translate(-182.074 -173.682)" fill="#adadb1"/>
  <path id="Trazado_176" data-name="Trazado 176" d="M212.729,196.094a2.063,2.063,0,0,0,.428-.321.428.428,0,0,0,0-.356.356.356,0,0,0-.339-.125.517.517,0,0,0-.214.285,2.337,2.337,0,0,0,0,.445c0,.107,0,.143.125,0" transform="translate(-185.378 -178.53)" fill="#adadb1"/>
  <path id="Trazado_177" data-name="Trazado 177" d="M215.733,195.749l-.713-.249-.143.125a.214.214,0,0,0,0,.249.232.232,0,0,0,.125,0,4.525,4.525,0,0,0,.695,0,.267.267,0,0,0,.214,0s0-.089-.178-.143" transform="translate(-183.625 -178.363)" fill="#adadb1"/>
  <path id="Trazado_178" data-name="Trazado 178" d="M220.558,194.267c.089,0,.178,0,.285-.178a.143.143,0,0,0,0-.249c-.125-.107-.214-.2-.285-.178a.713.713,0,0,0-.214.2.214.214,0,0,0,0,.285.356.356,0,0,0,.2.125" transform="translate(-179.363 -179.803)" fill="#adadb1"/>
  <path id="Trazado_179" data-name="Trazado 179" d="M216.011,195.4a.261.261,0,0,0-.214.125.2.2,0,0,0,0,.285.588.588,0,0,0,.232.2,1.242,1.242,0,0,0,.249-.214.178.178,0,0,0,0-.267c-.089,0-.178-.143-.232-.125" transform="translate(-182.923 -178.442)" fill="#adadb1"/>
  <path id="Trazado_180" data-name="Trazado 180" d="M217.254,193.988s.125-.107.125-.143a1.105,1.105,0,0,0-.178-.356c0-.089-.16-.089-.249,0s-.178.214-.16.267a.5.5,0,0,0,.16.232.249.249,0,0,0,.3,0" transform="translate(-182.1 -179.987)" fill="#adadb1"/>
  <path id="Trazado_181" data-name="Trazado 181" d="M205.842,207.747a.57.57,0,0,0-.178.392.23.23,0,0,0,0,.125.356.356,0,0,0,.249,0h.16a.641.641,0,0,0,.089-.428.481.481,0,0,0-.374-.125" transform="translate(-190.802 -168.821)" fill="#adadb1"/>
  <path id="Trazado_182" data-name="Trazado 182" d="M219.025,200.824c.107-.143.178-.232.16-.321s-.178-.3-.285-.3-.321.178-.321.267.107.214.214.356a.16.16,0,0,0,.232,0" transform="translate(-180.699 -174.69)" fill="#adadb1"/>
  <path id="Trazado_183" data-name="Trazado 183" d="M203.908,206.668c.107-.107.2-.178.178-.232a.8.8,0,0,0-.178-.249.2.2,0,0,0-.285,0s-.143.125-.143.214,0,.16.16.267a.178.178,0,0,0,.267,0" transform="translate(-192.502 -170.058)" fill="#adadb1"/>
  <path id="Trazado_184" data-name="Trazado 184" d="M216.6,195.116a.16.16,0,0,0-.249,0c0,.107-.142.2-.125.249a.41.41,0,0,0,.16.2.249.249,0,0,0,.3,0s.143-.125.125-.2a.623.623,0,0,0-.214-.267" transform="translate(-182.537 -178.71)" fill="#adadb1"/>
  <path id="Trazado_185" data-name="Trazado 185" d="M216.848,200.556c.107-.125.2-.214.178-.3a.3.3,0,1,0-.606,0c0,.089,0,.16.178.285a.143.143,0,0,0,.249,0" transform="translate(-182.388 -174.885)" fill="#adadb1"/>
  <path id="Trazado_186" data-name="Trazado 186" d="M212.073,195.432a.143.143,0,0,0-.249,0c0,.125-.16.214-.143.285s0,.143.16.2a.214.214,0,0,0,.285,0s.143-.143.143-.214,0-.16-.2-.267" transform="translate(-186.093 -178.474)" fill="#adadb1"/>
  <path id="Trazado_187" data-name="Trazado 187" d="M206.5,207.42c-.125,0-.285.2-.285.3a.41.41,0,0,0,.285.3c.107,0,.16,0,.267-.2a.16.16,0,0,0,0-.249c-.107-.107-.178-.16-.249-.16" transform="translate(-190.368 -169.047)" fill="#adadb1"/>
  <path id="Trazado_188" data-name="Trazado 188" d="M217.448,201.6c-.107.125-.178.214-.178.267a.588.588,0,0,0,.178.249.2.2,0,0,0,.267,0s.125-.107.125-.16a1.269,1.269,0,0,0-.178-.356.125.125,0,0,0-.214,0" transform="translate(-181.723 -173.646)" fill="#adadb1"/>
  <path id="Trazado_189" data-name="Trazado 189" d="M215.727,201.486c0,.089.125.16.2.16s.16,0,.267-.16a.178.178,0,0,0,0-.267c-.107-.107-.178-.2-.214-.178a.553.553,0,0,0-.249.16.2.2,0,0,0,0,.285" transform="translate(-182.978 -174.034)" fill="#adadb1"/>
  <path id="Trazado_190" data-name="Trazado 190" d="M208.907,207.873c-.107.125-.214.214-.2.267a.374.374,0,0,0,.2.214.249.249,0,0,0,.3,0,.338.338,0,0,0,.125-.214.345.345,0,0,0-.16-.267.2.2,0,0,0-.267,0" transform="translate(-188.415 -168.734)" fill="#adadb1"/>
  <path id="Trazado_191" data-name="Trazado 191" d="M220.531,201.344a.345.345,0,0,0,.267-.16.142.142,0,0,0,0-.249.766.766,0,0,0-.321-.214c-.089,0-.267.232-.267.356s.2.267.321.267" transform="translate(-179.425 -174.283)" fill="#adadb1"/>
  <path id="Trazado_192" data-name="Trazado 192" d="M214.149,194.934a.445.445,0,0,0,.285-.3,2.006,2.006,0,0,0-.2-.285.16.16,0,0,0-.249,0c-.107.125-.178.214-.178.285a.463.463,0,0,0,.339.285" transform="translate(-184.428 -179.312)" fill="#adadb1"/>
  <path id="Trazado_193" data-name="Trazado 193" d="M211,195.007a.463.463,0,0,0,.321.3.326.326,0,0,0,.249-.16.16.16,0,0,0,0-.249.837.837,0,0,0-.3-.16s-.285.232-.249.267" transform="translate(-186.624 -178.957)" fill="#adadb1"/>
  <path id="Trazado_194" data-name="Trazado 194" d="M215.777,194.994a.143.143,0,0,0,.249,0c0-.125.16-.214.16-.3a.481.481,0,0,0-.356-.232c-.089,0-.267.2-.249.267a.624.624,0,0,0,.2.285" transform="translate(-183.045 -179.176)" fill="#adadb1"/>
  <path id="Trazado_195" data-name="Trazado 195" d="M210.661,196.04s.3-.214.285-.321-.107-.178-.232-.3a.143.143,0,0,0-.232,0c0,.143-.16.232-.143.3a.428.428,0,0,0,.321.3" transform="translate(-187.141 -178.475)" fill="#adadb1"/>
  <path id="Trazado_196" data-name="Trazado 196" d="M218.859,195.358a2.419,2.419,0,0,0-.5.2h0l.143.143.3.214s.214-.16.232-.267-.125-.321-.16-.3" transform="translate(-180.871 -178.489)" fill="#adadb1"/>
  <path id="Trazado_197" data-name="Trazado 197" d="M216.634,193.928a.414.414,0,0,0,.3-.16.142.142,0,0,0,0-.232c-.125-.107-.232-.2-.321-.2s-.125,0-.178.143a.214.214,0,0,0,0,.3s.125.143.178.143" transform="translate(-182.423 -180.052)" fill="#adadb1"/>
  <path id="Trazado_198" data-name="Trazado 198" d="M214.92,195.357a.4.4,0,0,0,.3.321c.125,0,.16,0,.285-.178a.142.142,0,0,0,0-.232c-.125-.089-.214-.178-.3-.178s-.285.214-.285.267" transform="translate(-183.56 -178.684)" fill="#adadb1"/>
  <path id="Trazado_199" data-name="Trazado 199" d="M210.75,194.266c.089,0,.16-.089.267-.2a.178.178,0,0,0,0-.267c-.107,0-.178-.16-.214-.143a.8.8,0,0,0-.249.178.214.214,0,0,0,0,.285.5.5,0,0,0,.214.143" transform="translate(-187.015 -179.802)" fill="#adadb1"/>
  <path id="Trazado_200" data-name="Trazado 200" d="M219.019,194.138a.588.588,0,0,0,0-.392.286.286,0,0,0-.107-.143.2.2,0,0,0-.267,0,.5.5,0,0,0-.125.16.57.57,0,0,0,.107.374.374.374,0,0,0,.339,0" transform="translate(-180.747 -179.887)" fill="#adadb1"/>
  <path id="Trazado_201" data-name="Trazado 201" d="M215.318,200.495a.178.178,0,0,0,.214-.143,1.782,1.782,0,0,0,0-.285v-.107h-.249c-.018,0-.16.339-.107.41a.409.409,0,0,0,.232.107" transform="translate(-183.37 -174.877)" fill="#adadb1"/>
  <path id="Trazado_202" data-name="Trazado 202" d="M214.064,194.392a.2.2,0,0,0,.285,0,.606.606,0,0,0,.16-.214.308.308,0,0,0-.16-.232.16.16,0,0,0-.249,0c-.107.107-.2.2-.178.285s0,.125.143.2" transform="translate(-184.343 -179.624)" fill="#adadb1"/>
  <path id="Trazado_203" data-name="Trazado 203" d="M207.828,207.921a.267.267,0,0,0-.3,0s-.125.125-.125.178a.748.748,0,0,0,.143.3c0,.089.178.107.232,0s.2-.214.2-.3a.25.25,0,0,0-.142-.178" transform="translate(-189.438 -168.692)" fill="#adadb1"/>
  <path id="Trazado_204" data-name="Trazado 204" d="M210.567,193.593a.249.249,0,0,0-.3,0c-.249.143-.267.249-.125.5a.249.249,0,0,0,.3,0c.249-.16.285-.267.125-.5" transform="translate(-187.367 -179.894)" fill="#adadb1"/>
  <path id="Trazado_205" data-name="Trazado 205" d="M216.128,194.527a.3.3,0,0,0,.16-.178.437.437,0,0,0-.143-.3.143.143,0,0,0-.232,0c-.125.107-.214.2-.214.285s0,.125.143.2a.2.2,0,0,0,.285,0" transform="translate(-182.951 -179.546)" fill="#adadb1"/>
  <path id="Trazado_206" data-name="Trazado 206" d="M218.748,201.25c.089,0,.178,0,.321-.2a.143.143,0,0,0,0-.232.607.607,0,0,0-.321-.143c-.089,0-.285.2-.267.249s.178.321.285.321" transform="translate(-180.778 -174.315)" fill="#adadb1"/>
  <path id="Trazado_207" data-name="Trazado 207" d="M213.183,195.028a3.049,3.049,0,0,0,.3-.2.143.143,0,0,0,0-.232c-.16-.089-.249-.16-.339-.16s-.285.214-.267.285a.463.463,0,0,0,.3.3" transform="translate(-185.155 -179.192)" fill="#adadb1"/>
  <path id="Trazado_208" data-name="Trazado 208" d="M219.827,201.41a.464.464,0,0,0-.267.2,1.551,1.551,0,0,0,.125.3c0,.107.143.178.178.178s.107,0,.16-.178a1.193,1.193,0,0,0,.125-.321.535.535,0,0,0-.321-.178" transform="translate(-179.934 -173.744)" fill="#adadb1"/>
  <path id="Trazado_209" data-name="Trazado 209" d="M218.868,201.591a.338.338,0,0,0-.2.16.249.249,0,0,0,0,.3s.125.125.178.125a.57.57,0,0,0,.267-.214.143.143,0,0,0,0-.249c-.125,0-.214-.143-.267-.125" transform="translate(-180.667 -173.604)" fill="#adadb1"/>
  <path id="Trazado_210" data-name="Trazado 210" d="M215.226,200.086a.73.73,0,0,0-.3-.2.19.19,0,0,0-.16.107.25.25,0,0,0,0,.3.767.767,0,0,0,.214.2.365.365,0,0,0,.249-.143.16.16,0,0,0,0-.267" transform="translate(-183.723 -174.932)" fill="#adadb1"/>
  <path id="Trazado_211" data-name="Trazado 211" d="M219.309,195.259a.712.712,0,0,0,.321-.2.142.142,0,0,0,0-.249c-.107,0-.2-.16-.249-.143a.41.41,0,0,0-.214.178.2.2,0,0,0,0,.285.139.139,0,0,0,.16.125" transform="translate(-180.289 -179.013)" fill="#adadb1"/>
  <path id="Trazado_212" data-name="Trazado 212" d="M201.921,206.962a.412.412,0,0,0,.267-.125.143.143,0,0,0,0-.249c-.125,0-.214-.178-.3-.178s-.107,0-.178.107a.2.2,0,0,0,0,.285.552.552,0,0,0,.2.16" transform="translate(-193.936 -169.836)" fill="#adadb1"/>
  <path id="Trazado_213" data-name="Trazado 213" d="M217.331,194.836a.73.73,0,0,0,.178.232.178.178,0,0,0,.285,0s.142-.143.142-.214,0-.16-.2-.267a.178.178,0,0,0-.267,0c0,.089-.16.178-.143.232" transform="translate(-181.677 -179.125)" fill="#adadb1"/>
  <path id="Trazado_214" data-name="Trazado 214" d="M200.869,207.507a.32.32,0,0,0,.232,0,.232.232,0,0,0,.125-.214,1.193,1.193,0,0,0-.214-.214.624.624,0,0,0-.232-.089.187.187,0,0,0-.16.125.25.25,0,0,0,0,.285.428.428,0,0,0,.232.178" transform="translate(-194.772 -169.383)" fill="#adadb1"/>
  <path id="Trazado_215" data-name="Trazado 215" d="M219.491,201.422a1.184,1.184,0,0,0-.267,0h-.107a.143.143,0,0,0,0,.2.125.125,0,0,0,.107,0h.267a.2.2,0,1,0,0-.374" transform="translate(-180.31 -173.881)" fill="#adadb1"/>
  <path id="Trazado_216" data-name="Trazado 216" d="M213.333,195.128a.285.285,0,0,0-.16-.232.16.16,0,0,0-.249,0l-.089.107a.214.214,0,0,0,0,.285.446.446,0,0,0,.232.107s.249-.178.249-.285" transform="translate(-185.233 -178.882)" fill="#adadb1"/>
  <path id="Trazado_217" data-name="Trazado 217" d="M217.1,200.645a.143.143,0,0,0,.232,0c.089-.125.16-.232.125-.3a.529.529,0,0,0-.356-.232c-.142,0-.249.214-.232.3a.748.748,0,0,0,.232.267" transform="translate(-182.037 -174.76)" fill="#adadb1"/>
  <path id="Trazado_218" data-name="Trazado 218" d="M217.717,194.717a.516.516,0,0,0,.339-.267.378.378,0,0,0-.178-.285c-.178-.125-.178,0-.249,0s-.178.2-.178.285.178.285.267.267" transform="translate(-181.583 -179.451)" fill="#adadb1"/>
  <path id="Trazado_219" data-name="Trazado 219" d="M212.6,194.333c.107-.125.214-.214.2-.285a.547.547,0,0,0-.321-.267c-.125-.018-.267.16-.267.249a.322.322,0,0,0,.16.3.125.125,0,0,0,.232,0" transform="translate(-185.678 -179.708)" fill="#adadb1"/>
  <path id="Trazado_220" data-name="Trazado 220" d="M215.04,193.766c0-.125.16-.214.16-.3s0-.107-.143-.16a.249.249,0,0,0-.3,0,.606.606,0,0,0-.125.2.326.326,0,0,0,.16.249.16.16,0,0,0,.249,0" transform="translate(-183.787 -180.121)" fill="#adadb1"/>
  <path id="Trazado_221" data-name="Trazado 221" d="M212.125,194.266a.41.41,0,0,0,.3-.3.316.316,0,0,0-.142-.232.16.16,0,0,0-.267,0c0,.107-.178.178-.178.267s.214.285.285.267" transform="translate(-185.968 -179.802)" fill="#adadb1"/>
  <path id="Trazado_222" data-name="Trazado 222" d="M220.423,195.451a.218.218,0,0,0-.2.143.2.2,0,0,0,0,.285.587.587,0,0,0,.178.107.713.713,0,0,0,.285-.125.125.125,0,0,0,0-.214c-.125-.107-.214-.214-.3-.2" transform="translate(-179.46 -178.403)" fill="#adadb1"/>
  <path id="Trazado_223" data-name="Trazado 223" d="M202.468,207.595a.16.16,0,0,0,.249,0c.089-.089.16-.178.143-.232a.784.784,0,0,0-.16-.2.2.2,0,0,0-.285,0,.517.517,0,0,0-.125.214s0,.125.178.214" transform="translate(-193.432 -169.292)" fill="#adadb1"/>
  <path id="Trazado_224" data-name="Trazado 224" d="M214.766,195a.374.374,0,0,0-.178.16.214.214,0,0,0,0,.3.606.606,0,0,0,.2.125.269.269,0,0,0,.214-.16.214.214,0,0,0,0-.285c-.107-.089-.178-.16-.249-.143" transform="translate(-183.869 -178.755)" fill="#adadb1"/>
  <path id="Trazado_225" data-name="Trazado 225" d="M218.715,194.609a.326.326,0,0,0,.249-.16.178.178,0,0,0,0-.267c-.107-.107-.2-.178-.232-.16a.7.7,0,0,0-.3.338s.2.249.3.249" transform="translate(-180.817 -179.521)" fill="#adadb1"/>
  <path id="Trazado_226" data-name="Trazado 226" d="M215.808,201.233a.588.588,0,0,0-.2-.267.16.16,0,0,0-.249,0c-.089.107-.143.178-.143.249a.445.445,0,0,0,.3.285c.089,0,.3-.178.285-.267" transform="translate(-183.326 -174.138)" fill="#adadb1"/>
  <path id="Trazado_227" data-name="Trazado 227" d="M211.692,194.472c-.107-.107-.2-.178-.249-.16a.534.534,0,0,0-.3.321s.2.285.285.285a.588.588,0,0,0,.267-.2.142.142,0,0,0,0-.249" transform="translate(-186.515 -179.295)" fill="#adadb1"/>
  <path id="Trazado_228" data-name="Trazado 228" d="M214.519,195.442c-.089.125-.16.214-.125.267a.41.41,0,0,0,.16.2.2.2,0,0,0,.285,0s.107-.125.107-.178a.3.3,0,0,0-.178-.285.142.142,0,0,0-.249,0" transform="translate(-183.979 -178.466)" fill="#adadb1"/>
  <path id="Trazado_229" data-name="Trazado 229" d="M219.508,200.138a.588.588,0,0,0,.285-.16.16.16,0,0,0,0-.249c-.107-.089-.178-.178-.249-.178a.66.66,0,0,0-.214.125.249.249,0,0,0,0,.285c0,.089.125.16.2.178" transform="translate(-180.149 -175.198)" fill="#adadb1"/>
  <path id="Trazado_230" data-name="Trazado 230" d="M215.307,193.946c.089,0,.178-.089.285-.178a.178.178,0,0,0,0-.267c-.107-.089-.178-.16-.232-.16a.517.517,0,0,0-.321.321s.178.285.267.285" transform="translate(-183.466 -180.052)" fill="#adadb1"/>
  <path id="Trazado_231" data-name="Trazado 231" d="M216.823,195.248c0,.125-.16.214-.143.3a.411.411,0,0,0,.3.232c.107,0,.3-.178.285-.285a.713.713,0,0,0-.2-.267h-.249" transform="translate(-182.185 -178.574)" fill="#adadb1"/>
  <path id="Trazado_232" data-name="Trazado 232" d="M203.614,207.025h0c.107,0,.16-.089.143-.2v-.16a.249.249,0,0,0-.214-.178.2.2,0,0,0-.143.214.5.5,0,0,1,0,.16.178.178,0,0,0,.2.178" transform="translate(-192.565 -169.774)" fill="#adadb1"/>
  <path id="Trazado_233" data-name="Trazado 233" d="M217.787,200c.089,0,.178-.089.267-.2a.143.143,0,0,0,0-.249c-.107-.089-.178-.143-.232-.125a.463.463,0,0,0-.3.321s.2.267.285.249" transform="translate(-181.528 -175.293)" fill="#adadb1"/>
  <path id="Trazado_234" data-name="Trazado 234" d="M207.111,207.364s.267-.107.267-.16a2.868,2.868,0,0,0-.16-.463h0l-.178.125c-.178.125-.143.107-.178.2s.143.249.267.3" transform="translate(-189.862 -169.578)" fill="#adadb1"/>
  <path id="Trazado_235" data-name="Trazado 235" d="M206.028,208.2a.339.339,0,0,0-.339-.089c-.16,0-.178.232-.142.445a.143.143,0,0,0,.214.089l.321-.143a.143.143,0,0,0,0-.232h0" transform="translate(-190.898 -168.521)" fill="#adadb1"/>
  <path id="Trazado_236" data-name="Trazado 236" d="M201.384,208a.463.463,0,0,0-.3.3.321.321,0,0,0,0,.249.134.134,0,0,0,.178.125,1.552,1.552,0,0,0,.267-.232.339.339,0,0,0,0-.178c0-.107-.214-.285-.3-.267" transform="translate(-194.397 -168.594)" fill="#adadb1"/>
  <path id="Trazado_237" data-name="Trazado 237" d="M205.7,206.729s.107-.107.107-.143a.766.766,0,0,0-.16-.321.142.142,0,0,0-.232,0c-.089.107-.178.2-.16.249a.409.409,0,0,0,.143.214.267.267,0,0,0,.3,0" transform="translate(-191.119 -169.995)" fill="#adadb1"/>
  <path id="Trazado_238" data-name="Trazado 238" d="M204.616,207.837a.2.2,0,0,0,.285,0c.089-.107.178-.178.16-.249a.446.446,0,0,0-.339-.267,1.2,1.2,0,0,0-.267.3c-.036.107,0,.143.16.232" transform="translate(-191.749 -169.125)" fill="#adadb1"/>
  <path id="Trazado_239" data-name="Trazado 239" d="M206.279,207.426l-.089-.089a.178.178,0,0,0-.267,0c0,.107-.143.178-.143.267s.232.267.3.232a.338.338,0,0,0,.2-.16.214.214,0,0,0,0-.285" transform="translate(-190.704 -169.159)" fill="#adadb1"/>
  <path id="Trazado_240" data-name="Trazado 240" d="M217.683,201.18a.481.481,0,0,0-.3.285,1.568,1.568,0,0,0,.178.232.178.178,0,0,0,.267,0,.75.75,0,0,0,.16-.267c0-.089-.214-.249-.3-.232" transform="translate(-181.637 -173.924)" fill="#adadb1"/>
  <path id="Trazado_241" data-name="Trazado 241" d="M220.437,194.693a.337.337,0,0,0,.249-.143.2.2,0,0,0,0-.267c-.107-.089-.178-.16-.232-.143a.41.41,0,0,0-.285.3s.178.249.267.249" transform="translate(-179.457 -179.428)" fill="#adadb1"/>
  <path id="Trazado_242" data-name="Trazado 242" d="M219.984,200.246c.107,0,.267-.16.3-.3s0-.125-.16-.2a.2.2,0,0,0-.285,0c-.089,0-.178.178-.16.214s.2.3.3.3" transform="translate(-179.841 -175.092)" fill="#adadb1"/>
  <path id="Trazado_243" data-name="Trazado 243" d="M205.385,207.242a.332.332,0,0,0,.232-.125.16.16,0,0,0,0-.249c-.089-.089-.16-.178-.232-.178a.321.321,0,0,0-.178.107.2.2,0,0,0,0,.285.374.374,0,0,0,.178.16" transform="translate(-191.2 -169.617)" fill="#adadb1"/>
  <path id="Trazado_244" data-name="Trazado 244" d="M203.276,208.257a.2.2,0,0,0-.285,0l-.125.107a.232.232,0,0,0,0,.249.214.214,0,0,0,.249,0l.2-.107a.143.143,0,0,0,0-.232h0" transform="translate(-193.01 -168.44)" fill="#adadb1"/>
  <path id="Trazado_245" data-name="Trazado 245" d="M201.63,207.656a.16.16,0,0,0-.249,0c-.089,0-.16.16-.16.249s0,.107.107.178a.214.214,0,0,0,.285,0,.41.41,0,0,0,.16-.2.317.317,0,0,0-.143-.232" transform="translate(-194.268 -168.909)" fill="#adadb1"/>
  <path id="Trazado_246" data-name="Trazado 246" d="M219.5,195.125a.32.32,0,0,0,.178.249c.178.107.16,0,.232,0a.606.606,0,0,0,.143-.285s-.2-.267-.232-.249a.588.588,0,0,0-.321.3" transform="translate(-179.98 -178.88)" fill="#adadb1"/>
  <path id="Trazado_247" data-name="Trazado 247" d="M208.094,208a.187.187,0,0,0-.16.125.214.214,0,0,0,0,.285s.107.125.178.125.143,0,.249-.143a.16.16,0,0,0,0-.249c-.107,0-.178-.142-.267-.142" transform="translate(-189.063 -168.593)" fill="#adadb1"/>
  <path id="Trazado_248" data-name="Trazado 248" d="M204.45,207.734c0-.107.16-.178.143-.214a.748.748,0,0,0-.3-.321s-.267.16-.249.214a.712.712,0,0,0,.16.3h.249" transform="translate(-192.064 -169.219)" fill="#adadb1"/>
  <path id="Trazado_249" data-name="Trazado 249" d="M204.671,208.313c-.125-.089-.2-.143-.285-.143s-.089,0-.143.089a.2.2,0,0,0,0,.267.179.179,0,0,0,.125,0,.623.623,0,0,0,.3-.107s.107-.143,0-.2" transform="translate(-191.947 -168.46)" fill="#adadb1"/>
  <path id="Trazado_250" data-name="Trazado 250" d="M217.919,195.627a.784.784,0,0,0-.285-.107l-.125.125a.143.143,0,0,0,.089.214h.428a.2.2,0,0,0-.107-.232" transform="translate(-181.553 -178.348)" fill="#adadb1"/>
  <path id="Trazado_251" data-name="Trazado 251" d="M218.216,201.825a.818.818,0,0,0-.285-.125,1.266,1.266,0,0,0-.178.232c-.071.125,0,.178.107.178h.267a.32.32,0,0,0,.232-.089.218.218,0,0,0-.143-.2" transform="translate(-181.369 -173.517)" fill="#adadb1"/>
  <path id="Trazado_252" data-name="Trazado 252" d="M219.361,201.731a.409.409,0,0,0-.249.125c-.089,0-.142.16-.107.2a.321.321,0,0,0,.232,0h.321c.107,0,.143,0,0-.143s-.178-.249-.267-.249" transform="translate(-180.376 -173.549)" fill="#adadb1"/>
  <path id="Trazado_253" data-name="Trazado 253" d="M216.432,195.52a.267.267,0,0,0-.2.107c-.089,0-.143.16-.125.2s.107,0,.232,0h.178a.321.321,0,0,0,.232,0,.241.241,0,0,0-.125-.2.3.3,0,0,0-.2-.107" transform="translate(-182.632 -178.348)" fill="#adadb1"/>
  <path id="Trazado_254" data-name="Trazado 254" d="M212.462,195.543a.428.428,0,0,0-.232,0,.267.267,0,0,0-.16.2.419.419,0,0,1,.249.107h.178a.392.392,0,0,0,.232,0,.331.331,0,0,0-.089-.214c-.089-.089-.107-.143-.178-.143" transform="translate(-185.788 -178.371)" fill="#adadb1"/>
  <path id="Trazado_255" data-name="Trazado 255" d="M216.584,201.7s-.125.107-.249.232,0,.143,0,.143h.535a.241.241,0,0,0-.125-.2.356.356,0,0,0-.232-.143" transform="translate(-182.498 -173.517)" fill="#adadb1"/>
  <path id="Trazado_256" data-name="Trazado 256" d="M220.741,201.819l-.321-.089v.107c0,.107,0,.143.125.178h.178a.2.2,0,0,0,.249,0,.218.218,0,0,0-.143-.2" transform="translate(-179.261 -173.494)" fill="#adadb1"/>
  <path id="Trazado_257" data-name="Trazado 257" d="M207.027,208.223h0a.125.125,0,0,0,0,.214h.232c.053,0,.143-.214,0-.321a.16.16,0,0,0-.249,0" transform="translate(-189.777 -168.549)" fill="#adadb1"/>
  <path id="Trazado_258" data-name="Trazado 258" d="M198.988,198.469a1.781,1.781,0,0,0,.624-.214.428.428,0,0,1,.356,0c.3.214.606.481,1.033.16s.107-.695,0-1.1a.232.232,0,0,1,.125-.267c4.169-1.96,8.409-3.4,13.13-1.978.107,0,.143,0,0-.107a.73.73,0,0,0-.267-.338,11.6,11.6,0,0,0-1.3-.731c-.267-.125-.3-.267-.178-.5a1.55,1.55,0,0,1,1.39-.891h.624c.018,0,0-.107-.178-.143a2.728,2.728,0,0,0-.463-.143,2.191,2.191,0,0,0-2.245,1.051c-.107.178-.249.445-.392.445h-1.782a.16.16,0,0,1-.16-.2,4.133,4.133,0,0,1,1.782-2.334v-.143h-.428a3.225,3.225,0,0,0-2.423,2.334.444.444,0,0,1-.249.374c-.641.2-1.283.339-1.978.5a.143.143,0,0,1-.2-.143,2.957,2.957,0,0,1,1.229-2.405.063.063,0,1,0,0-.125,1.621,1.621,0,0,0-.73,0,2.067,2.067,0,0,0-1.265,1.586,10.3,10.3,0,0,0-.143,1.033c0,.3-.143.392-.392.481-.57.178-1.158.374-1.782.606s-.445,0-.481-.285a2.262,2.262,0,0,1,.5-1.675l.748-.837v-.16a2.031,2.031,0,0,0-1.639.926,2.958,2.958,0,0,0-.445,2.37.5.5,0,0,1,0,.374,2.369,2.369,0,0,1-.82.41c-.143,0-.321-.3-.517-.392a.962.962,0,0,0-.695,0c-.178,0-.374.428-.321.552a.659.659,0,0,1-.374.926.481.481,0,0,0-.089.766.677.677,0,0,0,.552.214" transform="translate(-196.437 -181.849)" fill="#adadb1"/>
  <path id="Trazado_259" data-name="Trazado 259" d="M221.955,207.792a1.96,1.96,0,0,0-.713.606,1,1,0,0,1-1.176.481h-.481c-.285,0-.339-.2-.249-.41a2.815,2.815,0,0,1,1.033-1.479l.16-.125a.125.125,0,0,0,0-.214,1.39,1.39,0,0,0-1.443.606c-.267.392-.445.855-.677,1.283a.562.562,0,0,1-.339.41,8.146,8.146,0,0,1-.926.089.232.232,0,0,1-.249-.178,2.815,2.815,0,0,1,.944-2.405c0-.089,0-.143,0-.125a1.942,1.942,0,0,0-.57.178,2,2,0,0,0-1.229,1.782c0,.891-.428,1.122-1.14,1.194h0c-.41.107-.552,0-.588-.428a2,2,0,0,1,.463-1.693.1.1,0,0,0,0-.16,1.176,1.176,0,0,0-1.051.695,2.173,2.173,0,0,0-.2,1.639.57.57,0,0,1-.142.534,2.457,2.457,0,0,1-1.1.535c-.2,0-.445-.356-.677-.535h0a.57.57,0,0,0-.82.125.517.517,0,0,0,0,.766.822.822,0,0,0,.125.125.2.2,0,0,1,0,.267c-.588.677-.606.837-.321,1.158s.552.339,1.158,0a.267.267,0,0,1,.3,0c.285.3.5.73,1.033.356a.392.392,0,0,0,.178-.339,7.415,7.415,0,0,0-.267-.837.25.25,0,0,1,.107-.285,13.648,13.648,0,0,1,1.782-.855,13.95,13.95,0,0,1,4.187-.713,4.953,4.953,0,0,1,3.813,1.122h.143c.143,0,.125,0,.107-.143a1.584,1.584,0,0,0-.178-.517,6.748,6.748,0,0,0-.677-.748c-.356-.41-.392-.713,0-1.087a4.559,4.559,0,0,1,.82-.5.107.107,0,0,0,0-.214.713.713,0,0,0-.837,0" transform="translate(-187.086 -169.9)" fill="#adadb1"/>
  <path id="Trazado_260" data-name="Trazado 260" d="M219.788,211.268a2.388,2.388,0,0,0-.713.232,4.765,4.765,0,0,0-.82.659c-.3.267-1.051.3-1.265,0s0-.677.2-.926a4.626,4.626,0,0,1,.713-.588l.285-.178c.107,0,.107-.107,0-.125h-.2a1.978,1.978,0,0,0-1.782,1.39.873.873,0,0,1-.891.748c-.321,0-.445,0-.517-.338a1.229,1.229,0,0,1,.249-1.158l.321-.5c0-.107,0-.16-.089-.143a1.906,1.906,0,0,0-1.318,2.174.748.748,0,0,1-.73.784c-.374,0-.481-.321-.481-.606a3.692,3.692,0,0,1,0-.873c0-.107,0-.178-.089-.16s0,0-.107,0a1.283,1.283,0,0,0-.356,1.782.5.5,0,0,1-.16.73c-.285.232-.481.356-.8,0a.766.766,0,0,0-.713,0c-.3.16-.125.463,0,.677a2.048,2.048,0,0,0,.249.3.178.178,0,0,1,0,.267.5.5,0,0,0-.125.16c0,.214-.178.517-.089.641s.428.143.659.143.214-.143.3-.249a.459.459,0,0,1,.748,0,.3.3,0,0,0,.178.125h.57c.107,0,0-.41,0-.552a1.583,1.583,0,0,0-.392-.374.16.16,0,0,1,0-.267,6.4,6.4,0,0,1,2.886-1.568,4.24,4.24,0,0,1,4.062.659h0v-.214a1.331,1.331,0,0,0-.107-.232,1.958,1.958,0,0,0-.392-.374.5.5,0,0,1,0-.837c.249-.285.5-.552.766-.82a.392.392,0,0,0,.125-.214h-.2" transform="translate(-187.127 -166.766)" fill="#adadb1"/>
  <path id="Trazado_261" data-name="Trazado 261" d="M206.075,213.934h.267a.143.143,0,0,0,.2-.125.675.675,0,0,0,0-.178.2.2,0,0,0-.178-.214h-.2a.321.321,0,0,1-.232-.089.172.172,0,0,1,.125-.16.266.266,0,0,0,.107-.089c0-.107.107-.339,0-.356s-.392-.125-.392-.089a7.934,7.934,0,0,0-.392,1.016s.214.125.339.178a1.577,1.577,0,0,0,.285,0" transform="translate(-191.017 -164.978)" fill="#adadb1"/>
  <path id="Trazado_262" data-name="Trazado 262" d="M207.079,214.2a.891.891,0,0,0,.392.178,1.088,1.088,0,0,0,.232,0h.267a.2.2,0,0,0,.249-.143,1.662,1.662,0,0,1,0-.232,1.282,1.282,0,0,1,.2-.339c.125-.178.107-.339-.178-.428a.446.446,0,0,0-.249,0h-.178a.428.428,0,0,0,0,.2c0,.125.125.267,0,.339a.214.214,0,0,1-.249,0h0c-.143,0-.285-.125-.41,0s-.16.285-.125.321" transform="translate(-189.741 -164.513)" fill="#adadb1"/>
  <path id="Trazado_263" data-name="Trazado 263" d="M208.362,214c-.232.16-.143.3,0,.445s.107.16,0,.16h.2a.463.463,0,0,1,.445.16.339.339,0,0,0,.321,0,.41.41,0,0,0,.125-.339c0-.214-.926-.5-1.122-.392" transform="translate(-188.797 -163.904)" fill="#adadb1"/>
  <path id="Trazado_264" data-name="Trazado 264" d="M208.208,214.269a1.052,1.052,0,0,0-.41,0s-.143.232,0,.285.249.267.321.232a.352.352,0,0,1,.356.107.249.249,0,0,0,.285.107c.285-.107.321-.178.214-.41a.782.782,0,0,0-.089-.16h-.178l-.41-.107" transform="translate(-189.176 -163.709)" fill="#adadb1"/>
  <path id="Trazado_265" data-name="Trazado 265" d="M206.315,213.348a.424.424,0,0,1,.392.143c.107.143.249,0,.339,0a.285.285,0,0,0,.107-.285,1.068,1.068,0,0,0-.356-.249h-.232c-.036,0-.374-.285-.517,0s0,.2,0,.338a.232.232,0,0,0,.249.16" transform="translate(-190.544 -164.819)" fill="#adadb1"/>
  <path id="Trazado_266" data-name="Trazado 266" d="M208.708,214.939l-.107-.16h-.41a.321.321,0,0,0-.445-.107.338.338,0,0,0-.2.267c0,.481.748.107.855.481a.338.338,0,0,0,.232,0c.089,0,.2-.178.178-.249a.748.748,0,0,0-.107-.25" transform="translate(-189.321 -163.417)" fill="#adadb1"/>
  <path id="Trazado_267" data-name="Trazado 267" d="M207.754,214.726l-.2-.125a.16.16,0,0,0-.232,0,1.335,1.335,0,0,1,0,.285s0,.125,0,.16c-.321.178-.232.356-.107.534a.178.178,0,0,0,.267,0c.125-.089.232-.178.214-.2-.107-.3,0-.41.214-.534a.143.143,0,0,0,0-.232" transform="translate(-189.668 -163.472)" fill="#adadb1"/>
  <path id="Trazado_268" data-name="Trazado 268" d="M207.88,213.5s.178.089.2,0,.107,0,.2,0a.355.355,0,0,0,.143,0,.659.659,0,0,0,.41,0s.16-.214.125-.249a.963.963,0,0,0-.321-.267,1.64,1.64,0,0,0-.41-.16,1.158,1.158,0,0,0-.428,0,.374.374,0,0,0-.089.3.57.57,0,0,0,.178.178" transform="translate(-189.205 -164.842)" fill="#adadb1"/>
  <path id="Trazado_269" data-name="Trazado 269" d="M206.094,213.862a.873.873,0,0,0-.321-.356,1.266,1.266,0,0,0-.392-.125c-.107,0-.285-.107-.339,0a.463.463,0,0,0-.143.374c0,.089.232.125.356.178l.321.125.125.089a.2.2,0,0,0,.267,0s.143-.125.125-.16" transform="translate(-191.393 -164.425)" fill="#adadb1"/>
  <path id="Trazado_270" data-name="Trazado 270" d="M208.737,214.543a.339.339,0,0,0-.178.143s-.089.178,0,.214,0,.107,0,.2a.391.391,0,0,0-.089.143v.356a.356.356,0,0,0,.321.125,2.932,2.932,0,0,0,.2-.339,2.046,2.046,0,0,0,.107-.3c0-.143.125-.3.089-.41a.339.339,0,0,0-.339-.125" transform="translate(-188.602 -163.485)" fill="#adadb1"/>
  <path id="Trazado_271" data-name="Trazado 271" d="M206.312,213.491a1.354,1.354,0,0,1-.232.784.311.311,0,0,0,.125.214.178.178,0,0,0,.267,0s.16-.125.16-.178a1.247,1.247,0,0,1,.214-.624s0-.339-.178-.374-.374.107-.356.143" transform="translate(-190.47 -164.445)" fill="#adadb1"/>
  <path id="Trazado_272" data-name="Trazado 272" d="M207.016,214.331a3.561,3.561,0,0,0-.713-.178.409.409,0,0,0-.3,0v.143a.6.6,0,0,0,.249.3,1.78,1.78,0,0,0,.517.178H207a.232.232,0,0,0,.16-.249c0-.089,0-.2-.089-.214" transform="translate(-190.532 -163.807)" fill="#adadb1"/>
  <path id="Trazado_273" data-name="Trazado 273" d="M207.69,214.363a.8.8,0,0,0-.338-.356,1.159,1.159,0,0,0-.428-.107h-.2a.232.232,0,0,0-.178.232c0,.107,0,.2,0,.232a3.565,3.565,0,0,0,.659.232.339.339,0,0,0,.321,0,.249.249,0,0,0,.089-.16" transform="translate(-190.102 -163.982)" fill="#adadb1"/>
  <path id="Trazado_274" data-name="Trazado 274" d="M208.426,213.466a.41.41,0,0,0-.339.125,2.886,2.886,0,0,0-.267.748.286.286,0,0,0,.16.285.178.178,0,0,0,.267,0,.267.267,0,0,0,.142-.143,3.311,3.311,0,0,0,.214-.748.339.339,0,0,0-.178-.3" transform="translate(-189.11 -164.349)" fill="#adadb1"/>
  <path id="Trazado_275" data-name="Trazado 275" d="M207.359,213.889h.3v-.445c0-.036.232-.41.107-.588a.143.143,0,0,0-.232,0l-.232.392a.41.41,0,0,0,0,.2v.356a.125.125,0,0,0,.178.143" transform="translate(-189.521 -164.844)" fill="#adadb1"/>
  <path id="Trazado_276" data-name="Trazado 276" d="M205.023,212.853a.249.249,0,0,0-.3,0,.41.41,0,0,0-.16.2.391.391,0,0,0,.16.285.178.178,0,0,0,.267,0c.107-.125.214-.2.2-.267a.254.254,0,0,0-.16-.232" transform="translate(-191.658 -164.841)" fill="#adadb1"/>
  <path id="Trazado_277" data-name="Trazado 277" d="M208.609,214.148a.322.322,0,0,0,.3-.16.142.142,0,0,0,0-.249c0-.107-.16-.178-.232-.178a.517.517,0,0,0-.321.285c0,.089.16.3.249.3" transform="translate(-188.688 -164.247)" fill="#adadb1"/>
  <path id="Trazado_278" data-name="Trazado 278" d="M208.561,215.31a.427.427,0,0,0-.232.125c-.089,0-.089.178,0,.285a.41.41,0,0,0,.2.16.588.588,0,0,0,.285-.143.16.16,0,0,0,0-.249c-.107-.107-.178-.178-.249-.178" transform="translate(-188.764 -162.88)" fill="#adadb1"/>
  <path id="Trazado_279" data-name="Trazado 279" d="M207.023,213.619c.089,0,.178,0,.267-.2a.178.178,0,0,0,0-.267c-.107-.089-.2-.178-.232-.143a.73.73,0,0,0-.232.178.2.2,0,0,0,0,.285s.125.143.2.143" transform="translate(-189.934 -164.681)" fill="#adadb1"/>
  <path id="Trazado_280" data-name="Trazado 280" d="M206.969,214.014h.214c.089,0,.143-.16.125-.2a.535.535,0,0,0-.2-.214.588.588,0,0,0-.232-.125s-.267.232-.249.267.2.3.339.338" transform="translate(-190.04 -164.31)" fill="#adadb1"/>
  <path id="Trazado_281" data-name="Trazado 281" d="M206.078,213.594a.214.214,0,0,0-.285,0c0,.107-.16.178-.143.232a.5.5,0,0,0,.16.232.249.249,0,0,0,.3,0,.248.248,0,0,0-.036-.463" transform="translate(-190.806 -164.264)" fill="#adadb1"/>
  <path id="Trazado_282" data-name="Trazado 282" d="M205.824,214a1.574,1.574,0,0,0-.232.178.143.143,0,0,0,0,.249c.107.107.2.178.267.178s.125-.089.2-.16a.249.249,0,0,0,0-.3.747.747,0,0,0-.214-.143" transform="translate(-190.908 -163.904)" fill="#adadb1"/>
  <path id="Trazado_283" data-name="Trazado 283" d="M208.632,213.207a.428.428,0,0,0-.142.232.374.374,0,0,0,.142.2.267.267,0,0,0,.3,0s.142-.125.142-.2,0-.16-.178-.267a.16.16,0,0,0-.267,0" transform="translate(-188.586 -164.607)" fill="#adadb1"/>
  <path id="Trazado_284" data-name="Trazado 284" d="M207.878,215.255v.374a.321.321,0,0,0,.125.143.2.2,0,0,0,.249,0v-.5a.392.392,0,0,0-.392,0" transform="translate(-189.078 -162.95)" fill="#adadb1"/>
  <path id="Trazado_285" data-name="Trazado 285" d="M205.3,213.486a.285.285,0,0,0,.232-.16.16.16,0,0,0,0-.267.694.694,0,0,0-.267-.178c-.089,0-.267.214-.249.3a.481.481,0,0,0,.285.3" transform="translate(-191.307 -164.779)" fill="#adadb1"/>
  <path id="Trazado_286" data-name="Trazado 286" d="M207.557,214.14h-.232a.61.61,0,0,0,.2.517c.2.16.2,0,.2,0v-.249c0-.071,0-.214-.178-.214" transform="translate(-189.506 -163.794)" fill="#adadb1"/>
  <path id="Trazado_287" data-name="Trazado 287" d="M208.13,202.864c-.321-.534-.588-.552-.909,0s-.855,1.532-1.265,2.316a.356.356,0,0,0,0,.2v.232c0,.018.125,0,.232,0s.374-.214.374-.338a3.759,3.759,0,0,1,.8-1.782.463.463,0,0,1,.16-.16.178.178,0,0,1,.267,0,3.321,3.321,0,0,1,.321.5c.178.374.267.8.784.855,0,0,.143.178.125.267a.321.321,0,0,1-.214.178l-.8.143c-.321,0-.463.2-.428.517a9.669,9.669,0,0,1,0,1.425,1.819,1.819,0,0,0,.641,1.247.143.143,0,0,0,.249,0l.267-.374v-.143c-.517,0-.624-.321-.641-.766s0-.463,0-.695c0-.713.178-.855.855-.659a1.889,1.889,0,0,0,1.425,0,.517.517,0,0,1,.659,0,2.4,2.4,0,0,0,1.782.445,3.046,3.046,0,0,1,.57,0h.143c-.018,0,0,.143,0,.249a8.186,8.186,0,0,1,.339.926c0,.178.089.481,0,.588-.428.445-.944.8-1.407,1.229a7.835,7.835,0,0,0-.624.695s-.089.2,0,.232.16,0,.249,0l.392-.285c.125-.107.2-.3.321-.374l1.782-1.051a.606.606,0,0,0,.339-.677,1.23,1.23,0,0,1,0-.356c0-.107.125-.143.214,0a3.206,3.206,0,0,0,.73.481c.428.142.481.392.267.695s-.73.962-1.087,1.461a6,6,0,0,0-.481.766c-.16.267,0,.2,0,.214a.357.357,0,0,0,.249,0h.321a.2.2,0,0,0,.16-.232c0-.374.232-.57.57-.73a1.373,1.373,0,0,0,.517-.339c.232-.267.41-.588.624-.873s.356-.535,0-.926c-.552-.677-.481-.962,0-1.782a2.388,2.388,0,0,0,.41-1.033c.089-.57.214-.677.766-.517a2.674,2.674,0,0,0,.659,0h.2a.2.2,0,0,0-.16-.178l-.143-.107a.249.249,0,0,1,0-.3c.107-.143.178-.285.267-.428s0-.125-.089,0a.371.371,0,0,1-.535,0,.232.232,0,0,1,0-.285l.392-.249V202.9l-.517-.2a.143.143,0,0,1,0-.232c.2-.267.41-.463.321-.784s-.107-.107-.143,0v.143l-.232.16s-.178,0-.214-.107a.765.765,0,0,1,0-.285c.143-.249.338-.463.481-.713a1.371,1.371,0,0,0,.178-.321h0c-.624.3-1.176.57-1.265,1.3v.16a.464.464,0,0,1-.143-.2.55.55,0,0,1,0-.178s-.16-.107-.214,0a1.63,1.63,0,0,0,.107.82c.107.267.5.695.713,1.069a.766.766,0,0,1-.107.962.178.178,0,0,1-.267,0c-.624-.695-1.479-.588-2.3-.552a7.608,7.608,0,0,1-1.1,0,.8.8,0,0,1-.766-.624,1,1,0,0,1,.3-1.087c.321-.249.624-.107.926.107h0v-.214l-.232-.659c0-.107,0-.16.125-.107l.41.16a.339.339,0,0,0,.232,0v-.214l-.3-.534s0-.143.107-.143h.214c.107,0,.143,0,0-.125a4.513,4.513,0,0,1-.463-.517,2.013,2.013,0,0,1-.285-.463.178.178,0,0,1,0-.267l.41-.214h0l-.16-.125a1.639,1.639,0,0,0-1.051,0,1.123,1.123,0,0,1-.534,0,.178.178,0,0,1-.125-.232,4.293,4.293,0,0,0,.143-.445H212.8c-.748.41-1.354,1.158-2.387,1-.107,0-.125,0,0,.107v.107a.178.178,0,0,1,0,.267l-1.407.98c-.089,0-.089.125,0,.178.445.214.748.481,1.194.178h.321a.143.143,0,0,1,.089.214l-.41.606c-.285.392-.552.784-.837,1.158l-.214.285a.232.232,0,0,1-.285,0,1.46,1.46,0,0,1-.392-.321m3.67-3.563c.392,0,.641.3.73.873a2.345,2.345,0,0,1-.232,1.586c-.232.214-.2,0-.2-.143a3.866,3.866,0,0,0-.392-2.138v-.178" transform="translate(-190.577 -176.214)" fill="#adadb1"/>
  <path id="Trazado_288" data-name="Trazado 288" d="M206.364,198.595a.641.641,0,0,1-.356-.107H205.9v.249a.926.926,0,0,0,.445.125.641.641,0,0,0,.677-.677.731.731,0,0,0-.481-.677c-.267-.107-.339-.2-.339-.374a.267.267,0,0,1,.3-.285.607.607,0,0,1,.285,0h.107v-.125a.089.089,0,0,0,0-.125.819.819,0,0,0-.374,0,.606.606,0,0,0-.624.641.659.659,0,0,0,.5.641c.249.107.321.214.321.392a.3.3,0,0,1-.339.338" transform="translate(-190.611 -177.521)" fill="#adadb1"/>
  <path id="Trazado_289" data-name="Trazado 289" d="M206.637,196.921h.463v1.871h.249v-1.871h.445l.089-.089v-.143a.089.089,0,0,0-.089-.089h-1.229a.089.089,0,0,0,0,.089v.232" transform="translate(-190.1 -177.504)" fill="#adadb1"/>
  <path id="Trazado_290" data-name="Trazado 290" d="M208.035,198.9c.445,0,.713-.356.713-.98V196.6H208.6v1.336c0,.3-.089.659-.41.659s-.374-.249-.374-.659v-1.247a.089.089,0,0,0-.089-.089h-.143l-.089.089v1.229c0,.855.428.98.695.98" transform="translate(-189.36 -177.504)" fill="#adadb1"/>
  <path id="Trazado_291" data-name="Trazado 291" d="M208.318,196.921h.481v1.871h.143l.089-.089v-1.782h.517l.089-.089v-.143a.089.089,0,0,0-.089-.089H208.3v.321" transform="translate(-188.735 -177.504)" fill="#adadb1"/>
  <path id="Trazado_292" data-name="Trazado 292" d="M209.159,196.921h.463V198.7l.089.089h.143l.089-.089v-1.782h.463V196.6h-1.247a.089.089,0,0,0-.089.089v.143l.089.089" transform="translate(-188.133 -177.504)" fill="#adadb1"/>
  <path id="Trazado_293" data-name="Trazado 293" d="M210.129,198.6a.855.855,0,0,0,.713.3,1.317,1.317,0,0,0,.517-.107h0v-.962a.089.089,0,0,0-.089,0h-.5v.143h.285v.552h-.267c-.392,0-.641-.321-.641-.855s.249-.82.677-.82a.964.964,0,0,1,.339,0h.107V196.6a.837.837,0,0,0-.428,0,1.015,1.015,0,0,0-1,1.158,1.336,1.336,0,0,0,.249.837" transform="translate(-187.535 -177.524)" fill="#adadb1"/>
  <path id="Trazado_294" data-name="Trazado 294" d="M210.926,198.8h.143a.143.143,0,0,0,.107,0l.16-.606h.552l.16.606h.232l-.588-2.1a.125.125,0,0,0-.089,0h-.285l-.588,2.1h0m.481-.98.16-.588v0l.178.588Z" transform="translate(-186.835 -177.437)" fill="#adadb1"/>
  <path id="Trazado_295" data-name="Trazado 295" d="M211.83,198.87h.143l.089-.089v-.855h.178c.2,0,.267.107.321.392l.107.481a.125.125,0,0,0,.107,0h.214a1.412,1.412,0,0,0-.125-.552.641.641,0,0,0-.232-.445.588.588,0,0,0,.3-.552.7.7,0,0,0-.143-.445.713.713,0,0,0-.552-.2,1.335,1.335,0,0,0-.41,0h0v2.138m.232-1.247V196.8h.2a.375.375,0,1,1,0,.748Z" transform="translate(-185.975 -177.511)" fill="#adadb1"/>
  <path id="Trazado_296" data-name="Trazado 296" d="M212.623,196.921h.463v1.871h.142a.089.089,0,0,0,0-.089v-1.782h.463v-.232a.089.089,0,0,0,0-.089h-1.247a.089.089,0,0,0,0,.089v.232" transform="translate(-185.504 -177.504)" fill="#adadb1"/>
</svg>
