<svg id="Pagani" xmlns="http://www.w3.org/2000/svg" width="89.798" height="89.798" viewBox="0 0 89.798 89.798">
  <path id="Trazado_1168" data-name="Trazado 1168" d="M0,0H89.8V89.8H0V0Z" fill="#fff" fill-rule="evenodd"/>
  <path id="Trazado_1169" data-name="Trazado 1169" d="M623.444,355.116h43.031a1.607,1.607,0,0,0,1.067-2.744c-9.215-8.949-29.968-9.48-32.559-9.317a27.671,27.671,0,0,1-12.033,10.128,1.053,1.053,0,0,0,.494,1.943Zm44.722,7.691v-5.446h1.179v5.446Zm-30.621-4.263h-6.219c-2.362,0-2.436,3.084,0,3.084h5.027V360.7h-3.578v-1.183h4.756v3.261h-6.205a2.734,2.734,0,1,1,0-5.446h6.205v1.183Zm-35.526,4.263v-5.446h7.118c2.856,0,2.856,4.416,0,4.416h-5.916v1.03Zm1.216-4.263v2.017h5.9a1.011,1.011,0,0,0,0-2.017ZM615,362.808v-2.972c0-2.129,3.084-2.548,4.687-2.548s4.682.419,4.682,2.548v2.972H623.15v-1.1h-6.988v1.1Zm8.148-2.283v-.689c0-1.179-2.7-1.37-3.461-1.37-.876,0-3.5.191-3.5,1.37v.689h6.988Zm18.471,2.283v-2.972c0-2.129,3.084-2.548,4.724-2.548,1.561,0,4.659.419,4.659,2.548v2.972H649.8v-1.1h-6.988v1.1Zm8.19-2.283v-.689c0-1.179-2.707-1.37-3.466-1.37-.876,0-3.5.191-3.5,1.37v.689h6.988Zm14.353.932v-4.076h-1.23v3.466a.466.466,0,0,1-.8.382l-4.8-3.5a1.4,1.4,0,0,0-2.329,1.067h0v4.034h1.183V359.36a.517.517,0,0,1,.839-.382l4.836,3.545a1.4,1.4,0,0,0,2.283-1.067Zm-63.226-6.415c2.665-4.267,9.368-8,17.782-10.053L612.286,355Zm23.227-11.181a80.089,80.089,0,0,1,8.036-.8,21.029,21.029,0,0,1-13.673,9.252Zm11.274-2.474c20.828,0,37.813,8.227,37.813,18.28s-16.985,18.275-37.813,18.275-37.813-8.185-37.813-18.257,16.98-18.28,37.813-18.28Zm0-1.6c21.7,0,39.411,8.912,39.411,19.878s-17.7,19.915-39.411,19.915-39.453-8.949-39.453-19.915,17.7-19.878,39.453-19.878Zm0-1.64c22.543,0,40.935,9.676,40.935,21.518s-18.392,21.513-40.935,21.513S594.5,371.528,594.5,359.686s18.4-21.518,40.939-21.518ZM667.5,366.977c-5.9,5.59-18.317,9.317-32.065,9.317-13.864,0-26.353-3.769-32.219-9.406a1.612,1.612,0,0,1,1.183-2.665h62.033a1.579,1.579,0,0,1,1.067,2.739Zm-27.765-14.2a.857.857,0,1,1-.857.857A.857.857,0,0,1,639.739,352.773Zm-5.558,0a.857.857,0,1,1-.857.857A.857.857,0,0,1,634.182,352.773Zm-5.558,0a.843.843,0,0,1,.834.839.846.846,0,1,1-.834-.839Zm16.678,0a.857.857,0,1,1-.857.857A.857.857,0,0,1,645.3,352.773Zm5.558,0a.857.857,0,1,1-.857.857A.857.857,0,0,1,650.859,352.773Zm5.562,0a.857.857,0,1,1-.857.857A.857.857,0,0,1,656.421,352.773Zm5.558,0a.857.857,0,1,1-.857.857A.857.857,0,0,1,661.979,352.773ZM638.449,365.1a.876.876,0,1,1-.876.876A.876.876,0,0,1,638.449,365.1Zm-5.716,0a.876.876,0,1,1-.876.876A.876.876,0,0,1,632.733,365.1Zm-5.711,0a.876.876,0,1,1-.876.876.857.857,0,0,1,.876-.876Zm17.092,0a.876.876,0,1,1-.839.876.848.848,0,0,1,.839-.876Zm5.711,0a.876.876,0,1,1-.876.876A.876.876,0,0,1,649.825,365.1Zm5.711,0a.876.876,0,1,1-.876.876.862.862,0,0,1,.876-.876Zm5.711,0a.876.876,0,1,1-.876.876A.876.876,0,0,1,661.248,365.1Zm-39.947,0a.876.876,0,1,1-.876.876A.876.876,0,0,1,621.3,365.1Zm-5.711,0a.876.876,0,1,1-.876.876A.876.876,0,0,1,615.589,365.1Zm-5.674,0a.876.876,0,1,1-.876.876A.876.876,0,0,1,609.915,365.1Zm22.123-17.064a.862.862,0,1,1-.624.252A.857.857,0,0,1,632.039,348.035ZM635.5,343.7a.876.876,0,1,1-.876.876A.876.876,0,0,1,635.5,343.7Zm4.761.112a.885.885,0,0,1,.876.876.857.857,0,1,1-1.714,0,.88.88,0,0,1,.839-.876Zm4.8.536a.932.932,0,0,1,.876.876.885.885,0,0,1-.876.876.862.862,0,0,1-.876-.876A.885.885,0,0,1,645.064,344.346Zm4.761.932a.876.876,0,1,1-.876.876A.876.876,0,0,1,649.825,345.278Zm4.8,1.216a.911.911,0,1,1-.876.876.862.862,0,0,1,.876-.876Zm4.756,1.6a.932.932,0,0,1,.876.876.885.885,0,0,1-.876.876.862.862,0,0,1-.876-.876A.885.885,0,0,1,659.38,348.1Zm4.193,2.245a.862.862,0,0,1,.876.876.885.885,0,0,1-.876.876.932.932,0,0,1-.876-.876.885.885,0,0,1,.876-.876ZM608.932,368.1a.876.876,0,1,1-.876.876A.876.876,0,0,1,608.932,368.1Zm5.18,2.287a.876.876,0,1,1-.876.876.862.862,0,0,1,.876-.876Zm47.867-2.287a.876.876,0,1,0,.876.876A.876.876,0,0,0,661.979,368.1Zm-5.176,2.287a.876.876,0,1,0,.876.876.862.862,0,0,0-.876-.876Zm-37.268.839-1.561,2.283.61.191.3-.466.932.228.042.531.643.154-.34-2.8-.61-.149Zm-.419,1.635.573-.932.075,1.067-.648-.154Zm2.8,1.561.573.154.415-1.863-.568-.149-.228,1.067c-.037.112-.154.494-.494.419-.191-.042-.27-.191-.191-.536l.228-1.1-.536-.116-.266,1.183a.615.615,0,0,0,.419.876.764.764,0,0,0,.722-.154l-.075.228Zm1.1-1.332.345.079-.191.988c-.079.382.037.573.419.648a1.725,1.725,0,0,0,.466.037l.075-.382c-.037,0-.116.042-.191,0-.228-.037-.191-.186-.154-.3l.154-.876.419.075.037-.377-.382-.079.116-.568-.573-.116-.112.573-.345-.079-.075.382Zm2.283,2.017a.932.932,0,0,0,1.221-.8.988.988,0,0,0-.876-1.221,1.025,1.025,0,1,0-.345,2.017Zm.079-.34c-.419-.079-.382-.494-.345-.722.117-.61.419-.573.573-.573s.419.112.3.722C625.871,374.421,625.759,374.8,625.377,374.766Zm1.561-1.449-.228,1.905.568.075.116-1.1c.075-.382.266-.466.419-.466.228.037.266.228.228.494l-.154,1.146.573.037.154-1.067c.037-.382.228-.466.377-.466.27.037.27.3.228.494l-.112,1.141.568.037.116-1.141a.666.666,0,0,0-.531-.876c-.116-.037-.382-.037-.689.307a.531.531,0,0,0-.531-.466c-.154-.042-.345,0-.61.266l.037-.266-.531-.079Zm4.151,2.4a.988.988,0,0,0,1.141-.932.974.974,0,0,0-.988-1.1,1.023,1.023,0,1,0-.172,2.036Zm.037-.382c-.419-.037-.419-.415-.419-.685.037-.606.382-.606.494-.606s.466.075.419.685C631.619,374.957,631.545,375.376,631.125,375.335Zm1.943.154h0a.843.843,0,0,0,.61.345c.466,0,.876-.27.932-.992.037-.61-.266-1.03-.8-1.067a.866.866,0,0,0-.606.228l.037-.932-.573-.037-.112,2.627.531.037v-.228Zm.037-.722c0-.154.079-.648.494-.61.307,0,.419.3.419.648-.037.419-.228.648-.494.61S633.105,375.223,633.105,374.766Zm1.863-.932-.037,1.9h.568l.037-1.9Zm0-.27h.568V373.1h-.554v.466Zm.932-.415.037,2.627.573-.042-.037-2.627Zm.992.722.112,1.905.573-.042-.117-1.9Zm0-.307h.568l-.037-.466-.573.042.042.415Zm3.349,2.022.419-.042.531-1.9h0l.154,1.863.61-.037-.191-2.627-.876.075-.494,1.831-.731-1.728-.839.075.154,2.59.647-.037-.154-1.863h.037l.764,1.831Zm3.158-.228a.974.974,0,0,0,.932-1.146,1.093,1.093,0,1,0-.918,1.146Zm-.037-.382c-.419.037-.494-.345-.531-.573-.079-.61.228-.685.382-.685s.466-.037.494.573C643.745,374.519,643.783,374.939,643.363,374.976Zm3.354-.154-.466-2.59-.568.117.191.876a.977.977,0,1,0-.266,1.863.69.69,0,0,0,.494-.377h0l.037.228.573-.116Zm-.69-.839c.079.466-.112.685-.34.727s-.466-.191-.536-.573c-.075-.3,0-.648.307-.722S645.954,373.564,646.028,373.984Zm2.362-.037c0,.191-.149.266-.3.307a.466.466,0,0,1-.573-.382l1.449-.307-.037-.075a.932.932,0,0,0-1.146-.876,1.011,1.011,0,0,0-.876,1.221.932.932,0,0,0,1.22.8c.345-.075.8-.228.839-.8l-.573.112Zm-.932-.419c-.037-.466.3-.531.345-.531.149-.037.419-.037.494.382Zm2.1-1.179-.536.112.466,1.863.536-.154-.228-1.025c-.037-.079-.154-.5.228-.61.3-.079.377.228.419.419l.266,1.067.568-.154-.3-1.141c-.154-.689-.531-.689-.8-.61a.75.75,0,0,0-.568.466l-.037-.228Zm2.4.037c-.079-.266.149-.345.228-.382a.266.266,0,0,1,.377.154v.037c.042.191-.112.191-.494.382-.3.154-.61.34-.494.759.037.154.191.536.759.345a.806.806,0,0,0,.573-.419h0l.112.154.573-.154-.037-.037c-.075,0-.154-.116-.191-.307l-.228-.834c-.037-.228-.228-.689-1.029-.466-.191.075-.839.266-.685.932l.536-.154Zm.759.3a.4.4,0,0,1-.266.573c-.116.037-.3.037-.345-.112-.037-.233.154-.307.27-.382a.96.96,0,0,0,.3-.191l.037.112Z" transform="translate(-590.54 -314.787)" fill="#adadb1" fill-rule="evenodd"/>
</svg>
